%TF.GenerationSoftware,KiCad,Pcbnew,(6.0.0-rc2-14-ga17a58203b)*%
%TF.CreationDate,2022-02-14T14:16:27-08:00*%
%TF.ProjectId,muon,6d756f6e-2e6b-4696-9361-645f70636258,rev?*%
%TF.SameCoordinates,Original*%
%TF.FileFunction,Copper,L2,Bot*%
%TF.FilePolarity,Positive*%
%FSLAX46Y46*%
G04 Gerber Fmt 4.6, Leading zero omitted, Abs format (unit mm)*
G04 Created by KiCad (PCBNEW (6.0.0-rc2-14-ga17a58203b)) date 2022-02-14 14:16:27*
%MOMM*%
%LPD*%
G01*
G04 APERTURE LIST*
%TA.AperFunction,ComponentPad*%
%ADD10C,2.200000*%
%TD*%
%TA.AperFunction,ComponentPad*%
%ADD11O,1.300000X2.600000*%
%TD*%
%TA.AperFunction,ComponentPad*%
%ADD12O,1.300000X2.300000*%
%TD*%
%TA.AperFunction,ComponentPad*%
%ADD13R,1.350000X1.350000*%
%TD*%
%TA.AperFunction,ComponentPad*%
%ADD14O,1.350000X1.350000*%
%TD*%
%TA.AperFunction,ViaPad*%
%ADD15C,0.800000*%
%TD*%
%TA.AperFunction,ViaPad*%
%ADD16C,0.500000*%
%TD*%
%TA.AperFunction,Conductor*%
%ADD17C,0.250000*%
%TD*%
G04 APERTURE END LIST*
D10*
%TO.P,SW2,1,A*%
%TO.N,/SW2*%
X170100000Y-80000000D03*
%TO.P,SW2,2,B*%
%TO.N,GND*%
X163750000Y-82540000D03*
%TD*%
D11*
%TO.P,J2,S1,SHIELD*%
%TO.N,/SH*%
X132680000Y-59950000D03*
D12*
X141320000Y-63775000D03*
X132680000Y-63775000D03*
D11*
X141320000Y-59950000D03*
%TD*%
D13*
%TO.P,J1,1,Pin_1*%
%TO.N,GND*%
X171000000Y-62250000D03*
D14*
%TO.P,J1,2,Pin_2*%
%TO.N,+3V3*%
X169000000Y-62250000D03*
%TO.P,J1,3,Pin_3*%
%TO.N,/SWCLK*%
X167000000Y-62250000D03*
%TO.P,J1,4,Pin_4*%
%TO.N,/SWDIO*%
X165000000Y-62250000D03*
%TO.P,J1,5,Pin_5*%
%TO.N,/RESET*%
X163000000Y-62250000D03*
%TD*%
D10*
%TO.P,SW1,1,A*%
%TO.N,/SW1*%
X144700000Y-80000000D03*
%TO.P,SW1,2,B*%
%TO.N,GND*%
X138350000Y-82540000D03*
%TD*%
D15*
%TO.N,GND*%
X171000000Y-64412500D03*
X129500000Y-63500000D03*
X172000000Y-64412500D03*
D16*
X138500000Y-67500000D03*
D15*
X129500000Y-60500000D03*
%TO.N,/LED_R*%
X163750000Y-93750000D03*
X163750000Y-90750000D03*
%TO.N,/LED_G*%
X164750000Y-92944020D03*
X164750000Y-91500000D03*
D16*
%TO.N,/D+*%
X139000000Y-72000000D03*
X150750000Y-63750000D03*
%TO.N,/D-*%
X150750000Y-62500000D03*
X139000000Y-71250000D03*
%TD*%
D17*
%TO.N,/LED_R*%
X163750000Y-90750000D02*
X163750000Y-93750000D01*
%TO.N,/LED_G*%
X164750000Y-92944020D02*
X164750000Y-91500000D01*
%TO.N,/D+*%
X140450000Y-71800000D02*
X139200000Y-71800000D01*
X150750000Y-63750000D02*
X150250000Y-63250000D01*
X149000000Y-63250000D02*
X140450000Y-71800000D01*
X139200000Y-71800000D02*
X139000000Y-72000000D01*
X150250000Y-63250000D02*
X149000000Y-63250000D01*
%TO.N,/D-*%
X139200000Y-71450000D02*
X139000000Y-71250000D01*
X148855223Y-62900481D02*
X148650480Y-63105225D01*
X148650480Y-63105225D02*
X140305704Y-71450000D01*
X150750000Y-62500000D02*
X150349519Y-62900481D01*
X140305704Y-71450000D02*
X139200000Y-71450000D01*
X150349519Y-62900481D02*
X148855223Y-62900481D01*
%TD*%
%TA.AperFunction,Conductor*%
%TO.N,GND*%
G36*
X131646995Y-58528002D02*
G01*
X131693488Y-58581658D01*
X131703592Y-58651932D01*
X131690382Y-58692668D01*
X131605100Y-58854762D01*
X131603386Y-58860283D01*
X131603384Y-58860287D01*
X131550494Y-59030623D01*
X131541961Y-59058102D01*
X131521500Y-59230982D01*
X131521500Y-60654013D01*
X131536019Y-60812024D01*
X131593814Y-61016948D01*
X131596366Y-61022123D01*
X131596368Y-61022128D01*
X131671863Y-61175215D01*
X131687985Y-61207908D01*
X131815378Y-61378509D01*
X131971729Y-61523037D01*
X132097920Y-61602658D01*
X132139629Y-61628974D01*
X132151799Y-61636653D01*
X132349559Y-61715551D01*
X132355219Y-61716677D01*
X132355223Y-61716678D01*
X132552718Y-61755962D01*
X132552720Y-61755962D01*
X132558385Y-61757089D01*
X132564160Y-61757165D01*
X132564164Y-61757165D01*
X132670839Y-61758561D01*
X132771284Y-61759876D01*
X132776982Y-61758897D01*
X132975436Y-61724797D01*
X132975439Y-61724796D01*
X132981126Y-61723819D01*
X133180884Y-61650125D01*
X133363866Y-61541261D01*
X133523946Y-61400875D01*
X133655762Y-61233667D01*
X133669943Y-61206715D01*
X133736322Y-61080548D01*
X133754900Y-61045238D01*
X133763685Y-61016948D01*
X133816324Y-60847421D01*
X133818039Y-60841898D01*
X133838500Y-60669018D01*
X133838500Y-59245987D01*
X133823981Y-59087976D01*
X133766186Y-58883052D01*
X133672015Y-58692092D01*
X133673808Y-58691208D01*
X133657601Y-58631314D01*
X133679050Y-58563635D01*
X133733684Y-58518297D01*
X133783572Y-58508000D01*
X140218874Y-58508000D01*
X140286995Y-58528002D01*
X140333488Y-58581658D01*
X140343592Y-58651932D01*
X140330382Y-58692668D01*
X140245100Y-58854762D01*
X140243386Y-58860283D01*
X140243384Y-58860287D01*
X140190494Y-59030623D01*
X140181961Y-59058102D01*
X140161500Y-59230982D01*
X140161500Y-60654013D01*
X140176019Y-60812024D01*
X140233814Y-61016948D01*
X140236366Y-61022123D01*
X140236368Y-61022128D01*
X140311863Y-61175215D01*
X140327985Y-61207908D01*
X140455378Y-61378509D01*
X140611729Y-61523037D01*
X140737920Y-61602658D01*
X140779629Y-61628974D01*
X140791799Y-61636653D01*
X140989559Y-61715551D01*
X140995219Y-61716677D01*
X140995223Y-61716678D01*
X141192718Y-61755962D01*
X141192720Y-61755962D01*
X141198385Y-61757089D01*
X141204160Y-61757165D01*
X141204164Y-61757165D01*
X141310839Y-61758561D01*
X141411284Y-61759876D01*
X141416982Y-61758897D01*
X141615436Y-61724797D01*
X141615439Y-61724796D01*
X141621126Y-61723819D01*
X141820884Y-61650125D01*
X142003866Y-61541261D01*
X142163946Y-61400875D01*
X142295762Y-61233667D01*
X142309943Y-61206715D01*
X142376322Y-61080548D01*
X142394900Y-61045238D01*
X142403685Y-61016948D01*
X142456324Y-60847421D01*
X142458039Y-60841898D01*
X142478500Y-60669018D01*
X142478500Y-59245987D01*
X142463981Y-59087976D01*
X142406186Y-58883052D01*
X142312015Y-58692092D01*
X142313808Y-58691208D01*
X142297601Y-58631314D01*
X142319050Y-58563635D01*
X142373684Y-58518297D01*
X142423572Y-58508000D01*
X181366000Y-58508000D01*
X181434121Y-58528002D01*
X181480614Y-58581658D01*
X181492000Y-58634000D01*
X181492000Y-96366000D01*
X181471998Y-96434121D01*
X181418342Y-96480614D01*
X181366000Y-96492000D01*
X128634000Y-96492000D01*
X128565879Y-96471998D01*
X128519386Y-96418342D01*
X128508000Y-96366000D01*
X128508000Y-93750000D01*
X162836496Y-93750000D01*
X162856458Y-93939928D01*
X162915473Y-94121556D01*
X163010960Y-94286944D01*
X163138747Y-94428866D01*
X163293248Y-94541118D01*
X163299276Y-94543802D01*
X163299278Y-94543803D01*
X163461681Y-94616109D01*
X163467712Y-94618794D01*
X163561113Y-94638647D01*
X163648056Y-94657128D01*
X163648061Y-94657128D01*
X163654513Y-94658500D01*
X163845487Y-94658500D01*
X163851939Y-94657128D01*
X163851944Y-94657128D01*
X163938887Y-94638647D01*
X164032288Y-94618794D01*
X164038319Y-94616109D01*
X164200722Y-94543803D01*
X164200724Y-94543802D01*
X164206752Y-94541118D01*
X164361253Y-94428866D01*
X164489040Y-94286944D01*
X164584527Y-94121556D01*
X164643542Y-93939928D01*
X164646400Y-93940857D01*
X164673900Y-93889879D01*
X164736038Y-93855537D01*
X164763448Y-93852520D01*
X164845487Y-93852520D01*
X164851939Y-93851148D01*
X164851944Y-93851148D01*
X164938888Y-93832667D01*
X165032288Y-93812814D01*
X165038319Y-93810129D01*
X165200722Y-93737823D01*
X165200724Y-93737822D01*
X165206752Y-93735138D01*
X165361253Y-93622886D01*
X165489040Y-93480964D01*
X165584527Y-93315576D01*
X165643542Y-93133948D01*
X165652631Y-93047476D01*
X165662814Y-92950585D01*
X165663504Y-92944020D01*
X165643542Y-92754092D01*
X165584527Y-92572464D01*
X165489040Y-92407076D01*
X165415863Y-92325805D01*
X165385147Y-92261799D01*
X165383500Y-92241496D01*
X165383500Y-92202524D01*
X165403502Y-92134403D01*
X165415858Y-92118221D01*
X165489040Y-92036944D01*
X165584527Y-91871556D01*
X165643542Y-91689928D01*
X165663504Y-91500000D01*
X165643542Y-91310072D01*
X165592222Y-91152127D01*
X166331500Y-91152127D01*
X166346457Y-91323087D01*
X166347881Y-91328400D01*
X166347881Y-91328402D01*
X166375700Y-91432221D01*
X166405716Y-91544243D01*
X166408039Y-91549224D01*
X166408039Y-91549225D01*
X166500151Y-91746762D01*
X166500154Y-91746767D01*
X166502477Y-91751749D01*
X166633802Y-91939300D01*
X166795700Y-92101198D01*
X166800208Y-92104355D01*
X166800211Y-92104357D01*
X166878389Y-92159098D01*
X166983251Y-92232523D01*
X166988233Y-92234846D01*
X166988238Y-92234849D01*
X167185775Y-92326961D01*
X167190757Y-92329284D01*
X167196065Y-92330706D01*
X167196067Y-92330707D01*
X167406598Y-92387119D01*
X167406600Y-92387119D01*
X167411913Y-92388543D01*
X167640000Y-92408498D01*
X167868087Y-92388543D01*
X167873400Y-92387119D01*
X167873402Y-92387119D01*
X168083933Y-92330707D01*
X168083935Y-92330706D01*
X168089243Y-92329284D01*
X168094225Y-92326961D01*
X168291762Y-92234849D01*
X168291767Y-92234846D01*
X168296749Y-92232523D01*
X168401611Y-92159098D01*
X168479789Y-92104357D01*
X168479792Y-92104355D01*
X168484300Y-92101198D01*
X168646198Y-91939300D01*
X168777523Y-91751749D01*
X168779846Y-91746767D01*
X168779849Y-91746762D01*
X168871961Y-91549225D01*
X168871961Y-91549224D01*
X168874284Y-91544243D01*
X168904301Y-91432221D01*
X168932119Y-91328402D01*
X168932119Y-91328400D01*
X168933543Y-91323087D01*
X168948500Y-91152127D01*
X168948500Y-89187873D01*
X168933543Y-89016913D01*
X168874284Y-88795757D01*
X168871961Y-88790775D01*
X168779849Y-88593238D01*
X168779846Y-88593233D01*
X168777523Y-88588251D01*
X168646198Y-88400700D01*
X168484300Y-88238802D01*
X168479792Y-88235645D01*
X168479789Y-88235643D01*
X168401611Y-88180902D01*
X168296749Y-88107477D01*
X168291767Y-88105154D01*
X168291762Y-88105151D01*
X168094225Y-88013039D01*
X168094224Y-88013039D01*
X168089243Y-88010716D01*
X168083935Y-88009294D01*
X168083933Y-88009293D01*
X167873402Y-87952881D01*
X167873400Y-87952881D01*
X167868087Y-87951457D01*
X167640000Y-87931502D01*
X167411913Y-87951457D01*
X167406600Y-87952881D01*
X167406598Y-87952881D01*
X167196067Y-88009293D01*
X167196065Y-88009294D01*
X167190757Y-88010716D01*
X167185776Y-88013039D01*
X167185775Y-88013039D01*
X166988238Y-88105151D01*
X166988233Y-88105154D01*
X166983251Y-88107477D01*
X166878389Y-88180902D01*
X166800211Y-88235643D01*
X166800208Y-88235645D01*
X166795700Y-88238802D01*
X166633802Y-88400700D01*
X166502477Y-88588251D01*
X166500154Y-88593233D01*
X166500151Y-88593238D01*
X166408039Y-88790775D01*
X166405716Y-88795757D01*
X166346457Y-89016913D01*
X166331500Y-89187873D01*
X166331500Y-91152127D01*
X165592222Y-91152127D01*
X165584527Y-91128444D01*
X165489040Y-90963056D01*
X165468216Y-90939928D01*
X165365675Y-90826045D01*
X165365674Y-90826044D01*
X165361253Y-90821134D01*
X165206752Y-90708882D01*
X165200724Y-90706198D01*
X165200722Y-90706197D01*
X165038319Y-90633891D01*
X165038318Y-90633891D01*
X165032288Y-90631206D01*
X164938888Y-90611353D01*
X164851944Y-90592872D01*
X164851939Y-90592872D01*
X164845487Y-90591500D01*
X164745298Y-90591500D01*
X164677177Y-90571498D01*
X164630684Y-90517842D01*
X164625465Y-90504437D01*
X164586568Y-90384726D01*
X164584527Y-90378444D01*
X164489040Y-90213056D01*
X164361253Y-90071134D01*
X164206752Y-89958882D01*
X164200724Y-89956198D01*
X164200722Y-89956197D01*
X164038319Y-89883891D01*
X164038318Y-89883891D01*
X164032288Y-89881206D01*
X163938887Y-89861353D01*
X163851944Y-89842872D01*
X163851939Y-89842872D01*
X163845487Y-89841500D01*
X163654513Y-89841500D01*
X163648061Y-89842872D01*
X163648056Y-89842872D01*
X163561113Y-89861353D01*
X163467712Y-89881206D01*
X163461682Y-89883891D01*
X163461681Y-89883891D01*
X163299278Y-89956197D01*
X163299276Y-89956198D01*
X163293248Y-89958882D01*
X163138747Y-90071134D01*
X163010960Y-90213056D01*
X162915473Y-90378444D01*
X162856458Y-90560072D01*
X162855768Y-90566633D01*
X162855768Y-90566635D01*
X162848699Y-90633891D01*
X162836496Y-90750000D01*
X162837186Y-90756565D01*
X162844489Y-90826045D01*
X162856458Y-90939928D01*
X162915473Y-91121556D01*
X163010960Y-91286944D01*
X163084137Y-91368215D01*
X163114853Y-91432221D01*
X163116500Y-91452524D01*
X163116500Y-93047476D01*
X163096498Y-93115597D01*
X163084142Y-93131779D01*
X163010960Y-93213056D01*
X162915473Y-93378444D01*
X162856458Y-93560072D01*
X162836496Y-93750000D01*
X128508000Y-93750000D01*
X128508000Y-91152127D01*
X140931500Y-91152127D01*
X140946457Y-91323087D01*
X140947881Y-91328400D01*
X140947881Y-91328402D01*
X140975700Y-91432221D01*
X141005716Y-91544243D01*
X141008039Y-91549224D01*
X141008039Y-91549225D01*
X141100151Y-91746762D01*
X141100154Y-91746767D01*
X141102477Y-91751749D01*
X141233802Y-91939300D01*
X141395700Y-92101198D01*
X141400208Y-92104355D01*
X141400211Y-92104357D01*
X141478389Y-92159098D01*
X141583251Y-92232523D01*
X141588233Y-92234846D01*
X141588238Y-92234849D01*
X141785775Y-92326961D01*
X141790757Y-92329284D01*
X141796065Y-92330706D01*
X141796067Y-92330707D01*
X142006598Y-92387119D01*
X142006600Y-92387119D01*
X142011913Y-92388543D01*
X142240000Y-92408498D01*
X142468087Y-92388543D01*
X142473400Y-92387119D01*
X142473402Y-92387119D01*
X142683933Y-92330707D01*
X142683935Y-92330706D01*
X142689243Y-92329284D01*
X142694225Y-92326961D01*
X142891762Y-92234849D01*
X142891767Y-92234846D01*
X142896749Y-92232523D01*
X143001611Y-92159098D01*
X143079789Y-92104357D01*
X143079792Y-92104355D01*
X143084300Y-92101198D01*
X143246198Y-91939300D01*
X143377523Y-91751749D01*
X143379846Y-91746767D01*
X143379849Y-91746762D01*
X143471961Y-91549225D01*
X143471961Y-91549224D01*
X143474284Y-91544243D01*
X143504301Y-91432221D01*
X143532119Y-91328402D01*
X143532119Y-91328400D01*
X143533543Y-91323087D01*
X143548500Y-91152127D01*
X143548500Y-89187873D01*
X143533543Y-89016913D01*
X143474284Y-88795757D01*
X143471961Y-88790775D01*
X143379849Y-88593238D01*
X143379846Y-88593233D01*
X143377523Y-88588251D01*
X143246198Y-88400700D01*
X143084300Y-88238802D01*
X143079792Y-88235645D01*
X143079789Y-88235643D01*
X143001611Y-88180902D01*
X142896749Y-88107477D01*
X142891767Y-88105154D01*
X142891762Y-88105151D01*
X142694225Y-88013039D01*
X142694224Y-88013039D01*
X142689243Y-88010716D01*
X142683935Y-88009294D01*
X142683933Y-88009293D01*
X142473402Y-87952881D01*
X142473400Y-87952881D01*
X142468087Y-87951457D01*
X142240000Y-87931502D01*
X142011913Y-87951457D01*
X142006600Y-87952881D01*
X142006598Y-87952881D01*
X141796067Y-88009293D01*
X141796065Y-88009294D01*
X141790757Y-88010716D01*
X141785776Y-88013039D01*
X141785775Y-88013039D01*
X141588238Y-88105151D01*
X141588233Y-88105154D01*
X141583251Y-88107477D01*
X141478389Y-88180902D01*
X141400211Y-88235643D01*
X141400208Y-88235645D01*
X141395700Y-88238802D01*
X141233802Y-88400700D01*
X141102477Y-88588251D01*
X141100154Y-88593233D01*
X141100151Y-88593238D01*
X141008039Y-88790775D01*
X141005716Y-88795757D01*
X140946457Y-89016913D01*
X140931500Y-89187873D01*
X140931500Y-91152127D01*
X128508000Y-91152127D01*
X128508000Y-85015774D01*
X135718102Y-85015774D01*
X135726751Y-85246158D01*
X135774093Y-85471791D01*
X135858776Y-85686221D01*
X135978377Y-85883317D01*
X135981874Y-85887347D01*
X136068438Y-85987103D01*
X136129477Y-86057445D01*
X136133608Y-86060832D01*
X136303627Y-86200240D01*
X136303633Y-86200244D01*
X136307755Y-86203624D01*
X136312391Y-86206263D01*
X136312394Y-86206265D01*
X136421422Y-86268327D01*
X136508114Y-86317675D01*
X136724825Y-86396337D01*
X136730074Y-86397286D01*
X136730077Y-86397287D01*
X136947608Y-86436623D01*
X136947615Y-86436624D01*
X136951692Y-86437361D01*
X136969414Y-86438197D01*
X136974356Y-86438430D01*
X136974363Y-86438430D01*
X136975844Y-86438500D01*
X137137890Y-86438500D01*
X137204809Y-86432822D01*
X137304409Y-86424371D01*
X137304413Y-86424370D01*
X137309720Y-86423920D01*
X137314875Y-86422582D01*
X137314881Y-86422581D01*
X137527703Y-86367343D01*
X137527707Y-86367342D01*
X137532872Y-86366001D01*
X137537738Y-86363809D01*
X137537741Y-86363808D01*
X137738202Y-86273507D01*
X137743075Y-86271312D01*
X137934319Y-86142559D01*
X138101135Y-85983424D01*
X138238754Y-85798458D01*
X138343240Y-85592949D01*
X138356274Y-85550975D01*
X138410024Y-85377871D01*
X138411607Y-85372773D01*
X138412308Y-85367484D01*
X138429493Y-85237821D01*
X139651500Y-85237821D01*
X139691060Y-85550975D01*
X139769557Y-85856702D01*
X139771010Y-85860371D01*
X139771010Y-85860372D01*
X139881279Y-86138878D01*
X139885753Y-86150179D01*
X139887659Y-86153647D01*
X139887660Y-86153648D01*
X140021603Y-86397287D01*
X140037816Y-86426779D01*
X140223346Y-86682140D01*
X140439418Y-86912233D01*
X140682625Y-87113432D01*
X140949131Y-87282562D01*
X140952710Y-87284246D01*
X140952717Y-87284250D01*
X141231144Y-87415267D01*
X141231148Y-87415269D01*
X141234734Y-87416956D01*
X141534928Y-87514495D01*
X141844980Y-87573641D01*
X142081162Y-87588500D01*
X142238838Y-87588500D01*
X142475020Y-87573641D01*
X142785072Y-87514495D01*
X143085266Y-87416956D01*
X143088852Y-87415269D01*
X143088856Y-87415267D01*
X143367283Y-87284250D01*
X143367290Y-87284246D01*
X143370869Y-87282562D01*
X143637375Y-87113432D01*
X143880582Y-86912233D01*
X144096654Y-86682140D01*
X144282184Y-86426779D01*
X144298398Y-86397287D01*
X144432340Y-86153648D01*
X144432341Y-86153647D01*
X144434247Y-86150179D01*
X144438722Y-86138878D01*
X144548990Y-85860372D01*
X144548990Y-85860371D01*
X144550443Y-85856702D01*
X144628940Y-85550975D01*
X144668500Y-85237821D01*
X144668500Y-85015774D01*
X145878102Y-85015774D01*
X145886751Y-85246158D01*
X145934093Y-85471791D01*
X146018776Y-85686221D01*
X146138377Y-85883317D01*
X146141874Y-85887347D01*
X146228438Y-85987103D01*
X146289477Y-86057445D01*
X146293608Y-86060832D01*
X146463627Y-86200240D01*
X146463633Y-86200244D01*
X146467755Y-86203624D01*
X146472391Y-86206263D01*
X146472394Y-86206265D01*
X146581422Y-86268327D01*
X146668114Y-86317675D01*
X146884825Y-86396337D01*
X146890074Y-86397286D01*
X146890077Y-86397287D01*
X147107608Y-86436623D01*
X147107615Y-86436624D01*
X147111692Y-86437361D01*
X147129414Y-86438197D01*
X147134356Y-86438430D01*
X147134363Y-86438430D01*
X147135844Y-86438500D01*
X147297890Y-86438500D01*
X147364809Y-86432822D01*
X147464409Y-86424371D01*
X147464413Y-86424370D01*
X147469720Y-86423920D01*
X147474875Y-86422582D01*
X147474881Y-86422581D01*
X147687703Y-86367343D01*
X147687707Y-86367342D01*
X147692872Y-86366001D01*
X147697738Y-86363809D01*
X147697741Y-86363808D01*
X147898202Y-86273507D01*
X147903075Y-86271312D01*
X148094319Y-86142559D01*
X148261135Y-85983424D01*
X148398754Y-85798458D01*
X148503240Y-85592949D01*
X148516274Y-85550975D01*
X148570024Y-85377871D01*
X148571607Y-85372773D01*
X148572308Y-85367484D01*
X148601198Y-85149511D01*
X148601198Y-85149506D01*
X148601898Y-85144226D01*
X148597076Y-85015774D01*
X161118102Y-85015774D01*
X161126751Y-85246158D01*
X161174093Y-85471791D01*
X161258776Y-85686221D01*
X161378377Y-85883317D01*
X161381874Y-85887347D01*
X161468438Y-85987103D01*
X161529477Y-86057445D01*
X161533608Y-86060832D01*
X161703627Y-86200240D01*
X161703633Y-86200244D01*
X161707755Y-86203624D01*
X161712391Y-86206263D01*
X161712394Y-86206265D01*
X161821422Y-86268327D01*
X161908114Y-86317675D01*
X162124825Y-86396337D01*
X162130074Y-86397286D01*
X162130077Y-86397287D01*
X162347608Y-86436623D01*
X162347615Y-86436624D01*
X162351692Y-86437361D01*
X162369414Y-86438197D01*
X162374356Y-86438430D01*
X162374363Y-86438430D01*
X162375844Y-86438500D01*
X162537890Y-86438500D01*
X162604809Y-86432822D01*
X162704409Y-86424371D01*
X162704413Y-86424370D01*
X162709720Y-86423920D01*
X162714875Y-86422582D01*
X162714881Y-86422581D01*
X162927703Y-86367343D01*
X162927707Y-86367342D01*
X162932872Y-86366001D01*
X162937738Y-86363809D01*
X162937741Y-86363808D01*
X163138202Y-86273507D01*
X163143075Y-86271312D01*
X163334319Y-86142559D01*
X163501135Y-85983424D01*
X163638754Y-85798458D01*
X163743240Y-85592949D01*
X163756274Y-85550975D01*
X163810024Y-85377871D01*
X163811607Y-85372773D01*
X163812308Y-85367484D01*
X163829493Y-85237821D01*
X165051500Y-85237821D01*
X165091060Y-85550975D01*
X165169557Y-85856702D01*
X165171010Y-85860371D01*
X165171010Y-85860372D01*
X165281279Y-86138878D01*
X165285753Y-86150179D01*
X165287659Y-86153647D01*
X165287660Y-86153648D01*
X165421603Y-86397287D01*
X165437816Y-86426779D01*
X165623346Y-86682140D01*
X165839418Y-86912233D01*
X166082625Y-87113432D01*
X166349131Y-87282562D01*
X166352710Y-87284246D01*
X166352717Y-87284250D01*
X166631144Y-87415267D01*
X166631148Y-87415269D01*
X166634734Y-87416956D01*
X166934928Y-87514495D01*
X167244980Y-87573641D01*
X167481162Y-87588500D01*
X167638838Y-87588500D01*
X167875020Y-87573641D01*
X168185072Y-87514495D01*
X168485266Y-87416956D01*
X168488852Y-87415269D01*
X168488856Y-87415267D01*
X168767283Y-87284250D01*
X168767290Y-87284246D01*
X168770869Y-87282562D01*
X169037375Y-87113432D01*
X169280582Y-86912233D01*
X169496654Y-86682140D01*
X169682184Y-86426779D01*
X169698398Y-86397287D01*
X169832340Y-86153648D01*
X169832341Y-86153647D01*
X169834247Y-86150179D01*
X169838722Y-86138878D01*
X169948990Y-85860372D01*
X169948990Y-85860371D01*
X169950443Y-85856702D01*
X170028940Y-85550975D01*
X170068500Y-85237821D01*
X170068500Y-85015774D01*
X171278102Y-85015774D01*
X171286751Y-85246158D01*
X171334093Y-85471791D01*
X171418776Y-85686221D01*
X171538377Y-85883317D01*
X171541874Y-85887347D01*
X171628438Y-85987103D01*
X171689477Y-86057445D01*
X171693608Y-86060832D01*
X171863627Y-86200240D01*
X171863633Y-86200244D01*
X171867755Y-86203624D01*
X171872391Y-86206263D01*
X171872394Y-86206265D01*
X171981422Y-86268327D01*
X172068114Y-86317675D01*
X172284825Y-86396337D01*
X172290074Y-86397286D01*
X172290077Y-86397287D01*
X172507608Y-86436623D01*
X172507615Y-86436624D01*
X172511692Y-86437361D01*
X172529414Y-86438197D01*
X172534356Y-86438430D01*
X172534363Y-86438430D01*
X172535844Y-86438500D01*
X172697890Y-86438500D01*
X172764809Y-86432822D01*
X172864409Y-86424371D01*
X172864413Y-86424370D01*
X172869720Y-86423920D01*
X172874875Y-86422582D01*
X172874881Y-86422581D01*
X173087703Y-86367343D01*
X173087707Y-86367342D01*
X173092872Y-86366001D01*
X173097738Y-86363809D01*
X173097741Y-86363808D01*
X173298202Y-86273507D01*
X173303075Y-86271312D01*
X173494319Y-86142559D01*
X173661135Y-85983424D01*
X173798754Y-85798458D01*
X173903240Y-85592949D01*
X173916274Y-85550975D01*
X173970024Y-85377871D01*
X173971607Y-85372773D01*
X173972308Y-85367484D01*
X174001198Y-85149511D01*
X174001198Y-85149506D01*
X174001898Y-85144226D01*
X173993249Y-84913842D01*
X173945907Y-84688209D01*
X173861224Y-84473779D01*
X173741623Y-84276683D01*
X173654755Y-84176576D01*
X173594023Y-84106588D01*
X173594021Y-84106586D01*
X173590523Y-84102555D01*
X173548970Y-84068484D01*
X173416373Y-83959760D01*
X173416367Y-83959756D01*
X173412245Y-83956376D01*
X173407609Y-83953737D01*
X173407606Y-83953735D01*
X173216529Y-83844968D01*
X173211886Y-83842325D01*
X172995175Y-83763663D01*
X172989926Y-83762714D01*
X172989923Y-83762713D01*
X172772392Y-83723377D01*
X172772385Y-83723376D01*
X172768308Y-83722639D01*
X172750586Y-83721803D01*
X172745644Y-83721570D01*
X172745637Y-83721570D01*
X172744156Y-83721500D01*
X172582110Y-83721500D01*
X172515191Y-83727178D01*
X172415591Y-83735629D01*
X172415587Y-83735630D01*
X172410280Y-83736080D01*
X172405125Y-83737418D01*
X172405119Y-83737419D01*
X172192297Y-83792657D01*
X172192293Y-83792658D01*
X172187128Y-83793999D01*
X172182262Y-83796191D01*
X172182259Y-83796192D01*
X172074287Y-83844830D01*
X171976925Y-83888688D01*
X171785681Y-84017441D01*
X171618865Y-84176576D01*
X171481246Y-84361542D01*
X171376760Y-84567051D01*
X171375178Y-84572145D01*
X171375177Y-84572148D01*
X171313115Y-84772020D01*
X171308393Y-84787227D01*
X171307692Y-84792516D01*
X171292304Y-84908623D01*
X171278102Y-85015774D01*
X170068500Y-85015774D01*
X170068500Y-84922179D01*
X170028940Y-84609025D01*
X169950443Y-84303298D01*
X169900270Y-84176576D01*
X169835702Y-84013495D01*
X169835700Y-84013490D01*
X169834247Y-84009821D01*
X169767653Y-83888688D01*
X169684093Y-83736693D01*
X169684091Y-83736690D01*
X169682184Y-83733221D01*
X169496654Y-83477860D01*
X169317423Y-83286999D01*
X169283297Y-83250658D01*
X169283296Y-83250657D01*
X169280582Y-83247767D01*
X169037375Y-83046568D01*
X168770869Y-82877438D01*
X168767290Y-82875754D01*
X168767283Y-82875750D01*
X168488856Y-82744733D01*
X168488852Y-82744731D01*
X168485266Y-82743044D01*
X168185072Y-82645505D01*
X167875020Y-82586359D01*
X167638838Y-82571500D01*
X167481162Y-82571500D01*
X167244980Y-82586359D01*
X166934928Y-82645505D01*
X166634734Y-82743044D01*
X166631148Y-82744731D01*
X166631144Y-82744733D01*
X166352717Y-82875750D01*
X166352710Y-82875754D01*
X166349131Y-82877438D01*
X166082625Y-83046568D01*
X165839418Y-83247767D01*
X165836704Y-83250657D01*
X165836703Y-83250658D01*
X165802577Y-83286999D01*
X165623346Y-83477860D01*
X165437816Y-83733221D01*
X165435909Y-83736690D01*
X165435907Y-83736693D01*
X165352347Y-83888688D01*
X165285753Y-84009821D01*
X165284300Y-84013490D01*
X165284298Y-84013495D01*
X165219730Y-84176576D01*
X165169557Y-84303298D01*
X165091060Y-84609025D01*
X165051500Y-84922179D01*
X165051500Y-85237821D01*
X163829493Y-85237821D01*
X163841198Y-85149511D01*
X163841198Y-85149506D01*
X163841898Y-85144226D01*
X163833249Y-84913842D01*
X163785907Y-84688209D01*
X163701224Y-84473779D01*
X163698456Y-84469217D01*
X163698453Y-84469211D01*
X163621943Y-84343126D01*
X163603704Y-84274512D01*
X163625456Y-84206930D01*
X163680292Y-84161836D01*
X163739553Y-84152150D01*
X163745065Y-84152584D01*
X163754930Y-84152584D01*
X163997390Y-84133502D01*
X164007137Y-84131959D01*
X164243624Y-84075183D01*
X164253009Y-84072134D01*
X164477700Y-83979064D01*
X164486494Y-83974583D01*
X164681167Y-83855287D01*
X164690627Y-83844830D01*
X164686844Y-83836054D01*
X163391922Y-82541132D01*
X164114408Y-82541132D01*
X164114539Y-82542965D01*
X164118790Y-82549580D01*
X165043010Y-83473800D01*
X165055390Y-83480560D01*
X165063040Y-83474833D01*
X165184583Y-83276494D01*
X165189064Y-83267700D01*
X165282134Y-83043009D01*
X165285183Y-83033624D01*
X165341959Y-82797137D01*
X165343502Y-82787390D01*
X165362584Y-82544930D01*
X165362584Y-82535070D01*
X165343502Y-82292610D01*
X165341959Y-82282863D01*
X165285183Y-82046376D01*
X165282134Y-82036991D01*
X165189064Y-81812300D01*
X165184583Y-81803506D01*
X165065287Y-81608833D01*
X165054830Y-81599373D01*
X165046054Y-81603156D01*
X164122022Y-82527188D01*
X164114408Y-82541132D01*
X163391922Y-82541132D01*
X162456990Y-81606200D01*
X162444610Y-81599440D01*
X162436960Y-81605167D01*
X162315417Y-81803506D01*
X162310936Y-81812300D01*
X162217866Y-82036991D01*
X162214817Y-82046376D01*
X162158041Y-82282863D01*
X162156498Y-82292610D01*
X162137416Y-82535070D01*
X162137416Y-82544930D01*
X162156498Y-82787390D01*
X162158041Y-82797137D01*
X162214817Y-83033624D01*
X162217866Y-83043009D01*
X162310936Y-83267700D01*
X162315417Y-83276494D01*
X162442496Y-83483867D01*
X162448294Y-83491847D01*
X162470017Y-83517282D01*
X162499048Y-83582072D01*
X162488443Y-83652272D01*
X162441568Y-83705594D01*
X162384860Y-83724661D01*
X162337663Y-83728665D01*
X162255591Y-83735629D01*
X162255587Y-83735630D01*
X162250280Y-83736080D01*
X162245125Y-83737418D01*
X162245119Y-83737419D01*
X162032297Y-83792657D01*
X162032293Y-83792658D01*
X162027128Y-83793999D01*
X162022262Y-83796191D01*
X162022259Y-83796192D01*
X161914287Y-83844830D01*
X161816925Y-83888688D01*
X161625681Y-84017441D01*
X161458865Y-84176576D01*
X161321246Y-84361542D01*
X161216760Y-84567051D01*
X161215178Y-84572145D01*
X161215177Y-84572148D01*
X161153115Y-84772020D01*
X161148393Y-84787227D01*
X161147692Y-84792516D01*
X161132304Y-84908623D01*
X161118102Y-85015774D01*
X148597076Y-85015774D01*
X148593249Y-84913842D01*
X148545907Y-84688209D01*
X148461224Y-84473779D01*
X148341623Y-84276683D01*
X148254755Y-84176576D01*
X148194023Y-84106588D01*
X148194021Y-84106586D01*
X148190523Y-84102555D01*
X148148970Y-84068484D01*
X148016373Y-83959760D01*
X148016367Y-83959756D01*
X148012245Y-83956376D01*
X148007609Y-83953737D01*
X148007606Y-83953735D01*
X147816529Y-83844968D01*
X147811886Y-83842325D01*
X147595175Y-83763663D01*
X147589926Y-83762714D01*
X147589923Y-83762713D01*
X147372392Y-83723377D01*
X147372385Y-83723376D01*
X147368308Y-83722639D01*
X147350586Y-83721803D01*
X147345644Y-83721570D01*
X147345637Y-83721570D01*
X147344156Y-83721500D01*
X147182110Y-83721500D01*
X147115191Y-83727178D01*
X147015591Y-83735629D01*
X147015587Y-83735630D01*
X147010280Y-83736080D01*
X147005125Y-83737418D01*
X147005119Y-83737419D01*
X146792297Y-83792657D01*
X146792293Y-83792658D01*
X146787128Y-83793999D01*
X146782262Y-83796191D01*
X146782259Y-83796192D01*
X146674287Y-83844830D01*
X146576925Y-83888688D01*
X146385681Y-84017441D01*
X146218865Y-84176576D01*
X146081246Y-84361542D01*
X145976760Y-84567051D01*
X145975178Y-84572145D01*
X145975177Y-84572148D01*
X145913115Y-84772020D01*
X145908393Y-84787227D01*
X145907692Y-84792516D01*
X145892304Y-84908623D01*
X145878102Y-85015774D01*
X144668500Y-85015774D01*
X144668500Y-84922179D01*
X144628940Y-84609025D01*
X144550443Y-84303298D01*
X144500270Y-84176576D01*
X144435702Y-84013495D01*
X144435700Y-84013490D01*
X144434247Y-84009821D01*
X144367653Y-83888688D01*
X144284093Y-83736693D01*
X144284091Y-83736690D01*
X144282184Y-83733221D01*
X144096654Y-83477860D01*
X143917423Y-83286999D01*
X143883297Y-83250658D01*
X143883296Y-83250657D01*
X143880582Y-83247767D01*
X143637375Y-83046568D01*
X143370869Y-82877438D01*
X143367290Y-82875754D01*
X143367283Y-82875750D01*
X143088856Y-82744733D01*
X143088852Y-82744731D01*
X143085266Y-82743044D01*
X142785072Y-82645505D01*
X142475020Y-82586359D01*
X142238838Y-82571500D01*
X142081162Y-82571500D01*
X141844980Y-82586359D01*
X141534928Y-82645505D01*
X141234734Y-82743044D01*
X141231148Y-82744731D01*
X141231144Y-82744733D01*
X140952717Y-82875750D01*
X140952710Y-82875754D01*
X140949131Y-82877438D01*
X140682625Y-83046568D01*
X140439418Y-83247767D01*
X140436704Y-83250657D01*
X140436703Y-83250658D01*
X140402577Y-83286999D01*
X140223346Y-83477860D01*
X140037816Y-83733221D01*
X140035909Y-83736690D01*
X140035907Y-83736693D01*
X139952347Y-83888688D01*
X139885753Y-84009821D01*
X139884300Y-84013490D01*
X139884298Y-84013495D01*
X139819730Y-84176576D01*
X139769557Y-84303298D01*
X139691060Y-84609025D01*
X139651500Y-84922179D01*
X139651500Y-85237821D01*
X138429493Y-85237821D01*
X138441198Y-85149511D01*
X138441198Y-85149506D01*
X138441898Y-85144226D01*
X138433249Y-84913842D01*
X138385907Y-84688209D01*
X138301224Y-84473779D01*
X138298456Y-84469217D01*
X138298453Y-84469211D01*
X138221943Y-84343126D01*
X138203704Y-84274512D01*
X138225456Y-84206930D01*
X138280292Y-84161836D01*
X138339553Y-84152150D01*
X138345065Y-84152584D01*
X138354930Y-84152584D01*
X138597390Y-84133502D01*
X138607137Y-84131959D01*
X138843624Y-84075183D01*
X138853009Y-84072134D01*
X139077700Y-83979064D01*
X139086494Y-83974583D01*
X139281167Y-83855287D01*
X139290627Y-83844830D01*
X139286844Y-83836054D01*
X137991922Y-82541132D01*
X138714408Y-82541132D01*
X138714539Y-82542965D01*
X138718790Y-82549580D01*
X139643010Y-83473800D01*
X139655390Y-83480560D01*
X139663040Y-83474833D01*
X139784583Y-83276494D01*
X139789064Y-83267700D01*
X139882134Y-83043009D01*
X139885183Y-83033624D01*
X139941959Y-82797137D01*
X139943502Y-82787390D01*
X139962584Y-82544930D01*
X139962584Y-82535070D01*
X139943502Y-82292610D01*
X139941959Y-82282863D01*
X139885183Y-82046376D01*
X139882134Y-82036991D01*
X139789064Y-81812300D01*
X139784583Y-81803506D01*
X139665287Y-81608833D01*
X139654830Y-81599373D01*
X139646054Y-81603156D01*
X138722022Y-82527188D01*
X138714408Y-82541132D01*
X137991922Y-82541132D01*
X137056990Y-81606200D01*
X137044610Y-81599440D01*
X137036960Y-81605167D01*
X136915417Y-81803506D01*
X136910936Y-81812300D01*
X136817866Y-82036991D01*
X136814817Y-82046376D01*
X136758041Y-82282863D01*
X136756498Y-82292610D01*
X136737416Y-82535070D01*
X136737416Y-82544930D01*
X136756498Y-82787390D01*
X136758041Y-82797137D01*
X136814817Y-83033624D01*
X136817866Y-83043009D01*
X136910936Y-83267700D01*
X136915417Y-83276494D01*
X137042496Y-83483867D01*
X137048294Y-83491847D01*
X137070017Y-83517282D01*
X137099048Y-83582072D01*
X137088443Y-83652272D01*
X137041568Y-83705594D01*
X136984860Y-83724661D01*
X136937663Y-83728665D01*
X136855591Y-83735629D01*
X136855587Y-83735630D01*
X136850280Y-83736080D01*
X136845125Y-83737418D01*
X136845119Y-83737419D01*
X136632297Y-83792657D01*
X136632293Y-83792658D01*
X136627128Y-83793999D01*
X136622262Y-83796191D01*
X136622259Y-83796192D01*
X136514287Y-83844830D01*
X136416925Y-83888688D01*
X136225681Y-84017441D01*
X136058865Y-84176576D01*
X135921246Y-84361542D01*
X135816760Y-84567051D01*
X135815178Y-84572145D01*
X135815177Y-84572148D01*
X135753115Y-84772020D01*
X135748393Y-84787227D01*
X135747692Y-84792516D01*
X135732304Y-84908623D01*
X135718102Y-85015774D01*
X128508000Y-85015774D01*
X128508000Y-81235170D01*
X137409373Y-81235170D01*
X137413156Y-81243946D01*
X138337188Y-82167978D01*
X138351132Y-82175592D01*
X138352965Y-82175461D01*
X138359580Y-82171210D01*
X139283800Y-81246990D01*
X139290560Y-81234610D01*
X139284833Y-81226960D01*
X139086494Y-81105417D01*
X139077700Y-81100936D01*
X138853009Y-81007866D01*
X138843624Y-81004817D01*
X138607137Y-80948041D01*
X138597390Y-80946498D01*
X138354930Y-80927416D01*
X138345070Y-80927416D01*
X138102610Y-80946498D01*
X138092863Y-80948041D01*
X137856376Y-81004817D01*
X137846991Y-81007866D01*
X137622300Y-81100936D01*
X137613506Y-81105417D01*
X137418833Y-81224713D01*
X137409373Y-81235170D01*
X128508000Y-81235170D01*
X128508000Y-80000000D01*
X143086526Y-80000000D01*
X143106391Y-80252403D01*
X143165495Y-80498591D01*
X143262384Y-80732502D01*
X143394672Y-80948376D01*
X143559102Y-81140898D01*
X143751624Y-81305328D01*
X143967498Y-81437616D01*
X143972068Y-81439509D01*
X143972072Y-81439511D01*
X144196836Y-81532611D01*
X144201409Y-81534505D01*
X144286032Y-81554821D01*
X144442784Y-81592454D01*
X144442790Y-81592455D01*
X144447597Y-81593609D01*
X144700000Y-81613474D01*
X144952403Y-81593609D01*
X144957210Y-81592455D01*
X144957216Y-81592454D01*
X145113968Y-81554821D01*
X145198591Y-81534505D01*
X145203164Y-81532611D01*
X145427928Y-81439511D01*
X145427932Y-81439509D01*
X145432502Y-81437616D01*
X145648376Y-81305328D01*
X145730520Y-81235170D01*
X162809373Y-81235170D01*
X162813156Y-81243946D01*
X163737188Y-82167978D01*
X163751132Y-82175592D01*
X163752965Y-82175461D01*
X163759580Y-82171210D01*
X164683800Y-81246990D01*
X164690560Y-81234610D01*
X164684833Y-81226960D01*
X164486494Y-81105417D01*
X164477700Y-81100936D01*
X164253009Y-81007866D01*
X164243624Y-81004817D01*
X164007137Y-80948041D01*
X163997390Y-80946498D01*
X163754930Y-80927416D01*
X163745070Y-80927416D01*
X163502610Y-80946498D01*
X163492863Y-80948041D01*
X163256376Y-81004817D01*
X163246991Y-81007866D01*
X163022300Y-81100936D01*
X163013506Y-81105417D01*
X162818833Y-81224713D01*
X162809373Y-81235170D01*
X145730520Y-81235170D01*
X145840898Y-81140898D01*
X146005328Y-80948376D01*
X146137616Y-80732502D01*
X146234505Y-80498591D01*
X146293609Y-80252403D01*
X146313474Y-80000000D01*
X168486526Y-80000000D01*
X168506391Y-80252403D01*
X168565495Y-80498591D01*
X168662384Y-80732502D01*
X168794672Y-80948376D01*
X168959102Y-81140898D01*
X169151624Y-81305328D01*
X169367498Y-81437616D01*
X169372068Y-81439509D01*
X169372072Y-81439511D01*
X169596836Y-81532611D01*
X169601409Y-81534505D01*
X169686032Y-81554821D01*
X169842784Y-81592454D01*
X169842790Y-81592455D01*
X169847597Y-81593609D01*
X170100000Y-81613474D01*
X170352403Y-81593609D01*
X170357210Y-81592455D01*
X170357216Y-81592454D01*
X170513968Y-81554821D01*
X170598591Y-81534505D01*
X170603164Y-81532611D01*
X170827928Y-81439511D01*
X170827932Y-81439509D01*
X170832502Y-81437616D01*
X171048376Y-81305328D01*
X171240898Y-81140898D01*
X171405328Y-80948376D01*
X171537616Y-80732502D01*
X171634505Y-80498591D01*
X171693609Y-80252403D01*
X171713474Y-80000000D01*
X171693609Y-79747597D01*
X171634505Y-79501409D01*
X171537616Y-79267498D01*
X171405328Y-79051624D01*
X171240898Y-78859102D01*
X171048376Y-78694672D01*
X170832502Y-78562384D01*
X170827932Y-78560491D01*
X170827928Y-78560489D01*
X170603164Y-78467389D01*
X170603162Y-78467388D01*
X170598591Y-78465495D01*
X170513968Y-78445179D01*
X170357216Y-78407546D01*
X170357210Y-78407545D01*
X170352403Y-78406391D01*
X170100000Y-78386526D01*
X169847597Y-78406391D01*
X169842790Y-78407545D01*
X169842784Y-78407546D01*
X169686032Y-78445179D01*
X169601409Y-78465495D01*
X169596838Y-78467388D01*
X169596836Y-78467389D01*
X169372072Y-78560489D01*
X169372068Y-78560491D01*
X169367498Y-78562384D01*
X169151624Y-78694672D01*
X168959102Y-78859102D01*
X168794672Y-79051624D01*
X168662384Y-79267498D01*
X168565495Y-79501409D01*
X168506391Y-79747597D01*
X168486526Y-80000000D01*
X146313474Y-80000000D01*
X146293609Y-79747597D01*
X146234505Y-79501409D01*
X146137616Y-79267498D01*
X146005328Y-79051624D01*
X145840898Y-78859102D01*
X145648376Y-78694672D01*
X145432502Y-78562384D01*
X145427932Y-78560491D01*
X145427928Y-78560489D01*
X145203164Y-78467389D01*
X145203162Y-78467388D01*
X145198591Y-78465495D01*
X145113968Y-78445179D01*
X144957216Y-78407546D01*
X144957210Y-78407545D01*
X144952403Y-78406391D01*
X144700000Y-78386526D01*
X144447597Y-78406391D01*
X144442790Y-78407545D01*
X144442784Y-78407546D01*
X144286032Y-78445179D01*
X144201409Y-78465495D01*
X144196838Y-78467388D01*
X144196836Y-78467389D01*
X143972072Y-78560489D01*
X143972068Y-78560491D01*
X143967498Y-78562384D01*
X143751624Y-78694672D01*
X143559102Y-78859102D01*
X143394672Y-79051624D01*
X143262384Y-79267498D01*
X143165495Y-79501409D01*
X143106391Y-79747597D01*
X143086526Y-80000000D01*
X128508000Y-80000000D01*
X128508000Y-71989343D01*
X138236775Y-71989343D01*
X138253381Y-72158699D01*
X138307094Y-72320167D01*
X138310741Y-72326189D01*
X138310742Y-72326191D01*
X138377065Y-72435702D01*
X138395246Y-72465723D01*
X138513455Y-72588132D01*
X138655846Y-72681310D01*
X138662450Y-72683766D01*
X138662452Y-72683767D01*
X138698844Y-72697301D01*
X138815341Y-72740626D01*
X138984015Y-72763132D01*
X138991026Y-72762494D01*
X138991030Y-72762494D01*
X139146462Y-72748348D01*
X139153483Y-72747709D01*
X139160185Y-72745531D01*
X139160187Y-72745531D01*
X139308623Y-72697301D01*
X139308626Y-72697300D01*
X139315322Y-72695124D01*
X139461490Y-72607990D01*
X139466584Y-72603139D01*
X139466588Y-72603136D01*
X139533833Y-72539099D01*
X139584721Y-72490639D01*
X139588622Y-72484767D01*
X139593146Y-72479376D01*
X139595415Y-72481280D01*
X139639619Y-72444117D01*
X139690244Y-72433500D01*
X140371233Y-72433500D01*
X140382416Y-72434027D01*
X140389909Y-72435702D01*
X140397835Y-72435453D01*
X140397836Y-72435453D01*
X140457986Y-72433562D01*
X140461945Y-72433500D01*
X140489856Y-72433500D01*
X140493791Y-72433003D01*
X140493856Y-72432995D01*
X140505693Y-72432062D01*
X140537951Y-72431048D01*
X140541970Y-72430922D01*
X140549889Y-72430673D01*
X140569343Y-72425021D01*
X140588700Y-72421013D01*
X140600930Y-72419468D01*
X140600931Y-72419468D01*
X140608797Y-72418474D01*
X140616168Y-72415555D01*
X140616170Y-72415555D01*
X140649912Y-72402196D01*
X140661142Y-72398351D01*
X140695983Y-72388229D01*
X140695984Y-72388229D01*
X140703593Y-72386018D01*
X140710412Y-72381985D01*
X140710417Y-72381983D01*
X140721028Y-72375707D01*
X140738776Y-72367012D01*
X140757617Y-72359552D01*
X140793387Y-72333564D01*
X140803307Y-72327048D01*
X140834535Y-72308580D01*
X140834538Y-72308578D01*
X140841362Y-72304542D01*
X140855683Y-72290221D01*
X140870717Y-72277380D01*
X140880694Y-72270131D01*
X140887107Y-72265472D01*
X140915298Y-72231395D01*
X140923288Y-72222616D01*
X149225500Y-63920405D01*
X149287812Y-63886379D01*
X149314595Y-63883500D01*
X149904125Y-63883500D01*
X149972246Y-63903502D01*
X150018739Y-63957158D01*
X150023677Y-63969711D01*
X150057094Y-64070167D01*
X150060741Y-64076189D01*
X150060742Y-64076191D01*
X150074497Y-64098902D01*
X150145246Y-64215723D01*
X150263455Y-64338132D01*
X150405846Y-64431310D01*
X150412450Y-64433766D01*
X150412452Y-64433767D01*
X150448844Y-64447301D01*
X150565341Y-64490626D01*
X150734015Y-64513132D01*
X150741026Y-64512494D01*
X150741030Y-64512494D01*
X150896462Y-64498348D01*
X150903483Y-64497709D01*
X150910185Y-64495531D01*
X150910187Y-64495531D01*
X151058623Y-64447301D01*
X151058626Y-64447300D01*
X151065322Y-64445124D01*
X151211490Y-64357990D01*
X151216584Y-64353139D01*
X151216588Y-64353136D01*
X151283833Y-64289099D01*
X151334721Y-64240639D01*
X151428891Y-64098902D01*
X151489319Y-63939825D01*
X151490397Y-63932158D01*
X151502760Y-63844182D01*
X151513001Y-63771313D01*
X151513299Y-63750000D01*
X151494331Y-63580892D01*
X151488720Y-63564778D01*
X151469183Y-63508678D01*
X151438368Y-63420189D01*
X151433639Y-63412620D01*
X151385643Y-63335813D01*
X151348192Y-63275879D01*
X151286725Y-63213981D01*
X151252918Y-63151550D01*
X151258230Y-63080752D01*
X151289239Y-63033951D01*
X151305425Y-63018537D01*
X151334721Y-62990639D01*
X151343440Y-62977517D01*
X151411360Y-62875288D01*
X151428891Y-62848902D01*
X151489319Y-62689825D01*
X151513001Y-62521313D01*
X151513299Y-62500000D01*
X151494331Y-62330892D01*
X151490129Y-62318824D01*
X151456716Y-62222876D01*
X151455327Y-62218887D01*
X161811837Y-62218887D01*
X161826063Y-62435933D01*
X161827484Y-62441529D01*
X161827485Y-62441534D01*
X161877076Y-62636796D01*
X161879605Y-62646753D01*
X161970668Y-62844285D01*
X161980398Y-62858052D01*
X162064099Y-62976486D01*
X162096204Y-63021914D01*
X162252009Y-63173692D01*
X162432863Y-63294536D01*
X162438171Y-63296817D01*
X162438172Y-63296817D01*
X162627409Y-63378119D01*
X162627412Y-63378120D01*
X162632712Y-63380397D01*
X162638342Y-63381671D01*
X162837984Y-63426846D01*
X162844860Y-63428402D01*
X162850631Y-63428629D01*
X162850633Y-63428629D01*
X162919336Y-63431328D01*
X163062205Y-63436941D01*
X163277466Y-63405730D01*
X163282930Y-63403875D01*
X163282935Y-63403874D01*
X163477963Y-63337671D01*
X163477968Y-63337669D01*
X163483435Y-63335813D01*
X163673213Y-63229532D01*
X163840446Y-63090446D01*
X163900252Y-63018537D01*
X163959189Y-62978953D01*
X164030171Y-62977517D01*
X164092913Y-63017258D01*
X164096204Y-63021914D01*
X164100346Y-63025949D01*
X164100348Y-63025951D01*
X164166554Y-63090446D01*
X164252009Y-63173692D01*
X164432863Y-63294536D01*
X164438171Y-63296817D01*
X164438172Y-63296817D01*
X164627409Y-63378119D01*
X164627412Y-63378120D01*
X164632712Y-63380397D01*
X164638342Y-63381671D01*
X164837984Y-63426846D01*
X164844860Y-63428402D01*
X164850631Y-63428629D01*
X164850633Y-63428629D01*
X164919336Y-63431328D01*
X165062205Y-63436941D01*
X165277466Y-63405730D01*
X165282930Y-63403875D01*
X165282935Y-63403874D01*
X165477963Y-63337671D01*
X165477968Y-63337669D01*
X165483435Y-63335813D01*
X165673213Y-63229532D01*
X165840446Y-63090446D01*
X165900252Y-63018537D01*
X165959189Y-62978953D01*
X166030171Y-62977517D01*
X166092913Y-63017258D01*
X166096204Y-63021914D01*
X166100346Y-63025949D01*
X166100348Y-63025951D01*
X166166554Y-63090446D01*
X166252009Y-63173692D01*
X166432863Y-63294536D01*
X166438171Y-63296817D01*
X166438172Y-63296817D01*
X166627409Y-63378119D01*
X166627412Y-63378120D01*
X166632712Y-63380397D01*
X166638342Y-63381671D01*
X166837984Y-63426846D01*
X166844860Y-63428402D01*
X166850631Y-63428629D01*
X166850633Y-63428629D01*
X166919336Y-63431328D01*
X167062205Y-63436941D01*
X167277466Y-63405730D01*
X167282930Y-63403875D01*
X167282935Y-63403874D01*
X167477963Y-63337671D01*
X167477968Y-63337669D01*
X167483435Y-63335813D01*
X167673213Y-63229532D01*
X167840446Y-63090446D01*
X167900252Y-63018537D01*
X167959189Y-62978953D01*
X168030171Y-62977517D01*
X168092913Y-63017258D01*
X168096204Y-63021914D01*
X168100346Y-63025949D01*
X168100348Y-63025951D01*
X168166554Y-63090446D01*
X168252009Y-63173692D01*
X168432863Y-63294536D01*
X168438171Y-63296817D01*
X168438172Y-63296817D01*
X168627409Y-63378119D01*
X168627412Y-63378120D01*
X168632712Y-63380397D01*
X168638342Y-63381671D01*
X168837984Y-63426846D01*
X168844860Y-63428402D01*
X168850631Y-63428629D01*
X168850633Y-63428629D01*
X168919336Y-63431328D01*
X169062205Y-63436941D01*
X169277466Y-63405730D01*
X169282930Y-63403875D01*
X169282935Y-63403874D01*
X169477963Y-63337671D01*
X169477968Y-63337669D01*
X169483435Y-63335813D01*
X169673213Y-63229532D01*
X169722316Y-63188693D01*
X169787481Y-63160512D01*
X169857537Y-63172036D01*
X169903712Y-63210002D01*
X169956715Y-63280724D01*
X169969276Y-63293285D01*
X170071351Y-63369786D01*
X170086946Y-63378324D01*
X170207394Y-63423478D01*
X170222649Y-63427105D01*
X170273514Y-63432631D01*
X170280328Y-63433000D01*
X170727885Y-63433000D01*
X170743124Y-63428525D01*
X170744329Y-63427135D01*
X170746000Y-63419452D01*
X170746000Y-63414884D01*
X171254000Y-63414884D01*
X171258475Y-63430123D01*
X171259865Y-63431328D01*
X171267548Y-63432999D01*
X171719669Y-63432999D01*
X171726490Y-63432629D01*
X171777352Y-63427105D01*
X171792604Y-63423479D01*
X171913054Y-63378324D01*
X171928649Y-63369786D01*
X172030724Y-63293285D01*
X172043285Y-63280724D01*
X172119786Y-63178649D01*
X172128324Y-63163054D01*
X172173478Y-63042606D01*
X172177105Y-63027351D01*
X172182631Y-62976486D01*
X172183000Y-62969672D01*
X172183000Y-62522115D01*
X172178525Y-62506876D01*
X172177135Y-62505671D01*
X172169452Y-62504000D01*
X171272115Y-62504000D01*
X171256876Y-62508475D01*
X171255671Y-62509865D01*
X171254000Y-62517548D01*
X171254000Y-63414884D01*
X170746000Y-63414884D01*
X170746000Y-61977885D01*
X171254000Y-61977885D01*
X171258475Y-61993124D01*
X171259865Y-61994329D01*
X171267548Y-61996000D01*
X172164884Y-61996000D01*
X172180123Y-61991525D01*
X172181328Y-61990135D01*
X172182999Y-61982452D01*
X172182999Y-61530331D01*
X172182629Y-61523510D01*
X172177105Y-61472648D01*
X172173479Y-61457396D01*
X172128324Y-61336946D01*
X172119786Y-61321351D01*
X172043285Y-61219276D01*
X172030724Y-61206715D01*
X171928649Y-61130214D01*
X171913054Y-61121676D01*
X171792606Y-61076522D01*
X171777351Y-61072895D01*
X171726486Y-61067369D01*
X171719672Y-61067000D01*
X171272115Y-61067000D01*
X171256876Y-61071475D01*
X171255671Y-61072865D01*
X171254000Y-61080548D01*
X171254000Y-61977885D01*
X170746000Y-61977885D01*
X170746000Y-61085116D01*
X170741525Y-61069877D01*
X170740135Y-61068672D01*
X170732452Y-61067001D01*
X170280331Y-61067001D01*
X170273510Y-61067371D01*
X170222648Y-61072895D01*
X170207396Y-61076521D01*
X170086946Y-61121676D01*
X170071351Y-61130214D01*
X169969276Y-61206715D01*
X169956715Y-61219276D01*
X169905934Y-61287033D01*
X169849075Y-61329548D01*
X169778257Y-61334574D01*
X169728403Y-61311430D01*
X169727801Y-61310968D01*
X169723556Y-61307044D01*
X169539599Y-61190976D01*
X169337572Y-61110376D01*
X169148993Y-61072865D01*
X169129905Y-61069068D01*
X169129904Y-61069068D01*
X169124239Y-61067941D01*
X169118464Y-61067865D01*
X169118460Y-61067865D01*
X169009419Y-61066438D01*
X168906746Y-61065094D01*
X168901049Y-61066073D01*
X168901048Y-61066073D01*
X168698065Y-61100952D01*
X168698062Y-61100953D01*
X168692375Y-61101930D01*
X168488307Y-61177214D01*
X168301376Y-61288427D01*
X168137842Y-61431842D01*
X168134270Y-61436372D01*
X168134269Y-61436374D01*
X168100007Y-61479834D01*
X168042125Y-61520947D01*
X167971205Y-61524239D01*
X167909763Y-61488667D01*
X167900100Y-61477215D01*
X167886737Y-61459319D01*
X167886730Y-61459312D01*
X167883280Y-61454691D01*
X167854446Y-61428037D01*
X167727796Y-61310963D01*
X167727793Y-61310961D01*
X167723556Y-61307044D01*
X167539599Y-61190976D01*
X167337572Y-61110376D01*
X167148993Y-61072865D01*
X167129905Y-61069068D01*
X167129904Y-61069068D01*
X167124239Y-61067941D01*
X167118464Y-61067865D01*
X167118460Y-61067865D01*
X167009419Y-61066438D01*
X166906746Y-61065094D01*
X166901049Y-61066073D01*
X166901048Y-61066073D01*
X166698065Y-61100952D01*
X166698062Y-61100953D01*
X166692375Y-61101930D01*
X166488307Y-61177214D01*
X166301376Y-61288427D01*
X166137842Y-61431842D01*
X166134270Y-61436372D01*
X166134269Y-61436374D01*
X166100007Y-61479834D01*
X166042125Y-61520947D01*
X165971205Y-61524239D01*
X165909763Y-61488667D01*
X165900100Y-61477215D01*
X165886737Y-61459319D01*
X165886730Y-61459312D01*
X165883280Y-61454691D01*
X165854446Y-61428037D01*
X165727796Y-61310963D01*
X165727793Y-61310961D01*
X165723556Y-61307044D01*
X165539599Y-61190976D01*
X165337572Y-61110376D01*
X165148993Y-61072865D01*
X165129905Y-61069068D01*
X165129904Y-61069068D01*
X165124239Y-61067941D01*
X165118464Y-61067865D01*
X165118460Y-61067865D01*
X165009419Y-61066438D01*
X164906746Y-61065094D01*
X164901049Y-61066073D01*
X164901048Y-61066073D01*
X164698065Y-61100952D01*
X164698062Y-61100953D01*
X164692375Y-61101930D01*
X164488307Y-61177214D01*
X164301376Y-61288427D01*
X164137842Y-61431842D01*
X164134270Y-61436372D01*
X164134269Y-61436374D01*
X164100007Y-61479834D01*
X164042125Y-61520947D01*
X163971205Y-61524239D01*
X163909763Y-61488667D01*
X163900100Y-61477215D01*
X163886737Y-61459319D01*
X163886730Y-61459312D01*
X163883280Y-61454691D01*
X163854446Y-61428037D01*
X163727796Y-61310963D01*
X163727793Y-61310961D01*
X163723556Y-61307044D01*
X163539599Y-61190976D01*
X163337572Y-61110376D01*
X163148993Y-61072865D01*
X163129905Y-61069068D01*
X163129904Y-61069068D01*
X163124239Y-61067941D01*
X163118464Y-61067865D01*
X163118460Y-61067865D01*
X163009419Y-61066438D01*
X162906746Y-61065094D01*
X162901049Y-61066073D01*
X162901048Y-61066073D01*
X162698065Y-61100952D01*
X162698062Y-61100953D01*
X162692375Y-61101930D01*
X162488307Y-61177214D01*
X162301376Y-61288427D01*
X162137842Y-61431842D01*
X162134270Y-61436373D01*
X162051583Y-61541261D01*
X162003181Y-61602658D01*
X161901905Y-61795154D01*
X161900192Y-61800671D01*
X161840059Y-61994329D01*
X161837403Y-62002882D01*
X161811837Y-62218887D01*
X151455327Y-62218887D01*
X151438368Y-62170189D01*
X151432383Y-62160610D01*
X151403959Y-62115124D01*
X151348192Y-62025879D01*
X151305068Y-61982452D01*
X151233248Y-61910129D01*
X151228286Y-61905132D01*
X151212039Y-61894821D01*
X151100529Y-61824055D01*
X151084608Y-61813951D01*
X150924300Y-61756868D01*
X150755329Y-61736720D01*
X150748326Y-61737456D01*
X150748325Y-61737456D01*
X150593101Y-61753770D01*
X150593097Y-61753771D01*
X150586093Y-61754507D01*
X150579422Y-61756778D01*
X150431673Y-61807075D01*
X150431670Y-61807076D01*
X150425003Y-61809346D01*
X150419005Y-61813036D01*
X150419003Y-61813037D01*
X150286065Y-61894821D01*
X150286063Y-61894823D01*
X150280066Y-61898512D01*
X150275033Y-61903441D01*
X150179126Y-61997361D01*
X150158486Y-62017573D01*
X150154675Y-62023487D01*
X150154673Y-62023489D01*
X150071092Y-62153180D01*
X150066304Y-62160610D01*
X150063894Y-62167232D01*
X150057763Y-62184076D01*
X150015669Y-62241247D01*
X149949347Y-62266585D01*
X149939362Y-62266981D01*
X148933989Y-62266981D01*
X148922806Y-62266454D01*
X148915313Y-62264779D01*
X148907387Y-62265028D01*
X148907386Y-62265028D01*
X148847236Y-62266919D01*
X148843277Y-62266981D01*
X148815367Y-62266981D01*
X148811434Y-62267478D01*
X148811431Y-62267478D01*
X148811366Y-62267486D01*
X148799528Y-62268419D01*
X148755332Y-62269808D01*
X148747719Y-62272020D01*
X148747718Y-62272020D01*
X148735882Y-62275459D01*
X148716518Y-62279469D01*
X148696426Y-62282007D01*
X148689059Y-62284924D01*
X148689054Y-62284925D01*
X148655325Y-62298279D01*
X148644097Y-62302124D01*
X148618631Y-62309523D01*
X148601628Y-62314463D01*
X148584184Y-62324779D01*
X148566440Y-62333472D01*
X148547606Y-62340929D01*
X148541191Y-62345590D01*
X148541189Y-62345591D01*
X148511840Y-62366914D01*
X148501918Y-62373432D01*
X148480692Y-62385985D01*
X148463859Y-62395940D01*
X148449536Y-62410263D01*
X148434504Y-62423102D01*
X148418116Y-62435009D01*
X148413064Y-62441116D01*
X148413063Y-62441117D01*
X148389933Y-62469077D01*
X148381943Y-62477857D01*
X148174344Y-62685456D01*
X148174341Y-62685460D01*
X140080204Y-70779595D01*
X140017892Y-70813621D01*
X139991109Y-70816500D01*
X139690297Y-70816500D01*
X139622176Y-70796498D01*
X139598771Y-70775304D01*
X139598192Y-70775879D01*
X139483248Y-70660129D01*
X139478286Y-70655132D01*
X139462039Y-70644821D01*
X139423406Y-70620304D01*
X139334608Y-70563951D01*
X139174300Y-70506868D01*
X139005329Y-70486720D01*
X138998326Y-70487456D01*
X138998325Y-70487456D01*
X138843101Y-70503770D01*
X138843097Y-70503771D01*
X138836093Y-70504507D01*
X138829422Y-70506778D01*
X138681673Y-70557075D01*
X138681670Y-70557076D01*
X138675003Y-70559346D01*
X138669005Y-70563036D01*
X138669003Y-70563037D01*
X138536065Y-70644821D01*
X138536063Y-70644823D01*
X138530066Y-70648512D01*
X138408486Y-70767573D01*
X138404675Y-70773487D01*
X138404673Y-70773489D01*
X138376954Y-70816500D01*
X138316304Y-70910610D01*
X138258103Y-71070516D01*
X138236775Y-71239343D01*
X138253381Y-71408699D01*
X138307094Y-71570167D01*
X138309408Y-71573988D01*
X138319672Y-71643210D01*
X138313278Y-71668922D01*
X138260513Y-71813894D01*
X138258103Y-71820516D01*
X138236775Y-71989343D01*
X128508000Y-71989343D01*
X128508000Y-64329013D01*
X131521500Y-64329013D01*
X131536019Y-64487024D01*
X131537587Y-64492583D01*
X131537587Y-64492584D01*
X131539033Y-64497709D01*
X131593814Y-64691948D01*
X131687985Y-64882908D01*
X131815378Y-65053509D01*
X131971729Y-65198037D01*
X132151799Y-65311653D01*
X132349559Y-65390551D01*
X132355219Y-65391677D01*
X132355223Y-65391678D01*
X132552718Y-65430962D01*
X132552720Y-65430962D01*
X132558385Y-65432089D01*
X132564160Y-65432165D01*
X132564164Y-65432165D01*
X132670839Y-65433561D01*
X132771284Y-65434876D01*
X132776982Y-65433897D01*
X132975436Y-65399797D01*
X132975439Y-65399796D01*
X132981126Y-65398819D01*
X133180884Y-65325125D01*
X133363866Y-65216261D01*
X133523946Y-65075875D01*
X133655762Y-64908667D01*
X133672041Y-64877727D01*
X133752207Y-64725356D01*
X133754900Y-64720238D01*
X133763685Y-64691948D01*
X133816324Y-64522421D01*
X133818039Y-64516898D01*
X133838500Y-64344018D01*
X133838500Y-63984500D01*
X133858502Y-63916379D01*
X133912158Y-63869886D01*
X133964500Y-63858500D01*
X134170610Y-63858500D01*
X134305255Y-63843397D01*
X134319622Y-63838394D01*
X134469894Y-63786064D01*
X134469897Y-63786062D01*
X134476552Y-63783745D01*
X134490190Y-63775223D01*
X134624402Y-63691359D01*
X134630376Y-63687626D01*
X134642612Y-63675475D01*
X134754085Y-63564778D01*
X134754088Y-63564774D01*
X134759082Y-63559815D01*
X134856273Y-63406666D01*
X134882508Y-63332989D01*
X134914757Y-63242425D01*
X134914758Y-63242420D01*
X134917119Y-63235790D01*
X134918307Y-63225834D01*
X134937762Y-63062673D01*
X134938596Y-63055680D01*
X134937402Y-63044320D01*
X139186404Y-63044320D01*
X139187140Y-63051323D01*
X139187140Y-63051324D01*
X139203008Y-63202293D01*
X139205364Y-63224712D01*
X139263818Y-63396421D01*
X139358862Y-63550912D01*
X139363793Y-63555947D01*
X139363795Y-63555950D01*
X139480843Y-63675475D01*
X139485771Y-63680507D01*
X139638238Y-63778765D01*
X139644858Y-63781174D01*
X139644861Y-63781176D01*
X139802066Y-63838394D01*
X139808685Y-63840803D01*
X139948769Y-63858500D01*
X140035500Y-63858500D01*
X140103621Y-63878502D01*
X140150114Y-63932158D01*
X140161500Y-63984500D01*
X140161500Y-64329013D01*
X140176019Y-64487024D01*
X140177587Y-64492583D01*
X140177587Y-64492584D01*
X140179033Y-64497709D01*
X140233814Y-64691948D01*
X140327985Y-64882908D01*
X140455378Y-65053509D01*
X140611729Y-65198037D01*
X140791799Y-65311653D01*
X140989559Y-65390551D01*
X140995219Y-65391677D01*
X140995223Y-65391678D01*
X141192718Y-65430962D01*
X141192720Y-65430962D01*
X141198385Y-65432089D01*
X141204160Y-65432165D01*
X141204164Y-65432165D01*
X141310839Y-65433561D01*
X141411284Y-65434876D01*
X141416982Y-65433897D01*
X141615436Y-65399797D01*
X141615439Y-65399796D01*
X141621126Y-65398819D01*
X141820884Y-65325125D01*
X142003866Y-65216261D01*
X142163946Y-65075875D01*
X142295762Y-64908667D01*
X142312041Y-64877727D01*
X142392207Y-64725356D01*
X142394900Y-64720238D01*
X142403685Y-64691948D01*
X142456324Y-64522421D01*
X142458039Y-64516898D01*
X142478500Y-64344018D01*
X142478500Y-63220987D01*
X142466505Y-63090446D01*
X142464510Y-63068730D01*
X142464509Y-63068727D01*
X142463981Y-63062976D01*
X142459948Y-63048676D01*
X142407754Y-62863611D01*
X142407753Y-62863609D01*
X142406186Y-62858052D01*
X142396811Y-62839040D01*
X142314570Y-62672273D01*
X142312015Y-62667092D01*
X142184622Y-62496491D01*
X142028271Y-62351963D01*
X141848201Y-62238347D01*
X141650441Y-62159449D01*
X141644781Y-62158323D01*
X141644777Y-62158322D01*
X141447282Y-62119038D01*
X141447280Y-62119038D01*
X141441615Y-62117911D01*
X141435840Y-62117835D01*
X141435836Y-62117835D01*
X141329161Y-62116439D01*
X141228716Y-62115124D01*
X141223019Y-62116103D01*
X141223018Y-62116103D01*
X141024564Y-62150203D01*
X141024561Y-62150204D01*
X141018874Y-62151181D01*
X140819116Y-62224875D01*
X140752044Y-62264779D01*
X140652104Y-62324238D01*
X140636134Y-62333739D01*
X140613405Y-62353672D01*
X140599582Y-62365794D01*
X140535178Y-62395671D01*
X140464845Y-62385985D01*
X140448254Y-62376975D01*
X140361762Y-62321235D01*
X140355142Y-62318826D01*
X140355139Y-62318824D01*
X140197934Y-62261606D01*
X140197933Y-62261606D01*
X140191315Y-62259197D01*
X140051231Y-62241500D01*
X139954390Y-62241500D01*
X139819745Y-62256603D01*
X139813092Y-62258920D01*
X139813091Y-62258920D01*
X139655106Y-62313936D01*
X139655103Y-62313938D01*
X139648448Y-62316255D01*
X139642471Y-62319990D01*
X139642469Y-62319991D01*
X139511953Y-62401546D01*
X139494624Y-62412374D01*
X139489628Y-62417335D01*
X139489627Y-62417336D01*
X139370915Y-62535222D01*
X139370912Y-62535226D01*
X139365918Y-62540185D01*
X139268727Y-62693334D01*
X139266362Y-62699976D01*
X139210243Y-62857575D01*
X139210242Y-62857580D01*
X139207881Y-62864210D01*
X139207048Y-62871198D01*
X139207047Y-62871201D01*
X139200845Y-62923213D01*
X139186404Y-63044320D01*
X134937402Y-63044320D01*
X134936223Y-63033102D01*
X134920372Y-62882288D01*
X134920371Y-62882286D01*
X134919636Y-62875288D01*
X134861182Y-62703579D01*
X134766138Y-62549088D01*
X134761207Y-62544053D01*
X134761205Y-62544050D01*
X134644157Y-62424525D01*
X134644156Y-62424524D01*
X134639229Y-62419493D01*
X134486762Y-62321235D01*
X134480142Y-62318826D01*
X134480139Y-62318824D01*
X134322934Y-62261606D01*
X134322933Y-62261606D01*
X134316315Y-62259197D01*
X134176231Y-62241500D01*
X133829390Y-62241500D01*
X133694745Y-62256603D01*
X133688092Y-62258920D01*
X133688091Y-62258920D01*
X133530106Y-62313936D01*
X133530103Y-62313938D01*
X133523448Y-62316255D01*
X133494193Y-62334536D01*
X133425826Y-62353672D01*
X133360188Y-62334244D01*
X133354876Y-62330892D01*
X133208201Y-62238347D01*
X133010441Y-62159449D01*
X133004781Y-62158323D01*
X133004777Y-62158322D01*
X132807282Y-62119038D01*
X132807280Y-62119038D01*
X132801615Y-62117911D01*
X132795840Y-62117835D01*
X132795836Y-62117835D01*
X132689161Y-62116439D01*
X132588716Y-62115124D01*
X132583019Y-62116103D01*
X132583018Y-62116103D01*
X132384564Y-62150203D01*
X132384561Y-62150204D01*
X132378874Y-62151181D01*
X132179116Y-62224875D01*
X132112044Y-62264779D01*
X132012104Y-62324238D01*
X131996134Y-62333739D01*
X131836054Y-62474125D01*
X131704238Y-62641333D01*
X131701549Y-62646444D01*
X131701547Y-62646447D01*
X131667979Y-62710250D01*
X131605100Y-62829762D01*
X131603386Y-62835283D01*
X131603384Y-62835287D01*
X131561657Y-62969672D01*
X131541961Y-63033102D01*
X131521500Y-63205982D01*
X131521500Y-64329013D01*
X128508000Y-64329013D01*
X128508000Y-58634000D01*
X128528002Y-58565879D01*
X128581658Y-58519386D01*
X128634000Y-58508000D01*
X131578874Y-58508000D01*
X131646995Y-58528002D01*
G37*
%TD.AperFunction*%
%TD*%
M02*
