%TF.GenerationSoftware,KiCad,Pcbnew,(6.0.0-rc2-14-ga17a58203b)*%
%TF.CreationDate,2022-02-14T14:16:27-08:00*%
%TF.ProjectId,muon,6d756f6e-2e6b-4696-9361-645f70636258,rev?*%
%TF.SameCoordinates,Original*%
%TF.FileFunction,Soldermask,Top*%
%TF.FilePolarity,Negative*%
%FSLAX46Y46*%
G04 Gerber Fmt 4.6, Leading zero omitted, Abs format (unit mm)*
G04 Created by KiCad (PCBNEW (6.0.0-rc2-14-ga17a58203b)) date 2022-02-14 14:16:27*
%MOMM*%
%LPD*%
G01*
G04 APERTURE LIST*
G04 Aperture macros list*
%AMRoundRect*
0 Rectangle with rounded corners*
0 $1 Rounding radius*
0 $2 $3 $4 $5 $6 $7 $8 $9 X,Y pos of 4 corners*
0 Add a 4 corners polygon primitive as box body*
4,1,4,$2,$3,$4,$5,$6,$7,$8,$9,$2,$3,0*
0 Add four circle primitives for the rounded corners*
1,1,$1+$1,$2,$3*
1,1,$1+$1,$4,$5*
1,1,$1+$1,$6,$7*
1,1,$1+$1,$8,$9*
0 Add four rect primitives between the rounded corners*
20,1,$1+$1,$2,$3,$4,$5,0*
20,1,$1+$1,$4,$5,$6,$7,0*
20,1,$1+$1,$6,$7,$8,$9,0*
20,1,$1+$1,$8,$9,$2,$3,0*%
G04 Aperture macros list end*
%ADD10RoundRect,0.147500X0.172500X-0.147500X0.172500X0.147500X-0.172500X0.147500X-0.172500X-0.147500X0*%
%ADD11C,4.000000*%
%ADD12C,1.700000*%
%ADD13C,2.200000*%
%ADD14RoundRect,0.135000X0.185000X-0.135000X0.185000X0.135000X-0.185000X0.135000X-0.185000X-0.135000X0*%
%ADD15RoundRect,0.200000X0.200000X0.275000X-0.200000X0.275000X-0.200000X-0.275000X0.200000X-0.275000X0*%
%ADD16C,0.600000*%
%ADD17R,1.000000X2.000000*%
%ADD18O,0.850000X0.600000*%
%ADD19R,0.520000X1.000000*%
%ADD20R,0.270000X1.000000*%
%ADD21O,1.300000X2.600000*%
%ADD22O,1.300000X2.300000*%
%ADD23RoundRect,0.006000X-0.094000X0.319000X-0.094000X-0.319000X0.094000X-0.319000X0.094000X0.319000X0*%
%ADD24R,0.940000X0.300000*%
%ADD25RoundRect,0.147500X-0.172500X0.147500X-0.172500X-0.147500X0.172500X-0.147500X0.172500X0.147500X0*%
%ADD26O,1.600000X3.450000*%
%ADD27RoundRect,0.300000X-0.300000X-0.300000X0.300000X-0.300000X0.300000X0.300000X-0.300000X0.300000X0*%
%ADD28R,1.350000X1.350000*%
%ADD29O,1.350000X1.350000*%
%ADD30RoundRect,0.140000X0.140000X0.170000X-0.140000X0.170000X-0.140000X-0.170000X0.140000X-0.170000X0*%
%ADD31R,0.889000X1.168400*%
%ADD32R,0.482600X1.168400*%
%ADD33RoundRect,0.140000X-0.170000X0.140000X-0.170000X-0.140000X0.170000X-0.140000X0.170000X0.140000X0*%
%ADD34RoundRect,0.150000X0.825000X0.150000X-0.825000X0.150000X-0.825000X-0.150000X0.825000X-0.150000X0*%
%ADD35RoundRect,0.135000X0.135000X0.185000X-0.135000X0.185000X-0.135000X-0.185000X0.135000X-0.185000X0*%
G04 APERTURE END LIST*
D10*
%TO.C,F1*%
X139500000Y-66985000D03*
X139500000Y-66015000D03*
%TD*%
D11*
%TO.C,SW2*%
X167560000Y-85080000D03*
D12*
X172640000Y-85080000D03*
X162480000Y-85080000D03*
D13*
X170100000Y-80000000D03*
X163750000Y-82540000D03*
%TD*%
D14*
%TO.C,R3*%
X138500000Y-67010000D03*
X138500000Y-65990000D03*
%TD*%
D15*
%TO.C,R1*%
X168575000Y-60000000D03*
X166925000Y-60000000D03*
%TD*%
D16*
%TO.C,J2*%
X140000000Y-63050000D03*
D17*
X135600000Y-59950000D03*
D18*
X134000000Y-63050000D03*
D17*
X138400000Y-59950000D03*
D19*
X140100000Y-64150000D03*
X139350000Y-64150000D03*
D20*
X138750000Y-64150000D03*
X137250000Y-64150000D03*
X136250000Y-64150000D03*
X135250000Y-64150000D03*
D19*
X134650000Y-64150000D03*
X133900000Y-64150000D03*
X133900000Y-64150000D03*
X134650000Y-64150000D03*
D20*
X135750000Y-64150000D03*
X136750000Y-64150000D03*
X137750000Y-64150000D03*
X138250000Y-64150000D03*
D19*
X139350000Y-64150000D03*
X140100000Y-64150000D03*
D21*
X132680000Y-59950000D03*
D22*
X141320000Y-63775000D03*
X132680000Y-63775000D03*
D21*
X141320000Y-59950000D03*
%TD*%
D23*
%TO.C,U2*%
X143400000Y-71625000D03*
X143000000Y-71625000D03*
X142600000Y-71625000D03*
X142600000Y-72875000D03*
X143000000Y-72875000D03*
X143400000Y-72875000D03*
D24*
X143000000Y-72250000D03*
%TD*%
D14*
%TO.C,R4*%
X136000000Y-67010000D03*
X136000000Y-65990000D03*
%TD*%
D25*
%TO.C,FB1*%
X139500000Y-68015000D03*
X139500000Y-68985000D03*
%TD*%
D26*
%TO.C,D3*%
X167640000Y-90170000D03*
D27*
X165790000Y-89370000D03*
X165790000Y-90970000D03*
X169490000Y-90970000D03*
X169490000Y-89370000D03*
%TD*%
D28*
%TO.C,J1*%
X171000000Y-62250000D03*
D29*
X169000000Y-62250000D03*
X167000000Y-62250000D03*
X165000000Y-62250000D03*
X163000000Y-62250000D03*
%TD*%
D30*
%TO.C,C2*%
X141980000Y-74000000D03*
X141020000Y-74000000D03*
%TD*%
D12*
%TO.C,SW1*%
X147240000Y-85080000D03*
D11*
X142160000Y-85080000D03*
D12*
X137080000Y-85080000D03*
D13*
X144700000Y-80000000D03*
X138350000Y-82540000D03*
%TD*%
D31*
%TO.C,D1*%
X140500000Y-70500000D03*
D32*
X138803200Y-70500000D03*
X138803199Y-72532000D03*
X140703201Y-72532000D03*
%TD*%
D26*
%TO.C,D2*%
X142240000Y-90170000D03*
D27*
X140390000Y-89370000D03*
X140390000Y-90970000D03*
X144090000Y-90970000D03*
X144090000Y-89370000D03*
%TD*%
D33*
%TO.C,C3*%
X144500000Y-71520000D03*
X144500000Y-72480000D03*
%TD*%
D30*
%TO.C,C1*%
X130480000Y-61500000D03*
X129520000Y-61500000D03*
%TD*%
D34*
%TO.C,U1*%
X157475000Y-68810000D03*
X157475000Y-67540000D03*
X157475000Y-66270000D03*
X157475000Y-65000000D03*
X157475000Y-63730000D03*
X157475000Y-62460000D03*
X157475000Y-61190000D03*
X152525000Y-61190000D03*
X152525000Y-62460000D03*
X152525000Y-63730000D03*
X152525000Y-65000000D03*
X152525000Y-66270000D03*
X152525000Y-67540000D03*
X152525000Y-68810000D03*
%TD*%
D35*
%TO.C,R2*%
X130510000Y-62500000D03*
X129490000Y-62500000D03*
%TD*%
M02*
