%TF.GenerationSoftware,KiCad,Pcbnew,(6.0.0-rc2-14-ga17a58203b)*%
%TF.CreationDate,2022-02-14T14:16:27-08:00*%
%TF.ProjectId,muon,6d756f6e-2e6b-4696-9361-645f70636258,rev?*%
%TF.SameCoordinates,Original*%
%TF.FileFunction,Legend,Top*%
%TF.FilePolarity,Positive*%
%FSLAX46Y46*%
G04 Gerber Fmt 4.6, Leading zero omitted, Abs format (unit mm)*
G04 Created by KiCad (PCBNEW (6.0.0-rc2-14-ga17a58203b)) date 2022-02-14 14:16:27*
%MOMM*%
%LPD*%
G01*
G04 APERTURE LIST*
%ADD10C,0.150000*%
%ADD11C,0.120000*%
%ADD12C,0.127000*%
%ADD13C,0.200000*%
%ADD14C,0.260000*%
G04 APERTURE END LIST*
D10*
%TO.C,F1*%
X140928571Y-66625146D02*
X140928571Y-66958479D01*
X141452380Y-66958479D02*
X140452380Y-66958479D01*
X140452380Y-66482289D01*
X141452380Y-65577527D02*
X141452380Y-66148955D01*
X141452380Y-65863241D02*
X140452380Y-65863241D01*
X140595238Y-65958479D01*
X140690476Y-66053717D01*
X140738095Y-66148955D01*
%TO.C,SW2*%
X166226666Y-77610761D02*
X166369523Y-77658380D01*
X166607619Y-77658380D01*
X166702857Y-77610761D01*
X166750476Y-77563142D01*
X166798095Y-77467904D01*
X166798095Y-77372666D01*
X166750476Y-77277428D01*
X166702857Y-77229809D01*
X166607619Y-77182190D01*
X166417142Y-77134571D01*
X166321904Y-77086952D01*
X166274285Y-77039333D01*
X166226666Y-76944095D01*
X166226666Y-76848857D01*
X166274285Y-76753619D01*
X166321904Y-76706000D01*
X166417142Y-76658380D01*
X166655238Y-76658380D01*
X166798095Y-76706000D01*
X167131428Y-76658380D02*
X167369523Y-77658380D01*
X167560000Y-76944095D01*
X167750476Y-77658380D01*
X167988571Y-76658380D01*
X168321904Y-76753619D02*
X168369523Y-76706000D01*
X168464761Y-76658380D01*
X168702857Y-76658380D01*
X168798095Y-76706000D01*
X168845714Y-76753619D01*
X168893333Y-76848857D01*
X168893333Y-76944095D01*
X168845714Y-77086952D01*
X168274285Y-77658380D01*
X168893333Y-77658380D01*
%TO.C,R3*%
X138952380Y-68666666D02*
X138476190Y-69000000D01*
X138952380Y-69238095D02*
X137952380Y-69238095D01*
X137952380Y-68857142D01*
X138000000Y-68761904D01*
X138047619Y-68714285D01*
X138142857Y-68666666D01*
X138285714Y-68666666D01*
X138380952Y-68714285D01*
X138428571Y-68761904D01*
X138476190Y-68857142D01*
X138476190Y-69238095D01*
X137952380Y-68333333D02*
X137952380Y-67714285D01*
X138333333Y-68047619D01*
X138333333Y-67904761D01*
X138380952Y-67809523D01*
X138428571Y-67761904D01*
X138523809Y-67714285D01*
X138761904Y-67714285D01*
X138857142Y-67761904D01*
X138904761Y-67809523D01*
X138952380Y-67904761D01*
X138952380Y-68190476D01*
X138904761Y-68285714D01*
X138857142Y-68333333D01*
%TO.C,R1*%
X164833333Y-60452380D02*
X164500000Y-59976190D01*
X164261904Y-60452380D02*
X164261904Y-59452380D01*
X164642857Y-59452380D01*
X164738095Y-59500000D01*
X164785714Y-59547619D01*
X164833333Y-59642857D01*
X164833333Y-59785714D01*
X164785714Y-59880952D01*
X164738095Y-59928571D01*
X164642857Y-59976190D01*
X164261904Y-59976190D01*
X165785714Y-60452380D02*
X165214285Y-60452380D01*
X165500000Y-60452380D02*
X165500000Y-59452380D01*
X165404761Y-59595238D01*
X165309523Y-59690476D01*
X165214285Y-59738095D01*
%TO.C,J2*%
X136666666Y-61402380D02*
X136666666Y-62116666D01*
X136619047Y-62259523D01*
X136523809Y-62354761D01*
X136380952Y-62402380D01*
X136285714Y-62402380D01*
X137095238Y-61497619D02*
X137142857Y-61450000D01*
X137238095Y-61402380D01*
X137476190Y-61402380D01*
X137571428Y-61450000D01*
X137619047Y-61497619D01*
X137666666Y-61592857D01*
X137666666Y-61688095D01*
X137619047Y-61830952D01*
X137047619Y-62402380D01*
X137666666Y-62402380D01*
%TO.C,U2*%
X142452380Y-75261904D02*
X143261904Y-75261904D01*
X143357142Y-75214285D01*
X143404761Y-75166666D01*
X143452380Y-75071428D01*
X143452380Y-74880952D01*
X143404761Y-74785714D01*
X143357142Y-74738095D01*
X143261904Y-74690476D01*
X142452380Y-74690476D01*
X142547619Y-74261904D02*
X142500000Y-74214285D01*
X142452380Y-74119047D01*
X142452380Y-73880952D01*
X142500000Y-73785714D01*
X142547619Y-73738095D01*
X142642857Y-73690476D01*
X142738095Y-73690476D01*
X142880952Y-73738095D01*
X143452380Y-74309523D01*
X143452380Y-73690476D01*
%TO.C,R4*%
X136452380Y-68666666D02*
X135976190Y-69000000D01*
X136452380Y-69238095D02*
X135452380Y-69238095D01*
X135452380Y-68857142D01*
X135500000Y-68761904D01*
X135547619Y-68714285D01*
X135642857Y-68666666D01*
X135785714Y-68666666D01*
X135880952Y-68714285D01*
X135928571Y-68761904D01*
X135976190Y-68857142D01*
X135976190Y-69238095D01*
X135785714Y-67809523D02*
X136452380Y-67809523D01*
X135404761Y-68047619D02*
X136119047Y-68285714D01*
X136119047Y-67666666D01*
%TO.C,FB1*%
X140928571Y-69333333D02*
X140928571Y-69666666D01*
X141452380Y-69666666D02*
X140452380Y-69666666D01*
X140452380Y-69190476D01*
X140928571Y-68476190D02*
X140976190Y-68333333D01*
X141023809Y-68285714D01*
X141119047Y-68238095D01*
X141261904Y-68238095D01*
X141357142Y-68285714D01*
X141404761Y-68333333D01*
X141452380Y-68428571D01*
X141452380Y-68809523D01*
X140452380Y-68809523D01*
X140452380Y-68476190D01*
X140500000Y-68380952D01*
X140547619Y-68333333D01*
X140642857Y-68285714D01*
X140738095Y-68285714D01*
X140833333Y-68333333D01*
X140880952Y-68380952D01*
X140928571Y-68476190D01*
X140928571Y-68809523D01*
X141452380Y-67285714D02*
X141452380Y-67857142D01*
X141452380Y-67571428D02*
X140452380Y-67571428D01*
X140595238Y-67666666D01*
X140690476Y-67761904D01*
X140738095Y-67857142D01*
%TO.C,D3*%
X166901904Y-93452380D02*
X166901904Y-92452380D01*
X167140000Y-92452380D01*
X167282857Y-92500000D01*
X167378095Y-92595238D01*
X167425714Y-92690476D01*
X167473333Y-92880952D01*
X167473333Y-93023809D01*
X167425714Y-93214285D01*
X167378095Y-93309523D01*
X167282857Y-93404761D01*
X167140000Y-93452380D01*
X166901904Y-93452380D01*
X167806666Y-92452380D02*
X168425714Y-92452380D01*
X168092380Y-92833333D01*
X168235238Y-92833333D01*
X168330476Y-92880952D01*
X168378095Y-92928571D01*
X168425714Y-93023809D01*
X168425714Y-93261904D01*
X168378095Y-93357142D01*
X168330476Y-93404761D01*
X168235238Y-93452380D01*
X167949523Y-93452380D01*
X167854285Y-93404761D01*
X167806666Y-93357142D01*
%TO.C,J1*%
X172512380Y-62583333D02*
X173226666Y-62583333D01*
X173369523Y-62630952D01*
X173464761Y-62726190D01*
X173512380Y-62869047D01*
X173512380Y-62964285D01*
X173512380Y-61583333D02*
X173512380Y-62154761D01*
X173512380Y-61869047D02*
X172512380Y-61869047D01*
X172655238Y-61964285D01*
X172750476Y-62059523D01*
X172798095Y-62154761D01*
%TO.C,C2*%
X139313333Y-74357142D02*
X139265714Y-74404761D01*
X139122857Y-74452380D01*
X139027619Y-74452380D01*
X138884761Y-74404761D01*
X138789523Y-74309523D01*
X138741904Y-74214285D01*
X138694285Y-74023809D01*
X138694285Y-73880952D01*
X138741904Y-73690476D01*
X138789523Y-73595238D01*
X138884761Y-73500000D01*
X139027619Y-73452380D01*
X139122857Y-73452380D01*
X139265714Y-73500000D01*
X139313333Y-73547619D01*
X139694285Y-73547619D02*
X139741904Y-73500000D01*
X139837142Y-73452380D01*
X140075238Y-73452380D01*
X140170476Y-73500000D01*
X140218095Y-73547619D01*
X140265714Y-73642857D01*
X140265714Y-73738095D01*
X140218095Y-73880952D01*
X139646666Y-74452380D01*
X140265714Y-74452380D01*
%TO.C,SW1*%
X140826666Y-77610761D02*
X140969523Y-77658380D01*
X141207619Y-77658380D01*
X141302857Y-77610761D01*
X141350476Y-77563142D01*
X141398095Y-77467904D01*
X141398095Y-77372666D01*
X141350476Y-77277428D01*
X141302857Y-77229809D01*
X141207619Y-77182190D01*
X141017142Y-77134571D01*
X140921904Y-77086952D01*
X140874285Y-77039333D01*
X140826666Y-76944095D01*
X140826666Y-76848857D01*
X140874285Y-76753619D01*
X140921904Y-76706000D01*
X141017142Y-76658380D01*
X141255238Y-76658380D01*
X141398095Y-76706000D01*
X141731428Y-76658380D02*
X141969523Y-77658380D01*
X142160000Y-76944095D01*
X142350476Y-77658380D01*
X142588571Y-76658380D01*
X143493333Y-77658380D02*
X142921904Y-77658380D01*
X143207619Y-77658380D02*
X143207619Y-76658380D01*
X143112380Y-76801238D01*
X143017142Y-76896476D01*
X142921904Y-76944095D01*
%TO.C,D1*%
X136011904Y-71952380D02*
X136011904Y-70952380D01*
X136250000Y-70952380D01*
X136392857Y-71000000D01*
X136488095Y-71095238D01*
X136535714Y-71190476D01*
X136583333Y-71380952D01*
X136583333Y-71523809D01*
X136535714Y-71714285D01*
X136488095Y-71809523D01*
X136392857Y-71904761D01*
X136250000Y-71952380D01*
X136011904Y-71952380D01*
X137535714Y-71952380D02*
X136964285Y-71952380D01*
X137250000Y-71952380D02*
X137250000Y-70952380D01*
X137154761Y-71095238D01*
X137059523Y-71190476D01*
X136964285Y-71238095D01*
%TO.C,D2*%
X141501904Y-93452380D02*
X141501904Y-92452380D01*
X141740000Y-92452380D01*
X141882857Y-92500000D01*
X141978095Y-92595238D01*
X142025714Y-92690476D01*
X142073333Y-92880952D01*
X142073333Y-93023809D01*
X142025714Y-93214285D01*
X141978095Y-93309523D01*
X141882857Y-93404761D01*
X141740000Y-93452380D01*
X141501904Y-93452380D01*
X142454285Y-92547619D02*
X142501904Y-92500000D01*
X142597142Y-92452380D01*
X142835238Y-92452380D01*
X142930476Y-92500000D01*
X142978095Y-92547619D01*
X143025714Y-92642857D01*
X143025714Y-92738095D01*
X142978095Y-92880952D01*
X142406666Y-93452380D01*
X143025714Y-93452380D01*
%TO.C,C3*%
X146107142Y-72166666D02*
X146154761Y-72214285D01*
X146202380Y-72357142D01*
X146202380Y-72452380D01*
X146154761Y-72595238D01*
X146059523Y-72690476D01*
X145964285Y-72738095D01*
X145773809Y-72785714D01*
X145630952Y-72785714D01*
X145440476Y-72738095D01*
X145345238Y-72690476D01*
X145250000Y-72595238D01*
X145202380Y-72452380D01*
X145202380Y-72357142D01*
X145250000Y-72214285D01*
X145297619Y-72166666D01*
X145202380Y-71833333D02*
X145202380Y-71214285D01*
X145583333Y-71547619D01*
X145583333Y-71404761D01*
X145630952Y-71309523D01*
X145678571Y-71261904D01*
X145773809Y-71214285D01*
X146011904Y-71214285D01*
X146107142Y-71261904D01*
X146154761Y-71309523D01*
X146202380Y-71404761D01*
X146202380Y-71690476D01*
X146154761Y-71785714D01*
X146107142Y-71833333D01*
%TO.C,C1*%
X129833333Y-59857142D02*
X129785714Y-59904761D01*
X129642857Y-59952380D01*
X129547619Y-59952380D01*
X129404761Y-59904761D01*
X129309523Y-59809523D01*
X129261904Y-59714285D01*
X129214285Y-59523809D01*
X129214285Y-59380952D01*
X129261904Y-59190476D01*
X129309523Y-59095238D01*
X129404761Y-59000000D01*
X129547619Y-58952380D01*
X129642857Y-58952380D01*
X129785714Y-59000000D01*
X129833333Y-59047619D01*
X130785714Y-59952380D02*
X130214285Y-59952380D01*
X130500000Y-59952380D02*
X130500000Y-58952380D01*
X130404761Y-59095238D01*
X130309523Y-59190476D01*
X130214285Y-59238095D01*
%TO.C,U1*%
X154238095Y-69732380D02*
X154238095Y-70541904D01*
X154285714Y-70637142D01*
X154333333Y-70684761D01*
X154428571Y-70732380D01*
X154619047Y-70732380D01*
X154714285Y-70684761D01*
X154761904Y-70637142D01*
X154809523Y-70541904D01*
X154809523Y-69732380D01*
X155809523Y-70732380D02*
X155238095Y-70732380D01*
X155523809Y-70732380D02*
X155523809Y-69732380D01*
X155428571Y-69875238D01*
X155333333Y-69970476D01*
X155238095Y-70018095D01*
%TO.C,R2*%
X129833333Y-65202380D02*
X129500000Y-64726190D01*
X129261904Y-65202380D02*
X129261904Y-64202380D01*
X129642857Y-64202380D01*
X129738095Y-64250000D01*
X129785714Y-64297619D01*
X129833333Y-64392857D01*
X129833333Y-64535714D01*
X129785714Y-64630952D01*
X129738095Y-64678571D01*
X129642857Y-64726190D01*
X129261904Y-64726190D01*
X130214285Y-64297619D02*
X130261904Y-64250000D01*
X130357142Y-64202380D01*
X130595238Y-64202380D01*
X130690476Y-64250000D01*
X130738095Y-64297619D01*
X130785714Y-64392857D01*
X130785714Y-64488095D01*
X130738095Y-64630952D01*
X130166666Y-65202380D01*
X130785714Y-65202380D01*
D11*
%TO.C,SW2*%
X160575000Y-78095000D02*
X174545000Y-78095000D01*
X160575000Y-92065000D02*
X160575000Y-78095000D01*
X174545000Y-78095000D02*
X174545000Y-92065000D01*
X174545000Y-92065000D02*
X160575000Y-92065000D01*
%TO.C,R3*%
X138120000Y-66653641D02*
X138120000Y-66346359D01*
X138880000Y-66653641D02*
X138880000Y-66346359D01*
%TO.C,R1*%
X167987258Y-60522500D02*
X167512742Y-60522500D01*
X167987258Y-59477500D02*
X167512742Y-59477500D01*
%TO.C,J2*%
X141580000Y-57390000D02*
X132420000Y-57390000D01*
X132420000Y-58340000D02*
X132420000Y-57390000D01*
X141580000Y-62315000D02*
X141580000Y-61460000D01*
X132420000Y-62315000D02*
X132420000Y-61460000D01*
X141580000Y-58340000D02*
X141580000Y-57390000D01*
D12*
%TO.C,U2*%
X142180000Y-71625000D02*
X142180000Y-72875000D01*
X143820000Y-71625000D02*
X143820000Y-72875000D01*
D13*
X143500000Y-70775000D02*
G75*
G03*
X143500000Y-70775000I-100000J0D01*
G01*
D11*
%TO.C,R4*%
X136380000Y-66653641D02*
X136380000Y-66346359D01*
X135620000Y-66653641D02*
X135620000Y-66346359D01*
%TO.C,D3*%
D14*
X164870000Y-90170000D02*
G75*
G03*
X164870000Y-90170000I-130000J0D01*
G01*
D11*
%TO.C,J1*%
X170000000Y-61190000D02*
X161940000Y-61190000D01*
X161940000Y-61190000D02*
X161940000Y-63310000D01*
X170000000Y-63310000D02*
X161940000Y-63310000D01*
X171000000Y-61190000D02*
X172060000Y-61190000D01*
X170000000Y-61190000D02*
X170000000Y-63310000D01*
X172060000Y-61190000D02*
X172060000Y-62250000D01*
%TO.C,C2*%
X141607836Y-74360000D02*
X141392164Y-74360000D01*
X141607836Y-73640000D02*
X141392164Y-73640000D01*
%TO.C,SW1*%
X149145000Y-92065000D02*
X135175000Y-92065000D01*
X135175000Y-92065000D02*
X135175000Y-78095000D01*
X135175000Y-78095000D02*
X149145000Y-78095000D01*
X149145000Y-78095000D02*
X149145000Y-92065000D01*
%TO.C,D1*%
X141251800Y-71211803D02*
X141251800Y-71820195D01*
X138254600Y-71820195D02*
X138254600Y-71211803D01*
X140129161Y-72214500D02*
X139377239Y-72214500D01*
X139377240Y-70817500D02*
X139722760Y-70817500D01*
%TO.C,D2*%
D14*
X139470000Y-90170000D02*
G75*
G03*
X139470000Y-90170000I-130000J0D01*
G01*
D11*
%TO.C,C3*%
X144140000Y-71892164D02*
X144140000Y-72107836D01*
X144860000Y-71892164D02*
X144860000Y-72107836D01*
%TO.C,C1*%
X130107836Y-61860000D02*
X129892164Y-61860000D01*
X130107836Y-61140000D02*
X129892164Y-61140000D01*
%TO.C,U1*%
X155000000Y-69435000D02*
X153050000Y-69435000D01*
X155000000Y-60565000D02*
X153050000Y-60565000D01*
X155000000Y-60565000D02*
X156950000Y-60565000D01*
X155000000Y-69435000D02*
X158450000Y-69435000D01*
%TO.C,R2*%
X130153641Y-62880000D02*
X129846359Y-62880000D01*
X130153641Y-62120000D02*
X129846359Y-62120000D01*
%TD*%
M02*
