%TF.GenerationSoftware,KiCad,Pcbnew,6.0.9+dfsg-1*%
%TF.CreationDate,2022-11-21T00:59:10-08:00*%
%TF.ProjectId,muon,6d756f6e-2e6b-4696-9361-645f70636258,v0.6*%
%TF.SameCoordinates,Original*%
%TF.FileFunction,Legend,Top*%
%TF.FilePolarity,Positive*%
%FSLAX45Y45*%
G04 Gerber Fmt 4.5, Leading zero omitted, Abs format (unit mm)*
G04 Created by KiCad (PCBNEW 6.0.9+dfsg-1) date 2022-11-21 00:59:10*
%MOMM*%
%LPD*%
G01*
G04 APERTURE LIST*
%ADD10C,0.030000*%
%ADD11C,0.005000*%
%ADD12C,0.150000*%
%ADD13C,0.120000*%
%ADD14C,0.100000*%
G04 APERTURE END LIST*
D10*
G36*
X14359610Y-10077386D02*
G01*
X14359761Y-10077397D01*
X14359912Y-10077416D01*
X14360061Y-10077441D01*
X14360209Y-10077474D01*
X14360356Y-10077513D01*
X14360501Y-10077558D01*
X14360644Y-10077610D01*
X14360785Y-10077668D01*
X14360924Y-10077733D01*
X14361061Y-10077802D01*
X14361194Y-10077878D01*
X14361325Y-10077959D01*
X14361452Y-10078045D01*
X14361576Y-10078136D01*
X14361696Y-10078232D01*
X14361812Y-10078332D01*
X14361925Y-10078438D01*
X14362033Y-10078547D01*
X14362136Y-10078660D01*
X14362234Y-10078778D01*
X14362328Y-10078899D01*
X14362416Y-10079024D01*
X14362499Y-10079152D01*
X14362576Y-10079283D01*
X14362648Y-10079417D01*
X14362713Y-10079554D01*
X14362772Y-10079694D01*
X14362824Y-10079836D01*
X14362870Y-10079981D01*
X14362908Y-10080127D01*
X14362939Y-10080275D01*
X14375500Y-10147756D01*
X14375532Y-10147905D01*
X14375571Y-10148055D01*
X14375667Y-10148356D01*
X14375788Y-10148656D01*
X14375933Y-10148952D01*
X14376098Y-10149244D01*
X14376283Y-10149529D01*
X14376485Y-10149806D01*
X14376704Y-10150071D01*
X14376938Y-10150324D01*
X14377184Y-10150562D01*
X14377441Y-10150784D01*
X14377708Y-10150987D01*
X14377982Y-10151169D01*
X14378262Y-10151329D01*
X14378404Y-10151400D01*
X14378547Y-10151465D01*
X14378690Y-10151523D01*
X14378834Y-10151574D01*
X14424062Y-10170088D01*
X14424343Y-10170212D01*
X14424641Y-10170315D01*
X14424953Y-10170398D01*
X14425277Y-10170461D01*
X14425611Y-10170505D01*
X14425951Y-10170528D01*
X14426294Y-10170532D01*
X14426639Y-10170517D01*
X14426983Y-10170483D01*
X14427322Y-10170430D01*
X14427655Y-10170358D01*
X14427979Y-10170267D01*
X14428291Y-10170158D01*
X14428589Y-10170031D01*
X14428869Y-10169886D01*
X14429130Y-10169723D01*
X14485506Y-10131036D01*
X14485633Y-10130953D01*
X14485764Y-10130877D01*
X14485898Y-10130807D01*
X14486036Y-10130743D01*
X14486176Y-10130686D01*
X14486319Y-10130635D01*
X14486464Y-10130591D01*
X14486611Y-10130553D01*
X14486760Y-10130521D01*
X14486911Y-10130495D01*
X14487215Y-10130462D01*
X14487522Y-10130454D01*
X14487828Y-10130470D01*
X14488133Y-10130510D01*
X14488433Y-10130575D01*
X14488726Y-10130663D01*
X14488870Y-10130716D01*
X14489010Y-10130774D01*
X14489148Y-10130839D01*
X14489283Y-10130909D01*
X14489415Y-10130986D01*
X14489543Y-10131067D01*
X14489666Y-10131155D01*
X14489786Y-10131249D01*
X14489901Y-10131348D01*
X14490011Y-10131452D01*
X14537489Y-10178930D01*
X14537593Y-10179041D01*
X14537692Y-10179155D01*
X14537786Y-10179275D01*
X14537873Y-10179399D01*
X14537955Y-10179527D01*
X14538031Y-10179658D01*
X14538166Y-10179931D01*
X14538277Y-10180216D01*
X14538364Y-10180509D01*
X14538428Y-10180810D01*
X14538468Y-10181115D01*
X14538484Y-10181422D01*
X14538475Y-10181729D01*
X14538443Y-10182033D01*
X14538385Y-10182333D01*
X14538303Y-10182626D01*
X14538252Y-10182769D01*
X14538196Y-10182909D01*
X14538133Y-10183047D01*
X14538063Y-10183181D01*
X14537988Y-10183312D01*
X14537906Y-10183439D01*
X14499893Y-10238843D01*
X14499729Y-10239105D01*
X14499584Y-10239385D01*
X14499458Y-10239683D01*
X14499350Y-10239994D01*
X14499261Y-10240317D01*
X14499191Y-10240648D01*
X14499140Y-10240986D01*
X14499109Y-10241328D01*
X14499097Y-10241670D01*
X14499105Y-10242012D01*
X14499133Y-10242349D01*
X14499181Y-10242680D01*
X14499249Y-10243001D01*
X14499337Y-10243312D01*
X14499446Y-10243608D01*
X14499575Y-10243887D01*
X14519574Y-10290544D01*
X14519688Y-10290830D01*
X14519829Y-10291114D01*
X14519993Y-10291394D01*
X14520180Y-10291667D01*
X14520387Y-10291933D01*
X14520613Y-10292189D01*
X14520854Y-10292435D01*
X14521110Y-10292667D01*
X14521379Y-10292886D01*
X14521657Y-10293088D01*
X14521944Y-10293272D01*
X14522238Y-10293436D01*
X14522536Y-10293580D01*
X14522836Y-10293700D01*
X14523136Y-10293796D01*
X14523435Y-10293865D01*
X14588678Y-10305998D01*
X14588826Y-10306030D01*
X14588972Y-10306069D01*
X14589116Y-10306115D01*
X14589258Y-10306168D01*
X14589397Y-10306227D01*
X14589534Y-10306293D01*
X14589668Y-10306364D01*
X14589799Y-10306442D01*
X14590051Y-10306614D01*
X14590289Y-10306806D01*
X14590512Y-10307018D01*
X14590717Y-10307247D01*
X14590904Y-10307491D01*
X14591070Y-10307749D01*
X14591215Y-10308019D01*
X14591279Y-10308158D01*
X14591337Y-10308299D01*
X14591389Y-10308442D01*
X14591434Y-10308588D01*
X14591473Y-10308734D01*
X14591505Y-10308883D01*
X14591531Y-10309032D01*
X14591549Y-10309183D01*
X14591560Y-10309334D01*
X14591563Y-10309486D01*
X14591555Y-10376634D01*
X14591551Y-10376785D01*
X14591540Y-10376936D01*
X14591522Y-10377087D01*
X14591496Y-10377236D01*
X14591463Y-10377385D01*
X14591424Y-10377532D01*
X14591378Y-10377677D01*
X14591326Y-10377821D01*
X14591268Y-10377962D01*
X14591204Y-10378101D01*
X14591134Y-10378238D01*
X14591058Y-10378371D01*
X14590977Y-10378502D01*
X14590891Y-10378630D01*
X14590800Y-10378754D01*
X14590704Y-10378875D01*
X14590603Y-10378991D01*
X14590498Y-10379104D01*
X14590388Y-10379212D01*
X14590275Y-10379315D01*
X14590157Y-10379414D01*
X14590036Y-10379508D01*
X14589912Y-10379596D01*
X14589784Y-10379679D01*
X14589652Y-10379757D01*
X14589518Y-10379828D01*
X14589381Y-10379893D01*
X14589242Y-10379952D01*
X14589100Y-10380004D01*
X14588956Y-10380049D01*
X14588810Y-10380087D01*
X14588662Y-10380118D01*
X14525023Y-10391961D01*
X14524873Y-10391992D01*
X14524723Y-10392029D01*
X14524573Y-10392074D01*
X14524423Y-10392125D01*
X14524124Y-10392245D01*
X14523829Y-10392389D01*
X14523539Y-10392554D01*
X14523256Y-10392740D01*
X14522983Y-10392943D01*
X14522721Y-10393164D01*
X14522471Y-10393398D01*
X14522237Y-10393646D01*
X14522019Y-10393905D01*
X14521820Y-10394173D01*
X14521642Y-10394449D01*
X14521486Y-10394732D01*
X14521354Y-10395018D01*
X14521298Y-10395162D01*
X14521249Y-10395307D01*
X14501381Y-10444936D01*
X14501258Y-10445218D01*
X14501156Y-10445517D01*
X14501073Y-10445830D01*
X14501011Y-10446155D01*
X14500969Y-10446488D01*
X14500946Y-10446828D01*
X14500943Y-10447171D01*
X14500959Y-10447516D01*
X14500994Y-10447859D01*
X14501048Y-10448198D01*
X14501120Y-10448531D01*
X14501211Y-10448854D01*
X14501320Y-10449166D01*
X14501447Y-10449463D01*
X14501592Y-10449743D01*
X14501754Y-10450004D01*
X14537905Y-10502681D01*
X14537988Y-10502808D01*
X14538064Y-10502939D01*
X14538134Y-10503073D01*
X14538198Y-10503211D01*
X14538255Y-10503351D01*
X14538306Y-10503495D01*
X14538350Y-10503640D01*
X14538388Y-10503788D01*
X14538420Y-10503937D01*
X14538446Y-10504088D01*
X14538479Y-10504393D01*
X14538487Y-10504700D01*
X14538471Y-10505007D01*
X14538431Y-10505313D01*
X14538366Y-10505613D01*
X14538278Y-10505907D01*
X14538225Y-10506051D01*
X14538167Y-10506192D01*
X14538102Y-10506330D01*
X14538032Y-10506466D01*
X14537956Y-10506597D01*
X14537874Y-10506725D01*
X14537786Y-10506849D01*
X14537693Y-10506969D01*
X14537593Y-10507084D01*
X14537489Y-10507194D01*
X14490003Y-10554672D01*
X14489893Y-10554776D01*
X14489779Y-10554874D01*
X14489660Y-10554967D01*
X14489537Y-10555054D01*
X14489409Y-10555135D01*
X14489278Y-10555211D01*
X14489006Y-10555345D01*
X14488722Y-10555456D01*
X14488428Y-10555544D01*
X14488128Y-10555608D01*
X14487823Y-10555648D01*
X14487516Y-10555664D01*
X14487209Y-10555656D01*
X14486904Y-10555624D01*
X14486604Y-10555567D01*
X14486311Y-10555485D01*
X14486168Y-10555435D01*
X14486028Y-10555378D01*
X14485890Y-10555315D01*
X14485756Y-10555246D01*
X14485625Y-10555171D01*
X14485498Y-10555089D01*
X14433750Y-10519572D01*
X14433490Y-10519410D01*
X14433211Y-10519268D01*
X14432916Y-10519146D01*
X14432608Y-10519044D01*
X14432290Y-10518963D01*
X14431962Y-10518901D01*
X14431629Y-10518859D01*
X14431293Y-10518838D01*
X14430956Y-10518837D01*
X14430621Y-10518856D01*
X14430290Y-10518896D01*
X14429966Y-10518956D01*
X14429651Y-10519037D01*
X14429348Y-10519138D01*
X14429060Y-10519259D01*
X14428789Y-10519402D01*
X14405968Y-10531586D01*
X14405832Y-10531650D01*
X14405694Y-10531708D01*
X14405556Y-10531757D01*
X14405417Y-10531798D01*
X14405277Y-10531832D01*
X14405137Y-10531859D01*
X14404998Y-10531878D01*
X14404858Y-10531890D01*
X14404719Y-10531895D01*
X14404581Y-10531892D01*
X14404444Y-10531882D01*
X14404308Y-10531866D01*
X14404174Y-10531842D01*
X14404041Y-10531812D01*
X14403911Y-10531775D01*
X14403782Y-10531731D01*
X14403656Y-10531681D01*
X14403533Y-10531625D01*
X14403412Y-10531562D01*
X14403295Y-10531493D01*
X14403181Y-10531417D01*
X14403070Y-10531336D01*
X14402964Y-10531248D01*
X14402861Y-10531155D01*
X14402763Y-10531055D01*
X14402670Y-10530950D01*
X14402581Y-10530840D01*
X14402497Y-10530724D01*
X14402419Y-10530602D01*
X14402346Y-10530475D01*
X14402279Y-10530342D01*
X14402218Y-10530205D01*
X14355168Y-10416508D01*
X14355114Y-10416366D01*
X14355067Y-10416223D01*
X14355027Y-10416077D01*
X14354994Y-10415930D01*
X14354968Y-10415782D01*
X14354948Y-10415632D01*
X14354936Y-10415482D01*
X14354930Y-10415331D01*
X14354931Y-10415180D01*
X14354938Y-10415029D01*
X14354951Y-10414878D01*
X14354971Y-10414728D01*
X14354997Y-10414579D01*
X14355029Y-10414431D01*
X14355068Y-10414284D01*
X14355112Y-10414138D01*
X14355162Y-10413995D01*
X14355217Y-10413854D01*
X14355279Y-10413715D01*
X14355346Y-10413579D01*
X14355418Y-10413446D01*
X14355496Y-10413316D01*
X14355579Y-10413190D01*
X14355667Y-10413068D01*
X14355761Y-10412949D01*
X14355859Y-10412835D01*
X14355962Y-10412726D01*
X14356070Y-10412621D01*
X14356183Y-10412522D01*
X14356301Y-10412428D01*
X14356423Y-10412340D01*
X14356549Y-10412257D01*
X14362261Y-10408761D01*
X14362672Y-10408499D01*
X14363110Y-10408200D01*
X14363569Y-10407871D01*
X14364039Y-10407518D01*
X14364511Y-10407147D01*
X14364978Y-10406765D01*
X14365432Y-10406379D01*
X14365864Y-10405995D01*
X14369645Y-10403407D01*
X14373253Y-10400597D01*
X14376678Y-10397575D01*
X14379912Y-10394351D01*
X14382943Y-10390935D01*
X14385763Y-10387335D01*
X14388360Y-10383563D01*
X14390726Y-10379627D01*
X14392851Y-10375538D01*
X14394724Y-10371306D01*
X14396336Y-10366939D01*
X14397677Y-10362449D01*
X14398737Y-10357844D01*
X14399507Y-10353135D01*
X14399976Y-10348332D01*
X14400134Y-10343443D01*
X14400038Y-10339622D01*
X14399751Y-10335850D01*
X14399279Y-10332134D01*
X14398626Y-10328477D01*
X14397796Y-10324884D01*
X14396796Y-10321360D01*
X14395628Y-10317910D01*
X14394299Y-10314538D01*
X14392812Y-10311248D01*
X14391172Y-10308046D01*
X14389384Y-10304937D01*
X14387452Y-10301924D01*
X14385382Y-10299012D01*
X14383178Y-10296207D01*
X14380844Y-10293512D01*
X14378385Y-10290934D01*
X14375806Y-10288475D01*
X14373112Y-10286141D01*
X14370307Y-10283936D01*
X14367395Y-10281866D01*
X14364383Y-10279934D01*
X14361273Y-10278146D01*
X14358071Y-10276506D01*
X14354782Y-10275019D01*
X14351410Y-10273690D01*
X14347960Y-10272522D01*
X14344436Y-10271522D01*
X14340844Y-10270692D01*
X14337187Y-10270039D01*
X14333471Y-10269567D01*
X14329700Y-10269280D01*
X14325879Y-10269184D01*
X14322058Y-10269280D01*
X14318287Y-10269567D01*
X14314571Y-10270039D01*
X14310914Y-10270692D01*
X14307321Y-10271522D01*
X14303798Y-10272522D01*
X14300347Y-10273690D01*
X14296975Y-10275019D01*
X14293686Y-10276506D01*
X14290484Y-10278146D01*
X14287374Y-10279934D01*
X14284361Y-10281866D01*
X14281450Y-10283936D01*
X14278645Y-10286141D01*
X14275950Y-10288475D01*
X14273371Y-10290934D01*
X14270912Y-10293512D01*
X14268578Y-10296207D01*
X14266373Y-10299012D01*
X14264303Y-10301924D01*
X14262371Y-10304937D01*
X14260583Y-10308046D01*
X14258943Y-10311248D01*
X14257456Y-10314538D01*
X14256126Y-10317910D01*
X14254959Y-10321360D01*
X14253958Y-10324884D01*
X14253129Y-10328477D01*
X14252475Y-10332134D01*
X14252003Y-10335850D01*
X14251716Y-10339622D01*
X14251620Y-10343443D01*
X14251660Y-10345897D01*
X14251778Y-10348332D01*
X14251975Y-10350745D01*
X14252247Y-10353135D01*
X14252595Y-10355502D01*
X14253017Y-10357844D01*
X14253511Y-10360160D01*
X14254077Y-10362449D01*
X14254713Y-10364709D01*
X14255419Y-10366939D01*
X14256191Y-10369139D01*
X14257031Y-10371306D01*
X14257936Y-10373439D01*
X14258904Y-10375538D01*
X14261029Y-10379627D01*
X14263395Y-10383563D01*
X14265993Y-10387335D01*
X14268813Y-10390935D01*
X14271844Y-10394351D01*
X14275077Y-10397575D01*
X14278502Y-10400597D01*
X14282110Y-10403407D01*
X14285890Y-10405995D01*
X14286324Y-10406379D01*
X14286780Y-10406765D01*
X14287248Y-10407147D01*
X14287721Y-10407518D01*
X14288191Y-10407871D01*
X14288650Y-10408200D01*
X14289089Y-10408499D01*
X14289501Y-10408761D01*
X14295213Y-10412257D01*
X14295340Y-10412340D01*
X14295462Y-10412428D01*
X14295581Y-10412522D01*
X14295694Y-10412621D01*
X14295803Y-10412726D01*
X14295906Y-10412835D01*
X14296099Y-10413068D01*
X14296270Y-10413316D01*
X14296421Y-10413579D01*
X14296549Y-10413854D01*
X14296655Y-10414138D01*
X14296737Y-10414431D01*
X14296795Y-10414728D01*
X14296828Y-10415029D01*
X14296835Y-10415331D01*
X14296816Y-10415632D01*
X14296796Y-10415782D01*
X14296770Y-10415930D01*
X14296736Y-10416077D01*
X14296696Y-10416223D01*
X14296648Y-10416366D01*
X14296594Y-10416508D01*
X14249540Y-10530201D01*
X14249479Y-10530338D01*
X14249412Y-10530471D01*
X14249339Y-10530598D01*
X14249260Y-10530720D01*
X14249177Y-10530836D01*
X14249088Y-10530947D01*
X14248994Y-10531052D01*
X14248896Y-10531151D01*
X14248794Y-10531245D01*
X14248687Y-10531333D01*
X14248576Y-10531414D01*
X14248462Y-10531490D01*
X14248345Y-10531559D01*
X14248224Y-10531622D01*
X14248101Y-10531679D01*
X14247974Y-10531729D01*
X14247846Y-10531773D01*
X14247715Y-10531810D01*
X14247582Y-10531840D01*
X14247448Y-10531864D01*
X14247312Y-10531880D01*
X14247175Y-10531890D01*
X14247037Y-10531892D01*
X14246898Y-10531888D01*
X14246759Y-10531876D01*
X14246619Y-10531857D01*
X14246480Y-10531830D01*
X14246340Y-10531796D01*
X14246201Y-10531754D01*
X14246063Y-10531704D01*
X14245926Y-10531647D01*
X14245790Y-10531582D01*
X14222969Y-10519398D01*
X14222699Y-10519255D01*
X14222411Y-10519134D01*
X14222109Y-10519033D01*
X14221794Y-10518953D01*
X14221470Y-10518893D01*
X14221139Y-10518853D01*
X14220804Y-10518834D01*
X14220467Y-10518836D01*
X14220130Y-10518857D01*
X14219797Y-10518899D01*
X14219469Y-10518960D01*
X14219150Y-10519042D01*
X14218842Y-10519144D01*
X14218547Y-10519265D01*
X14218269Y-10519407D01*
X14218008Y-10519568D01*
X14166264Y-10555085D01*
X14166137Y-10555167D01*
X14166005Y-10555242D01*
X14165871Y-10555311D01*
X14165733Y-10555374D01*
X14165592Y-10555431D01*
X14165449Y-10555481D01*
X14165304Y-10555525D01*
X14165156Y-10555563D01*
X14165007Y-10555595D01*
X14164856Y-10555620D01*
X14164551Y-10555652D01*
X14164244Y-10555660D01*
X14163937Y-10555644D01*
X14163632Y-10555604D01*
X14163332Y-10555540D01*
X14163038Y-10555452D01*
X14162895Y-10555400D01*
X14162754Y-10555341D01*
X14162616Y-10555277D01*
X14162481Y-10555207D01*
X14162350Y-10555131D01*
X14162222Y-10555050D01*
X14162099Y-10554963D01*
X14161980Y-10554870D01*
X14161865Y-10554772D01*
X14161755Y-10554668D01*
X14114269Y-10507190D01*
X14114165Y-10507080D01*
X14114066Y-10506965D01*
X14113973Y-10506845D01*
X14113886Y-10506721D01*
X14113804Y-10506593D01*
X14113728Y-10506462D01*
X14113594Y-10506188D01*
X14113482Y-10505903D01*
X14113394Y-10505610D01*
X14113330Y-10505309D01*
X14113290Y-10505003D01*
X14113274Y-10504696D01*
X14113282Y-10504389D01*
X14113315Y-10504084D01*
X14113372Y-10503784D01*
X14113454Y-10503491D01*
X14113505Y-10503347D01*
X14113561Y-10503207D01*
X14113625Y-10503069D01*
X14113694Y-10502935D01*
X14113770Y-10502804D01*
X14113853Y-10502677D01*
X14150000Y-10450000D01*
X14150164Y-10449739D01*
X14150310Y-10449459D01*
X14150437Y-10449162D01*
X14150547Y-10448850D01*
X14150638Y-10448527D01*
X14150711Y-10448194D01*
X14150765Y-10447855D01*
X14150800Y-10447512D01*
X14150816Y-10447167D01*
X14150813Y-10446824D01*
X14150790Y-10446484D01*
X14150747Y-10446151D01*
X14150685Y-10445826D01*
X14150602Y-10445513D01*
X14150500Y-10445214D01*
X14150377Y-10444932D01*
X14130509Y-10395303D01*
X14130460Y-10395158D01*
X14130405Y-10395014D01*
X14130273Y-10394728D01*
X14130117Y-10394446D01*
X14129939Y-10394169D01*
X14129739Y-10393901D01*
X14129521Y-10393642D01*
X14129286Y-10393394D01*
X14129035Y-10393160D01*
X14128772Y-10392940D01*
X14128498Y-10392736D01*
X14128215Y-10392550D01*
X14127925Y-10392385D01*
X14127629Y-10392241D01*
X14127331Y-10392121D01*
X14127031Y-10392025D01*
X14126881Y-10391988D01*
X14126731Y-10391957D01*
X14063092Y-10380114D01*
X14062944Y-10380083D01*
X14062797Y-10380045D01*
X14062653Y-10380000D01*
X14062511Y-10379948D01*
X14062371Y-10379889D01*
X14062234Y-10379824D01*
X14062100Y-10379753D01*
X14061969Y-10379675D01*
X14061841Y-10379592D01*
X14061716Y-10379504D01*
X14061477Y-10379311D01*
X14061255Y-10379100D01*
X14061049Y-10378871D01*
X14060862Y-10378626D01*
X14060695Y-10378367D01*
X14060550Y-10378097D01*
X14060427Y-10377817D01*
X14060375Y-10377673D01*
X14060330Y-10377528D01*
X14060290Y-10377381D01*
X14060258Y-10377232D01*
X14060233Y-10377083D01*
X14060214Y-10376933D01*
X14060203Y-10376781D01*
X14060199Y-10376630D01*
X14060195Y-10309482D01*
X14060199Y-10309331D01*
X14060210Y-10309180D01*
X14060228Y-10309030D01*
X14060254Y-10308880D01*
X14060286Y-10308732D01*
X14060325Y-10308585D01*
X14060371Y-10308440D01*
X14060423Y-10308297D01*
X14060481Y-10308156D01*
X14060545Y-10308018D01*
X14060614Y-10307881D01*
X14060690Y-10307748D01*
X14060771Y-10307617D01*
X14060857Y-10307490D01*
X14060948Y-10307366D01*
X14061043Y-10307246D01*
X14061144Y-10307130D01*
X14061249Y-10307017D01*
X14061358Y-10306909D01*
X14061472Y-10306806D01*
X14061589Y-10306707D01*
X14061710Y-10306614D01*
X14061835Y-10306525D01*
X14061963Y-10306442D01*
X14062094Y-10306364D01*
X14062229Y-10306293D01*
X14062366Y-10306227D01*
X14062506Y-10306168D01*
X14062648Y-10306115D01*
X14062793Y-10306069D01*
X14062940Y-10306030D01*
X14063088Y-10305998D01*
X14128327Y-10293865D01*
X14128477Y-10293834D01*
X14128627Y-10293796D01*
X14128929Y-10293700D01*
X14129230Y-10293580D01*
X14129528Y-10293436D01*
X14129822Y-10293272D01*
X14130109Y-10293088D01*
X14130388Y-10292886D01*
X14130656Y-10292667D01*
X14130912Y-10292435D01*
X14131153Y-10292189D01*
X14131378Y-10291933D01*
X14131585Y-10291667D01*
X14131771Y-10291394D01*
X14131935Y-10291114D01*
X14132075Y-10290830D01*
X14132135Y-10290687D01*
X14132188Y-10290544D01*
X14152191Y-10243887D01*
X14152319Y-10243608D01*
X14152428Y-10243312D01*
X14152516Y-10243001D01*
X14152583Y-10242680D01*
X14152631Y-10242349D01*
X14152658Y-10242012D01*
X14152666Y-10241670D01*
X14152655Y-10241328D01*
X14152623Y-10240986D01*
X14152573Y-10240648D01*
X14152504Y-10240317D01*
X14152416Y-10239994D01*
X14152309Y-10239683D01*
X14152183Y-10239385D01*
X14152039Y-10239105D01*
X14151877Y-10238843D01*
X14113860Y-10183439D01*
X14113778Y-10183312D01*
X14113702Y-10183181D01*
X14113632Y-10183047D01*
X14113568Y-10182909D01*
X14113511Y-10182769D01*
X14113461Y-10182626D01*
X14113416Y-10182481D01*
X14113378Y-10182333D01*
X14113346Y-10182184D01*
X14113321Y-10182033D01*
X14113288Y-10181729D01*
X14113280Y-10181422D01*
X14113296Y-10181115D01*
X14113337Y-10180810D01*
X14113401Y-10180509D01*
X14113489Y-10180216D01*
X14113542Y-10180072D01*
X14113601Y-10179931D01*
X14113665Y-10179793D01*
X14113736Y-10179658D01*
X14113812Y-10179527D01*
X14113894Y-10179399D01*
X14113981Y-10179275D01*
X14114074Y-10179155D01*
X14114173Y-10179041D01*
X14114277Y-10178930D01*
X14161759Y-10131452D01*
X14161869Y-10131348D01*
X14161984Y-10131249D01*
X14162103Y-10131155D01*
X14162226Y-10131067D01*
X14162354Y-10130986D01*
X14162485Y-10130909D01*
X14162758Y-10130774D01*
X14163042Y-10130663D01*
X14163336Y-10130575D01*
X14163636Y-10130510D01*
X14163941Y-10130470D01*
X14164248Y-10130454D01*
X14164555Y-10130462D01*
X14164860Y-10130495D01*
X14165160Y-10130553D01*
X14165453Y-10130635D01*
X14165596Y-10130686D01*
X14165737Y-10130743D01*
X14165875Y-10130807D01*
X14166009Y-10130877D01*
X14166140Y-10130953D01*
X14166268Y-10131036D01*
X14222640Y-10169723D01*
X14222900Y-10169886D01*
X14223180Y-10170031D01*
X14223477Y-10170158D01*
X14223788Y-10170267D01*
X14224112Y-10170358D01*
X14224445Y-10170430D01*
X14224784Y-10170483D01*
X14225128Y-10170517D01*
X14225473Y-10170532D01*
X14225817Y-10170528D01*
X14226157Y-10170505D01*
X14226490Y-10170461D01*
X14226815Y-10170398D01*
X14227128Y-10170315D01*
X14227426Y-10170212D01*
X14227708Y-10170088D01*
X14272940Y-10151574D01*
X14273228Y-10151465D01*
X14273513Y-10151329D01*
X14273794Y-10151169D01*
X14274068Y-10150987D01*
X14274335Y-10150784D01*
X14274592Y-10150562D01*
X14274838Y-10150324D01*
X14275071Y-10150071D01*
X14275290Y-10149806D01*
X14275492Y-10149529D01*
X14275677Y-10149244D01*
X14275842Y-10148952D01*
X14275986Y-10148656D01*
X14276107Y-10148356D01*
X14276203Y-10148055D01*
X14276274Y-10147756D01*
X14288831Y-10080275D01*
X14288862Y-10080127D01*
X14288900Y-10079981D01*
X14288946Y-10079836D01*
X14288998Y-10079694D01*
X14289057Y-10079554D01*
X14289122Y-10079417D01*
X14289194Y-10079283D01*
X14289271Y-10079152D01*
X14289354Y-10079024D01*
X14289442Y-10078899D01*
X14289634Y-10078660D01*
X14289845Y-10078438D01*
X14290073Y-10078232D01*
X14290317Y-10078045D01*
X14290575Y-10077878D01*
X14290844Y-10077733D01*
X14290983Y-10077668D01*
X14291124Y-10077610D01*
X14291267Y-10077558D01*
X14291412Y-10077513D01*
X14291558Y-10077474D01*
X14291706Y-10077441D01*
X14291855Y-10077416D01*
X14292005Y-10077397D01*
X14292156Y-10077386D01*
X14292307Y-10077382D01*
X14359459Y-10077382D01*
X14359610Y-10077386D01*
G37*
X14359610Y-10077386D02*
X14359761Y-10077397D01*
X14359912Y-10077416D01*
X14360061Y-10077441D01*
X14360209Y-10077474D01*
X14360356Y-10077513D01*
X14360501Y-10077558D01*
X14360644Y-10077610D01*
X14360785Y-10077668D01*
X14360924Y-10077733D01*
X14361061Y-10077802D01*
X14361194Y-10077878D01*
X14361325Y-10077959D01*
X14361452Y-10078045D01*
X14361576Y-10078136D01*
X14361696Y-10078232D01*
X14361812Y-10078332D01*
X14361925Y-10078438D01*
X14362033Y-10078547D01*
X14362136Y-10078660D01*
X14362234Y-10078778D01*
X14362328Y-10078899D01*
X14362416Y-10079024D01*
X14362499Y-10079152D01*
X14362576Y-10079283D01*
X14362648Y-10079417D01*
X14362713Y-10079554D01*
X14362772Y-10079694D01*
X14362824Y-10079836D01*
X14362870Y-10079981D01*
X14362908Y-10080127D01*
X14362939Y-10080275D01*
X14375500Y-10147756D01*
X14375532Y-10147905D01*
X14375571Y-10148055D01*
X14375667Y-10148356D01*
X14375788Y-10148656D01*
X14375933Y-10148952D01*
X14376098Y-10149244D01*
X14376283Y-10149529D01*
X14376485Y-10149806D01*
X14376704Y-10150071D01*
X14376938Y-10150324D01*
X14377184Y-10150562D01*
X14377441Y-10150784D01*
X14377708Y-10150987D01*
X14377982Y-10151169D01*
X14378262Y-10151329D01*
X14378404Y-10151400D01*
X14378547Y-10151465D01*
X14378690Y-10151523D01*
X14378834Y-10151574D01*
X14424062Y-10170088D01*
X14424343Y-10170212D01*
X14424641Y-10170315D01*
X14424953Y-10170398D01*
X14425277Y-10170461D01*
X14425611Y-10170505D01*
X14425951Y-10170528D01*
X14426294Y-10170532D01*
X14426639Y-10170517D01*
X14426983Y-10170483D01*
X14427322Y-10170430D01*
X14427655Y-10170358D01*
X14427979Y-10170267D01*
X14428291Y-10170158D01*
X14428589Y-10170031D01*
X14428869Y-10169886D01*
X14429130Y-10169723D01*
X14485506Y-10131036D01*
X14485633Y-10130953D01*
X14485764Y-10130877D01*
X14485898Y-10130807D01*
X14486036Y-10130743D01*
X14486176Y-10130686D01*
X14486319Y-10130635D01*
X14486464Y-10130591D01*
X14486611Y-10130553D01*
X14486760Y-10130521D01*
X14486911Y-10130495D01*
X14487215Y-10130462D01*
X14487522Y-10130454D01*
X14487828Y-10130470D01*
X14488133Y-10130510D01*
X14488433Y-10130575D01*
X14488726Y-10130663D01*
X14488870Y-10130716D01*
X14489010Y-10130774D01*
X14489148Y-10130839D01*
X14489283Y-10130909D01*
X14489415Y-10130986D01*
X14489543Y-10131067D01*
X14489666Y-10131155D01*
X14489786Y-10131249D01*
X14489901Y-10131348D01*
X14490011Y-10131452D01*
X14537489Y-10178930D01*
X14537593Y-10179041D01*
X14537692Y-10179155D01*
X14537786Y-10179275D01*
X14537873Y-10179399D01*
X14537955Y-10179527D01*
X14538031Y-10179658D01*
X14538166Y-10179931D01*
X14538277Y-10180216D01*
X14538364Y-10180509D01*
X14538428Y-10180810D01*
X14538468Y-10181115D01*
X14538484Y-10181422D01*
X14538475Y-10181729D01*
X14538443Y-10182033D01*
X14538385Y-10182333D01*
X14538303Y-10182626D01*
X14538252Y-10182769D01*
X14538196Y-10182909D01*
X14538133Y-10183047D01*
X14538063Y-10183181D01*
X14537988Y-10183312D01*
X14537906Y-10183439D01*
X14499893Y-10238843D01*
X14499729Y-10239105D01*
X14499584Y-10239385D01*
X14499458Y-10239683D01*
X14499350Y-10239994D01*
X14499261Y-10240317D01*
X14499191Y-10240648D01*
X14499140Y-10240986D01*
X14499109Y-10241328D01*
X14499097Y-10241670D01*
X14499105Y-10242012D01*
X14499133Y-10242349D01*
X14499181Y-10242680D01*
X14499249Y-10243001D01*
X14499337Y-10243312D01*
X14499446Y-10243608D01*
X14499575Y-10243887D01*
X14519574Y-10290544D01*
X14519688Y-10290830D01*
X14519829Y-10291114D01*
X14519993Y-10291394D01*
X14520180Y-10291667D01*
X14520387Y-10291933D01*
X14520613Y-10292189D01*
X14520854Y-10292435D01*
X14521110Y-10292667D01*
X14521379Y-10292886D01*
X14521657Y-10293088D01*
X14521944Y-10293272D01*
X14522238Y-10293436D01*
X14522536Y-10293580D01*
X14522836Y-10293700D01*
X14523136Y-10293796D01*
X14523435Y-10293865D01*
X14588678Y-10305998D01*
X14588826Y-10306030D01*
X14588972Y-10306069D01*
X14589116Y-10306115D01*
X14589258Y-10306168D01*
X14589397Y-10306227D01*
X14589534Y-10306293D01*
X14589668Y-10306364D01*
X14589799Y-10306442D01*
X14590051Y-10306614D01*
X14590289Y-10306806D01*
X14590512Y-10307018D01*
X14590717Y-10307247D01*
X14590904Y-10307491D01*
X14591070Y-10307749D01*
X14591215Y-10308019D01*
X14591279Y-10308158D01*
X14591337Y-10308299D01*
X14591389Y-10308442D01*
X14591434Y-10308588D01*
X14591473Y-10308734D01*
X14591505Y-10308883D01*
X14591531Y-10309032D01*
X14591549Y-10309183D01*
X14591560Y-10309334D01*
X14591563Y-10309486D01*
X14591555Y-10376634D01*
X14591551Y-10376785D01*
X14591540Y-10376936D01*
X14591522Y-10377087D01*
X14591496Y-10377236D01*
X14591463Y-10377385D01*
X14591424Y-10377532D01*
X14591378Y-10377677D01*
X14591326Y-10377821D01*
X14591268Y-10377962D01*
X14591204Y-10378101D01*
X14591134Y-10378238D01*
X14591058Y-10378371D01*
X14590977Y-10378502D01*
X14590891Y-10378630D01*
X14590800Y-10378754D01*
X14590704Y-10378875D01*
X14590603Y-10378991D01*
X14590498Y-10379104D01*
X14590388Y-10379212D01*
X14590275Y-10379315D01*
X14590157Y-10379414D01*
X14590036Y-10379508D01*
X14589912Y-10379596D01*
X14589784Y-10379679D01*
X14589652Y-10379757D01*
X14589518Y-10379828D01*
X14589381Y-10379893D01*
X14589242Y-10379952D01*
X14589100Y-10380004D01*
X14588956Y-10380049D01*
X14588810Y-10380087D01*
X14588662Y-10380118D01*
X14525023Y-10391961D01*
X14524873Y-10391992D01*
X14524723Y-10392029D01*
X14524573Y-10392074D01*
X14524423Y-10392125D01*
X14524124Y-10392245D01*
X14523829Y-10392389D01*
X14523539Y-10392554D01*
X14523256Y-10392740D01*
X14522983Y-10392943D01*
X14522721Y-10393164D01*
X14522471Y-10393398D01*
X14522237Y-10393646D01*
X14522019Y-10393905D01*
X14521820Y-10394173D01*
X14521642Y-10394449D01*
X14521486Y-10394732D01*
X14521354Y-10395018D01*
X14521298Y-10395162D01*
X14521249Y-10395307D01*
X14501381Y-10444936D01*
X14501258Y-10445218D01*
X14501156Y-10445517D01*
X14501073Y-10445830D01*
X14501011Y-10446155D01*
X14500969Y-10446488D01*
X14500946Y-10446828D01*
X14500943Y-10447171D01*
X14500959Y-10447516D01*
X14500994Y-10447859D01*
X14501048Y-10448198D01*
X14501120Y-10448531D01*
X14501211Y-10448854D01*
X14501320Y-10449166D01*
X14501447Y-10449463D01*
X14501592Y-10449743D01*
X14501754Y-10450004D01*
X14537905Y-10502681D01*
X14537988Y-10502808D01*
X14538064Y-10502939D01*
X14538134Y-10503073D01*
X14538198Y-10503211D01*
X14538255Y-10503351D01*
X14538306Y-10503495D01*
X14538350Y-10503640D01*
X14538388Y-10503788D01*
X14538420Y-10503937D01*
X14538446Y-10504088D01*
X14538479Y-10504393D01*
X14538487Y-10504700D01*
X14538471Y-10505007D01*
X14538431Y-10505313D01*
X14538366Y-10505613D01*
X14538278Y-10505907D01*
X14538225Y-10506051D01*
X14538167Y-10506192D01*
X14538102Y-10506330D01*
X14538032Y-10506466D01*
X14537956Y-10506597D01*
X14537874Y-10506725D01*
X14537786Y-10506849D01*
X14537693Y-10506969D01*
X14537593Y-10507084D01*
X14537489Y-10507194D01*
X14490003Y-10554672D01*
X14489893Y-10554776D01*
X14489779Y-10554874D01*
X14489660Y-10554967D01*
X14489537Y-10555054D01*
X14489409Y-10555135D01*
X14489278Y-10555211D01*
X14489006Y-10555345D01*
X14488722Y-10555456D01*
X14488428Y-10555544D01*
X14488128Y-10555608D01*
X14487823Y-10555648D01*
X14487516Y-10555664D01*
X14487209Y-10555656D01*
X14486904Y-10555624D01*
X14486604Y-10555567D01*
X14486311Y-10555485D01*
X14486168Y-10555435D01*
X14486028Y-10555378D01*
X14485890Y-10555315D01*
X14485756Y-10555246D01*
X14485625Y-10555171D01*
X14485498Y-10555089D01*
X14433750Y-10519572D01*
X14433490Y-10519410D01*
X14433211Y-10519268D01*
X14432916Y-10519146D01*
X14432608Y-10519044D01*
X14432290Y-10518963D01*
X14431962Y-10518901D01*
X14431629Y-10518859D01*
X14431293Y-10518838D01*
X14430956Y-10518837D01*
X14430621Y-10518856D01*
X14430290Y-10518896D01*
X14429966Y-10518956D01*
X14429651Y-10519037D01*
X14429348Y-10519138D01*
X14429060Y-10519259D01*
X14428789Y-10519402D01*
X14405968Y-10531586D01*
X14405832Y-10531650D01*
X14405694Y-10531708D01*
X14405556Y-10531757D01*
X14405417Y-10531798D01*
X14405277Y-10531832D01*
X14405137Y-10531859D01*
X14404998Y-10531878D01*
X14404858Y-10531890D01*
X14404719Y-10531895D01*
X14404581Y-10531892D01*
X14404444Y-10531882D01*
X14404308Y-10531866D01*
X14404174Y-10531842D01*
X14404041Y-10531812D01*
X14403911Y-10531775D01*
X14403782Y-10531731D01*
X14403656Y-10531681D01*
X14403533Y-10531625D01*
X14403412Y-10531562D01*
X14403295Y-10531493D01*
X14403181Y-10531417D01*
X14403070Y-10531336D01*
X14402964Y-10531248D01*
X14402861Y-10531155D01*
X14402763Y-10531055D01*
X14402670Y-10530950D01*
X14402581Y-10530840D01*
X14402497Y-10530724D01*
X14402419Y-10530602D01*
X14402346Y-10530475D01*
X14402279Y-10530342D01*
X14402218Y-10530205D01*
X14355168Y-10416508D01*
X14355114Y-10416366D01*
X14355067Y-10416223D01*
X14355027Y-10416077D01*
X14354994Y-10415930D01*
X14354968Y-10415782D01*
X14354948Y-10415632D01*
X14354936Y-10415482D01*
X14354930Y-10415331D01*
X14354931Y-10415180D01*
X14354938Y-10415029D01*
X14354951Y-10414878D01*
X14354971Y-10414728D01*
X14354997Y-10414579D01*
X14355029Y-10414431D01*
X14355068Y-10414284D01*
X14355112Y-10414138D01*
X14355162Y-10413995D01*
X14355217Y-10413854D01*
X14355279Y-10413715D01*
X14355346Y-10413579D01*
X14355418Y-10413446D01*
X14355496Y-10413316D01*
X14355579Y-10413190D01*
X14355667Y-10413068D01*
X14355761Y-10412949D01*
X14355859Y-10412835D01*
X14355962Y-10412726D01*
X14356070Y-10412621D01*
X14356183Y-10412522D01*
X14356301Y-10412428D01*
X14356423Y-10412340D01*
X14356549Y-10412257D01*
X14362261Y-10408761D01*
X14362672Y-10408499D01*
X14363110Y-10408200D01*
X14363569Y-10407871D01*
X14364039Y-10407518D01*
X14364511Y-10407147D01*
X14364978Y-10406765D01*
X14365432Y-10406379D01*
X14365864Y-10405995D01*
X14369645Y-10403407D01*
X14373253Y-10400597D01*
X14376678Y-10397575D01*
X14379912Y-10394351D01*
X14382943Y-10390935D01*
X14385763Y-10387335D01*
X14388360Y-10383563D01*
X14390726Y-10379627D01*
X14392851Y-10375538D01*
X14394724Y-10371306D01*
X14396336Y-10366939D01*
X14397677Y-10362449D01*
X14398737Y-10357844D01*
X14399507Y-10353135D01*
X14399976Y-10348332D01*
X14400134Y-10343443D01*
X14400038Y-10339622D01*
X14399751Y-10335850D01*
X14399279Y-10332134D01*
X14398626Y-10328477D01*
X14397796Y-10324884D01*
X14396796Y-10321360D01*
X14395628Y-10317910D01*
X14394299Y-10314538D01*
X14392812Y-10311248D01*
X14391172Y-10308046D01*
X14389384Y-10304937D01*
X14387452Y-10301924D01*
X14385382Y-10299012D01*
X14383178Y-10296207D01*
X14380844Y-10293512D01*
X14378385Y-10290934D01*
X14375806Y-10288475D01*
X14373112Y-10286141D01*
X14370307Y-10283936D01*
X14367395Y-10281866D01*
X14364383Y-10279934D01*
X14361273Y-10278146D01*
X14358071Y-10276506D01*
X14354782Y-10275019D01*
X14351410Y-10273690D01*
X14347960Y-10272522D01*
X14344436Y-10271522D01*
X14340844Y-10270692D01*
X14337187Y-10270039D01*
X14333471Y-10269567D01*
X14329700Y-10269280D01*
X14325879Y-10269184D01*
X14322058Y-10269280D01*
X14318287Y-10269567D01*
X14314571Y-10270039D01*
X14310914Y-10270692D01*
X14307321Y-10271522D01*
X14303798Y-10272522D01*
X14300347Y-10273690D01*
X14296975Y-10275019D01*
X14293686Y-10276506D01*
X14290484Y-10278146D01*
X14287374Y-10279934D01*
X14284361Y-10281866D01*
X14281450Y-10283936D01*
X14278645Y-10286141D01*
X14275950Y-10288475D01*
X14273371Y-10290934D01*
X14270912Y-10293512D01*
X14268578Y-10296207D01*
X14266373Y-10299012D01*
X14264303Y-10301924D01*
X14262371Y-10304937D01*
X14260583Y-10308046D01*
X14258943Y-10311248D01*
X14257456Y-10314538D01*
X14256126Y-10317910D01*
X14254959Y-10321360D01*
X14253958Y-10324884D01*
X14253129Y-10328477D01*
X14252475Y-10332134D01*
X14252003Y-10335850D01*
X14251716Y-10339622D01*
X14251620Y-10343443D01*
X14251660Y-10345897D01*
X14251778Y-10348332D01*
X14251975Y-10350745D01*
X14252247Y-10353135D01*
X14252595Y-10355502D01*
X14253017Y-10357844D01*
X14253511Y-10360160D01*
X14254077Y-10362449D01*
X14254713Y-10364709D01*
X14255419Y-10366939D01*
X14256191Y-10369139D01*
X14257031Y-10371306D01*
X14257936Y-10373439D01*
X14258904Y-10375538D01*
X14261029Y-10379627D01*
X14263395Y-10383563D01*
X14265993Y-10387335D01*
X14268813Y-10390935D01*
X14271844Y-10394351D01*
X14275077Y-10397575D01*
X14278502Y-10400597D01*
X14282110Y-10403407D01*
X14285890Y-10405995D01*
X14286324Y-10406379D01*
X14286780Y-10406765D01*
X14287248Y-10407147D01*
X14287721Y-10407518D01*
X14288191Y-10407871D01*
X14288650Y-10408200D01*
X14289089Y-10408499D01*
X14289501Y-10408761D01*
X14295213Y-10412257D01*
X14295340Y-10412340D01*
X14295462Y-10412428D01*
X14295581Y-10412522D01*
X14295694Y-10412621D01*
X14295803Y-10412726D01*
X14295906Y-10412835D01*
X14296099Y-10413068D01*
X14296270Y-10413316D01*
X14296421Y-10413579D01*
X14296549Y-10413854D01*
X14296655Y-10414138D01*
X14296737Y-10414431D01*
X14296795Y-10414728D01*
X14296828Y-10415029D01*
X14296835Y-10415331D01*
X14296816Y-10415632D01*
X14296796Y-10415782D01*
X14296770Y-10415930D01*
X14296736Y-10416077D01*
X14296696Y-10416223D01*
X14296648Y-10416366D01*
X14296594Y-10416508D01*
X14249540Y-10530201D01*
X14249479Y-10530338D01*
X14249412Y-10530471D01*
X14249339Y-10530598D01*
X14249260Y-10530720D01*
X14249177Y-10530836D01*
X14249088Y-10530947D01*
X14248994Y-10531052D01*
X14248896Y-10531151D01*
X14248794Y-10531245D01*
X14248687Y-10531333D01*
X14248576Y-10531414D01*
X14248462Y-10531490D01*
X14248345Y-10531559D01*
X14248224Y-10531622D01*
X14248101Y-10531679D01*
X14247974Y-10531729D01*
X14247846Y-10531773D01*
X14247715Y-10531810D01*
X14247582Y-10531840D01*
X14247448Y-10531864D01*
X14247312Y-10531880D01*
X14247175Y-10531890D01*
X14247037Y-10531892D01*
X14246898Y-10531888D01*
X14246759Y-10531876D01*
X14246619Y-10531857D01*
X14246480Y-10531830D01*
X14246340Y-10531796D01*
X14246201Y-10531754D01*
X14246063Y-10531704D01*
X14245926Y-10531647D01*
X14245790Y-10531582D01*
X14222969Y-10519398D01*
X14222699Y-10519255D01*
X14222411Y-10519134D01*
X14222109Y-10519033D01*
X14221794Y-10518953D01*
X14221470Y-10518893D01*
X14221139Y-10518853D01*
X14220804Y-10518834D01*
X14220467Y-10518836D01*
X14220130Y-10518857D01*
X14219797Y-10518899D01*
X14219469Y-10518960D01*
X14219150Y-10519042D01*
X14218842Y-10519144D01*
X14218547Y-10519265D01*
X14218269Y-10519407D01*
X14218008Y-10519568D01*
X14166264Y-10555085D01*
X14166137Y-10555167D01*
X14166005Y-10555242D01*
X14165871Y-10555311D01*
X14165733Y-10555374D01*
X14165592Y-10555431D01*
X14165449Y-10555481D01*
X14165304Y-10555525D01*
X14165156Y-10555563D01*
X14165007Y-10555595D01*
X14164856Y-10555620D01*
X14164551Y-10555652D01*
X14164244Y-10555660D01*
X14163937Y-10555644D01*
X14163632Y-10555604D01*
X14163332Y-10555540D01*
X14163038Y-10555452D01*
X14162895Y-10555400D01*
X14162754Y-10555341D01*
X14162616Y-10555277D01*
X14162481Y-10555207D01*
X14162350Y-10555131D01*
X14162222Y-10555050D01*
X14162099Y-10554963D01*
X14161980Y-10554870D01*
X14161865Y-10554772D01*
X14161755Y-10554668D01*
X14114269Y-10507190D01*
X14114165Y-10507080D01*
X14114066Y-10506965D01*
X14113973Y-10506845D01*
X14113886Y-10506721D01*
X14113804Y-10506593D01*
X14113728Y-10506462D01*
X14113594Y-10506188D01*
X14113482Y-10505903D01*
X14113394Y-10505610D01*
X14113330Y-10505309D01*
X14113290Y-10505003D01*
X14113274Y-10504696D01*
X14113282Y-10504389D01*
X14113315Y-10504084D01*
X14113372Y-10503784D01*
X14113454Y-10503491D01*
X14113505Y-10503347D01*
X14113561Y-10503207D01*
X14113625Y-10503069D01*
X14113694Y-10502935D01*
X14113770Y-10502804D01*
X14113853Y-10502677D01*
X14150000Y-10450000D01*
X14150164Y-10449739D01*
X14150310Y-10449459D01*
X14150437Y-10449162D01*
X14150547Y-10448850D01*
X14150638Y-10448527D01*
X14150711Y-10448194D01*
X14150765Y-10447855D01*
X14150800Y-10447512D01*
X14150816Y-10447167D01*
X14150813Y-10446824D01*
X14150790Y-10446484D01*
X14150747Y-10446151D01*
X14150685Y-10445826D01*
X14150602Y-10445513D01*
X14150500Y-10445214D01*
X14150377Y-10444932D01*
X14130509Y-10395303D01*
X14130460Y-10395158D01*
X14130405Y-10395014D01*
X14130273Y-10394728D01*
X14130117Y-10394446D01*
X14129939Y-10394169D01*
X14129739Y-10393901D01*
X14129521Y-10393642D01*
X14129286Y-10393394D01*
X14129035Y-10393160D01*
X14128772Y-10392940D01*
X14128498Y-10392736D01*
X14128215Y-10392550D01*
X14127925Y-10392385D01*
X14127629Y-10392241D01*
X14127331Y-10392121D01*
X14127031Y-10392025D01*
X14126881Y-10391988D01*
X14126731Y-10391957D01*
X14063092Y-10380114D01*
X14062944Y-10380083D01*
X14062797Y-10380045D01*
X14062653Y-10380000D01*
X14062511Y-10379948D01*
X14062371Y-10379889D01*
X14062234Y-10379824D01*
X14062100Y-10379753D01*
X14061969Y-10379675D01*
X14061841Y-10379592D01*
X14061716Y-10379504D01*
X14061477Y-10379311D01*
X14061255Y-10379100D01*
X14061049Y-10378871D01*
X14060862Y-10378626D01*
X14060695Y-10378367D01*
X14060550Y-10378097D01*
X14060427Y-10377817D01*
X14060375Y-10377673D01*
X14060330Y-10377528D01*
X14060290Y-10377381D01*
X14060258Y-10377232D01*
X14060233Y-10377083D01*
X14060214Y-10376933D01*
X14060203Y-10376781D01*
X14060199Y-10376630D01*
X14060195Y-10309482D01*
X14060199Y-10309331D01*
X14060210Y-10309180D01*
X14060228Y-10309030D01*
X14060254Y-10308880D01*
X14060286Y-10308732D01*
X14060325Y-10308585D01*
X14060371Y-10308440D01*
X14060423Y-10308297D01*
X14060481Y-10308156D01*
X14060545Y-10308018D01*
X14060614Y-10307881D01*
X14060690Y-10307748D01*
X14060771Y-10307617D01*
X14060857Y-10307490D01*
X14060948Y-10307366D01*
X14061043Y-10307246D01*
X14061144Y-10307130D01*
X14061249Y-10307017D01*
X14061358Y-10306909D01*
X14061472Y-10306806D01*
X14061589Y-10306707D01*
X14061710Y-10306614D01*
X14061835Y-10306525D01*
X14061963Y-10306442D01*
X14062094Y-10306364D01*
X14062229Y-10306293D01*
X14062366Y-10306227D01*
X14062506Y-10306168D01*
X14062648Y-10306115D01*
X14062793Y-10306069D01*
X14062940Y-10306030D01*
X14063088Y-10305998D01*
X14128327Y-10293865D01*
X14128477Y-10293834D01*
X14128627Y-10293796D01*
X14128929Y-10293700D01*
X14129230Y-10293580D01*
X14129528Y-10293436D01*
X14129822Y-10293272D01*
X14130109Y-10293088D01*
X14130388Y-10292886D01*
X14130656Y-10292667D01*
X14130912Y-10292435D01*
X14131153Y-10292189D01*
X14131378Y-10291933D01*
X14131585Y-10291667D01*
X14131771Y-10291394D01*
X14131935Y-10291114D01*
X14132075Y-10290830D01*
X14132135Y-10290687D01*
X14132188Y-10290544D01*
X14152191Y-10243887D01*
X14152319Y-10243608D01*
X14152428Y-10243312D01*
X14152516Y-10243001D01*
X14152583Y-10242680D01*
X14152631Y-10242349D01*
X14152658Y-10242012D01*
X14152666Y-10241670D01*
X14152655Y-10241328D01*
X14152623Y-10240986D01*
X14152573Y-10240648D01*
X14152504Y-10240317D01*
X14152416Y-10239994D01*
X14152309Y-10239683D01*
X14152183Y-10239385D01*
X14152039Y-10239105D01*
X14151877Y-10238843D01*
X14113860Y-10183439D01*
X14113778Y-10183312D01*
X14113702Y-10183181D01*
X14113632Y-10183047D01*
X14113568Y-10182909D01*
X14113511Y-10182769D01*
X14113461Y-10182626D01*
X14113416Y-10182481D01*
X14113378Y-10182333D01*
X14113346Y-10182184D01*
X14113321Y-10182033D01*
X14113288Y-10181729D01*
X14113280Y-10181422D01*
X14113296Y-10181115D01*
X14113337Y-10180810D01*
X14113401Y-10180509D01*
X14113489Y-10180216D01*
X14113542Y-10180072D01*
X14113601Y-10179931D01*
X14113665Y-10179793D01*
X14113736Y-10179658D01*
X14113812Y-10179527D01*
X14113894Y-10179399D01*
X14113981Y-10179275D01*
X14114074Y-10179155D01*
X14114173Y-10179041D01*
X14114277Y-10178930D01*
X14161759Y-10131452D01*
X14161869Y-10131348D01*
X14161984Y-10131249D01*
X14162103Y-10131155D01*
X14162226Y-10131067D01*
X14162354Y-10130986D01*
X14162485Y-10130909D01*
X14162758Y-10130774D01*
X14163042Y-10130663D01*
X14163336Y-10130575D01*
X14163636Y-10130510D01*
X14163941Y-10130470D01*
X14164248Y-10130454D01*
X14164555Y-10130462D01*
X14164860Y-10130495D01*
X14165160Y-10130553D01*
X14165453Y-10130635D01*
X14165596Y-10130686D01*
X14165737Y-10130743D01*
X14165875Y-10130807D01*
X14166009Y-10130877D01*
X14166140Y-10130953D01*
X14166268Y-10131036D01*
X14222640Y-10169723D01*
X14222900Y-10169886D01*
X14223180Y-10170031D01*
X14223477Y-10170158D01*
X14223788Y-10170267D01*
X14224112Y-10170358D01*
X14224445Y-10170430D01*
X14224784Y-10170483D01*
X14225128Y-10170517D01*
X14225473Y-10170532D01*
X14225817Y-10170528D01*
X14226157Y-10170505D01*
X14226490Y-10170461D01*
X14226815Y-10170398D01*
X14227128Y-10170315D01*
X14227426Y-10170212D01*
X14227708Y-10170088D01*
X14272940Y-10151574D01*
X14273228Y-10151465D01*
X14273513Y-10151329D01*
X14273794Y-10151169D01*
X14274068Y-10150987D01*
X14274335Y-10150784D01*
X14274592Y-10150562D01*
X14274838Y-10150324D01*
X14275071Y-10150071D01*
X14275290Y-10149806D01*
X14275492Y-10149529D01*
X14275677Y-10149244D01*
X14275842Y-10148952D01*
X14275986Y-10148656D01*
X14276107Y-10148356D01*
X14276203Y-10148055D01*
X14276274Y-10147756D01*
X14288831Y-10080275D01*
X14288862Y-10080127D01*
X14288900Y-10079981D01*
X14288946Y-10079836D01*
X14288998Y-10079694D01*
X14289057Y-10079554D01*
X14289122Y-10079417D01*
X14289194Y-10079283D01*
X14289271Y-10079152D01*
X14289354Y-10079024D01*
X14289442Y-10078899D01*
X14289634Y-10078660D01*
X14289845Y-10078438D01*
X14290073Y-10078232D01*
X14290317Y-10078045D01*
X14290575Y-10077878D01*
X14290844Y-10077733D01*
X14290983Y-10077668D01*
X14291124Y-10077610D01*
X14291267Y-10077558D01*
X14291412Y-10077513D01*
X14291558Y-10077474D01*
X14291706Y-10077441D01*
X14291855Y-10077416D01*
X14292005Y-10077397D01*
X14292156Y-10077386D01*
X14292307Y-10077382D01*
X14359459Y-10077382D01*
X14359610Y-10077386D01*
D11*
G36*
X14538718Y-9549297D02*
G01*
X14538780Y-9549303D01*
X14538842Y-9549312D01*
X14538903Y-9549324D01*
X14538962Y-9549340D01*
X14539021Y-9549358D01*
X14539079Y-9549380D01*
X14539135Y-9549406D01*
X14539189Y-9549434D01*
X14539242Y-9549465D01*
X14539293Y-9549499D01*
X14539342Y-9549535D01*
X14539389Y-9549575D01*
X14539434Y-9549617D01*
X14539476Y-9549661D01*
X14539516Y-9549708D01*
X14539554Y-9549758D01*
X14539589Y-9549809D01*
X14544425Y-9557205D01*
X14548976Y-9564757D01*
X14553239Y-9572462D01*
X14557209Y-9580317D01*
X14560883Y-9588320D01*
X14564257Y-9596469D01*
X14567328Y-9604761D01*
X14570091Y-9613194D01*
X14572544Y-9621764D01*
X14574681Y-9630470D01*
X14576500Y-9639309D01*
X14577997Y-9648278D01*
X14579168Y-9657375D01*
X14580008Y-9666597D01*
X14580516Y-9675943D01*
X14580686Y-9685408D01*
X14580368Y-9697969D01*
X14579425Y-9710365D01*
X14577873Y-9722580D01*
X14575727Y-9734600D01*
X14573001Y-9746409D01*
X14569712Y-9757991D01*
X14565875Y-9769332D01*
X14561504Y-9780417D01*
X14556616Y-9791228D01*
X14551226Y-9801753D01*
X14545349Y-9811974D01*
X14539000Y-9821877D01*
X14532195Y-9831446D01*
X14524949Y-9840667D01*
X14517278Y-9849523D01*
X14509196Y-9857999D01*
X14500719Y-9866081D01*
X14491863Y-9873752D01*
X14482642Y-9880998D01*
X14473073Y-9887803D01*
X14463170Y-9894152D01*
X14452949Y-9900028D01*
X14442424Y-9905419D01*
X14431613Y-9910306D01*
X14420529Y-9914676D01*
X14409188Y-9918514D01*
X14397606Y-9921803D01*
X14385797Y-9924528D01*
X14373778Y-9926674D01*
X14361563Y-9928226D01*
X14349167Y-9929169D01*
X14336607Y-9929486D01*
X14336541Y-9929486D01*
X14324289Y-9929700D01*
X14312300Y-9930195D01*
X14300575Y-9930955D01*
X14289118Y-9931967D01*
X14277930Y-9933216D01*
X14267014Y-9934686D01*
X14246008Y-9938233D01*
X14226119Y-9942490D01*
X14207365Y-9947338D01*
X14189766Y-9952659D01*
X14173340Y-9958334D01*
X14158106Y-9964246D01*
X14144084Y-9970277D01*
X14131293Y-9976307D01*
X14119751Y-9982218D01*
X14109477Y-9987893D01*
X14100491Y-9993212D01*
X14086457Y-10002313D01*
X14086413Y-10002345D01*
X14086367Y-10002374D01*
X14086321Y-10002401D01*
X14086273Y-10002425D01*
X14086225Y-10002447D01*
X14086177Y-10002466D01*
X14086127Y-10002483D01*
X14086077Y-10002498D01*
X14086027Y-10002510D01*
X14085976Y-10002519D01*
X14085925Y-10002526D01*
X14085874Y-10002531D01*
X14085823Y-10002534D01*
X14085772Y-10002534D01*
X14085721Y-10002531D01*
X14085670Y-10002527D01*
X14085619Y-10002519D01*
X14085569Y-10002510D01*
X14085519Y-10002498D01*
X14085470Y-10002484D01*
X14085421Y-10002468D01*
X14085373Y-10002449D01*
X14085326Y-10002428D01*
X14085280Y-10002405D01*
X14085234Y-10002379D01*
X14085190Y-10002351D01*
X14085147Y-10002321D01*
X14085105Y-10002289D01*
X14085065Y-10002255D01*
X14085026Y-10002218D01*
X14084988Y-10002179D01*
X14084952Y-10002138D01*
X14084918Y-10002095D01*
X14084887Y-10002051D01*
X14084858Y-10002006D01*
X14084832Y-10001960D01*
X14084807Y-10001913D01*
X14084786Y-10001865D01*
X14084766Y-10001816D01*
X14084750Y-10001767D01*
X14084735Y-10001718D01*
X14084723Y-10001667D01*
X14084714Y-10001617D01*
X14084706Y-10001566D01*
X14084701Y-10001515D01*
X14084699Y-10001464D01*
X14084699Y-10001413D01*
X14084701Y-10001362D01*
X14084706Y-10001311D01*
X14084713Y-10001260D01*
X14084722Y-10001210D01*
X14084734Y-10001160D01*
X14084748Y-10001110D01*
X14084764Y-10001062D01*
X14084783Y-10001013D01*
X14084804Y-10000966D01*
X14084827Y-10000920D01*
X14084853Y-10000874D01*
X14084881Y-10000830D01*
X14084911Y-10000786D01*
X14084944Y-10000744D01*
X14084978Y-10000704D01*
X14085016Y-10000664D01*
X14085055Y-10000626D01*
X14262789Y-9822343D01*
X14262855Y-9822282D01*
X14262924Y-9822228D01*
X14262998Y-9822179D01*
X14263074Y-9822137D01*
X14263153Y-9822101D01*
X14263234Y-9822072D01*
X14263317Y-9822050D01*
X14263402Y-9822034D01*
X14263487Y-9822024D01*
X14263573Y-9822022D01*
X14263660Y-9822026D01*
X14263746Y-9822037D01*
X14263831Y-9822055D01*
X14263915Y-9822080D01*
X14263998Y-9822113D01*
X14264079Y-9822152D01*
X14268083Y-9824205D01*
X14272140Y-9826138D01*
X14276247Y-9827950D01*
X14280400Y-9829639D01*
X14284597Y-9831206D01*
X14288835Y-9832649D01*
X14293111Y-9833968D01*
X14297423Y-9835161D01*
X14301768Y-9836229D01*
X14306143Y-9837171D01*
X14310545Y-9837985D01*
X14314972Y-9838671D01*
X14319421Y-9839229D01*
X14323889Y-9839658D01*
X14328373Y-9839956D01*
X14332870Y-9840123D01*
X14341115Y-9840103D01*
X14349253Y-9839658D01*
X14357273Y-9838801D01*
X14365166Y-9837541D01*
X14372920Y-9835888D01*
X14380525Y-9833854D01*
X14387970Y-9831450D01*
X14395244Y-9828685D01*
X14402339Y-9825570D01*
X14409241Y-9822116D01*
X14415942Y-9818333D01*
X14422430Y-9814232D01*
X14428696Y-9809824D01*
X14434727Y-9805118D01*
X14440515Y-9800127D01*
X14446047Y-9794859D01*
X14451315Y-9789326D01*
X14456306Y-9783539D01*
X14461012Y-9777507D01*
X14465420Y-9771242D01*
X14469520Y-9764753D01*
X14473303Y-9758052D01*
X14476757Y-9751150D01*
X14479871Y-9744056D01*
X14482636Y-9736781D01*
X14485041Y-9729336D01*
X14487074Y-9721732D01*
X14488727Y-9713978D01*
X14489987Y-9706086D01*
X14490844Y-9698066D01*
X14491289Y-9689929D01*
X14491309Y-9681684D01*
X14491143Y-9677187D01*
X14490845Y-9672703D01*
X14490418Y-9668235D01*
X14489861Y-9663786D01*
X14489175Y-9659359D01*
X14488361Y-9654957D01*
X14487420Y-9650582D01*
X14486353Y-9646237D01*
X14485159Y-9641925D01*
X14483841Y-9637649D01*
X14482398Y-9633411D01*
X14480832Y-9629214D01*
X14479143Y-9625061D01*
X14477331Y-9620954D01*
X14475398Y-9616897D01*
X14473344Y-9612893D01*
X14473323Y-9612851D01*
X14473303Y-9612810D01*
X14473286Y-9612767D01*
X14473270Y-9612725D01*
X14473256Y-9612681D01*
X14473244Y-9612638D01*
X14473234Y-9612594D01*
X14473226Y-9612550D01*
X14473219Y-9612506D01*
X14473214Y-9612462D01*
X14473212Y-9612417D01*
X14473210Y-9612373D01*
X14473211Y-9612329D01*
X14473213Y-9612284D01*
X14473223Y-9612197D01*
X14473240Y-9612110D01*
X14473252Y-9612067D01*
X14473264Y-9612025D01*
X14473279Y-9611983D01*
X14473295Y-9611941D01*
X14473313Y-9611901D01*
X14473333Y-9611860D01*
X14473354Y-9611821D01*
X14473377Y-9611782D01*
X14473402Y-9611745D01*
X14473428Y-9611708D01*
X14473456Y-9611672D01*
X14473485Y-9611637D01*
X14473516Y-9611603D01*
X14473549Y-9611570D01*
X14537876Y-9549611D01*
X14537922Y-9549569D01*
X14537970Y-9549529D01*
X14538020Y-9549492D01*
X14538072Y-9549459D01*
X14538125Y-9549428D01*
X14538180Y-9549401D01*
X14538236Y-9549376D01*
X14538293Y-9549355D01*
X14538352Y-9549337D01*
X14538411Y-9549322D01*
X14538471Y-9549310D01*
X14538532Y-9549302D01*
X14538594Y-9549297D01*
X14538655Y-9549295D01*
X14538718Y-9549297D01*
G37*
X14538718Y-9549297D02*
X14538780Y-9549303D01*
X14538842Y-9549312D01*
X14538903Y-9549324D01*
X14538962Y-9549340D01*
X14539021Y-9549358D01*
X14539079Y-9549380D01*
X14539135Y-9549406D01*
X14539189Y-9549434D01*
X14539242Y-9549465D01*
X14539293Y-9549499D01*
X14539342Y-9549535D01*
X14539389Y-9549575D01*
X14539434Y-9549617D01*
X14539476Y-9549661D01*
X14539516Y-9549708D01*
X14539554Y-9549758D01*
X14539589Y-9549809D01*
X14544425Y-9557205D01*
X14548976Y-9564757D01*
X14553239Y-9572462D01*
X14557209Y-9580317D01*
X14560883Y-9588320D01*
X14564257Y-9596469D01*
X14567328Y-9604761D01*
X14570091Y-9613194D01*
X14572544Y-9621764D01*
X14574681Y-9630470D01*
X14576500Y-9639309D01*
X14577997Y-9648278D01*
X14579168Y-9657375D01*
X14580008Y-9666597D01*
X14580516Y-9675943D01*
X14580686Y-9685408D01*
X14580368Y-9697969D01*
X14579425Y-9710365D01*
X14577873Y-9722580D01*
X14575727Y-9734600D01*
X14573001Y-9746409D01*
X14569712Y-9757991D01*
X14565875Y-9769332D01*
X14561504Y-9780417D01*
X14556616Y-9791228D01*
X14551226Y-9801753D01*
X14545349Y-9811974D01*
X14539000Y-9821877D01*
X14532195Y-9831446D01*
X14524949Y-9840667D01*
X14517278Y-9849523D01*
X14509196Y-9857999D01*
X14500719Y-9866081D01*
X14491863Y-9873752D01*
X14482642Y-9880998D01*
X14473073Y-9887803D01*
X14463170Y-9894152D01*
X14452949Y-9900028D01*
X14442424Y-9905419D01*
X14431613Y-9910306D01*
X14420529Y-9914676D01*
X14409188Y-9918514D01*
X14397606Y-9921803D01*
X14385797Y-9924528D01*
X14373778Y-9926674D01*
X14361563Y-9928226D01*
X14349167Y-9929169D01*
X14336607Y-9929486D01*
X14336541Y-9929486D01*
X14324289Y-9929700D01*
X14312300Y-9930195D01*
X14300575Y-9930955D01*
X14289118Y-9931967D01*
X14277930Y-9933216D01*
X14267014Y-9934686D01*
X14246008Y-9938233D01*
X14226119Y-9942490D01*
X14207365Y-9947338D01*
X14189766Y-9952659D01*
X14173340Y-9958334D01*
X14158106Y-9964246D01*
X14144084Y-9970277D01*
X14131293Y-9976307D01*
X14119751Y-9982218D01*
X14109477Y-9987893D01*
X14100491Y-9993212D01*
X14086457Y-10002313D01*
X14086413Y-10002345D01*
X14086367Y-10002374D01*
X14086321Y-10002401D01*
X14086273Y-10002425D01*
X14086225Y-10002447D01*
X14086177Y-10002466D01*
X14086127Y-10002483D01*
X14086077Y-10002498D01*
X14086027Y-10002510D01*
X14085976Y-10002519D01*
X14085925Y-10002526D01*
X14085874Y-10002531D01*
X14085823Y-10002534D01*
X14085772Y-10002534D01*
X14085721Y-10002531D01*
X14085670Y-10002527D01*
X14085619Y-10002519D01*
X14085569Y-10002510D01*
X14085519Y-10002498D01*
X14085470Y-10002484D01*
X14085421Y-10002468D01*
X14085373Y-10002449D01*
X14085326Y-10002428D01*
X14085280Y-10002405D01*
X14085234Y-10002379D01*
X14085190Y-10002351D01*
X14085147Y-10002321D01*
X14085105Y-10002289D01*
X14085065Y-10002255D01*
X14085026Y-10002218D01*
X14084988Y-10002179D01*
X14084952Y-10002138D01*
X14084918Y-10002095D01*
X14084887Y-10002051D01*
X14084858Y-10002006D01*
X14084832Y-10001960D01*
X14084807Y-10001913D01*
X14084786Y-10001865D01*
X14084766Y-10001816D01*
X14084750Y-10001767D01*
X14084735Y-10001718D01*
X14084723Y-10001667D01*
X14084714Y-10001617D01*
X14084706Y-10001566D01*
X14084701Y-10001515D01*
X14084699Y-10001464D01*
X14084699Y-10001413D01*
X14084701Y-10001362D01*
X14084706Y-10001311D01*
X14084713Y-10001260D01*
X14084722Y-10001210D01*
X14084734Y-10001160D01*
X14084748Y-10001110D01*
X14084764Y-10001062D01*
X14084783Y-10001013D01*
X14084804Y-10000966D01*
X14084827Y-10000920D01*
X14084853Y-10000874D01*
X14084881Y-10000830D01*
X14084911Y-10000786D01*
X14084944Y-10000744D01*
X14084978Y-10000704D01*
X14085016Y-10000664D01*
X14085055Y-10000626D01*
X14262789Y-9822343D01*
X14262855Y-9822282D01*
X14262924Y-9822228D01*
X14262998Y-9822179D01*
X14263074Y-9822137D01*
X14263153Y-9822101D01*
X14263234Y-9822072D01*
X14263317Y-9822050D01*
X14263402Y-9822034D01*
X14263487Y-9822024D01*
X14263573Y-9822022D01*
X14263660Y-9822026D01*
X14263746Y-9822037D01*
X14263831Y-9822055D01*
X14263915Y-9822080D01*
X14263998Y-9822113D01*
X14264079Y-9822152D01*
X14268083Y-9824205D01*
X14272140Y-9826138D01*
X14276247Y-9827950D01*
X14280400Y-9829639D01*
X14284597Y-9831206D01*
X14288835Y-9832649D01*
X14293111Y-9833968D01*
X14297423Y-9835161D01*
X14301768Y-9836229D01*
X14306143Y-9837171D01*
X14310545Y-9837985D01*
X14314972Y-9838671D01*
X14319421Y-9839229D01*
X14323889Y-9839658D01*
X14328373Y-9839956D01*
X14332870Y-9840123D01*
X14341115Y-9840103D01*
X14349253Y-9839658D01*
X14357273Y-9838801D01*
X14365166Y-9837541D01*
X14372920Y-9835888D01*
X14380525Y-9833854D01*
X14387970Y-9831450D01*
X14395244Y-9828685D01*
X14402339Y-9825570D01*
X14409241Y-9822116D01*
X14415942Y-9818333D01*
X14422430Y-9814232D01*
X14428696Y-9809824D01*
X14434727Y-9805118D01*
X14440515Y-9800127D01*
X14446047Y-9794859D01*
X14451315Y-9789326D01*
X14456306Y-9783539D01*
X14461012Y-9777507D01*
X14465420Y-9771242D01*
X14469520Y-9764753D01*
X14473303Y-9758052D01*
X14476757Y-9751150D01*
X14479871Y-9744056D01*
X14482636Y-9736781D01*
X14485041Y-9729336D01*
X14487074Y-9721732D01*
X14488727Y-9713978D01*
X14489987Y-9706086D01*
X14490844Y-9698066D01*
X14491289Y-9689929D01*
X14491309Y-9681684D01*
X14491143Y-9677187D01*
X14490845Y-9672703D01*
X14490418Y-9668235D01*
X14489861Y-9663786D01*
X14489175Y-9659359D01*
X14488361Y-9654957D01*
X14487420Y-9650582D01*
X14486353Y-9646237D01*
X14485159Y-9641925D01*
X14483841Y-9637649D01*
X14482398Y-9633411D01*
X14480832Y-9629214D01*
X14479143Y-9625061D01*
X14477331Y-9620954D01*
X14475398Y-9616897D01*
X14473344Y-9612893D01*
X14473323Y-9612851D01*
X14473303Y-9612810D01*
X14473286Y-9612767D01*
X14473270Y-9612725D01*
X14473256Y-9612681D01*
X14473244Y-9612638D01*
X14473234Y-9612594D01*
X14473226Y-9612550D01*
X14473219Y-9612506D01*
X14473214Y-9612462D01*
X14473212Y-9612417D01*
X14473210Y-9612373D01*
X14473211Y-9612329D01*
X14473213Y-9612284D01*
X14473223Y-9612197D01*
X14473240Y-9612110D01*
X14473252Y-9612067D01*
X14473264Y-9612025D01*
X14473279Y-9611983D01*
X14473295Y-9611941D01*
X14473313Y-9611901D01*
X14473333Y-9611860D01*
X14473354Y-9611821D01*
X14473377Y-9611782D01*
X14473402Y-9611745D01*
X14473428Y-9611708D01*
X14473456Y-9611672D01*
X14473485Y-9611637D01*
X14473516Y-9611603D01*
X14473549Y-9611570D01*
X14537876Y-9549611D01*
X14537922Y-9549569D01*
X14537970Y-9549529D01*
X14538020Y-9549492D01*
X14538072Y-9549459D01*
X14538125Y-9549428D01*
X14538180Y-9549401D01*
X14538236Y-9549376D01*
X14538293Y-9549355D01*
X14538352Y-9549337D01*
X14538411Y-9549322D01*
X14538471Y-9549310D01*
X14538532Y-9549302D01*
X14538594Y-9549297D01*
X14538655Y-9549295D01*
X14538718Y-9549297D01*
G36*
X14587448Y-9367796D02*
G01*
X14587499Y-9367801D01*
X14587550Y-9367808D01*
X14587600Y-9367817D01*
X14587650Y-9367829D01*
X14587699Y-9367843D01*
X14587748Y-9367859D01*
X14587796Y-9367878D01*
X14587843Y-9367899D01*
X14587889Y-9367922D01*
X14587934Y-9367948D01*
X14587978Y-9367976D01*
X14588021Y-9368006D01*
X14588063Y-9368038D01*
X14588104Y-9368073D01*
X14588143Y-9368109D01*
X14588180Y-9368148D01*
X14588216Y-9368189D01*
X14588250Y-9368232D01*
X14588282Y-9368276D01*
X14588311Y-9368321D01*
X14588337Y-9368367D01*
X14588361Y-9368414D01*
X14588383Y-9368462D01*
X14588402Y-9368511D01*
X14588419Y-9368560D01*
X14588433Y-9368610D01*
X14588446Y-9368660D01*
X14588455Y-9368710D01*
X14588462Y-9368761D01*
X14588467Y-9368812D01*
X14588470Y-9368863D01*
X14588470Y-9368915D01*
X14588467Y-9368966D01*
X14588463Y-9369017D01*
X14588456Y-9369067D01*
X14588446Y-9369118D01*
X14588435Y-9369168D01*
X14588421Y-9369217D01*
X14588404Y-9369266D01*
X14588386Y-9369314D01*
X14588365Y-9369361D01*
X14588341Y-9369408D01*
X14588316Y-9369453D01*
X14588288Y-9369498D01*
X14588258Y-9369541D01*
X14588225Y-9369583D01*
X14588190Y-9369624D01*
X14588153Y-9369663D01*
X14588114Y-9369701D01*
X14410380Y-9547957D01*
X14410313Y-9548021D01*
X14410242Y-9548078D01*
X14410167Y-9548129D01*
X14410088Y-9548173D01*
X14410007Y-9548210D01*
X14409924Y-9548240D01*
X14409838Y-9548263D01*
X14409751Y-9548279D01*
X14409663Y-9548289D01*
X14409575Y-9548291D01*
X14409486Y-9548285D01*
X14409398Y-9548273D01*
X14409310Y-9548253D01*
X14409224Y-9548226D01*
X14409139Y-9548191D01*
X14409057Y-9548149D01*
X14405052Y-9546095D01*
X14400995Y-9544162D01*
X14396889Y-9542351D01*
X14392736Y-9540661D01*
X14388539Y-9539095D01*
X14384301Y-9537652D01*
X14380024Y-9536333D01*
X14375712Y-9535139D01*
X14371367Y-9534071D01*
X14366992Y-9533130D01*
X14362590Y-9532316D01*
X14358163Y-9531629D01*
X14353715Y-9531072D01*
X14349247Y-9530643D01*
X14344763Y-9530345D01*
X14340265Y-9530177D01*
X14332021Y-9530198D01*
X14323883Y-9530642D01*
X14315862Y-9531500D01*
X14307970Y-9532760D01*
X14300216Y-9534413D01*
X14292611Y-9536446D01*
X14285166Y-9538851D01*
X14277891Y-9541616D01*
X14270797Y-9544731D01*
X14263894Y-9548185D01*
X14257193Y-9551968D01*
X14250705Y-9556069D01*
X14244440Y-9560477D01*
X14238408Y-9565182D01*
X14232621Y-9570174D01*
X14227088Y-9575442D01*
X14221821Y-9580975D01*
X14216829Y-9586762D01*
X14212124Y-9592794D01*
X14207716Y-9599059D01*
X14203615Y-9605548D01*
X14199833Y-9612248D01*
X14196379Y-9619151D01*
X14193264Y-9626245D01*
X14190499Y-9633520D01*
X14188095Y-9640965D01*
X14186061Y-9648569D01*
X14184409Y-9656323D01*
X14183149Y-9664215D01*
X14182291Y-9672235D01*
X14181847Y-9680372D01*
X14181826Y-9688616D01*
X14181993Y-9693114D01*
X14182290Y-9697598D01*
X14182718Y-9702066D01*
X14183275Y-9706515D01*
X14183961Y-9710941D01*
X14184774Y-9715344D01*
X14185715Y-9719719D01*
X14186783Y-9724064D01*
X14187976Y-9728376D01*
X14189294Y-9732652D01*
X14190737Y-9736890D01*
X14192304Y-9741087D01*
X14193993Y-9745240D01*
X14195805Y-9749346D01*
X14197738Y-9753403D01*
X14199791Y-9757408D01*
X14199813Y-9757449D01*
X14199832Y-9757491D01*
X14199850Y-9757533D01*
X14199865Y-9757576D01*
X14199879Y-9757619D01*
X14199891Y-9757663D01*
X14199901Y-9757707D01*
X14199910Y-9757751D01*
X14199916Y-9757795D01*
X14199921Y-9757839D01*
X14199924Y-9757883D01*
X14199925Y-9757928D01*
X14199925Y-9757972D01*
X14199922Y-9758016D01*
X14199912Y-9758104D01*
X14199895Y-9758191D01*
X14199884Y-9758234D01*
X14199871Y-9758276D01*
X14199857Y-9758318D01*
X14199840Y-9758359D01*
X14199822Y-9758400D01*
X14199803Y-9758440D01*
X14199782Y-9758480D01*
X14199759Y-9758518D01*
X14199734Y-9758556D01*
X14199708Y-9758593D01*
X14199680Y-9758629D01*
X14199650Y-9758664D01*
X14199619Y-9758698D01*
X14199586Y-9758731D01*
X14135260Y-9820690D01*
X14135214Y-9820730D01*
X14135167Y-9820768D01*
X14135119Y-9820804D01*
X14135068Y-9820836D01*
X14135016Y-9820866D01*
X14134963Y-9820892D01*
X14134908Y-9820916D01*
X14134853Y-9820937D01*
X14134796Y-9820954D01*
X14134738Y-9820969D01*
X14134680Y-9820981D01*
X14134621Y-9820989D01*
X14134561Y-9820994D01*
X14134501Y-9820996D01*
X14134440Y-9820995D01*
X14134380Y-9820991D01*
X14134320Y-9820983D01*
X14134260Y-9820972D01*
X14134202Y-9820958D01*
X14134145Y-9820940D01*
X14134088Y-9820920D01*
X14134033Y-9820897D01*
X14133980Y-9820871D01*
X14133928Y-9820842D01*
X14133877Y-9820810D01*
X14133829Y-9820776D01*
X14133782Y-9820739D01*
X14133737Y-9820700D01*
X14133694Y-9820658D01*
X14133654Y-9820613D01*
X14133615Y-9820567D01*
X14133579Y-9820518D01*
X14128744Y-9813122D01*
X14124192Y-9805570D01*
X14119930Y-9797865D01*
X14115960Y-9790010D01*
X14112286Y-9782007D01*
X14108911Y-9773858D01*
X14105841Y-9765566D01*
X14103077Y-9757134D01*
X14100625Y-9748563D01*
X14098487Y-9739857D01*
X14096668Y-9731019D01*
X14095172Y-9722049D01*
X14094001Y-9712952D01*
X14093160Y-9703730D01*
X14092653Y-9694385D01*
X14092483Y-9684919D01*
X14092801Y-9672358D01*
X14093743Y-9659963D01*
X14095295Y-9647747D01*
X14097442Y-9635727D01*
X14100167Y-9623918D01*
X14103456Y-9612336D01*
X14107294Y-9600995D01*
X14111664Y-9589911D01*
X14116552Y-9579099D01*
X14121942Y-9568575D01*
X14127820Y-9558353D01*
X14134168Y-9548450D01*
X14140973Y-9538881D01*
X14148219Y-9529661D01*
X14155891Y-9520804D01*
X14163973Y-9512328D01*
X14172449Y-9504246D01*
X14181306Y-9496575D01*
X14190526Y-9489329D01*
X14200096Y-9482524D01*
X14209999Y-9476176D01*
X14220220Y-9470299D01*
X14230744Y-9464909D01*
X14241556Y-9460021D01*
X14252640Y-9455651D01*
X14263981Y-9451814D01*
X14275563Y-9448525D01*
X14287371Y-9445799D01*
X14299391Y-9443653D01*
X14311606Y-9442101D01*
X14324001Y-9441158D01*
X14336561Y-9440841D01*
X14336627Y-9440841D01*
X14348879Y-9440627D01*
X14360869Y-9440133D01*
X14372593Y-9439372D01*
X14384051Y-9438360D01*
X14395239Y-9437111D01*
X14406154Y-9435641D01*
X14427160Y-9432094D01*
X14447050Y-9427837D01*
X14465804Y-9422990D01*
X14483403Y-9417669D01*
X14499829Y-9411993D01*
X14515062Y-9406081D01*
X14529084Y-9400051D01*
X14541876Y-9394021D01*
X14553418Y-9388109D01*
X14563691Y-9382434D01*
X14572677Y-9377115D01*
X14586711Y-9368014D01*
X14586756Y-9367982D01*
X14586801Y-9367953D01*
X14586848Y-9367926D01*
X14586895Y-9367902D01*
X14586943Y-9367880D01*
X14586992Y-9367861D01*
X14587041Y-9367844D01*
X14587091Y-9367830D01*
X14587142Y-9367818D01*
X14587192Y-9367808D01*
X14587243Y-9367801D01*
X14587294Y-9367796D01*
X14587346Y-9367794D01*
X14587397Y-9367794D01*
X14587448Y-9367796D01*
G37*
X14587448Y-9367796D02*
X14587499Y-9367801D01*
X14587550Y-9367808D01*
X14587600Y-9367817D01*
X14587650Y-9367829D01*
X14587699Y-9367843D01*
X14587748Y-9367859D01*
X14587796Y-9367878D01*
X14587843Y-9367899D01*
X14587889Y-9367922D01*
X14587934Y-9367948D01*
X14587978Y-9367976D01*
X14588021Y-9368006D01*
X14588063Y-9368038D01*
X14588104Y-9368073D01*
X14588143Y-9368109D01*
X14588180Y-9368148D01*
X14588216Y-9368189D01*
X14588250Y-9368232D01*
X14588282Y-9368276D01*
X14588311Y-9368321D01*
X14588337Y-9368367D01*
X14588361Y-9368414D01*
X14588383Y-9368462D01*
X14588402Y-9368511D01*
X14588419Y-9368560D01*
X14588433Y-9368610D01*
X14588446Y-9368660D01*
X14588455Y-9368710D01*
X14588462Y-9368761D01*
X14588467Y-9368812D01*
X14588470Y-9368863D01*
X14588470Y-9368915D01*
X14588467Y-9368966D01*
X14588463Y-9369017D01*
X14588456Y-9369067D01*
X14588446Y-9369118D01*
X14588435Y-9369168D01*
X14588421Y-9369217D01*
X14588404Y-9369266D01*
X14588386Y-9369314D01*
X14588365Y-9369361D01*
X14588341Y-9369408D01*
X14588316Y-9369453D01*
X14588288Y-9369498D01*
X14588258Y-9369541D01*
X14588225Y-9369583D01*
X14588190Y-9369624D01*
X14588153Y-9369663D01*
X14588114Y-9369701D01*
X14410380Y-9547957D01*
X14410313Y-9548021D01*
X14410242Y-9548078D01*
X14410167Y-9548129D01*
X14410088Y-9548173D01*
X14410007Y-9548210D01*
X14409924Y-9548240D01*
X14409838Y-9548263D01*
X14409751Y-9548279D01*
X14409663Y-9548289D01*
X14409575Y-9548291D01*
X14409486Y-9548285D01*
X14409398Y-9548273D01*
X14409310Y-9548253D01*
X14409224Y-9548226D01*
X14409139Y-9548191D01*
X14409057Y-9548149D01*
X14405052Y-9546095D01*
X14400995Y-9544162D01*
X14396889Y-9542351D01*
X14392736Y-9540661D01*
X14388539Y-9539095D01*
X14384301Y-9537652D01*
X14380024Y-9536333D01*
X14375712Y-9535139D01*
X14371367Y-9534071D01*
X14366992Y-9533130D01*
X14362590Y-9532316D01*
X14358163Y-9531629D01*
X14353715Y-9531072D01*
X14349247Y-9530643D01*
X14344763Y-9530345D01*
X14340265Y-9530177D01*
X14332021Y-9530198D01*
X14323883Y-9530642D01*
X14315862Y-9531500D01*
X14307970Y-9532760D01*
X14300216Y-9534413D01*
X14292611Y-9536446D01*
X14285166Y-9538851D01*
X14277891Y-9541616D01*
X14270797Y-9544731D01*
X14263894Y-9548185D01*
X14257193Y-9551968D01*
X14250705Y-9556069D01*
X14244440Y-9560477D01*
X14238408Y-9565182D01*
X14232621Y-9570174D01*
X14227088Y-9575442D01*
X14221821Y-9580975D01*
X14216829Y-9586762D01*
X14212124Y-9592794D01*
X14207716Y-9599059D01*
X14203615Y-9605548D01*
X14199833Y-9612248D01*
X14196379Y-9619151D01*
X14193264Y-9626245D01*
X14190499Y-9633520D01*
X14188095Y-9640965D01*
X14186061Y-9648569D01*
X14184409Y-9656323D01*
X14183149Y-9664215D01*
X14182291Y-9672235D01*
X14181847Y-9680372D01*
X14181826Y-9688616D01*
X14181993Y-9693114D01*
X14182290Y-9697598D01*
X14182718Y-9702066D01*
X14183275Y-9706515D01*
X14183961Y-9710941D01*
X14184774Y-9715344D01*
X14185715Y-9719719D01*
X14186783Y-9724064D01*
X14187976Y-9728376D01*
X14189294Y-9732652D01*
X14190737Y-9736890D01*
X14192304Y-9741087D01*
X14193993Y-9745240D01*
X14195805Y-9749346D01*
X14197738Y-9753403D01*
X14199791Y-9757408D01*
X14199813Y-9757449D01*
X14199832Y-9757491D01*
X14199850Y-9757533D01*
X14199865Y-9757576D01*
X14199879Y-9757619D01*
X14199891Y-9757663D01*
X14199901Y-9757707D01*
X14199910Y-9757751D01*
X14199916Y-9757795D01*
X14199921Y-9757839D01*
X14199924Y-9757883D01*
X14199925Y-9757928D01*
X14199925Y-9757972D01*
X14199922Y-9758016D01*
X14199912Y-9758104D01*
X14199895Y-9758191D01*
X14199884Y-9758234D01*
X14199871Y-9758276D01*
X14199857Y-9758318D01*
X14199840Y-9758359D01*
X14199822Y-9758400D01*
X14199803Y-9758440D01*
X14199782Y-9758480D01*
X14199759Y-9758518D01*
X14199734Y-9758556D01*
X14199708Y-9758593D01*
X14199680Y-9758629D01*
X14199650Y-9758664D01*
X14199619Y-9758698D01*
X14199586Y-9758731D01*
X14135260Y-9820690D01*
X14135214Y-9820730D01*
X14135167Y-9820768D01*
X14135119Y-9820804D01*
X14135068Y-9820836D01*
X14135016Y-9820866D01*
X14134963Y-9820892D01*
X14134908Y-9820916D01*
X14134853Y-9820937D01*
X14134796Y-9820954D01*
X14134738Y-9820969D01*
X14134680Y-9820981D01*
X14134621Y-9820989D01*
X14134561Y-9820994D01*
X14134501Y-9820996D01*
X14134440Y-9820995D01*
X14134380Y-9820991D01*
X14134320Y-9820983D01*
X14134260Y-9820972D01*
X14134202Y-9820958D01*
X14134145Y-9820940D01*
X14134088Y-9820920D01*
X14134033Y-9820897D01*
X14133980Y-9820871D01*
X14133928Y-9820842D01*
X14133877Y-9820810D01*
X14133829Y-9820776D01*
X14133782Y-9820739D01*
X14133737Y-9820700D01*
X14133694Y-9820658D01*
X14133654Y-9820613D01*
X14133615Y-9820567D01*
X14133579Y-9820518D01*
X14128744Y-9813122D01*
X14124192Y-9805570D01*
X14119930Y-9797865D01*
X14115960Y-9790010D01*
X14112286Y-9782007D01*
X14108911Y-9773858D01*
X14105841Y-9765566D01*
X14103077Y-9757134D01*
X14100625Y-9748563D01*
X14098487Y-9739857D01*
X14096668Y-9731019D01*
X14095172Y-9722049D01*
X14094001Y-9712952D01*
X14093160Y-9703730D01*
X14092653Y-9694385D01*
X14092483Y-9684919D01*
X14092801Y-9672358D01*
X14093743Y-9659963D01*
X14095295Y-9647747D01*
X14097442Y-9635727D01*
X14100167Y-9623918D01*
X14103456Y-9612336D01*
X14107294Y-9600995D01*
X14111664Y-9589911D01*
X14116552Y-9579099D01*
X14121942Y-9568575D01*
X14127820Y-9558353D01*
X14134168Y-9548450D01*
X14140973Y-9538881D01*
X14148219Y-9529661D01*
X14155891Y-9520804D01*
X14163973Y-9512328D01*
X14172449Y-9504246D01*
X14181306Y-9496575D01*
X14190526Y-9489329D01*
X14200096Y-9482524D01*
X14209999Y-9476176D01*
X14220220Y-9470299D01*
X14230744Y-9464909D01*
X14241556Y-9460021D01*
X14252640Y-9455651D01*
X14263981Y-9451814D01*
X14275563Y-9448525D01*
X14287371Y-9445799D01*
X14299391Y-9443653D01*
X14311606Y-9442101D01*
X14324001Y-9441158D01*
X14336561Y-9440841D01*
X14336627Y-9440841D01*
X14348879Y-9440627D01*
X14360869Y-9440133D01*
X14372593Y-9439372D01*
X14384051Y-9438360D01*
X14395239Y-9437111D01*
X14406154Y-9435641D01*
X14427160Y-9432094D01*
X14447050Y-9427837D01*
X14465804Y-9422990D01*
X14483403Y-9417669D01*
X14499829Y-9411993D01*
X14515062Y-9406081D01*
X14529084Y-9400051D01*
X14541876Y-9394021D01*
X14553418Y-9388109D01*
X14563691Y-9382434D01*
X14572677Y-9377115D01*
X14586711Y-9368014D01*
X14586756Y-9367982D01*
X14586801Y-9367953D01*
X14586848Y-9367926D01*
X14586895Y-9367902D01*
X14586943Y-9367880D01*
X14586992Y-9367861D01*
X14587041Y-9367844D01*
X14587091Y-9367830D01*
X14587142Y-9367818D01*
X14587192Y-9367808D01*
X14587243Y-9367801D01*
X14587294Y-9367796D01*
X14587346Y-9367794D01*
X14587397Y-9367794D01*
X14587448Y-9367796D01*
D12*
X14690476Y-9745238D02*
X14690476Y-9645238D01*
X14733333Y-9745238D02*
X14733333Y-9692857D01*
X14728571Y-9683333D01*
X14719048Y-9678571D01*
X14704762Y-9678571D01*
X14695238Y-9683333D01*
X14690476Y-9688095D01*
X14766667Y-9678571D02*
X14804762Y-9678571D01*
X14780952Y-9645238D02*
X14780952Y-9730952D01*
X14785714Y-9740476D01*
X14795238Y-9745238D01*
X14804762Y-9745238D01*
X14823809Y-9678571D02*
X14861905Y-9678571D01*
X14838095Y-9645238D02*
X14838095Y-9730952D01*
X14842857Y-9740476D01*
X14852381Y-9745238D01*
X14861905Y-9745238D01*
X14895238Y-9678571D02*
X14895238Y-9778571D01*
X14895238Y-9683333D02*
X14904762Y-9678571D01*
X14923809Y-9678571D01*
X14933333Y-9683333D01*
X14938095Y-9688095D01*
X14942857Y-9697619D01*
X14942857Y-9726190D01*
X14938095Y-9735714D01*
X14933333Y-9740476D01*
X14923809Y-9745238D01*
X14904762Y-9745238D01*
X14895238Y-9740476D01*
X14980952Y-9740476D02*
X14990476Y-9745238D01*
X15009524Y-9745238D01*
X15019048Y-9740476D01*
X15023809Y-9730952D01*
X15023809Y-9726190D01*
X15019048Y-9716667D01*
X15009524Y-9711905D01*
X14995238Y-9711905D01*
X14985714Y-9707143D01*
X14980952Y-9697619D01*
X14980952Y-9692857D01*
X14985714Y-9683333D01*
X14995238Y-9678571D01*
X15009524Y-9678571D01*
X15019048Y-9683333D01*
X15066667Y-9735714D02*
X15071428Y-9740476D01*
X15066667Y-9745238D01*
X15061905Y-9740476D01*
X15066667Y-9735714D01*
X15066667Y-9745238D01*
X15066667Y-9683333D02*
X15071428Y-9688095D01*
X15066667Y-9692857D01*
X15061905Y-9688095D01*
X15066667Y-9683333D01*
X15066667Y-9692857D01*
X15185714Y-9640476D02*
X15100000Y-9769048D01*
X15290476Y-9640476D02*
X15204762Y-9769048D01*
X15366667Y-9678571D02*
X15366667Y-9759524D01*
X15361905Y-9769048D01*
X15357143Y-9773810D01*
X15347619Y-9778571D01*
X15333333Y-9778571D01*
X15323809Y-9773810D01*
X15366667Y-9740476D02*
X15357143Y-9745238D01*
X15338095Y-9745238D01*
X15328571Y-9740476D01*
X15323809Y-9735714D01*
X15319048Y-9726190D01*
X15319048Y-9697619D01*
X15323809Y-9688095D01*
X15328571Y-9683333D01*
X15338095Y-9678571D01*
X15357143Y-9678571D01*
X15366667Y-9683333D01*
X15414286Y-9745238D02*
X15414286Y-9678571D01*
X15414286Y-9645238D02*
X15409524Y-9650000D01*
X15414286Y-9654762D01*
X15419048Y-9650000D01*
X15414286Y-9645238D01*
X15414286Y-9654762D01*
X15447619Y-9678571D02*
X15485714Y-9678571D01*
X15461905Y-9645238D02*
X15461905Y-9730952D01*
X15466667Y-9740476D01*
X15476190Y-9745238D01*
X15485714Y-9745238D01*
X15519048Y-9745238D02*
X15519048Y-9645238D01*
X15561905Y-9745238D02*
X15561905Y-9692857D01*
X15557143Y-9683333D01*
X15547619Y-9678571D01*
X15533333Y-9678571D01*
X15523809Y-9683333D01*
X15519048Y-9688095D01*
X15652381Y-9678571D02*
X15652381Y-9745238D01*
X15609524Y-9678571D02*
X15609524Y-9730952D01*
X15614286Y-9740476D01*
X15623809Y-9745238D01*
X15638095Y-9745238D01*
X15647619Y-9740476D01*
X15652381Y-9735714D01*
X15700000Y-9745238D02*
X15700000Y-9645238D01*
X15700000Y-9683333D02*
X15709524Y-9678571D01*
X15728571Y-9678571D01*
X15738095Y-9683333D01*
X15742857Y-9688095D01*
X15747619Y-9697619D01*
X15747619Y-9726190D01*
X15742857Y-9735714D01*
X15738095Y-9740476D01*
X15728571Y-9745238D01*
X15709524Y-9745238D01*
X15700000Y-9740476D01*
X15790476Y-9735714D02*
X15795238Y-9740476D01*
X15790476Y-9745238D01*
X15785714Y-9740476D01*
X15790476Y-9735714D01*
X15790476Y-9745238D01*
X15880952Y-9740476D02*
X15871428Y-9745238D01*
X15852381Y-9745238D01*
X15842857Y-9740476D01*
X15838095Y-9735714D01*
X15833333Y-9726190D01*
X15833333Y-9697619D01*
X15838095Y-9688095D01*
X15842857Y-9683333D01*
X15852381Y-9678571D01*
X15871428Y-9678571D01*
X15880952Y-9683333D01*
X15938095Y-9745238D02*
X15928571Y-9740476D01*
X15923809Y-9735714D01*
X15919048Y-9726190D01*
X15919048Y-9697619D01*
X15923809Y-9688095D01*
X15928571Y-9683333D01*
X15938095Y-9678571D01*
X15952381Y-9678571D01*
X15961905Y-9683333D01*
X15966667Y-9688095D01*
X15971428Y-9697619D01*
X15971428Y-9726190D01*
X15966667Y-9735714D01*
X15961905Y-9740476D01*
X15952381Y-9745238D01*
X15938095Y-9745238D01*
X16014286Y-9745238D02*
X16014286Y-9678571D01*
X16014286Y-9688095D02*
X16019048Y-9683333D01*
X16028571Y-9678571D01*
X16042857Y-9678571D01*
X16052381Y-9683333D01*
X16057143Y-9692857D01*
X16057143Y-9745238D01*
X16057143Y-9692857D02*
X16061905Y-9683333D01*
X16071428Y-9678571D01*
X16085714Y-9678571D01*
X16095238Y-9683333D01*
X16100000Y-9692857D01*
X16100000Y-9745238D01*
X16219048Y-9640476D02*
X16133333Y-9769048D01*
X16252381Y-9745238D02*
X16252381Y-9645238D01*
X16276190Y-9645238D01*
X16290476Y-9650000D01*
X16300000Y-9659524D01*
X16304762Y-9669048D01*
X16309524Y-9688095D01*
X16309524Y-9702381D01*
X16304762Y-9721429D01*
X16300000Y-9730952D01*
X16290476Y-9740476D01*
X16276190Y-9745238D01*
X16252381Y-9745238D01*
X16390476Y-9740476D02*
X16380952Y-9745238D01*
X16361905Y-9745238D01*
X16352381Y-9740476D01*
X16347619Y-9730952D01*
X16347619Y-9692857D01*
X16352381Y-9683333D01*
X16361905Y-9678571D01*
X16380952Y-9678571D01*
X16390476Y-9683333D01*
X16395238Y-9692857D01*
X16395238Y-9702381D01*
X16347619Y-9711905D01*
X16438095Y-9745238D02*
X16438095Y-9645238D01*
X16447619Y-9707143D02*
X16476190Y-9745238D01*
X16476190Y-9678571D02*
X16438095Y-9716667D01*
X16561905Y-9745238D02*
X16561905Y-9692857D01*
X16557143Y-9683333D01*
X16547619Y-9678571D01*
X16528571Y-9678571D01*
X16519048Y-9683333D01*
X16561905Y-9740476D02*
X16552381Y-9745238D01*
X16528571Y-9745238D01*
X16519048Y-9740476D01*
X16514286Y-9730952D01*
X16514286Y-9721429D01*
X16519048Y-9711905D01*
X16528571Y-9707143D01*
X16552381Y-9707143D01*
X16561905Y-9702381D01*
X16609524Y-9678571D02*
X16609524Y-9745238D01*
X16609524Y-9688095D02*
X16614286Y-9683333D01*
X16623809Y-9678571D01*
X16638095Y-9678571D01*
X16647619Y-9683333D01*
X16652381Y-9692857D01*
X16652381Y-9745238D01*
X16714286Y-9745238D02*
X16704762Y-9740476D01*
X16700000Y-9735714D01*
X16695238Y-9726190D01*
X16695238Y-9697619D01*
X16700000Y-9688095D01*
X16704762Y-9683333D01*
X16714286Y-9678571D01*
X16728571Y-9678571D01*
X16738095Y-9683333D01*
X16742857Y-9688095D01*
X16747619Y-9697619D01*
X16747619Y-9726190D01*
X16742857Y-9735714D01*
X16738095Y-9740476D01*
X16728571Y-9745238D01*
X16714286Y-9745238D01*
X16780952Y-9678571D02*
X16804762Y-9745238D01*
X16828571Y-9678571D01*
X16909524Y-9745238D02*
X16909524Y-9692857D01*
X16904762Y-9683333D01*
X16895238Y-9678571D01*
X16876190Y-9678571D01*
X16866667Y-9683333D01*
X16909524Y-9740476D02*
X16900000Y-9745238D01*
X16876190Y-9745238D01*
X16866667Y-9740476D01*
X16861905Y-9730952D01*
X16861905Y-9721429D01*
X16866667Y-9711905D01*
X16876190Y-9707143D01*
X16900000Y-9707143D01*
X16909524Y-9702381D01*
X14769048Y-10385714D02*
X14764286Y-10390476D01*
X14750000Y-10395238D01*
X14740476Y-10395238D01*
X14726190Y-10390476D01*
X14716667Y-10380952D01*
X14711905Y-10371429D01*
X14707143Y-10352381D01*
X14707143Y-10338095D01*
X14711905Y-10319048D01*
X14716667Y-10309524D01*
X14726190Y-10300000D01*
X14740476Y-10295238D01*
X14750000Y-10295238D01*
X14764286Y-10300000D01*
X14769048Y-10304762D01*
X14811905Y-10342857D02*
X14845238Y-10342857D01*
X14859524Y-10395238D02*
X14811905Y-10395238D01*
X14811905Y-10295238D01*
X14859524Y-10295238D01*
X14959524Y-10395238D02*
X14926190Y-10347619D01*
X14902381Y-10395238D02*
X14902381Y-10295238D01*
X14940476Y-10295238D01*
X14950000Y-10300000D01*
X14954762Y-10304762D01*
X14959524Y-10314286D01*
X14959524Y-10328571D01*
X14954762Y-10338095D01*
X14950000Y-10342857D01*
X14940476Y-10347619D01*
X14902381Y-10347619D01*
X15002381Y-10395238D02*
X15002381Y-10295238D01*
X15059524Y-10395238D01*
X15059524Y-10295238D01*
X15107143Y-10357143D02*
X15183333Y-10357143D01*
X15250000Y-10295238D02*
X15269048Y-10295238D01*
X15278571Y-10300000D01*
X15288095Y-10309524D01*
X15292857Y-10328571D01*
X15292857Y-10361905D01*
X15288095Y-10380952D01*
X15278571Y-10390476D01*
X15269048Y-10395238D01*
X15250000Y-10395238D01*
X15240476Y-10390476D01*
X15230952Y-10380952D01*
X15226190Y-10361905D01*
X15226190Y-10328571D01*
X15230952Y-10309524D01*
X15240476Y-10300000D01*
X15250000Y-10295238D01*
X15335714Y-10395238D02*
X15335714Y-10295238D01*
X15335714Y-10342857D02*
X15392857Y-10342857D01*
X15392857Y-10395238D02*
X15392857Y-10295238D01*
X15488095Y-10395238D02*
X15440476Y-10395238D01*
X15440476Y-10295238D01*
X15521428Y-10357143D02*
X15597619Y-10357143D01*
X15635714Y-10328571D02*
X15659524Y-10395238D01*
X15683333Y-10328571D01*
X15716667Y-10304762D02*
X15721428Y-10300000D01*
X15730952Y-10295238D01*
X15754762Y-10295238D01*
X15764286Y-10300000D01*
X15769048Y-10304762D01*
X15773809Y-10314286D01*
X15773809Y-10323810D01*
X15769048Y-10338095D01*
X15711905Y-10395238D01*
X15773809Y-10395238D01*
X15816667Y-10357143D02*
X15892857Y-10357143D01*
X15935714Y-10390476D02*
X15950000Y-10395238D01*
X15973809Y-10395238D01*
X15983333Y-10390476D01*
X15988095Y-10385714D01*
X15992857Y-10376190D01*
X15992857Y-10366667D01*
X15988095Y-10357143D01*
X15983333Y-10352381D01*
X15973809Y-10347619D01*
X15954762Y-10342857D01*
X15945238Y-10338095D01*
X15940476Y-10333333D01*
X15935714Y-10323810D01*
X15935714Y-10314286D01*
X15940476Y-10304762D01*
X15945238Y-10300000D01*
X15954762Y-10295238D01*
X15978571Y-10295238D01*
X15992857Y-10300000D01*
%TO.C,F1*%
X15977917Y-5792857D02*
X15944583Y-5792857D01*
X15944583Y-5845238D02*
X15944583Y-5745238D01*
X15992202Y-5745238D01*
X16082678Y-5845238D02*
X16025536Y-5845238D01*
X16054107Y-5845238D02*
X16054107Y-5745238D01*
X16044583Y-5759524D01*
X16035059Y-5769048D01*
X16025536Y-5773809D01*
%TO.C,C16*%
X13476786Y-7414286D02*
X13480357Y-7419048D01*
X13483928Y-7433333D01*
X13483928Y-7442857D01*
X13480357Y-7457143D01*
X13473214Y-7466667D01*
X13466071Y-7471428D01*
X13451786Y-7476190D01*
X13441071Y-7476190D01*
X13426786Y-7471428D01*
X13419643Y-7466667D01*
X13412500Y-7457143D01*
X13408928Y-7442857D01*
X13408928Y-7433333D01*
X13412500Y-7419048D01*
X13416071Y-7414286D01*
X13483928Y-7319048D02*
X13483928Y-7376190D01*
X13483928Y-7347619D02*
X13408928Y-7347619D01*
X13419643Y-7357143D01*
X13426786Y-7366667D01*
X13430357Y-7376190D01*
X13408928Y-7233333D02*
X13408928Y-7252381D01*
X13412500Y-7261905D01*
X13416071Y-7266667D01*
X13426786Y-7276190D01*
X13441071Y-7280952D01*
X13469643Y-7280952D01*
X13476786Y-7276190D01*
X13480357Y-7271428D01*
X13483928Y-7261905D01*
X13483928Y-7242857D01*
X13480357Y-7233333D01*
X13476786Y-7228571D01*
X13469643Y-7223809D01*
X13451786Y-7223809D01*
X13444643Y-7228571D01*
X13441071Y-7233333D01*
X13437500Y-7242857D01*
X13437500Y-7261905D01*
X13441071Y-7271428D01*
X13444643Y-7276190D01*
X13451786Y-7280952D01*
%TO.C,R3*%
X15130238Y-6452667D02*
X15082619Y-6486000D01*
X15130238Y-6509809D02*
X15030238Y-6509809D01*
X15030238Y-6471714D01*
X15035000Y-6462190D01*
X15039762Y-6457428D01*
X15049286Y-6452667D01*
X15063571Y-6452667D01*
X15073095Y-6457428D01*
X15077857Y-6462190D01*
X15082619Y-6471714D01*
X15082619Y-6509809D01*
X15030238Y-6419333D02*
X15030238Y-6357428D01*
X15068333Y-6390762D01*
X15068333Y-6376476D01*
X15073095Y-6366952D01*
X15077857Y-6362190D01*
X15087381Y-6357428D01*
X15111190Y-6357428D01*
X15120714Y-6362190D01*
X15125476Y-6366952D01*
X15130238Y-6376476D01*
X15130238Y-6405048D01*
X15125476Y-6414571D01*
X15120714Y-6419333D01*
%TO.C,C1*%
X14165714Y-5576667D02*
X14170476Y-5581429D01*
X14175238Y-5595714D01*
X14175238Y-5605238D01*
X14170476Y-5619524D01*
X14160952Y-5629048D01*
X14151428Y-5633809D01*
X14132381Y-5638571D01*
X14118095Y-5638571D01*
X14099048Y-5633809D01*
X14089524Y-5629048D01*
X14080000Y-5619524D01*
X14075238Y-5605238D01*
X14075238Y-5595714D01*
X14080000Y-5581429D01*
X14084762Y-5576667D01*
X14175238Y-5481429D02*
X14175238Y-5538571D01*
X14175238Y-5510000D02*
X14075238Y-5510000D01*
X14089524Y-5519524D01*
X14099048Y-5529048D01*
X14103809Y-5538571D01*
%TO.C,C17*%
X14005714Y-7464286D02*
X14010476Y-7469048D01*
X14015238Y-7483333D01*
X14015238Y-7492857D01*
X14010476Y-7507143D01*
X14000952Y-7516667D01*
X13991428Y-7521428D01*
X13972381Y-7526190D01*
X13958095Y-7526190D01*
X13939048Y-7521428D01*
X13929524Y-7516667D01*
X13920000Y-7507143D01*
X13915238Y-7492857D01*
X13915238Y-7483333D01*
X13920000Y-7469048D01*
X13924762Y-7464286D01*
X14015238Y-7369048D02*
X14015238Y-7426190D01*
X14015238Y-7397619D02*
X13915238Y-7397619D01*
X13929524Y-7407143D01*
X13939048Y-7416667D01*
X13943809Y-7426190D01*
X13915238Y-7335714D02*
X13915238Y-7269048D01*
X14015238Y-7311905D01*
%TO.C,C14*%
X13235714Y-6476714D02*
X13230952Y-6481476D01*
X13216667Y-6486238D01*
X13207143Y-6486238D01*
X13192857Y-6481476D01*
X13183333Y-6471952D01*
X13178571Y-6462428D01*
X13173809Y-6443381D01*
X13173809Y-6429095D01*
X13178571Y-6410048D01*
X13183333Y-6400524D01*
X13192857Y-6391000D01*
X13207143Y-6386238D01*
X13216667Y-6386238D01*
X13230952Y-6391000D01*
X13235714Y-6395762D01*
X13330952Y-6486238D02*
X13273809Y-6486238D01*
X13302381Y-6486238D02*
X13302381Y-6386238D01*
X13292857Y-6400524D01*
X13283333Y-6410048D01*
X13273809Y-6414809D01*
X13416667Y-6419571D02*
X13416667Y-6486238D01*
X13392857Y-6381476D02*
X13369048Y-6452905D01*
X13430952Y-6452905D01*
%TO.C,LED2*%
X14831178Y-8020238D02*
X14783559Y-8020238D01*
X14783559Y-7920238D01*
X14864512Y-7967857D02*
X14897845Y-7967857D01*
X14912131Y-8020238D02*
X14864512Y-8020238D01*
X14864512Y-7920238D01*
X14912131Y-7920238D01*
X14954988Y-8020238D02*
X14954988Y-7920238D01*
X14978798Y-7920238D01*
X14993083Y-7925000D01*
X15002607Y-7934524D01*
X15007369Y-7944048D01*
X15012131Y-7963095D01*
X15012131Y-7977381D01*
X15007369Y-7996428D01*
X15002607Y-8005952D01*
X14993083Y-8015476D01*
X14978798Y-8020238D01*
X14954988Y-8020238D01*
X15050226Y-7929762D02*
X15054988Y-7925000D01*
X15064512Y-7920238D01*
X15088321Y-7920238D01*
X15097845Y-7925000D01*
X15102607Y-7929762D01*
X15107369Y-7939286D01*
X15107369Y-7948809D01*
X15102607Y-7963095D01*
X15045464Y-8020238D01*
X15107369Y-8020238D01*
%TO.C,C13*%
X14065714Y-5584286D02*
X14070476Y-5589048D01*
X14075238Y-5603333D01*
X14075238Y-5612857D01*
X14070476Y-5627143D01*
X14060952Y-5636667D01*
X14051428Y-5641428D01*
X14032381Y-5646190D01*
X14018095Y-5646190D01*
X13999048Y-5641428D01*
X13989524Y-5636667D01*
X13980000Y-5627143D01*
X13975238Y-5612857D01*
X13975238Y-5603333D01*
X13980000Y-5589048D01*
X13984762Y-5584286D01*
X14075238Y-5489048D02*
X14075238Y-5546190D01*
X14075238Y-5517619D02*
X13975238Y-5517619D01*
X13989524Y-5527143D01*
X13999048Y-5536667D01*
X14003809Y-5546190D01*
X13975238Y-5455714D02*
X13975238Y-5393810D01*
X14013333Y-5427143D01*
X14013333Y-5412857D01*
X14018095Y-5403333D01*
X14022857Y-5398571D01*
X14032381Y-5393810D01*
X14056190Y-5393810D01*
X14065714Y-5398571D01*
X14070476Y-5403333D01*
X14075238Y-5412857D01*
X14075238Y-5441429D01*
X14070476Y-5450952D01*
X14065714Y-5455714D01*
%TO.C,C18*%
X13885714Y-7464286D02*
X13890476Y-7469048D01*
X13895238Y-7483333D01*
X13895238Y-7492857D01*
X13890476Y-7507143D01*
X13880952Y-7516667D01*
X13871428Y-7521428D01*
X13852381Y-7526190D01*
X13838095Y-7526190D01*
X13819048Y-7521428D01*
X13809524Y-7516667D01*
X13800000Y-7507143D01*
X13795238Y-7492857D01*
X13795238Y-7483333D01*
X13800000Y-7469048D01*
X13804762Y-7464286D01*
X13895238Y-7369048D02*
X13895238Y-7426190D01*
X13895238Y-7397619D02*
X13795238Y-7397619D01*
X13809524Y-7407143D01*
X13819048Y-7416667D01*
X13823809Y-7426190D01*
X13838095Y-7311905D02*
X13833333Y-7321428D01*
X13828571Y-7326190D01*
X13819048Y-7330952D01*
X13814286Y-7330952D01*
X13804762Y-7326190D01*
X13800000Y-7321428D01*
X13795238Y-7311905D01*
X13795238Y-7292857D01*
X13800000Y-7283333D01*
X13804762Y-7278571D01*
X13814286Y-7273809D01*
X13819048Y-7273809D01*
X13828571Y-7278571D01*
X13833333Y-7283333D01*
X13838095Y-7292857D01*
X13838095Y-7311905D01*
X13842857Y-7321428D01*
X13847619Y-7326190D01*
X13857143Y-7330952D01*
X13876190Y-7330952D01*
X13885714Y-7326190D01*
X13890476Y-7321428D01*
X13895238Y-7311905D01*
X13895238Y-7292857D01*
X13890476Y-7283333D01*
X13885714Y-7278571D01*
X13876190Y-7273809D01*
X13857143Y-7273809D01*
X13847619Y-7278571D01*
X13842857Y-7283333D01*
X13838095Y-7292857D01*
%TO.C,C21*%
X12735714Y-6210714D02*
X12730952Y-6215476D01*
X12716667Y-6220238D01*
X12707143Y-6220238D01*
X12692857Y-6215476D01*
X12683333Y-6205952D01*
X12678571Y-6196428D01*
X12673809Y-6177381D01*
X12673809Y-6163095D01*
X12678571Y-6144048D01*
X12683333Y-6134524D01*
X12692857Y-6125000D01*
X12707143Y-6120238D01*
X12716667Y-6120238D01*
X12730952Y-6125000D01*
X12735714Y-6129762D01*
X12773809Y-6129762D02*
X12778571Y-6125000D01*
X12788095Y-6120238D01*
X12811905Y-6120238D01*
X12821428Y-6125000D01*
X12826190Y-6129762D01*
X12830952Y-6139286D01*
X12830952Y-6148809D01*
X12826190Y-6163095D01*
X12769048Y-6220238D01*
X12830952Y-6220238D01*
X12926190Y-6220238D02*
X12869048Y-6220238D01*
X12897619Y-6220238D02*
X12897619Y-6120238D01*
X12888095Y-6134524D01*
X12878571Y-6144048D01*
X12869048Y-6148809D01*
%TO.C,R7*%
X14045238Y-6966667D02*
X13997619Y-7000000D01*
X14045238Y-7023809D02*
X13945238Y-7023809D01*
X13945238Y-6985714D01*
X13950000Y-6976190D01*
X13954762Y-6971428D01*
X13964286Y-6966667D01*
X13978571Y-6966667D01*
X13988095Y-6971428D01*
X13992857Y-6976190D01*
X13997619Y-6985714D01*
X13997619Y-7023809D01*
X13945238Y-6933333D02*
X13945238Y-6866667D01*
X14045238Y-6909524D01*
%TO.C,C6*%
X14351714Y-7564667D02*
X14356476Y-7569428D01*
X14361238Y-7583714D01*
X14361238Y-7593238D01*
X14356476Y-7607524D01*
X14346952Y-7617048D01*
X14337428Y-7621809D01*
X14318381Y-7626571D01*
X14304095Y-7626571D01*
X14285048Y-7621809D01*
X14275524Y-7617048D01*
X14266000Y-7607524D01*
X14261238Y-7593238D01*
X14261238Y-7583714D01*
X14266000Y-7569428D01*
X14270762Y-7564667D01*
X14261238Y-7478952D02*
X14261238Y-7498000D01*
X14266000Y-7507524D01*
X14270762Y-7512286D01*
X14285048Y-7521809D01*
X14304095Y-7526571D01*
X14342190Y-7526571D01*
X14351714Y-7521809D01*
X14356476Y-7517048D01*
X14361238Y-7507524D01*
X14361238Y-7488476D01*
X14356476Y-7478952D01*
X14351714Y-7474190D01*
X14342190Y-7469428D01*
X14318381Y-7469428D01*
X14308857Y-7474190D01*
X14304095Y-7478952D01*
X14299333Y-7488476D01*
X14299333Y-7507524D01*
X14304095Y-7517048D01*
X14308857Y-7521809D01*
X14318381Y-7526571D01*
%TO.C,D2*%
X18295238Y-6923809D02*
X18195238Y-6923809D01*
X18195238Y-6900000D01*
X18200000Y-6885714D01*
X18209524Y-6876190D01*
X18219048Y-6871428D01*
X18238095Y-6866667D01*
X18252381Y-6866667D01*
X18271429Y-6871428D01*
X18280952Y-6876190D01*
X18290476Y-6885714D01*
X18295238Y-6900000D01*
X18295238Y-6923809D01*
X18204762Y-6828571D02*
X18200000Y-6823809D01*
X18195238Y-6814286D01*
X18195238Y-6790476D01*
X18200000Y-6780952D01*
X18204762Y-6776190D01*
X18214286Y-6771428D01*
X18223810Y-6771428D01*
X18238095Y-6776190D01*
X18295238Y-6833333D01*
X18295238Y-6771428D01*
X18105238Y-6406428D02*
X18105238Y-6463571D01*
X18105238Y-6435000D02*
X18005238Y-6435000D01*
X18019524Y-6444524D01*
X18029048Y-6454048D01*
X18033810Y-6463571D01*
%TO.C,J2*%
X15316667Y-5295238D02*
X15316667Y-5366667D01*
X15311905Y-5380952D01*
X15302381Y-5390476D01*
X15288095Y-5395238D01*
X15278571Y-5395238D01*
X15359524Y-5304762D02*
X15364286Y-5300000D01*
X15373809Y-5295238D01*
X15397619Y-5295238D01*
X15407143Y-5300000D01*
X15411905Y-5304762D01*
X15416667Y-5314286D01*
X15416667Y-5323810D01*
X15411905Y-5338095D01*
X15354762Y-5395238D01*
X15416667Y-5395238D01*
%TO.C,D3*%
X14599690Y-6233928D02*
X14599690Y-6158928D01*
X14623500Y-6158928D01*
X14637786Y-6162500D01*
X14647309Y-6169643D01*
X14652071Y-6176786D01*
X14656833Y-6191071D01*
X14656833Y-6201786D01*
X14652071Y-6216071D01*
X14647309Y-6223214D01*
X14637786Y-6230357D01*
X14623500Y-6233928D01*
X14599690Y-6233928D01*
X14690167Y-6158928D02*
X14752071Y-6158928D01*
X14718738Y-6187500D01*
X14733024Y-6187500D01*
X14742548Y-6191071D01*
X14747309Y-6194643D01*
X14752071Y-6201786D01*
X14752071Y-6219643D01*
X14747309Y-6226786D01*
X14742548Y-6230357D01*
X14733024Y-6233928D01*
X14704452Y-6233928D01*
X14694928Y-6230357D01*
X14690167Y-6226786D01*
%TO.C,U2*%
X16798810Y-5770238D02*
X16798810Y-5851190D01*
X16803571Y-5860714D01*
X16808333Y-5865476D01*
X16817857Y-5870238D01*
X16836905Y-5870238D01*
X16846429Y-5865476D01*
X16851190Y-5860714D01*
X16855952Y-5851190D01*
X16855952Y-5770238D01*
X16898810Y-5779762D02*
X16903571Y-5775000D01*
X16913095Y-5770238D01*
X16936905Y-5770238D01*
X16946429Y-5775000D01*
X16951190Y-5779762D01*
X16955952Y-5789286D01*
X16955952Y-5798809D01*
X16951190Y-5813095D01*
X16894048Y-5870238D01*
X16955952Y-5870238D01*
%TO.C,C12*%
X13676786Y-7414286D02*
X13680357Y-7419048D01*
X13683928Y-7433333D01*
X13683928Y-7442857D01*
X13680357Y-7457143D01*
X13673214Y-7466667D01*
X13666071Y-7471428D01*
X13651786Y-7476190D01*
X13641071Y-7476190D01*
X13626786Y-7471428D01*
X13619643Y-7466667D01*
X13612500Y-7457143D01*
X13608928Y-7442857D01*
X13608928Y-7433333D01*
X13612500Y-7419048D01*
X13616071Y-7414286D01*
X13683928Y-7319048D02*
X13683928Y-7376190D01*
X13683928Y-7347619D02*
X13608928Y-7347619D01*
X13619643Y-7357143D01*
X13626786Y-7366667D01*
X13630357Y-7376190D01*
X13616071Y-7280952D02*
X13612500Y-7276190D01*
X13608928Y-7266667D01*
X13608928Y-7242857D01*
X13612500Y-7233333D01*
X13616071Y-7228571D01*
X13623214Y-7223809D01*
X13630357Y-7223809D01*
X13641071Y-7228571D01*
X13683928Y-7285714D01*
X13683928Y-7223809D01*
%TO.C,C23*%
X16460714Y-5735714D02*
X16455952Y-5740476D01*
X16441667Y-5745238D01*
X16432143Y-5745238D01*
X16417857Y-5740476D01*
X16408333Y-5730952D01*
X16403571Y-5721428D01*
X16398809Y-5702381D01*
X16398809Y-5688095D01*
X16403571Y-5669048D01*
X16408333Y-5659524D01*
X16417857Y-5650000D01*
X16432143Y-5645238D01*
X16441667Y-5645238D01*
X16455952Y-5650000D01*
X16460714Y-5654762D01*
X16498809Y-5654762D02*
X16503571Y-5650000D01*
X16513095Y-5645238D01*
X16536905Y-5645238D01*
X16546428Y-5650000D01*
X16551190Y-5654762D01*
X16555952Y-5664286D01*
X16555952Y-5673809D01*
X16551190Y-5688095D01*
X16494048Y-5745238D01*
X16555952Y-5745238D01*
X16589286Y-5645238D02*
X16651190Y-5645238D01*
X16617857Y-5683333D01*
X16632143Y-5683333D01*
X16641667Y-5688095D01*
X16646428Y-5692857D01*
X16651190Y-5702381D01*
X16651190Y-5726190D01*
X16646428Y-5735714D01*
X16641667Y-5740476D01*
X16632143Y-5745238D01*
X16603571Y-5745238D01*
X16594048Y-5740476D01*
X16589286Y-5735714D01*
%TO.C,U4*%
X16498809Y-6570238D02*
X16498809Y-6651190D01*
X16503571Y-6660714D01*
X16508333Y-6665476D01*
X16517857Y-6670238D01*
X16536905Y-6670238D01*
X16546428Y-6665476D01*
X16551190Y-6660714D01*
X16555952Y-6651190D01*
X16555952Y-6570238D01*
X16646428Y-6603571D02*
X16646428Y-6670238D01*
X16622619Y-6565476D02*
X16598809Y-6636905D01*
X16660714Y-6636905D01*
%TO.C,R9*%
X14458333Y-6233928D02*
X14425000Y-6198214D01*
X14401190Y-6233928D02*
X14401190Y-6158928D01*
X14439286Y-6158928D01*
X14448809Y-6162500D01*
X14453571Y-6166071D01*
X14458333Y-6173214D01*
X14458333Y-6183928D01*
X14453571Y-6191071D01*
X14448809Y-6194643D01*
X14439286Y-6198214D01*
X14401190Y-6198214D01*
X14505952Y-6233928D02*
X14525000Y-6233928D01*
X14534524Y-6230357D01*
X14539286Y-6226786D01*
X14548809Y-6216071D01*
X14553571Y-6201786D01*
X14553571Y-6173214D01*
X14548809Y-6166071D01*
X14544048Y-6162500D01*
X14534524Y-6158928D01*
X14515476Y-6158928D01*
X14505952Y-6162500D01*
X14501190Y-6166071D01*
X14496428Y-6173214D01*
X14496428Y-6191071D01*
X14501190Y-6198214D01*
X14505952Y-6201786D01*
X14515476Y-6205357D01*
X14534524Y-6205357D01*
X14544048Y-6201786D01*
X14548809Y-6198214D01*
X14553571Y-6191071D01*
%TO.C,SW3*%
X12816667Y-9730476D02*
X12830952Y-9735238D01*
X12854762Y-9735238D01*
X12864286Y-9730476D01*
X12869048Y-9725714D01*
X12873809Y-9716190D01*
X12873809Y-9706667D01*
X12869048Y-9697143D01*
X12864286Y-9692381D01*
X12854762Y-9687619D01*
X12835714Y-9682857D01*
X12826190Y-9678095D01*
X12821428Y-9673333D01*
X12816667Y-9663810D01*
X12816667Y-9654286D01*
X12821428Y-9644762D01*
X12826190Y-9640000D01*
X12835714Y-9635238D01*
X12859524Y-9635238D01*
X12873809Y-9640000D01*
X12907143Y-9635238D02*
X12930952Y-9735238D01*
X12950000Y-9663810D01*
X12969048Y-9735238D01*
X12992857Y-9635238D01*
X13021428Y-9635238D02*
X13083333Y-9635238D01*
X13050000Y-9673333D01*
X13064286Y-9673333D01*
X13073809Y-9678095D01*
X13078571Y-9682857D01*
X13083333Y-9692381D01*
X13083333Y-9716190D01*
X13078571Y-9725714D01*
X13073809Y-9730476D01*
X13064286Y-9735238D01*
X13035714Y-9735238D01*
X13026190Y-9730476D01*
X13021428Y-9725714D01*
%TO.C,R4*%
X15695238Y-6441667D02*
X15647619Y-6475000D01*
X15695238Y-6498809D02*
X15595238Y-6498809D01*
X15595238Y-6460714D01*
X15600000Y-6451190D01*
X15604762Y-6446428D01*
X15614286Y-6441667D01*
X15628571Y-6441667D01*
X15638095Y-6446428D01*
X15642857Y-6451190D01*
X15647619Y-6460714D01*
X15647619Y-6498809D01*
X15628571Y-6355952D02*
X15695238Y-6355952D01*
X15590476Y-6379762D02*
X15661905Y-6403571D01*
X15661905Y-6341667D01*
%TO.C,FB1*%
X15935857Y-6258333D02*
X15935857Y-6291667D01*
X15988238Y-6291667D02*
X15888238Y-6291667D01*
X15888238Y-6244048D01*
X15935857Y-6172619D02*
X15940619Y-6158333D01*
X15945381Y-6153571D01*
X15954905Y-6148809D01*
X15969190Y-6148809D01*
X15978714Y-6153571D01*
X15983476Y-6158333D01*
X15988238Y-6167857D01*
X15988238Y-6205952D01*
X15888238Y-6205952D01*
X15888238Y-6172619D01*
X15893000Y-6163095D01*
X15897762Y-6158333D01*
X15907286Y-6153571D01*
X15916809Y-6153571D01*
X15926333Y-6158333D01*
X15931095Y-6163095D01*
X15935857Y-6172619D01*
X15935857Y-6205952D01*
X15988238Y-6053571D02*
X15988238Y-6110714D01*
X15988238Y-6082143D02*
X15888238Y-6082143D01*
X15902524Y-6091667D01*
X15912048Y-6101190D01*
X15916809Y-6110714D01*
%TO.C,R6*%
X13705238Y-6966667D02*
X13657619Y-7000000D01*
X13705238Y-7023809D02*
X13605238Y-7023809D01*
X13605238Y-6985714D01*
X13610000Y-6976190D01*
X13614762Y-6971428D01*
X13624286Y-6966667D01*
X13638571Y-6966667D01*
X13648095Y-6971428D01*
X13652857Y-6976190D01*
X13657619Y-6985714D01*
X13657619Y-7023809D01*
X13605238Y-6880952D02*
X13605238Y-6900000D01*
X13610000Y-6909524D01*
X13614762Y-6914286D01*
X13629048Y-6923809D01*
X13648095Y-6928571D01*
X13686190Y-6928571D01*
X13695714Y-6923809D01*
X13700476Y-6919048D01*
X13705238Y-6909524D01*
X13705238Y-6890476D01*
X13700476Y-6880952D01*
X13695714Y-6876190D01*
X13686190Y-6871428D01*
X13662381Y-6871428D01*
X13652857Y-6876190D01*
X13648095Y-6880952D01*
X13643333Y-6890476D01*
X13643333Y-6909524D01*
X13648095Y-6919048D01*
X13652857Y-6923809D01*
X13662381Y-6928571D01*
%TO.C,*%
%TO.C,C11*%
X14135714Y-7404286D02*
X14140476Y-7409048D01*
X14145238Y-7423333D01*
X14145238Y-7432857D01*
X14140476Y-7447143D01*
X14130952Y-7456667D01*
X14121428Y-7461428D01*
X14102381Y-7466190D01*
X14088095Y-7466190D01*
X14069048Y-7461428D01*
X14059524Y-7456667D01*
X14050000Y-7447143D01*
X14045238Y-7432857D01*
X14045238Y-7423333D01*
X14050000Y-7409048D01*
X14054762Y-7404286D01*
X14145238Y-7309048D02*
X14145238Y-7366190D01*
X14145238Y-7337619D02*
X14045238Y-7337619D01*
X14059524Y-7347143D01*
X14069048Y-7356667D01*
X14073809Y-7366190D01*
X14145238Y-7213809D02*
X14145238Y-7270952D01*
X14145238Y-7242381D02*
X14045238Y-7242381D01*
X14059524Y-7251905D01*
X14069048Y-7261428D01*
X14073809Y-7270952D01*
%TO.C,*%
%TO.C,LED1*%
X12931178Y-8020238D02*
X12883559Y-8020238D01*
X12883559Y-7920238D01*
X12964512Y-7967857D02*
X12997845Y-7967857D01*
X13012131Y-8020238D02*
X12964512Y-8020238D01*
X12964512Y-7920238D01*
X13012131Y-7920238D01*
X13054988Y-8020238D02*
X13054988Y-7920238D01*
X13078798Y-7920238D01*
X13093083Y-7925000D01*
X13102607Y-7934524D01*
X13107369Y-7944048D01*
X13112131Y-7963095D01*
X13112131Y-7977381D01*
X13107369Y-7996428D01*
X13102607Y-8005952D01*
X13093083Y-8015476D01*
X13078798Y-8020238D01*
X13054988Y-8020238D01*
X13207369Y-8020238D02*
X13150226Y-8020238D01*
X13178798Y-8020238D02*
X13178798Y-7920238D01*
X13169274Y-7934524D01*
X13159750Y-7944048D01*
X13150226Y-7948809D01*
%TO.C,C4*%
X14558333Y-6435714D02*
X14553571Y-6440476D01*
X14539286Y-6445238D01*
X14529762Y-6445238D01*
X14515476Y-6440476D01*
X14505952Y-6430952D01*
X14501190Y-6421428D01*
X14496428Y-6402381D01*
X14496428Y-6388095D01*
X14501190Y-6369048D01*
X14505952Y-6359524D01*
X14515476Y-6350000D01*
X14529762Y-6345238D01*
X14539286Y-6345238D01*
X14553571Y-6350000D01*
X14558333Y-6354762D01*
X14644048Y-6378571D02*
X14644048Y-6445238D01*
X14620238Y-6340476D02*
X14596428Y-6411905D01*
X14658333Y-6411905D01*
%TO.C,C15*%
X13376786Y-7414286D02*
X13380357Y-7419048D01*
X13383928Y-7433333D01*
X13383928Y-7442857D01*
X13380357Y-7457143D01*
X13373214Y-7466667D01*
X13366071Y-7471428D01*
X13351786Y-7476190D01*
X13341071Y-7476190D01*
X13326786Y-7471428D01*
X13319643Y-7466667D01*
X13312500Y-7457143D01*
X13308928Y-7442857D01*
X13308928Y-7433333D01*
X13312500Y-7419048D01*
X13316071Y-7414286D01*
X13383928Y-7319048D02*
X13383928Y-7376190D01*
X13383928Y-7347619D02*
X13308928Y-7347619D01*
X13319643Y-7357143D01*
X13326786Y-7366667D01*
X13330357Y-7376190D01*
X13308928Y-7228571D02*
X13308928Y-7276190D01*
X13344643Y-7280952D01*
X13341071Y-7276190D01*
X13337500Y-7266667D01*
X13337500Y-7242857D01*
X13341071Y-7233333D01*
X13344643Y-7228571D01*
X13351786Y-7223809D01*
X13369643Y-7223809D01*
X13376786Y-7228571D01*
X13380357Y-7233333D01*
X13383928Y-7242857D01*
X13383928Y-7266667D01*
X13380357Y-7276190D01*
X13376786Y-7280952D01*
%TO.C,R1*%
X12783333Y-5720238D02*
X12750000Y-5672619D01*
X12726190Y-5720238D02*
X12726190Y-5620238D01*
X12764286Y-5620238D01*
X12773809Y-5625000D01*
X12778571Y-5629762D01*
X12783333Y-5639286D01*
X12783333Y-5653571D01*
X12778571Y-5663095D01*
X12773809Y-5667857D01*
X12764286Y-5672619D01*
X12726190Y-5672619D01*
X12878571Y-5720238D02*
X12821428Y-5720238D01*
X12850000Y-5720238D02*
X12850000Y-5620238D01*
X12840476Y-5634524D01*
X12830952Y-5644048D01*
X12821428Y-5648809D01*
%TO.C,*%
%TO.C,C2*%
X16096964Y-6276667D02*
X16101726Y-6281428D01*
X16106488Y-6295714D01*
X16106488Y-6305238D01*
X16101726Y-6319524D01*
X16092202Y-6329048D01*
X16082678Y-6333809D01*
X16063631Y-6338571D01*
X16049345Y-6338571D01*
X16030298Y-6333809D01*
X16020774Y-6329048D01*
X16011250Y-6319524D01*
X16006488Y-6305238D01*
X16006488Y-6295714D01*
X16011250Y-6281428D01*
X16016012Y-6276667D01*
X16016012Y-6238571D02*
X16011250Y-6233809D01*
X16006488Y-6224286D01*
X16006488Y-6200476D01*
X16011250Y-6190952D01*
X16016012Y-6186190D01*
X16025536Y-6181428D01*
X16035059Y-6181428D01*
X16049345Y-6186190D01*
X16106488Y-6243333D01*
X16106488Y-6181428D01*
%TO.C,D1*%
X12495238Y-6923809D02*
X12395238Y-6923809D01*
X12395238Y-6900000D01*
X12400000Y-6885714D01*
X12409524Y-6876190D01*
X12419048Y-6871428D01*
X12438095Y-6866667D01*
X12452381Y-6866667D01*
X12471428Y-6871428D01*
X12480952Y-6876190D01*
X12490476Y-6885714D01*
X12495238Y-6900000D01*
X12495238Y-6923809D01*
X12495238Y-6771428D02*
X12495238Y-6828571D01*
X12495238Y-6800000D02*
X12395238Y-6800000D01*
X12409524Y-6809524D01*
X12419048Y-6819048D01*
X12423809Y-6828571D01*
X12685238Y-7236428D02*
X12685238Y-7293571D01*
X12685238Y-7265000D02*
X12585238Y-7265000D01*
X12599524Y-7274524D01*
X12609048Y-7284048D01*
X12613809Y-7293571D01*
%TO.C,C7*%
X12785714Y-7341667D02*
X12790476Y-7346428D01*
X12795238Y-7360714D01*
X12795238Y-7370238D01*
X12790476Y-7384524D01*
X12780952Y-7394048D01*
X12771428Y-7398809D01*
X12752381Y-7403571D01*
X12738095Y-7403571D01*
X12719048Y-7398809D01*
X12709524Y-7394048D01*
X12700000Y-7384524D01*
X12695238Y-7370238D01*
X12695238Y-7360714D01*
X12700000Y-7346428D01*
X12704762Y-7341667D01*
X12695238Y-7308333D02*
X12695238Y-7241667D01*
X12795238Y-7284524D01*
%TO.C,C10*%
X13965714Y-5584286D02*
X13970476Y-5589048D01*
X13975238Y-5603333D01*
X13975238Y-5612857D01*
X13970476Y-5627143D01*
X13960952Y-5636667D01*
X13951428Y-5641428D01*
X13932381Y-5646190D01*
X13918095Y-5646190D01*
X13899048Y-5641428D01*
X13889524Y-5636667D01*
X13880000Y-5627143D01*
X13875238Y-5612857D01*
X13875238Y-5603333D01*
X13880000Y-5589048D01*
X13884762Y-5584286D01*
X13975238Y-5489048D02*
X13975238Y-5546190D01*
X13975238Y-5517619D02*
X13875238Y-5517619D01*
X13889524Y-5527143D01*
X13899048Y-5536667D01*
X13903809Y-5546190D01*
X13875238Y-5427143D02*
X13875238Y-5417619D01*
X13880000Y-5408095D01*
X13884762Y-5403333D01*
X13894286Y-5398571D01*
X13913333Y-5393810D01*
X13937143Y-5393810D01*
X13956190Y-5398571D01*
X13965714Y-5403333D01*
X13970476Y-5408095D01*
X13975238Y-5417619D01*
X13975238Y-5427143D01*
X13970476Y-5436667D01*
X13965714Y-5441429D01*
X13956190Y-5446190D01*
X13937143Y-5450952D01*
X13913333Y-5450952D01*
X13894286Y-5446190D01*
X13884762Y-5441429D01*
X13880000Y-5436667D01*
X13875238Y-5427143D01*
%TO.C,C20*%
X13576786Y-7414286D02*
X13580357Y-7419048D01*
X13583928Y-7433333D01*
X13583928Y-7442857D01*
X13580357Y-7457143D01*
X13573214Y-7466667D01*
X13566071Y-7471428D01*
X13551786Y-7476190D01*
X13541071Y-7476190D01*
X13526786Y-7471428D01*
X13519643Y-7466667D01*
X13512500Y-7457143D01*
X13508928Y-7442857D01*
X13508928Y-7433333D01*
X13512500Y-7419048D01*
X13516071Y-7414286D01*
X13516071Y-7376190D02*
X13512500Y-7371428D01*
X13508928Y-7361905D01*
X13508928Y-7338095D01*
X13512500Y-7328571D01*
X13516071Y-7323809D01*
X13523214Y-7319048D01*
X13530357Y-7319048D01*
X13541071Y-7323809D01*
X13583928Y-7380952D01*
X13583928Y-7319048D01*
X13508928Y-7257143D02*
X13508928Y-7247619D01*
X13512500Y-7238095D01*
X13516071Y-7233333D01*
X13523214Y-7228571D01*
X13537500Y-7223809D01*
X13555357Y-7223809D01*
X13569643Y-7228571D01*
X13576786Y-7233333D01*
X13580357Y-7238095D01*
X13583928Y-7247619D01*
X13583928Y-7257143D01*
X13580357Y-7266667D01*
X13576786Y-7271428D01*
X13569643Y-7276190D01*
X13555357Y-7280952D01*
X13537500Y-7280952D01*
X13523214Y-7276190D01*
X13516071Y-7271428D01*
X13512500Y-7266667D01*
X13508928Y-7257143D01*
%TO.C,R8*%
X12783333Y-6120238D02*
X12750000Y-6072619D01*
X12726190Y-6120238D02*
X12726190Y-6020238D01*
X12764286Y-6020238D01*
X12773809Y-6025000D01*
X12778571Y-6029762D01*
X12783333Y-6039286D01*
X12783333Y-6053571D01*
X12778571Y-6063095D01*
X12773809Y-6067857D01*
X12764286Y-6072619D01*
X12726190Y-6072619D01*
X12840476Y-6063095D02*
X12830952Y-6058333D01*
X12826190Y-6053571D01*
X12821428Y-6044048D01*
X12821428Y-6039286D01*
X12826190Y-6029762D01*
X12830952Y-6025000D01*
X12840476Y-6020238D01*
X12859524Y-6020238D01*
X12869048Y-6025000D01*
X12873809Y-6029762D01*
X12878571Y-6039286D01*
X12878571Y-6044048D01*
X12873809Y-6053571D01*
X12869048Y-6058333D01*
X12859524Y-6063095D01*
X12840476Y-6063095D01*
X12830952Y-6067857D01*
X12826190Y-6072619D01*
X12821428Y-6082143D01*
X12821428Y-6101190D01*
X12826190Y-6110714D01*
X12830952Y-6115476D01*
X12840476Y-6120238D01*
X12859524Y-6120238D01*
X12869048Y-6115476D01*
X12873809Y-6110714D01*
X12878571Y-6101190D01*
X12878571Y-6082143D01*
X12873809Y-6072619D01*
X12869048Y-6067857D01*
X12859524Y-6063095D01*
%TO.C,*%
%TO.C,R10*%
X16460714Y-5645238D02*
X16427381Y-5597619D01*
X16403571Y-5645238D02*
X16403571Y-5545238D01*
X16441667Y-5545238D01*
X16451190Y-5550000D01*
X16455952Y-5554762D01*
X16460714Y-5564286D01*
X16460714Y-5578571D01*
X16455952Y-5588095D01*
X16451190Y-5592857D01*
X16441667Y-5597619D01*
X16403571Y-5597619D01*
X16555952Y-5645238D02*
X16498809Y-5645238D01*
X16527381Y-5645238D02*
X16527381Y-5545238D01*
X16517857Y-5559524D01*
X16508333Y-5569048D01*
X16498809Y-5573810D01*
X16617857Y-5545238D02*
X16627381Y-5545238D01*
X16636905Y-5550000D01*
X16641667Y-5554762D01*
X16646428Y-5564286D01*
X16651190Y-5583333D01*
X16651190Y-5607143D01*
X16646428Y-5626190D01*
X16641667Y-5635714D01*
X16636905Y-5640476D01*
X16627381Y-5645238D01*
X16617857Y-5645238D01*
X16608333Y-5640476D01*
X16603571Y-5635714D01*
X16598809Y-5626190D01*
X16594048Y-5607143D01*
X16594048Y-5583333D01*
X16598809Y-5564286D01*
X16603571Y-5554762D01*
X16608333Y-5550000D01*
X16617857Y-5545238D01*
%TO.C,Y1*%
X14502381Y-5987619D02*
X14502381Y-6035238D01*
X14469048Y-5935238D02*
X14502381Y-5987619D01*
X14535714Y-5935238D01*
X14621428Y-6035238D02*
X14564286Y-6035238D01*
X14592857Y-6035238D02*
X14592857Y-5935238D01*
X14583333Y-5949524D01*
X14573809Y-5959048D01*
X14564286Y-5963809D01*
%TO.C,C19*%
X14635714Y-6735714D02*
X14630952Y-6740476D01*
X14616667Y-6745238D01*
X14607143Y-6745238D01*
X14592857Y-6740476D01*
X14583333Y-6730952D01*
X14578571Y-6721428D01*
X14573809Y-6702381D01*
X14573809Y-6688095D01*
X14578571Y-6669048D01*
X14583333Y-6659524D01*
X14592857Y-6650000D01*
X14607143Y-6645238D01*
X14616667Y-6645238D01*
X14630952Y-6650000D01*
X14635714Y-6654762D01*
X14730952Y-6745238D02*
X14673809Y-6745238D01*
X14702381Y-6745238D02*
X14702381Y-6645238D01*
X14692857Y-6659524D01*
X14683333Y-6669048D01*
X14673809Y-6673809D01*
X14778571Y-6745238D02*
X14797619Y-6745238D01*
X14807143Y-6740476D01*
X14811905Y-6735714D01*
X14821428Y-6721428D01*
X14826190Y-6702381D01*
X14826190Y-6664286D01*
X14821428Y-6654762D01*
X14816667Y-6650000D01*
X14807143Y-6645238D01*
X14788095Y-6645238D01*
X14778571Y-6650000D01*
X14773809Y-6654762D01*
X14769048Y-6664286D01*
X14769048Y-6688095D01*
X14773809Y-6697619D01*
X14778571Y-6702381D01*
X14788095Y-6707143D01*
X14807143Y-6707143D01*
X14816667Y-6702381D01*
X14821428Y-6697619D01*
X14826190Y-6688095D01*
%TO.C,C5*%
X14715714Y-5906667D02*
X14720476Y-5911428D01*
X14725238Y-5925714D01*
X14725238Y-5935238D01*
X14720476Y-5949524D01*
X14710952Y-5959048D01*
X14701428Y-5963809D01*
X14682381Y-5968571D01*
X14668095Y-5968571D01*
X14649048Y-5963809D01*
X14639524Y-5959048D01*
X14630000Y-5949524D01*
X14625238Y-5935238D01*
X14625238Y-5925714D01*
X14630000Y-5911428D01*
X14634762Y-5906667D01*
X14625238Y-5816190D02*
X14625238Y-5863809D01*
X14672857Y-5868571D01*
X14668095Y-5863809D01*
X14663333Y-5854286D01*
X14663333Y-5830476D01*
X14668095Y-5820952D01*
X14672857Y-5816190D01*
X14682381Y-5811428D01*
X14706190Y-5811428D01*
X14715714Y-5816190D01*
X14720476Y-5820952D01*
X14725238Y-5830476D01*
X14725238Y-5854286D01*
X14720476Y-5863809D01*
X14715714Y-5868571D01*
%TO.C,C8*%
X18151714Y-7566667D02*
X18156476Y-7571428D01*
X18161238Y-7585714D01*
X18161238Y-7595238D01*
X18156476Y-7609524D01*
X18146952Y-7619048D01*
X18137429Y-7623809D01*
X18118381Y-7628571D01*
X18104095Y-7628571D01*
X18085048Y-7623809D01*
X18075524Y-7619048D01*
X18066000Y-7609524D01*
X18061238Y-7595238D01*
X18061238Y-7585714D01*
X18066000Y-7571428D01*
X18070762Y-7566667D01*
X18104095Y-7509524D02*
X18099333Y-7519048D01*
X18094571Y-7523809D01*
X18085048Y-7528571D01*
X18080286Y-7528571D01*
X18070762Y-7523809D01*
X18066000Y-7519048D01*
X18061238Y-7509524D01*
X18061238Y-7490476D01*
X18066000Y-7480952D01*
X18070762Y-7476190D01*
X18080286Y-7471428D01*
X18085048Y-7471428D01*
X18094571Y-7476190D01*
X18099333Y-7480952D01*
X18104095Y-7490476D01*
X18104095Y-7509524D01*
X18108857Y-7519048D01*
X18113619Y-7523809D01*
X18123143Y-7528571D01*
X18142190Y-7528571D01*
X18151714Y-7523809D01*
X18156476Y-7519048D01*
X18161238Y-7509524D01*
X18161238Y-7490476D01*
X18156476Y-7480952D01*
X18151714Y-7476190D01*
X18142190Y-7471428D01*
X18123143Y-7471428D01*
X18113619Y-7476190D01*
X18108857Y-7480952D01*
X18104095Y-7490476D01*
%TO.C,LED3*%
X16731178Y-8025238D02*
X16683559Y-8025238D01*
X16683559Y-7925238D01*
X16764512Y-7972857D02*
X16797845Y-7972857D01*
X16812131Y-8025238D02*
X16764512Y-8025238D01*
X16764512Y-7925238D01*
X16812131Y-7925238D01*
X16854988Y-8025238D02*
X16854988Y-7925238D01*
X16878798Y-7925238D01*
X16893083Y-7930000D01*
X16902607Y-7939524D01*
X16907369Y-7949048D01*
X16912131Y-7968095D01*
X16912131Y-7982381D01*
X16907369Y-8001428D01*
X16902607Y-8010952D01*
X16893083Y-8020476D01*
X16878798Y-8025238D01*
X16854988Y-8025238D01*
X16945464Y-7925238D02*
X17007369Y-7925238D01*
X16974036Y-7963333D01*
X16988321Y-7963333D01*
X16997845Y-7968095D01*
X17002607Y-7972857D01*
X17007369Y-7982381D01*
X17007369Y-8006190D01*
X17002607Y-8015714D01*
X16997845Y-8020476D01*
X16988321Y-8025238D01*
X16959750Y-8025238D01*
X16950226Y-8020476D01*
X16945464Y-8015714D01*
%TO.C,C9*%
X18258333Y-6450714D02*
X18253571Y-6455476D01*
X18239286Y-6460238D01*
X18229762Y-6460238D01*
X18215476Y-6455476D01*
X18205952Y-6445952D01*
X18201190Y-6436428D01*
X18196429Y-6417381D01*
X18196429Y-6403095D01*
X18201190Y-6384048D01*
X18205952Y-6374524D01*
X18215476Y-6365000D01*
X18229762Y-6360238D01*
X18239286Y-6360238D01*
X18253571Y-6365000D01*
X18258333Y-6369762D01*
X18305952Y-6460238D02*
X18325000Y-6460238D01*
X18334524Y-6455476D01*
X18339286Y-6450714D01*
X18348810Y-6436428D01*
X18353571Y-6417381D01*
X18353571Y-6379286D01*
X18348810Y-6369762D01*
X18344048Y-6365000D01*
X18334524Y-6360238D01*
X18315476Y-6360238D01*
X18305952Y-6365000D01*
X18301190Y-6369762D01*
X18296429Y-6379286D01*
X18296429Y-6403095D01*
X18301190Y-6412619D01*
X18305952Y-6417381D01*
X18315476Y-6422143D01*
X18334524Y-6422143D01*
X18344048Y-6417381D01*
X18348810Y-6412619D01*
X18353571Y-6403095D01*
%TO.C,C3*%
X16781964Y-6016667D02*
X16786726Y-6021428D01*
X16791488Y-6035714D01*
X16791488Y-6045238D01*
X16786726Y-6059524D01*
X16777202Y-6069048D01*
X16767678Y-6073809D01*
X16748631Y-6078571D01*
X16734345Y-6078571D01*
X16715298Y-6073809D01*
X16705774Y-6069048D01*
X16696250Y-6059524D01*
X16691488Y-6045238D01*
X16691488Y-6035714D01*
X16696250Y-6021428D01*
X16701012Y-6016667D01*
X16691488Y-5983333D02*
X16691488Y-5921428D01*
X16729583Y-5954762D01*
X16729583Y-5940476D01*
X16734345Y-5930952D01*
X16739107Y-5926190D01*
X16748631Y-5921428D01*
X16772440Y-5921428D01*
X16781964Y-5926190D01*
X16786726Y-5930952D01*
X16791488Y-5940476D01*
X16791488Y-5969048D01*
X16786726Y-5978571D01*
X16781964Y-5983333D01*
%TO.C,R2*%
X12920238Y-7591667D02*
X12872619Y-7625000D01*
X12920238Y-7648809D02*
X12820238Y-7648809D01*
X12820238Y-7610714D01*
X12825000Y-7601190D01*
X12829762Y-7596428D01*
X12839286Y-7591667D01*
X12853571Y-7591667D01*
X12863095Y-7596428D01*
X12867857Y-7601190D01*
X12872619Y-7610714D01*
X12872619Y-7648809D01*
X12829762Y-7553571D02*
X12825000Y-7548809D01*
X12820238Y-7539286D01*
X12820238Y-7515476D01*
X12825000Y-7505952D01*
X12829762Y-7501190D01*
X12839286Y-7496428D01*
X12848809Y-7496428D01*
X12863095Y-7501190D01*
X12920238Y-7558333D01*
X12920238Y-7496428D01*
%TO.C,U3*%
X14203809Y-6815238D02*
X14203809Y-6896190D01*
X14208571Y-6905714D01*
X14213333Y-6910476D01*
X14222857Y-6915238D01*
X14241905Y-6915238D01*
X14251428Y-6910476D01*
X14256190Y-6905714D01*
X14260952Y-6896190D01*
X14260952Y-6815238D01*
X14299048Y-6815238D02*
X14360952Y-6815238D01*
X14327619Y-6853333D01*
X14341905Y-6853333D01*
X14351428Y-6858095D01*
X14356190Y-6862857D01*
X14360952Y-6872381D01*
X14360952Y-6896190D01*
X14356190Y-6905714D01*
X14351428Y-6910476D01*
X14341905Y-6915238D01*
X14313333Y-6915238D01*
X14303809Y-6910476D01*
X14299048Y-6905714D01*
%TO.C,C22*%
X16226714Y-7614286D02*
X16231476Y-7619048D01*
X16236238Y-7633333D01*
X16236238Y-7642857D01*
X16231476Y-7657143D01*
X16221952Y-7666667D01*
X16212428Y-7671428D01*
X16193381Y-7676190D01*
X16179095Y-7676190D01*
X16160048Y-7671428D01*
X16150524Y-7666667D01*
X16141000Y-7657143D01*
X16136238Y-7642857D01*
X16136238Y-7633333D01*
X16141000Y-7619048D01*
X16145762Y-7614286D01*
X16145762Y-7576190D02*
X16141000Y-7571428D01*
X16136238Y-7561905D01*
X16136238Y-7538095D01*
X16141000Y-7528571D01*
X16145762Y-7523809D01*
X16155286Y-7519048D01*
X16164809Y-7519048D01*
X16179095Y-7523809D01*
X16236238Y-7580952D01*
X16236238Y-7519048D01*
X16145762Y-7480952D02*
X16141000Y-7476190D01*
X16136238Y-7466667D01*
X16136238Y-7442857D01*
X16141000Y-7433333D01*
X16145762Y-7428571D01*
X16155286Y-7423809D01*
X16164809Y-7423809D01*
X16179095Y-7428571D01*
X16236238Y-7485714D01*
X16236238Y-7423809D01*
%TO.C,R5*%
X12983333Y-6345238D02*
X12950000Y-6297619D01*
X12926190Y-6345238D02*
X12926190Y-6245238D01*
X12964286Y-6245238D01*
X12973809Y-6250000D01*
X12978571Y-6254762D01*
X12983333Y-6264286D01*
X12983333Y-6278571D01*
X12978571Y-6288095D01*
X12973809Y-6292857D01*
X12964286Y-6297619D01*
X12926190Y-6297619D01*
X13073809Y-6245238D02*
X13026190Y-6245238D01*
X13021428Y-6292857D01*
X13026190Y-6288095D01*
X13035714Y-6283333D01*
X13059524Y-6283333D01*
X13069048Y-6288095D01*
X13073809Y-6292857D01*
X13078571Y-6302381D01*
X13078571Y-6326190D01*
X13073809Y-6335714D01*
X13069048Y-6340476D01*
X13059524Y-6345238D01*
X13035714Y-6345238D01*
X13026190Y-6340476D01*
X13021428Y-6335714D01*
%TO.C,U1*%
X15273809Y-6335238D02*
X15273809Y-6416190D01*
X15278571Y-6425714D01*
X15283333Y-6430476D01*
X15292857Y-6435238D01*
X15311905Y-6435238D01*
X15321428Y-6430476D01*
X15326190Y-6425714D01*
X15330952Y-6416190D01*
X15330952Y-6335238D01*
X15430952Y-6435238D02*
X15373809Y-6435238D01*
X15402381Y-6435238D02*
X15402381Y-6335238D01*
X15392857Y-6349524D01*
X15383333Y-6359048D01*
X15373809Y-6363809D01*
D13*
%TO.C,C16*%
X13414000Y-7109216D02*
X13414000Y-7130784D01*
X13486000Y-7109216D02*
X13486000Y-7130784D01*
%TO.C,R3*%
X15088000Y-6245364D02*
X15088000Y-6214636D01*
X15012000Y-6245364D02*
X15012000Y-6214636D01*
%TO.C,C1*%
X14166000Y-5739216D02*
X14166000Y-5760784D01*
X14094000Y-5739216D02*
X14094000Y-5760784D01*
%TO.C,C17*%
X14006000Y-7159216D02*
X14006000Y-7180784D01*
X13934000Y-7159216D02*
X13934000Y-7180784D01*
%TO.C,C14*%
X13310784Y-6361000D02*
X13289216Y-6361000D01*
X13310784Y-6289000D02*
X13289216Y-6289000D01*
%TO.C,LED2*%
X14970000Y-7850000D02*
X15060000Y-7850000D01*
X14970000Y-7750000D02*
X14970000Y-7850000D01*
%TO.C,C13*%
X14066000Y-5760784D02*
X14066000Y-5739216D01*
X13994000Y-5760784D02*
X13994000Y-5739216D01*
%TO.C,C18*%
X13906000Y-7159216D02*
X13906000Y-7180784D01*
X13834000Y-7159216D02*
X13834000Y-7180784D01*
%TO.C,C21*%
X12810784Y-6014000D02*
X12789216Y-6014000D01*
X12810784Y-6086000D02*
X12789216Y-6086000D01*
%TO.C,R7*%
X13842000Y-6944636D02*
X13842000Y-6975364D01*
X13918000Y-6944636D02*
X13918000Y-6975364D01*
%TO.C,C6*%
X14236000Y-7537216D02*
X14236000Y-7558784D01*
X14164000Y-7537216D02*
X14164000Y-7558784D01*
%TO.C,D2*%
X18175000Y-6485000D02*
X18175000Y-7215000D01*
X17625000Y-6485000D02*
X17625000Y-7215000D01*
X17625000Y-7215000D02*
X17740000Y-7215000D01*
%TO.C,J2*%
X14880000Y-5534000D02*
X14880000Y-5334000D01*
X15820000Y-5144000D02*
X15820000Y-4954000D01*
X15820000Y-5534000D02*
X15820000Y-5334000D01*
X15820000Y-4954000D02*
X14880000Y-4954000D01*
X14880000Y-5144000D02*
X14880000Y-4954000D01*
D14*
%TO.C,D3*%
X14787500Y-6100000D02*
G75*
G03*
X14787500Y-6100000I-5000J0D01*
G01*
D13*
%TO.C,U2*%
X16361250Y-6076000D02*
X16441250Y-6076000D01*
X16361250Y-5764000D02*
X16181250Y-5764000D01*
X16361250Y-5764000D02*
X16441250Y-5764000D01*
X16361250Y-6076000D02*
X16281250Y-6076000D01*
%TO.C,C12*%
X13686000Y-7109216D02*
X13686000Y-7130784D01*
X13614000Y-7109216D02*
X13614000Y-7130784D01*
%TO.C,C23*%
X16260784Y-5736000D02*
X16239216Y-5736000D01*
X16260784Y-5664000D02*
X16239216Y-5664000D01*
%TO.C,U4*%
X16675000Y-6870500D02*
X16475000Y-6870500D01*
X16475000Y-6409500D02*
X16555000Y-6329500D01*
X16675000Y-6329500D02*
X16675000Y-6870500D01*
X16555000Y-6329500D02*
X16675000Y-6329500D01*
X16475000Y-6870500D02*
X16475000Y-6409500D01*
%TO.C,R9*%
X14488864Y-6062000D02*
X14458136Y-6062000D01*
X14488864Y-6138000D02*
X14458136Y-6138000D01*
%TO.C,SW3*%
X13170000Y-10120000D02*
X13170000Y-10108000D01*
X13170000Y-9780000D02*
X12730000Y-9780000D01*
X12730000Y-9893000D02*
X12730000Y-10007000D01*
X12730000Y-9780000D02*
X12730000Y-9792000D01*
X12730000Y-10120000D02*
X13170000Y-10120000D01*
X13170000Y-10007000D02*
X13170000Y-9893000D01*
X13170000Y-9792000D02*
X13170000Y-9780000D01*
X12730000Y-10108000D02*
X12730000Y-10120000D01*
%TO.C,R4*%
X15612000Y-6240364D02*
X15612000Y-6209636D01*
X15688000Y-6240364D02*
X15688000Y-6209636D01*
%TO.C,FB1*%
X15851000Y-6158722D02*
X15851000Y-6191278D01*
X15749000Y-6158722D02*
X15749000Y-6191278D01*
%TO.C,R6*%
X13732000Y-6944636D02*
X13732000Y-6975364D01*
X13808000Y-6944636D02*
X13808000Y-6975364D01*
%TO.C,C11*%
X14136000Y-7109216D02*
X14136000Y-7130784D01*
X14064000Y-7109216D02*
X14064000Y-7130784D01*
%TO.C,LED1*%
X13070000Y-7850000D02*
X13160000Y-7850000D01*
X13070000Y-7750000D02*
X13070000Y-7850000D01*
%TO.C,C4*%
X14580784Y-6316000D02*
X14559216Y-6316000D01*
X14580784Y-6244000D02*
X14559216Y-6244000D01*
%TO.C,C15*%
X13386000Y-7109216D02*
X13386000Y-7130784D01*
X13314000Y-7109216D02*
X13314000Y-7130784D01*
%TO.C,R1*%
X12784636Y-5838000D02*
X12815364Y-5838000D01*
X12784636Y-5762000D02*
X12815364Y-5762000D01*
%TO.C,C2*%
X16097250Y-6049216D02*
X16097250Y-6070784D01*
X16025250Y-6049216D02*
X16025250Y-6070784D01*
%TO.C,D1*%
X13075000Y-7215000D02*
X13075000Y-6485000D01*
X13075000Y-6485000D02*
X12960000Y-6485000D01*
X12525000Y-7215000D02*
X12525000Y-6485000D01*
%TO.C,C7*%
X12589000Y-7289216D02*
X12589000Y-7310784D01*
X12661000Y-7289216D02*
X12661000Y-7310784D01*
%TO.C,C10*%
X13966000Y-5760784D02*
X13966000Y-5739216D01*
X13894000Y-5760784D02*
X13894000Y-5739216D01*
%TO.C,C20*%
X13586000Y-7109216D02*
X13586000Y-7130784D01*
X13514000Y-7109216D02*
X13514000Y-7130784D01*
%TO.C,R8*%
X12815364Y-5912000D02*
X12784636Y-5912000D01*
X12815364Y-5988000D02*
X12784636Y-5988000D01*
%TO.C,R10*%
X16264364Y-5562000D02*
X16233636Y-5562000D01*
X16264364Y-5638000D02*
X16233636Y-5638000D01*
%TO.C,Y1*%
X14204951Y-5576251D02*
X14204951Y-5906251D01*
X14204951Y-5906251D02*
X14604951Y-5906251D01*
%TO.C,C19*%
X14449216Y-6664000D02*
X14470784Y-6664000D01*
X14449216Y-6736000D02*
X14470784Y-6736000D01*
%TO.C,C5*%
X14633951Y-5712034D02*
X14633951Y-5690467D01*
X14705951Y-5712034D02*
X14705951Y-5690467D01*
%TO.C,C8*%
X17964000Y-7539216D02*
X17964000Y-7560784D01*
X18036000Y-7539216D02*
X18036000Y-7560784D01*
%TO.C,LED3*%
X16870000Y-7750000D02*
X16870000Y-7850000D01*
X16870000Y-7850000D02*
X16960000Y-7850000D01*
%TO.C,C9*%
X18264216Y-6561000D02*
X18285784Y-6561000D01*
X18264216Y-6489000D02*
X18285784Y-6489000D01*
%TO.C,C3*%
X16585250Y-5989216D02*
X16585250Y-6010784D01*
X16657250Y-5989216D02*
X16657250Y-6010784D01*
%TO.C,R2*%
X12962000Y-7559636D02*
X12962000Y-7590364D01*
X13038000Y-7559636D02*
X13038000Y-7590364D01*
%TO.C,U3*%
X13584000Y-6019000D02*
X13584000Y-6084000D01*
X13649000Y-6741000D02*
X13584000Y-6741000D01*
X14306000Y-6019000D02*
X14306000Y-6084000D01*
X14241000Y-6741000D02*
X14306000Y-6741000D01*
X13584000Y-6741000D02*
X13584000Y-6676000D01*
X13649000Y-6019000D02*
X13584000Y-6019000D01*
X14241000Y-6019000D02*
X14306000Y-6019000D01*
%TO.C,C22*%
X16111000Y-7539216D02*
X16111000Y-7560784D01*
X16039000Y-7539216D02*
X16039000Y-7560784D01*
%TO.C,R5*%
X13015364Y-6463000D02*
X12984636Y-6463000D01*
X13015364Y-6387000D02*
X12984636Y-6387000D01*
%TO.C,U1*%
X15350000Y-5994000D02*
X15270000Y-5994000D01*
X15350000Y-5994000D02*
X15430000Y-5994000D01*
X15560000Y-6245000D02*
X15560000Y-6306000D01*
X15560000Y-6306000D02*
X15270000Y-6306000D01*
%TO.C,SW2*%
X16114600Y-8310400D02*
X15706000Y-8310400D01*
X16078300Y-8404600D02*
X16114600Y-8404600D01*
X15730000Y-8790000D02*
X15790000Y-8790000D01*
X15570900Y-8490000D02*
X15523000Y-8519900D01*
X15604700Y-8444700D02*
X15570900Y-8490000D01*
X15330000Y-8445000D02*
X15575000Y-8445000D01*
X15202100Y-8530400D02*
X15100000Y-8632500D01*
X15476800Y-9009600D02*
X15517100Y-9001600D01*
X15628300Y-8359100D02*
X15620100Y-8388900D01*
X15517100Y-9001600D02*
X15551300Y-8978700D01*
X15551300Y-8978700D02*
X15604600Y-8925400D01*
X15523000Y-8519900D02*
X15466800Y-8530400D01*
X15466800Y-8530400D02*
X15202100Y-8530400D01*
X15706000Y-8310400D02*
X15675000Y-8316300D01*
X15604600Y-8903200D02*
X15615500Y-8848300D01*
X15675000Y-8316300D02*
X15647600Y-8333300D01*
X15647600Y-8333300D02*
X15628300Y-8359100D01*
X15620100Y-8388900D02*
X15604700Y-8444700D01*
X15604600Y-8925400D02*
X15604600Y-8903200D01*
X16114600Y-8404600D02*
X16114600Y-8310400D01*
X15202100Y-9009600D02*
X15476800Y-9009600D01*
X15107400Y-8914900D02*
X15202100Y-9009600D01*
X15188579Y-8386421D02*
G75*
G03*
X15330000Y-8445000I141421J141421D01*
G01*
X14740000Y-8665000D02*
G75*
G03*
X14840000Y-8838205I200000J0D01*
G01*
%TO.C,SW7*%
X17428000Y-8519900D02*
X17371800Y-8530400D01*
X18019600Y-8310400D02*
X17611000Y-8310400D01*
X17107100Y-9009600D02*
X17381800Y-9009600D01*
X17475900Y-8490000D02*
X17428000Y-8519900D01*
X17381800Y-9009600D02*
X17422100Y-9001600D01*
X17611000Y-8310400D02*
X17580000Y-8316300D01*
X17456300Y-8978700D02*
X17509600Y-8925400D01*
X17533300Y-8359100D02*
X17525100Y-8388900D01*
X17371800Y-8530400D02*
X17107100Y-8530400D01*
X17235000Y-8445000D02*
X17480000Y-8445000D01*
X17107100Y-8530400D02*
X17005000Y-8632500D01*
X17422100Y-9001600D02*
X17456300Y-8978700D01*
X17012400Y-8914900D02*
X17107100Y-9009600D01*
X17635000Y-8790000D02*
X17695000Y-8790000D01*
X17509700Y-8444700D02*
X17475900Y-8490000D01*
X17509600Y-8925400D02*
X17509600Y-8903200D01*
X17983300Y-8404600D02*
X18019600Y-8404600D01*
X17580000Y-8316300D02*
X17552600Y-8333300D01*
X17525100Y-8388900D02*
X17509700Y-8444700D01*
X17552600Y-8333300D02*
X17533300Y-8359100D01*
X17509600Y-8903200D02*
X17520500Y-8848300D01*
X18019600Y-8404600D02*
X18019600Y-8310400D01*
X16645000Y-8665000D02*
G75*
G03*
X16745000Y-8838205I200000J0D01*
G01*
X17093579Y-8386421D02*
G75*
G03*
X17235000Y-8445000I141421J141421D01*
G01*
%TO.C,SW1*%
X13775000Y-8316300D02*
X13747600Y-8333300D01*
X13576800Y-9009600D02*
X13617100Y-9001600D01*
X13670900Y-8490000D02*
X13623000Y-8519900D01*
X13830000Y-8790000D02*
X13890000Y-8790000D01*
X13430000Y-8445000D02*
X13675000Y-8445000D01*
X13704600Y-8925400D02*
X13704600Y-8903200D01*
X13806000Y-8310400D02*
X13775000Y-8316300D01*
X13728300Y-8359100D02*
X13720100Y-8388900D01*
X13651300Y-8978700D02*
X13704600Y-8925400D01*
X13302100Y-9009600D02*
X13576800Y-9009600D01*
X13704600Y-8903200D02*
X13715500Y-8848300D01*
X14214600Y-8310400D02*
X13806000Y-8310400D01*
X13207400Y-8914900D02*
X13302100Y-9009600D01*
X13302100Y-8530400D02*
X13200000Y-8632500D01*
X13720100Y-8388900D02*
X13704700Y-8444700D01*
X13617100Y-9001600D02*
X13651300Y-8978700D01*
X13566800Y-8530400D02*
X13302100Y-8530400D01*
X13623000Y-8519900D02*
X13566800Y-8530400D01*
X14178300Y-8404600D02*
X14214600Y-8404600D01*
X14214600Y-8404600D02*
X14214600Y-8310400D01*
X13747600Y-8333300D02*
X13728300Y-8359100D01*
X13704700Y-8444700D02*
X13670900Y-8490000D01*
X12840000Y-8665000D02*
G75*
G03*
X12940000Y-8838205I200000J0D01*
G01*
X13288579Y-8386421D02*
G75*
G03*
X13430000Y-8445000I141421J141421D01*
G01*
%TD*%
M02*
