M48
; DRILL file {KiCad 6.0.8-1.fc36} date Sun 23 Oct 2022 10:59:56 AM CEST
; FORMAT={-:-/ absolute / inch / decimal}
; #@! TF.CreationDate,2022-10-23T10:59:56+02:00
; #@! TF.GenerationSoftware,Kicad,Pcbnew,6.0.8-1.fc36
; #@! TF.FileFunction,NonPlated,1,2,NPTH
FMAT,2
INCH
; #@! TA.AperFunction,NonPlated,NPTH,ComponentDrill
T1C0.0256
; #@! TA.AperFunction,NonPlated,NPTH,ComponentDrill
T2C0.0689
; #@! TA.AperFunction,NonPlated,NPTH,ComponentDrill
T3C0.0748
; #@! TA.AperFunction,NonPlated,NPTH,ComponentDrill
T4C0.1201
; #@! TA.AperFunction,NonPlated,NPTH,ComponentDrill
T5C0.1988
%
G90
G05
T1
X5.9295Y-2.2063
X6.1571Y-2.2063
T2
X5.0953Y-3.2185
X5.4953Y-3.2185
X5.8433Y-3.2185
X6.2433Y-3.2185
X6.5933Y-3.2185
X6.9933Y-3.2185
T3
X5.0787Y-3.2185
X5.5118Y-3.2185
X5.8268Y-3.2185
X6.2598Y-3.2185
X6.5768Y-3.2185
X7.0098Y-3.2185
T4
X5.1453Y-3.3185
X5.2953Y-3.4508
X5.3953Y-3.4185
X5.4921Y-3.3681
X5.8933Y-3.3185
X6.0433Y-3.4508
X6.1433Y-3.4185
X6.2402Y-3.3681
X6.6433Y-3.3185
X6.7933Y-3.4508
X6.8933Y-3.4185
X6.9902Y-3.3681
T5
X5.2953Y-3.2185
X6.0433Y-3.2185
X6.7933Y-3.2185
T0
M30
