%TF.GenerationSoftware,KiCad,Pcbnew,6.0.9+dfsg-1*%
%TF.CreationDate,2022-11-21T00:59:10-08:00*%
%TF.ProjectId,muon,6d756f6e-2e6b-4696-9361-645f70636258,v0.6*%
%TF.SameCoordinates,Original*%
%TF.FileFunction,OtherDrawing,Comment*%
%FSLAX45Y45*%
G04 Gerber Fmt 4.5, Leading zero omitted, Abs format (unit mm)*
G04 Created by KiCad (PCBNEW 6.0.9+dfsg-1) date 2022-11-21 00:59:10*
%MOMM*%
%LPD*%
G01*
G04 APERTURE LIST*
%ADD10C,0.200000*%
%ADD11C,0.150000*%
%ADD12C,0.120000*%
%ADD13C,0.100000*%
G04 APERTURE END LIST*
D10*
X15350000Y-7100000D02*
X15350000Y-10000000D01*
D11*
X14720000Y-5100000D02*
X11800000Y-5100000D01*
D10*
X11750000Y-8175000D02*
X17800000Y-8175000D01*
D11*
X19545238Y-10969048D02*
X19545238Y-11016667D01*
X19592857Y-11021429D01*
X19588095Y-11016667D01*
X19583333Y-11007143D01*
X19583333Y-10983333D01*
X19588095Y-10973810D01*
X19592857Y-10969048D01*
X19602381Y-10964286D01*
X19626190Y-10964286D01*
X19635714Y-10969048D01*
X19640476Y-10973810D01*
X19645238Y-10983333D01*
X19645238Y-11007143D01*
X19640476Y-11016667D01*
X19635714Y-11021429D01*
X19635714Y-10921429D02*
X19640476Y-10916667D01*
X19645238Y-10921429D01*
X19640476Y-10926190D01*
X19635714Y-10921429D01*
X19645238Y-10921429D01*
X19545238Y-10854762D02*
X19545238Y-10845238D01*
X19550000Y-10835714D01*
X19554762Y-10830952D01*
X19564286Y-10826190D01*
X19583333Y-10821429D01*
X19607143Y-10821429D01*
X19626190Y-10826190D01*
X19635714Y-10830952D01*
X19640476Y-10835714D01*
X19645238Y-10845238D01*
X19645238Y-10854762D01*
X19640476Y-10864286D01*
X19635714Y-10869048D01*
X19626190Y-10873810D01*
X19607143Y-10878571D01*
X19583333Y-10878571D01*
X19564286Y-10873810D01*
X19554762Y-10869048D01*
X19550000Y-10864286D01*
X19545238Y-10854762D01*
X19645238Y-10702381D02*
X19578571Y-10702381D01*
X19588095Y-10702381D02*
X19583333Y-10697619D01*
X19578571Y-10688095D01*
X19578571Y-10673810D01*
X19583333Y-10664286D01*
X19592857Y-10659524D01*
X19645238Y-10659524D01*
X19592857Y-10659524D02*
X19583333Y-10654762D01*
X19578571Y-10645238D01*
X19578571Y-10630952D01*
X19583333Y-10621429D01*
X19592857Y-10616667D01*
X19645238Y-10616667D01*
X19645238Y-10569048D02*
X19578571Y-10569048D01*
X19588095Y-10569048D02*
X19583333Y-10564286D01*
X19578571Y-10554762D01*
X19578571Y-10540476D01*
X19583333Y-10530952D01*
X19592857Y-10526190D01*
X19645238Y-10526190D01*
X19592857Y-10526190D02*
X19583333Y-10521429D01*
X19578571Y-10511905D01*
X19578571Y-10497619D01*
X19583333Y-10488095D01*
X19592857Y-10483333D01*
X19645238Y-10483333D01*
X18500000Y-10500000D02*
X19458642Y-10500000D01*
X18500000Y-11000000D02*
X19458642Y-11000000D01*
X19400000Y-10500000D02*
X19400000Y-11000000D01*
X19400000Y-10500000D02*
X19400000Y-11000000D01*
X19400000Y-10500000D02*
X19341358Y-10612650D01*
X19400000Y-10500000D02*
X19458642Y-10612650D01*
X19400000Y-11000000D02*
X19458642Y-10887350D01*
X19400000Y-11000000D02*
X19341358Y-10887350D01*
X10980238Y-8316667D02*
X10980238Y-8364286D01*
X11027857Y-8369048D01*
X11023095Y-8364286D01*
X11018333Y-8354762D01*
X11018333Y-8330952D01*
X11023095Y-8321428D01*
X11027857Y-8316667D01*
X11037381Y-8311905D01*
X11061191Y-8311905D01*
X11070714Y-8316667D01*
X11075476Y-8321428D01*
X11080238Y-8330952D01*
X11080238Y-8354762D01*
X11075476Y-8364286D01*
X11070714Y-8369048D01*
X11080238Y-8264286D02*
X11080238Y-8245238D01*
X11075476Y-8235714D01*
X11070714Y-8230952D01*
X11056429Y-8221428D01*
X11037381Y-8216667D01*
X10999286Y-8216667D01*
X10989762Y-8221428D01*
X10985000Y-8226190D01*
X10980238Y-8235714D01*
X10980238Y-8254762D01*
X10985000Y-8264286D01*
X10989762Y-8269048D01*
X10999286Y-8273809D01*
X11023095Y-8273809D01*
X11032619Y-8269048D01*
X11037381Y-8264286D01*
X11042143Y-8254762D01*
X11042143Y-8235714D01*
X11037381Y-8226190D01*
X11032619Y-8221428D01*
X11023095Y-8216667D01*
X11070714Y-8173809D02*
X11075476Y-8169048D01*
X11080238Y-8173809D01*
X11075476Y-8178571D01*
X11070714Y-8173809D01*
X11080238Y-8173809D01*
X10980238Y-8107143D02*
X10980238Y-8097619D01*
X10985000Y-8088095D01*
X10989762Y-8083333D01*
X10999286Y-8078571D01*
X11018333Y-8073809D01*
X11042143Y-8073809D01*
X11061191Y-8078571D01*
X11070714Y-8083333D01*
X11075476Y-8088095D01*
X11080238Y-8097619D01*
X11080238Y-8107143D01*
X11075476Y-8116667D01*
X11070714Y-8121428D01*
X11061191Y-8126190D01*
X11042143Y-8130952D01*
X11018333Y-8130952D01*
X10999286Y-8126190D01*
X10989762Y-8121428D01*
X10985000Y-8116667D01*
X10980238Y-8107143D01*
X11080238Y-7954762D02*
X11013572Y-7954762D01*
X11023095Y-7954762D02*
X11018333Y-7950000D01*
X11013572Y-7940476D01*
X11013572Y-7926190D01*
X11018333Y-7916667D01*
X11027857Y-7911905D01*
X11080238Y-7911905D01*
X11027857Y-7911905D02*
X11018333Y-7907143D01*
X11013572Y-7897619D01*
X11013572Y-7883333D01*
X11018333Y-7873809D01*
X11027857Y-7869048D01*
X11080238Y-7869048D01*
X11080238Y-7821428D02*
X11013572Y-7821428D01*
X11023095Y-7821428D02*
X11018333Y-7816667D01*
X11013572Y-7807143D01*
X11013572Y-7792857D01*
X11018333Y-7783333D01*
X11027857Y-7778571D01*
X11080238Y-7778571D01*
X11027857Y-7778571D02*
X11018333Y-7773809D01*
X11013572Y-7764286D01*
X11013572Y-7750000D01*
X11018333Y-7740476D01*
X11027857Y-7735714D01*
X11080238Y-7735714D01*
X11700000Y-5100000D02*
X11091358Y-5100000D01*
X11700000Y-11000000D02*
X11091358Y-11000000D01*
X11150000Y-5100000D02*
X11150000Y-11000000D01*
X11150000Y-5100000D02*
X11150000Y-11000000D01*
X11150000Y-5100000D02*
X11091358Y-5212650D01*
X11150000Y-5100000D02*
X11208642Y-5212650D01*
X11150000Y-11000000D02*
X11208642Y-10887350D01*
X11150000Y-11000000D02*
X11091358Y-10887350D01*
X13083333Y-12330238D02*
X13145238Y-12330238D01*
X13111905Y-12368333D01*
X13126190Y-12368333D01*
X13135714Y-12373095D01*
X13140476Y-12377857D01*
X13145238Y-12387381D01*
X13145238Y-12411190D01*
X13140476Y-12420714D01*
X13135714Y-12425476D01*
X13126190Y-12430238D01*
X13097619Y-12430238D01*
X13088095Y-12425476D01*
X13083333Y-12420714D01*
X13230952Y-12330238D02*
X13211905Y-12330238D01*
X13202381Y-12335000D01*
X13197619Y-12339762D01*
X13188095Y-12354048D01*
X13183333Y-12373095D01*
X13183333Y-12411190D01*
X13188095Y-12420714D01*
X13192857Y-12425476D01*
X13202381Y-12430238D01*
X13221428Y-12430238D01*
X13230952Y-12425476D01*
X13235714Y-12420714D01*
X13240476Y-12411190D01*
X13240476Y-12387381D01*
X13235714Y-12377857D01*
X13230952Y-12373095D01*
X13221428Y-12368333D01*
X13202381Y-12368333D01*
X13192857Y-12373095D01*
X13188095Y-12377857D01*
X13183333Y-12387381D01*
X13283333Y-12420714D02*
X13288095Y-12425476D01*
X13283333Y-12430238D01*
X13278571Y-12425476D01*
X13283333Y-12420714D01*
X13283333Y-12430238D01*
X13350000Y-12330238D02*
X13359524Y-12330238D01*
X13369048Y-12335000D01*
X13373809Y-12339762D01*
X13378571Y-12349286D01*
X13383333Y-12368333D01*
X13383333Y-12392143D01*
X13378571Y-12411190D01*
X13373809Y-12420714D01*
X13369048Y-12425476D01*
X13359524Y-12430238D01*
X13350000Y-12430238D01*
X13340476Y-12425476D01*
X13335714Y-12420714D01*
X13330952Y-12411190D01*
X13326190Y-12392143D01*
X13326190Y-12368333D01*
X13330952Y-12349286D01*
X13335714Y-12339762D01*
X13340476Y-12335000D01*
X13350000Y-12330238D01*
X13445238Y-12330238D02*
X13454762Y-12330238D01*
X13464286Y-12335000D01*
X13469048Y-12339762D01*
X13473809Y-12349286D01*
X13478571Y-12368333D01*
X13478571Y-12392143D01*
X13473809Y-12411190D01*
X13469048Y-12420714D01*
X13464286Y-12425476D01*
X13454762Y-12430238D01*
X13445238Y-12430238D01*
X13435714Y-12425476D01*
X13430952Y-12420714D01*
X13426190Y-12411190D01*
X13421428Y-12392143D01*
X13421428Y-12368333D01*
X13426190Y-12349286D01*
X13430952Y-12339762D01*
X13435714Y-12335000D01*
X13445238Y-12330238D01*
X13540476Y-12330238D02*
X13550000Y-12330238D01*
X13559524Y-12335000D01*
X13564286Y-12339762D01*
X13569048Y-12349286D01*
X13573809Y-12368333D01*
X13573809Y-12392143D01*
X13569048Y-12411190D01*
X13564286Y-12420714D01*
X13559524Y-12425476D01*
X13550000Y-12430238D01*
X13540476Y-12430238D01*
X13530952Y-12425476D01*
X13526190Y-12420714D01*
X13521428Y-12411190D01*
X13516667Y-12392143D01*
X13516667Y-12368333D01*
X13521428Y-12349286D01*
X13526190Y-12339762D01*
X13530952Y-12335000D01*
X13540476Y-12330238D01*
X13635714Y-12330238D02*
X13645238Y-12330238D01*
X13654762Y-12335000D01*
X13659524Y-12339762D01*
X13664286Y-12349286D01*
X13669048Y-12368333D01*
X13669048Y-12392143D01*
X13664286Y-12411190D01*
X13659524Y-12420714D01*
X13654762Y-12425476D01*
X13645238Y-12430238D01*
X13635714Y-12430238D01*
X13626190Y-12425476D01*
X13621428Y-12420714D01*
X13616667Y-12411190D01*
X13611905Y-12392143D01*
X13611905Y-12368333D01*
X13616667Y-12349286D01*
X13621428Y-12339762D01*
X13626190Y-12335000D01*
X13635714Y-12330238D01*
X13788095Y-12430238D02*
X13788095Y-12363571D01*
X13788095Y-12373095D02*
X13792857Y-12368333D01*
X13802381Y-12363571D01*
X13816667Y-12363571D01*
X13826190Y-12368333D01*
X13830952Y-12377857D01*
X13830952Y-12430238D01*
X13830952Y-12377857D02*
X13835714Y-12368333D01*
X13845238Y-12363571D01*
X13859524Y-12363571D01*
X13869048Y-12368333D01*
X13873809Y-12377857D01*
X13873809Y-12430238D01*
X13921428Y-12430238D02*
X13921428Y-12363571D01*
X13921428Y-12373095D02*
X13926190Y-12368333D01*
X13935714Y-12363571D01*
X13950000Y-12363571D01*
X13959524Y-12368333D01*
X13964286Y-12377857D01*
X13964286Y-12430238D01*
X13964286Y-12377857D02*
X13969048Y-12368333D01*
X13978571Y-12363571D01*
X13992857Y-12363571D01*
X14002381Y-12368333D01*
X14007143Y-12377857D01*
X14007143Y-12430238D01*
X15350000Y-11050000D02*
X15350000Y-12558642D01*
X11750000Y-11050000D02*
X11750000Y-12558642D01*
X15350000Y-12500000D02*
X11750000Y-12500000D01*
X15350000Y-12500000D02*
X11750000Y-12500000D01*
X15350000Y-12500000D02*
X15237350Y-12441358D01*
X15350000Y-12500000D02*
X15237350Y-12558642D01*
X11750000Y-12500000D02*
X11862650Y-12558642D01*
X11750000Y-12500000D02*
X11862650Y-12441358D01*
X11413571Y-5666667D02*
X11480238Y-5666667D01*
X11375476Y-5690476D02*
X11446905Y-5714286D01*
X11446905Y-5652381D01*
X11470714Y-5614286D02*
X11475476Y-5609524D01*
X11480238Y-5614286D01*
X11475476Y-5619048D01*
X11470714Y-5614286D01*
X11480238Y-5614286D01*
X11380238Y-5547619D02*
X11380238Y-5538095D01*
X11385000Y-5528571D01*
X11389762Y-5523810D01*
X11399286Y-5519048D01*
X11418333Y-5514286D01*
X11442143Y-5514286D01*
X11461190Y-5519048D01*
X11470714Y-5523810D01*
X11475476Y-5528571D01*
X11480238Y-5538095D01*
X11480238Y-5547619D01*
X11475476Y-5557143D01*
X11470714Y-5561905D01*
X11461190Y-5566667D01*
X11442143Y-5571429D01*
X11418333Y-5571429D01*
X11399286Y-5566667D01*
X11389762Y-5561905D01*
X11385000Y-5557143D01*
X11380238Y-5547619D01*
X11380238Y-5452381D02*
X11380238Y-5442857D01*
X11385000Y-5433333D01*
X11389762Y-5428571D01*
X11399286Y-5423810D01*
X11418333Y-5419048D01*
X11442143Y-5419048D01*
X11461190Y-5423810D01*
X11470714Y-5428571D01*
X11475476Y-5433333D01*
X11480238Y-5442857D01*
X11480238Y-5452381D01*
X11475476Y-5461905D01*
X11470714Y-5466667D01*
X11461190Y-5471429D01*
X11442143Y-5476190D01*
X11418333Y-5476190D01*
X11399286Y-5471429D01*
X11389762Y-5466667D01*
X11385000Y-5461905D01*
X11380238Y-5452381D01*
X11380238Y-5357143D02*
X11380238Y-5347619D01*
X11385000Y-5338095D01*
X11389762Y-5333333D01*
X11399286Y-5328571D01*
X11418333Y-5323810D01*
X11442143Y-5323810D01*
X11461190Y-5328571D01*
X11470714Y-5333333D01*
X11475476Y-5338095D01*
X11480238Y-5347619D01*
X11480238Y-5357143D01*
X11475476Y-5366667D01*
X11470714Y-5371429D01*
X11461190Y-5376190D01*
X11442143Y-5380952D01*
X11418333Y-5380952D01*
X11399286Y-5376190D01*
X11389762Y-5371429D01*
X11385000Y-5366667D01*
X11380238Y-5357143D01*
X11380238Y-5261905D02*
X11380238Y-5252381D01*
X11385000Y-5242857D01*
X11389762Y-5238095D01*
X11399286Y-5233333D01*
X11418333Y-5228571D01*
X11442143Y-5228571D01*
X11461190Y-5233333D01*
X11470714Y-5238095D01*
X11475476Y-5242857D01*
X11480238Y-5252381D01*
X11480238Y-5261905D01*
X11475476Y-5271429D01*
X11470714Y-5276190D01*
X11461190Y-5280952D01*
X11442143Y-5285714D01*
X11418333Y-5285714D01*
X11399286Y-5280952D01*
X11389762Y-5276190D01*
X11385000Y-5271429D01*
X11380238Y-5261905D01*
X11480238Y-5109524D02*
X11413571Y-5109524D01*
X11423095Y-5109524D02*
X11418333Y-5104762D01*
X11413571Y-5095238D01*
X11413571Y-5080952D01*
X11418333Y-5071429D01*
X11427857Y-5066667D01*
X11480238Y-5066667D01*
X11427857Y-5066667D02*
X11418333Y-5061905D01*
X11413571Y-5052381D01*
X11413571Y-5038095D01*
X11418333Y-5028571D01*
X11427857Y-5023810D01*
X11480238Y-5023810D01*
X11480238Y-4976190D02*
X11413571Y-4976190D01*
X11423095Y-4976190D02*
X11418333Y-4971429D01*
X11413571Y-4961905D01*
X11413571Y-4947619D01*
X11418333Y-4938095D01*
X11427857Y-4933333D01*
X11480238Y-4933333D01*
X11427857Y-4933333D02*
X11418333Y-4928571D01*
X11413571Y-4919048D01*
X11413571Y-4904762D01*
X11418333Y-4895238D01*
X11427857Y-4890476D01*
X11480238Y-4890476D01*
X11700000Y-5500000D02*
X11491358Y-5500000D01*
X11700000Y-5100000D02*
X11491358Y-5100000D01*
X11550000Y-5500000D02*
X11550000Y-5100000D01*
X11550000Y-5500000D02*
X11550000Y-5100000D01*
X11550000Y-5500000D02*
X11608642Y-5387350D01*
X11550000Y-5500000D02*
X11491358Y-5387350D01*
X11550000Y-5100000D02*
X11491358Y-5212650D01*
X11550000Y-5100000D02*
X11608642Y-5212650D01*
X15720238Y-12015238D02*
X15663095Y-12015238D01*
X15691667Y-12015238D02*
X15691667Y-11915238D01*
X15682143Y-11929524D01*
X15672619Y-11939048D01*
X15663095Y-11943809D01*
X15810714Y-11915238D02*
X15763095Y-11915238D01*
X15758333Y-11962857D01*
X15763095Y-11958095D01*
X15772619Y-11953333D01*
X15796428Y-11953333D01*
X15805952Y-11958095D01*
X15810714Y-11962857D01*
X15815476Y-11972381D01*
X15815476Y-11996190D01*
X15810714Y-12005714D01*
X15805952Y-12010476D01*
X15796428Y-12015238D01*
X15772619Y-12015238D01*
X15763095Y-12010476D01*
X15758333Y-12005714D01*
X15858333Y-12005714D02*
X15863095Y-12010476D01*
X15858333Y-12015238D01*
X15853571Y-12010476D01*
X15858333Y-12005714D01*
X15858333Y-12015238D01*
X15953571Y-11915238D02*
X15905952Y-11915238D01*
X15901190Y-11962857D01*
X15905952Y-11958095D01*
X15915476Y-11953333D01*
X15939286Y-11953333D01*
X15948809Y-11958095D01*
X15953571Y-11962857D01*
X15958333Y-11972381D01*
X15958333Y-11996190D01*
X15953571Y-12005714D01*
X15948809Y-12010476D01*
X15939286Y-12015238D01*
X15915476Y-12015238D01*
X15905952Y-12010476D01*
X15901190Y-12005714D01*
X16020238Y-11915238D02*
X16029762Y-11915238D01*
X16039286Y-11920000D01*
X16044048Y-11924762D01*
X16048809Y-11934286D01*
X16053571Y-11953333D01*
X16053571Y-11977143D01*
X16048809Y-11996190D01*
X16044048Y-12005714D01*
X16039286Y-12010476D01*
X16029762Y-12015238D01*
X16020238Y-12015238D01*
X16010714Y-12010476D01*
X16005952Y-12005714D01*
X16001190Y-11996190D01*
X15996428Y-11977143D01*
X15996428Y-11953333D01*
X16001190Y-11934286D01*
X16005952Y-11924762D01*
X16010714Y-11920000D01*
X16020238Y-11915238D01*
X16115476Y-11915238D02*
X16125000Y-11915238D01*
X16134524Y-11920000D01*
X16139286Y-11924762D01*
X16144048Y-11934286D01*
X16148809Y-11953333D01*
X16148809Y-11977143D01*
X16144048Y-11996190D01*
X16139286Y-12005714D01*
X16134524Y-12010476D01*
X16125000Y-12015238D01*
X16115476Y-12015238D01*
X16105952Y-12010476D01*
X16101190Y-12005714D01*
X16096428Y-11996190D01*
X16091667Y-11977143D01*
X16091667Y-11953333D01*
X16096428Y-11934286D01*
X16101190Y-11924762D01*
X16105952Y-11920000D01*
X16115476Y-11915238D01*
X16210714Y-11915238D02*
X16220238Y-11915238D01*
X16229762Y-11920000D01*
X16234524Y-11924762D01*
X16239286Y-11934286D01*
X16244048Y-11953333D01*
X16244048Y-11977143D01*
X16239286Y-11996190D01*
X16234524Y-12005714D01*
X16229762Y-12010476D01*
X16220238Y-12015238D01*
X16210714Y-12015238D01*
X16201190Y-12010476D01*
X16196428Y-12005714D01*
X16191667Y-11996190D01*
X16186905Y-11977143D01*
X16186905Y-11953333D01*
X16191667Y-11934286D01*
X16196428Y-11924762D01*
X16201190Y-11920000D01*
X16210714Y-11915238D01*
X16363095Y-12015238D02*
X16363095Y-11948571D01*
X16363095Y-11958095D02*
X16367857Y-11953333D01*
X16377381Y-11948571D01*
X16391667Y-11948571D01*
X16401190Y-11953333D01*
X16405952Y-11962857D01*
X16405952Y-12015238D01*
X16405952Y-11962857D02*
X16410714Y-11953333D01*
X16420238Y-11948571D01*
X16434524Y-11948571D01*
X16444048Y-11953333D01*
X16448809Y-11962857D01*
X16448809Y-12015238D01*
X16496428Y-12015238D02*
X16496428Y-11948571D01*
X16496428Y-11958095D02*
X16501190Y-11953333D01*
X16510714Y-11948571D01*
X16525000Y-11948571D01*
X16534524Y-11953333D01*
X16539286Y-11962857D01*
X16539286Y-12015238D01*
X16539286Y-11962857D02*
X16544048Y-11953333D01*
X16553571Y-11948571D01*
X16567857Y-11948571D01*
X16577381Y-11953333D01*
X16582143Y-11962857D01*
X16582143Y-12015238D01*
X15350000Y-10145000D02*
X15350000Y-12143642D01*
X16900000Y-10145000D02*
X16900000Y-12143642D01*
X15350000Y-12085000D02*
X16900000Y-12085000D01*
X15350000Y-12085000D02*
X16900000Y-12085000D01*
X15350000Y-12085000D02*
X15462650Y-12143642D01*
X15350000Y-12085000D02*
X15462650Y-12026358D01*
X16900000Y-12085000D02*
X16787350Y-12026358D01*
X16900000Y-12085000D02*
X16787350Y-12143642D01*
X16045238Y-4557143D02*
X16045238Y-4614286D01*
X16045238Y-4585714D02*
X15945238Y-4585714D01*
X15959524Y-4595238D01*
X15969048Y-4604762D01*
X15973809Y-4614286D01*
X16035714Y-4514286D02*
X16040476Y-4509524D01*
X16045238Y-4514286D01*
X16040476Y-4519048D01*
X16035714Y-4514286D01*
X16045238Y-4514286D01*
X15945238Y-4476190D02*
X15945238Y-4409524D01*
X16045238Y-4452381D01*
X15945238Y-4323810D02*
X15945238Y-4371429D01*
X15992857Y-4376190D01*
X15988095Y-4371429D01*
X15983333Y-4361905D01*
X15983333Y-4338095D01*
X15988095Y-4328571D01*
X15992857Y-4323810D01*
X16002381Y-4319048D01*
X16026190Y-4319048D01*
X16035714Y-4323810D01*
X16040476Y-4328571D01*
X16045238Y-4338095D01*
X16045238Y-4361905D01*
X16040476Y-4371429D01*
X16035714Y-4376190D01*
X15945238Y-4257143D02*
X15945238Y-4247619D01*
X15950000Y-4238095D01*
X15954762Y-4233333D01*
X15964286Y-4228571D01*
X15983333Y-4223810D01*
X16007143Y-4223810D01*
X16026190Y-4228571D01*
X16035714Y-4233333D01*
X16040476Y-4238095D01*
X16045238Y-4247619D01*
X16045238Y-4257143D01*
X16040476Y-4266667D01*
X16035714Y-4271429D01*
X16026190Y-4276190D01*
X16007143Y-4280952D01*
X15983333Y-4280952D01*
X15964286Y-4276190D01*
X15954762Y-4271429D01*
X15950000Y-4266667D01*
X15945238Y-4257143D01*
X15945238Y-4161905D02*
X15945238Y-4152381D01*
X15950000Y-4142857D01*
X15954762Y-4138095D01*
X15964286Y-4133333D01*
X15983333Y-4128571D01*
X16007143Y-4128571D01*
X16026190Y-4133333D01*
X16035714Y-4138095D01*
X16040476Y-4142857D01*
X16045238Y-4152381D01*
X16045238Y-4161905D01*
X16040476Y-4171428D01*
X16035714Y-4176190D01*
X16026190Y-4180952D01*
X16007143Y-4185714D01*
X15983333Y-4185714D01*
X15964286Y-4180952D01*
X15954762Y-4176190D01*
X15950000Y-4171428D01*
X15945238Y-4161905D01*
X16045238Y-4009524D02*
X15978571Y-4009524D01*
X15988095Y-4009524D02*
X15983333Y-4004762D01*
X15978571Y-3995238D01*
X15978571Y-3980952D01*
X15983333Y-3971428D01*
X15992857Y-3966667D01*
X16045238Y-3966667D01*
X15992857Y-3966667D02*
X15983333Y-3961905D01*
X15978571Y-3952381D01*
X15978571Y-3938095D01*
X15983333Y-3928571D01*
X15992857Y-3923809D01*
X16045238Y-3923809D01*
X16045238Y-3876190D02*
X15978571Y-3876190D01*
X15988095Y-3876190D02*
X15983333Y-3871428D01*
X15978571Y-3861905D01*
X15978571Y-3847619D01*
X15983333Y-3838095D01*
X15992857Y-3833333D01*
X16045238Y-3833333D01*
X15992857Y-3833333D02*
X15983333Y-3828571D01*
X15978571Y-3819048D01*
X15978571Y-3804762D01*
X15983333Y-3795238D01*
X15992857Y-3790476D01*
X16045238Y-3790476D01*
X15925000Y-4925000D02*
X16133642Y-4925000D01*
X15925000Y-5100000D02*
X16133642Y-5100000D01*
X16075000Y-4925000D02*
X16075000Y-5100000D01*
X16075000Y-4925000D02*
X16075000Y-5100000D01*
X16075000Y-4925000D02*
X16016358Y-5037650D01*
X16075000Y-4925000D02*
X16133642Y-5037650D01*
X16075000Y-5100000D02*
X16133642Y-4987350D01*
X16075000Y-5100000D02*
X16016358Y-4987350D01*
X18505952Y-11495238D02*
X18458333Y-11495238D01*
X18453571Y-11542857D01*
X18458333Y-11538095D01*
X18467857Y-11533333D01*
X18491667Y-11533333D01*
X18501190Y-11538095D01*
X18505952Y-11542857D01*
X18510714Y-11552381D01*
X18510714Y-11576190D01*
X18505952Y-11585714D01*
X18501190Y-11590476D01*
X18491667Y-11595238D01*
X18467857Y-11595238D01*
X18458333Y-11590476D01*
X18453571Y-11585714D01*
X18553571Y-11585714D02*
X18558333Y-11590476D01*
X18553571Y-11595238D01*
X18548810Y-11590476D01*
X18553571Y-11585714D01*
X18553571Y-11595238D01*
X18620238Y-11495238D02*
X18629762Y-11495238D01*
X18639286Y-11500000D01*
X18644048Y-11504762D01*
X18648810Y-11514286D01*
X18653571Y-11533333D01*
X18653571Y-11557143D01*
X18648810Y-11576190D01*
X18644048Y-11585714D01*
X18639286Y-11590476D01*
X18629762Y-11595238D01*
X18620238Y-11595238D01*
X18610714Y-11590476D01*
X18605952Y-11585714D01*
X18601190Y-11576190D01*
X18596429Y-11557143D01*
X18596429Y-11533333D01*
X18601190Y-11514286D01*
X18605952Y-11504762D01*
X18610714Y-11500000D01*
X18620238Y-11495238D01*
X18772619Y-11595238D02*
X18772619Y-11528571D01*
X18772619Y-11538095D02*
X18777381Y-11533333D01*
X18786905Y-11528571D01*
X18801190Y-11528571D01*
X18810714Y-11533333D01*
X18815476Y-11542857D01*
X18815476Y-11595238D01*
X18815476Y-11542857D02*
X18820238Y-11533333D01*
X18829762Y-11528571D01*
X18844048Y-11528571D01*
X18853571Y-11533333D01*
X18858333Y-11542857D01*
X18858333Y-11595238D01*
X18905952Y-11595238D02*
X18905952Y-11528571D01*
X18905952Y-11538095D02*
X18910714Y-11533333D01*
X18920238Y-11528571D01*
X18934524Y-11528571D01*
X18944048Y-11533333D01*
X18948810Y-11542857D01*
X18948810Y-11595238D01*
X18948810Y-11542857D02*
X18953571Y-11533333D01*
X18963095Y-11528571D01*
X18977381Y-11528571D01*
X18986905Y-11533333D01*
X18991667Y-11542857D01*
X18991667Y-11595238D01*
X18950000Y-10550000D02*
X18950000Y-11408642D01*
X18450000Y-10550000D02*
X18450000Y-11408642D01*
X18950000Y-11350000D02*
X18450000Y-11350000D01*
X18950000Y-11350000D02*
X18450000Y-11350000D01*
X18950000Y-11350000D02*
X18837350Y-11291358D01*
X18950000Y-11350000D02*
X18837350Y-11408642D01*
X18450000Y-11350000D02*
X18562650Y-11408642D01*
X18450000Y-11350000D02*
X18562650Y-11291358D01*
X10130238Y-10879762D02*
X10130238Y-10936905D01*
X10130238Y-10908333D02*
X10030238Y-10908333D01*
X10044524Y-10917857D01*
X10054048Y-10927381D01*
X10058810Y-10936905D01*
X10030238Y-10817857D02*
X10030238Y-10808333D01*
X10035000Y-10798810D01*
X10039762Y-10794048D01*
X10049286Y-10789286D01*
X10068333Y-10784524D01*
X10092143Y-10784524D01*
X10111190Y-10789286D01*
X10120714Y-10794048D01*
X10125476Y-10798810D01*
X10130238Y-10808333D01*
X10130238Y-10817857D01*
X10125476Y-10827381D01*
X10120714Y-10832143D01*
X10111190Y-10836905D01*
X10092143Y-10841667D01*
X10068333Y-10841667D01*
X10049286Y-10836905D01*
X10039762Y-10832143D01*
X10035000Y-10827381D01*
X10030238Y-10817857D01*
X10120714Y-10741667D02*
X10125476Y-10736905D01*
X10130238Y-10741667D01*
X10125476Y-10746429D01*
X10120714Y-10741667D01*
X10130238Y-10741667D01*
X10030238Y-10646429D02*
X10030238Y-10694048D01*
X10077857Y-10698810D01*
X10073095Y-10694048D01*
X10068333Y-10684524D01*
X10068333Y-10660714D01*
X10073095Y-10651190D01*
X10077857Y-10646429D01*
X10087381Y-10641667D01*
X10111190Y-10641667D01*
X10120714Y-10646429D01*
X10125476Y-10651190D01*
X10130238Y-10660714D01*
X10130238Y-10684524D01*
X10125476Y-10694048D01*
X10120714Y-10698810D01*
X10030238Y-10579762D02*
X10030238Y-10570238D01*
X10035000Y-10560714D01*
X10039762Y-10555952D01*
X10049286Y-10551190D01*
X10068333Y-10546429D01*
X10092143Y-10546429D01*
X10111190Y-10551190D01*
X10120714Y-10555952D01*
X10125476Y-10560714D01*
X10130238Y-10570238D01*
X10130238Y-10579762D01*
X10125476Y-10589286D01*
X10120714Y-10594048D01*
X10111190Y-10598810D01*
X10092143Y-10603571D01*
X10068333Y-10603571D01*
X10049286Y-10598810D01*
X10039762Y-10594048D01*
X10035000Y-10589286D01*
X10030238Y-10579762D01*
X10030238Y-10484524D02*
X10030238Y-10475000D01*
X10035000Y-10465476D01*
X10039762Y-10460714D01*
X10049286Y-10455952D01*
X10068333Y-10451190D01*
X10092143Y-10451190D01*
X10111190Y-10455952D01*
X10120714Y-10460714D01*
X10125476Y-10465476D01*
X10130238Y-10475000D01*
X10130238Y-10484524D01*
X10125476Y-10494048D01*
X10120714Y-10498810D01*
X10111190Y-10503571D01*
X10092143Y-10508333D01*
X10068333Y-10508333D01*
X10049286Y-10503571D01*
X10039762Y-10498810D01*
X10035000Y-10494048D01*
X10030238Y-10484524D01*
X10030238Y-10389286D02*
X10030238Y-10379762D01*
X10035000Y-10370238D01*
X10039762Y-10365476D01*
X10049286Y-10360714D01*
X10068333Y-10355952D01*
X10092143Y-10355952D01*
X10111190Y-10360714D01*
X10120714Y-10365476D01*
X10125476Y-10370238D01*
X10130238Y-10379762D01*
X10130238Y-10389286D01*
X10125476Y-10398810D01*
X10120714Y-10403571D01*
X10111190Y-10408333D01*
X10092143Y-10413095D01*
X10068333Y-10413095D01*
X10049286Y-10408333D01*
X10039762Y-10403571D01*
X10035000Y-10398810D01*
X10030238Y-10389286D01*
X10130238Y-10236905D02*
X10063571Y-10236905D01*
X10073095Y-10236905D02*
X10068333Y-10232143D01*
X10063571Y-10222619D01*
X10063571Y-10208333D01*
X10068333Y-10198810D01*
X10077857Y-10194048D01*
X10130238Y-10194048D01*
X10077857Y-10194048D02*
X10068333Y-10189286D01*
X10063571Y-10179762D01*
X10063571Y-10165476D01*
X10068333Y-10155952D01*
X10077857Y-10151190D01*
X10130238Y-10151190D01*
X10130238Y-10103571D02*
X10063571Y-10103571D01*
X10073095Y-10103571D02*
X10068333Y-10098810D01*
X10063571Y-10089286D01*
X10063571Y-10075000D01*
X10068333Y-10065476D01*
X10077857Y-10060714D01*
X10130238Y-10060714D01*
X10077857Y-10060714D02*
X10068333Y-10055952D01*
X10063571Y-10046429D01*
X10063571Y-10032143D01*
X10068333Y-10022619D01*
X10077857Y-10017857D01*
X10130238Y-10017857D01*
X12900000Y-9950000D02*
X10141358Y-9950000D01*
X12900000Y-11000000D02*
X10141358Y-11000000D01*
X10200000Y-9950000D02*
X10200000Y-11000000D01*
X10200000Y-9950000D02*
X10200000Y-11000000D01*
X10200000Y-9950000D02*
X10141358Y-10062650D01*
X10200000Y-9950000D02*
X10258642Y-10062650D01*
X10200000Y-11000000D02*
X10258642Y-10887350D01*
X10200000Y-11000000D02*
X10141358Y-10887350D01*
X15026190Y-4530238D02*
X15092857Y-4530238D01*
X15050000Y-4630238D01*
X15126190Y-4539762D02*
X15130952Y-4535000D01*
X15140476Y-4530238D01*
X15164286Y-4530238D01*
X15173809Y-4535000D01*
X15178571Y-4539762D01*
X15183333Y-4549286D01*
X15183333Y-4558810D01*
X15178571Y-4573095D01*
X15121428Y-4630238D01*
X15183333Y-4630238D01*
X15226190Y-4620714D02*
X15230952Y-4625476D01*
X15226190Y-4630238D01*
X15221428Y-4625476D01*
X15226190Y-4620714D01*
X15226190Y-4630238D01*
X15292857Y-4530238D02*
X15302381Y-4530238D01*
X15311905Y-4535000D01*
X15316667Y-4539762D01*
X15321428Y-4549286D01*
X15326190Y-4568333D01*
X15326190Y-4592143D01*
X15321428Y-4611191D01*
X15316667Y-4620714D01*
X15311905Y-4625476D01*
X15302381Y-4630238D01*
X15292857Y-4630238D01*
X15283333Y-4625476D01*
X15278571Y-4620714D01*
X15273809Y-4611191D01*
X15269048Y-4592143D01*
X15269048Y-4568333D01*
X15273809Y-4549286D01*
X15278571Y-4539762D01*
X15283333Y-4535000D01*
X15292857Y-4530238D01*
X15445238Y-4630238D02*
X15445238Y-4563572D01*
X15445238Y-4573095D02*
X15450000Y-4568333D01*
X15459524Y-4563572D01*
X15473809Y-4563572D01*
X15483333Y-4568333D01*
X15488095Y-4577857D01*
X15488095Y-4630238D01*
X15488095Y-4577857D02*
X15492857Y-4568333D01*
X15502381Y-4563572D01*
X15516667Y-4563572D01*
X15526190Y-4568333D01*
X15530952Y-4577857D01*
X15530952Y-4630238D01*
X15578571Y-4630238D02*
X15578571Y-4563572D01*
X15578571Y-4573095D02*
X15583333Y-4568333D01*
X15592857Y-4563572D01*
X15607143Y-4563572D01*
X15616667Y-4568333D01*
X15621428Y-4577857D01*
X15621428Y-4630238D01*
X15621428Y-4577857D02*
X15626190Y-4568333D01*
X15635714Y-4563572D01*
X15650000Y-4563572D01*
X15659524Y-4568333D01*
X15664286Y-4577857D01*
X15664286Y-4630238D01*
X18950000Y-5450000D02*
X18950000Y-4641358D01*
X11750000Y-5450000D02*
X11750000Y-4641358D01*
X18950000Y-4700000D02*
X11750000Y-4700000D01*
X18950000Y-4700000D02*
X11750000Y-4700000D01*
X18950000Y-4700000D02*
X18837350Y-4641358D01*
X18950000Y-4700000D02*
X18837350Y-4758642D01*
X11750000Y-4700000D02*
X11862650Y-4758642D01*
X11750000Y-4700000D02*
X11862650Y-4641358D01*
X10739762Y-7299405D02*
X10735000Y-7294643D01*
X10730238Y-7285119D01*
X10730238Y-7261309D01*
X10735000Y-7251786D01*
X10739762Y-7247024D01*
X10749286Y-7242262D01*
X10758810Y-7242262D01*
X10773095Y-7247024D01*
X10830238Y-7304167D01*
X10830238Y-7242262D01*
X10730238Y-7156548D02*
X10730238Y-7175595D01*
X10735000Y-7185119D01*
X10739762Y-7189881D01*
X10754048Y-7199405D01*
X10773095Y-7204167D01*
X10811190Y-7204167D01*
X10820714Y-7199405D01*
X10825476Y-7194643D01*
X10830238Y-7185119D01*
X10830238Y-7166071D01*
X10825476Y-7156548D01*
X10820714Y-7151786D01*
X10811190Y-7147024D01*
X10787381Y-7147024D01*
X10777857Y-7151786D01*
X10773095Y-7156548D01*
X10768333Y-7166071D01*
X10768333Y-7185119D01*
X10773095Y-7194643D01*
X10777857Y-7199405D01*
X10787381Y-7204167D01*
X10820714Y-7104167D02*
X10825476Y-7099405D01*
X10830238Y-7104167D01*
X10825476Y-7108928D01*
X10820714Y-7104167D01*
X10830238Y-7104167D01*
X10730238Y-7066071D02*
X10730238Y-6999405D01*
X10830238Y-7042262D01*
X10730238Y-6913690D02*
X10730238Y-6961309D01*
X10777857Y-6966071D01*
X10773095Y-6961309D01*
X10768333Y-6951786D01*
X10768333Y-6927976D01*
X10773095Y-6918452D01*
X10777857Y-6913690D01*
X10787381Y-6908928D01*
X10811190Y-6908928D01*
X10820714Y-6913690D01*
X10825476Y-6918452D01*
X10830238Y-6927976D01*
X10830238Y-6951786D01*
X10825476Y-6961309D01*
X10820714Y-6966071D01*
X10730238Y-6847024D02*
X10730238Y-6837500D01*
X10735000Y-6827976D01*
X10739762Y-6823214D01*
X10749286Y-6818452D01*
X10768333Y-6813690D01*
X10792143Y-6813690D01*
X10811190Y-6818452D01*
X10820714Y-6823214D01*
X10825476Y-6827976D01*
X10830238Y-6837500D01*
X10830238Y-6847024D01*
X10825476Y-6856548D01*
X10820714Y-6861309D01*
X10811190Y-6866071D01*
X10792143Y-6870833D01*
X10768333Y-6870833D01*
X10749286Y-6866071D01*
X10739762Y-6861309D01*
X10735000Y-6856548D01*
X10730238Y-6847024D01*
X10730238Y-6751786D02*
X10730238Y-6742262D01*
X10735000Y-6732738D01*
X10739762Y-6727976D01*
X10749286Y-6723214D01*
X10768333Y-6718452D01*
X10792143Y-6718452D01*
X10811190Y-6723214D01*
X10820714Y-6727976D01*
X10825476Y-6732738D01*
X10830238Y-6742262D01*
X10830238Y-6751786D01*
X10825476Y-6761309D01*
X10820714Y-6766071D01*
X10811190Y-6770833D01*
X10792143Y-6775595D01*
X10768333Y-6775595D01*
X10749286Y-6770833D01*
X10739762Y-6766071D01*
X10735000Y-6761309D01*
X10730238Y-6751786D01*
X10830238Y-6599405D02*
X10763571Y-6599405D01*
X10773095Y-6599405D02*
X10768333Y-6594643D01*
X10763571Y-6585119D01*
X10763571Y-6570833D01*
X10768333Y-6561309D01*
X10777857Y-6556548D01*
X10830238Y-6556548D01*
X10777857Y-6556548D02*
X10768333Y-6551786D01*
X10763571Y-6542262D01*
X10763571Y-6527976D01*
X10768333Y-6518452D01*
X10777857Y-6513690D01*
X10830238Y-6513690D01*
X10830238Y-6466071D02*
X10763571Y-6466071D01*
X10773095Y-6466071D02*
X10768333Y-6461309D01*
X10763571Y-6451786D01*
X10763571Y-6437500D01*
X10768333Y-6427976D01*
X10777857Y-6423214D01*
X10830238Y-6423214D01*
X10777857Y-6423214D02*
X10768333Y-6418452D01*
X10763571Y-6408928D01*
X10763571Y-6394643D01*
X10768333Y-6385119D01*
X10777857Y-6380357D01*
X10830238Y-6380357D01*
X11700000Y-8175000D02*
X10841358Y-8175000D01*
X11700000Y-5500000D02*
X10841358Y-5500000D01*
X10900000Y-8175000D02*
X10900000Y-5500000D01*
X10900000Y-8175000D02*
X10900000Y-5500000D01*
X10900000Y-8175000D02*
X10958642Y-8062350D01*
X10900000Y-8175000D02*
X10841358Y-8062350D01*
X10900000Y-5500000D02*
X10841358Y-5612650D01*
X10900000Y-5500000D02*
X10958642Y-5612650D01*
X10355238Y-10949762D02*
X10355238Y-10930714D01*
X10350476Y-10921190D01*
X10345714Y-10916429D01*
X10331429Y-10906905D01*
X10312381Y-10902143D01*
X10274286Y-10902143D01*
X10264762Y-10906905D01*
X10260000Y-10911667D01*
X10255238Y-10921190D01*
X10255238Y-10940238D01*
X10260000Y-10949762D01*
X10264762Y-10954524D01*
X10274286Y-10959286D01*
X10298095Y-10959286D01*
X10307619Y-10954524D01*
X10312381Y-10949762D01*
X10317143Y-10940238D01*
X10317143Y-10921190D01*
X10312381Y-10911667D01*
X10307619Y-10906905D01*
X10298095Y-10902143D01*
X10345714Y-10859286D02*
X10350476Y-10854524D01*
X10355238Y-10859286D01*
X10350476Y-10864048D01*
X10345714Y-10859286D01*
X10355238Y-10859286D01*
X10255238Y-10792619D02*
X10255238Y-10783095D01*
X10260000Y-10773571D01*
X10264762Y-10768810D01*
X10274286Y-10764048D01*
X10293333Y-10759286D01*
X10317143Y-10759286D01*
X10336190Y-10764048D01*
X10345714Y-10768810D01*
X10350476Y-10773571D01*
X10355238Y-10783095D01*
X10355238Y-10792619D01*
X10350476Y-10802143D01*
X10345714Y-10806905D01*
X10336190Y-10811667D01*
X10317143Y-10816429D01*
X10293333Y-10816429D01*
X10274286Y-10811667D01*
X10264762Y-10806905D01*
X10260000Y-10802143D01*
X10255238Y-10792619D01*
X10255238Y-10697381D02*
X10255238Y-10687857D01*
X10260000Y-10678333D01*
X10264762Y-10673571D01*
X10274286Y-10668810D01*
X10293333Y-10664048D01*
X10317143Y-10664048D01*
X10336190Y-10668810D01*
X10345714Y-10673571D01*
X10350476Y-10678333D01*
X10355238Y-10687857D01*
X10355238Y-10697381D01*
X10350476Y-10706905D01*
X10345714Y-10711667D01*
X10336190Y-10716429D01*
X10317143Y-10721190D01*
X10293333Y-10721190D01*
X10274286Y-10716429D01*
X10264762Y-10711667D01*
X10260000Y-10706905D01*
X10255238Y-10697381D01*
X10255238Y-10602143D02*
X10255238Y-10592619D01*
X10260000Y-10583095D01*
X10264762Y-10578333D01*
X10274286Y-10573571D01*
X10293333Y-10568810D01*
X10317143Y-10568810D01*
X10336190Y-10573571D01*
X10345714Y-10578333D01*
X10350476Y-10583095D01*
X10355238Y-10592619D01*
X10355238Y-10602143D01*
X10350476Y-10611667D01*
X10345714Y-10616429D01*
X10336190Y-10621190D01*
X10317143Y-10625952D01*
X10293333Y-10625952D01*
X10274286Y-10621190D01*
X10264762Y-10616429D01*
X10260000Y-10611667D01*
X10255238Y-10602143D01*
X10255238Y-10506905D02*
X10255238Y-10497381D01*
X10260000Y-10487857D01*
X10264762Y-10483095D01*
X10274286Y-10478333D01*
X10293333Y-10473571D01*
X10317143Y-10473571D01*
X10336190Y-10478333D01*
X10345714Y-10483095D01*
X10350476Y-10487857D01*
X10355238Y-10497381D01*
X10355238Y-10506905D01*
X10350476Y-10516429D01*
X10345714Y-10521190D01*
X10336190Y-10525952D01*
X10317143Y-10530714D01*
X10293333Y-10530714D01*
X10274286Y-10525952D01*
X10264762Y-10521190D01*
X10260000Y-10516429D01*
X10255238Y-10506905D01*
X10355238Y-10354524D02*
X10288571Y-10354524D01*
X10298095Y-10354524D02*
X10293333Y-10349762D01*
X10288571Y-10340238D01*
X10288571Y-10325952D01*
X10293333Y-10316429D01*
X10302857Y-10311667D01*
X10355238Y-10311667D01*
X10302857Y-10311667D02*
X10293333Y-10306905D01*
X10288571Y-10297381D01*
X10288571Y-10283095D01*
X10293333Y-10273571D01*
X10302857Y-10268810D01*
X10355238Y-10268810D01*
X10355238Y-10221190D02*
X10288571Y-10221190D01*
X10298095Y-10221190D02*
X10293333Y-10216429D01*
X10288571Y-10206905D01*
X10288571Y-10192619D01*
X10293333Y-10183095D01*
X10302857Y-10178333D01*
X10355238Y-10178333D01*
X10302857Y-10178333D02*
X10293333Y-10173571D01*
X10288571Y-10164048D01*
X10288571Y-10149762D01*
X10293333Y-10140238D01*
X10302857Y-10135476D01*
X10355238Y-10135476D01*
X13750000Y-10095000D02*
X10366358Y-10095000D01*
X13750000Y-10995000D02*
X10366358Y-10995000D01*
X10425000Y-10095000D02*
X10425000Y-10995000D01*
X10425000Y-10095000D02*
X10425000Y-10995000D01*
X10425000Y-10095000D02*
X10366358Y-10207650D01*
X10425000Y-10095000D02*
X10483642Y-10207650D01*
X10425000Y-10995000D02*
X10483642Y-10882350D01*
X10425000Y-10995000D02*
X10366358Y-10882350D01*
X11945238Y-11805238D02*
X11888095Y-11805238D01*
X11916667Y-11805238D02*
X11916667Y-11705238D01*
X11907143Y-11719524D01*
X11897619Y-11729048D01*
X11888095Y-11733809D01*
X11983333Y-11714762D02*
X11988095Y-11710000D01*
X11997619Y-11705238D01*
X12021428Y-11705238D01*
X12030952Y-11710000D01*
X12035714Y-11714762D01*
X12040476Y-11724286D01*
X12040476Y-11733809D01*
X12035714Y-11748095D01*
X11978571Y-11805238D01*
X12040476Y-11805238D01*
X12083333Y-11795714D02*
X12088095Y-11800476D01*
X12083333Y-11805238D01*
X12078571Y-11800476D01*
X12083333Y-11795714D01*
X12083333Y-11805238D01*
X12150000Y-11705238D02*
X12159524Y-11705238D01*
X12169048Y-11710000D01*
X12173809Y-11714762D01*
X12178571Y-11724286D01*
X12183333Y-11743333D01*
X12183333Y-11767143D01*
X12178571Y-11786190D01*
X12173809Y-11795714D01*
X12169048Y-11800476D01*
X12159524Y-11805238D01*
X12150000Y-11805238D01*
X12140476Y-11800476D01*
X12135714Y-11795714D01*
X12130952Y-11786190D01*
X12126190Y-11767143D01*
X12126190Y-11743333D01*
X12130952Y-11724286D01*
X12135714Y-11714762D01*
X12140476Y-11710000D01*
X12150000Y-11705238D01*
X12245238Y-11705238D02*
X12254762Y-11705238D01*
X12264286Y-11710000D01*
X12269048Y-11714762D01*
X12273809Y-11724286D01*
X12278571Y-11743333D01*
X12278571Y-11767143D01*
X12273809Y-11786190D01*
X12269048Y-11795714D01*
X12264286Y-11800476D01*
X12254762Y-11805238D01*
X12245238Y-11805238D01*
X12235714Y-11800476D01*
X12230952Y-11795714D01*
X12226190Y-11786190D01*
X12221428Y-11767143D01*
X12221428Y-11743333D01*
X12226190Y-11724286D01*
X12230952Y-11714762D01*
X12235714Y-11710000D01*
X12245238Y-11705238D01*
X12340476Y-11705238D02*
X12350000Y-11705238D01*
X12359524Y-11710000D01*
X12364286Y-11714762D01*
X12369048Y-11724286D01*
X12373809Y-11743333D01*
X12373809Y-11767143D01*
X12369048Y-11786190D01*
X12364286Y-11795714D01*
X12359524Y-11800476D01*
X12350000Y-11805238D01*
X12340476Y-11805238D01*
X12330952Y-11800476D01*
X12326190Y-11795714D01*
X12321428Y-11786190D01*
X12316667Y-11767143D01*
X12316667Y-11743333D01*
X12321428Y-11724286D01*
X12326190Y-11714762D01*
X12330952Y-11710000D01*
X12340476Y-11705238D01*
X12435714Y-11705238D02*
X12445238Y-11705238D01*
X12454762Y-11710000D01*
X12459524Y-11714762D01*
X12464286Y-11724286D01*
X12469048Y-11743333D01*
X12469048Y-11767143D01*
X12464286Y-11786190D01*
X12459524Y-11795714D01*
X12454762Y-11800476D01*
X12445238Y-11805238D01*
X12435714Y-11805238D01*
X12426190Y-11800476D01*
X12421428Y-11795714D01*
X12416667Y-11786190D01*
X12411905Y-11767143D01*
X12411905Y-11743333D01*
X12416667Y-11724286D01*
X12421428Y-11714762D01*
X12426190Y-11710000D01*
X12435714Y-11705238D01*
X12588095Y-11805238D02*
X12588095Y-11738571D01*
X12588095Y-11748095D02*
X12592857Y-11743333D01*
X12602381Y-11738571D01*
X12616667Y-11738571D01*
X12626190Y-11743333D01*
X12630952Y-11752857D01*
X12630952Y-11805238D01*
X12630952Y-11752857D02*
X12635714Y-11743333D01*
X12645238Y-11738571D01*
X12659524Y-11738571D01*
X12669048Y-11743333D01*
X12673809Y-11752857D01*
X12673809Y-11805238D01*
X12721428Y-11805238D02*
X12721428Y-11738571D01*
X12721428Y-11748095D02*
X12726190Y-11743333D01*
X12735714Y-11738571D01*
X12750000Y-11738571D01*
X12759524Y-11743333D01*
X12764286Y-11752857D01*
X12764286Y-11805238D01*
X12764286Y-11752857D02*
X12769048Y-11743333D01*
X12778571Y-11738571D01*
X12792857Y-11738571D01*
X12802381Y-11743333D01*
X12807143Y-11752857D01*
X12807143Y-11805238D01*
X12950000Y-10000000D02*
X12950000Y-11933642D01*
X11750000Y-10000000D02*
X11750000Y-11933642D01*
X12950000Y-11875000D02*
X11750000Y-11875000D01*
X12950000Y-11875000D02*
X11750000Y-11875000D01*
X12950000Y-11875000D02*
X12837350Y-11816358D01*
X12950000Y-11875000D02*
X12837350Y-11933642D01*
X11750000Y-11875000D02*
X11862650Y-11933642D01*
X11750000Y-11875000D02*
X11862650Y-11816358D01*
X14170238Y-12015238D02*
X14113095Y-12015238D01*
X14141667Y-12015238D02*
X14141667Y-11915238D01*
X14132143Y-11929524D01*
X14122619Y-11939048D01*
X14113095Y-11943809D01*
X14260714Y-11915238D02*
X14213095Y-11915238D01*
X14208333Y-11962857D01*
X14213095Y-11958095D01*
X14222619Y-11953333D01*
X14246428Y-11953333D01*
X14255952Y-11958095D01*
X14260714Y-11962857D01*
X14265476Y-11972381D01*
X14265476Y-11996190D01*
X14260714Y-12005714D01*
X14255952Y-12010476D01*
X14246428Y-12015238D01*
X14222619Y-12015238D01*
X14213095Y-12010476D01*
X14208333Y-12005714D01*
X14308333Y-12005714D02*
X14313095Y-12010476D01*
X14308333Y-12015238D01*
X14303571Y-12010476D01*
X14308333Y-12005714D01*
X14308333Y-12015238D01*
X14403571Y-11915238D02*
X14355952Y-11915238D01*
X14351190Y-11962857D01*
X14355952Y-11958095D01*
X14365476Y-11953333D01*
X14389286Y-11953333D01*
X14398809Y-11958095D01*
X14403571Y-11962857D01*
X14408333Y-11972381D01*
X14408333Y-11996190D01*
X14403571Y-12005714D01*
X14398809Y-12010476D01*
X14389286Y-12015238D01*
X14365476Y-12015238D01*
X14355952Y-12010476D01*
X14351190Y-12005714D01*
X14470238Y-11915238D02*
X14479762Y-11915238D01*
X14489286Y-11920000D01*
X14494048Y-11924762D01*
X14498809Y-11934286D01*
X14503571Y-11953333D01*
X14503571Y-11977143D01*
X14498809Y-11996190D01*
X14494048Y-12005714D01*
X14489286Y-12010476D01*
X14479762Y-12015238D01*
X14470238Y-12015238D01*
X14460714Y-12010476D01*
X14455952Y-12005714D01*
X14451190Y-11996190D01*
X14446428Y-11977143D01*
X14446428Y-11953333D01*
X14451190Y-11934286D01*
X14455952Y-11924762D01*
X14460714Y-11920000D01*
X14470238Y-11915238D01*
X14565476Y-11915238D02*
X14575000Y-11915238D01*
X14584524Y-11920000D01*
X14589286Y-11924762D01*
X14594048Y-11934286D01*
X14598809Y-11953333D01*
X14598809Y-11977143D01*
X14594048Y-11996190D01*
X14589286Y-12005714D01*
X14584524Y-12010476D01*
X14575000Y-12015238D01*
X14565476Y-12015238D01*
X14555952Y-12010476D01*
X14551190Y-12005714D01*
X14546428Y-11996190D01*
X14541667Y-11977143D01*
X14541667Y-11953333D01*
X14546428Y-11934286D01*
X14551190Y-11924762D01*
X14555952Y-11920000D01*
X14565476Y-11915238D01*
X14660714Y-11915238D02*
X14670238Y-11915238D01*
X14679762Y-11920000D01*
X14684524Y-11924762D01*
X14689286Y-11934286D01*
X14694048Y-11953333D01*
X14694048Y-11977143D01*
X14689286Y-11996190D01*
X14684524Y-12005714D01*
X14679762Y-12010476D01*
X14670238Y-12015238D01*
X14660714Y-12015238D01*
X14651190Y-12010476D01*
X14646428Y-12005714D01*
X14641667Y-11996190D01*
X14636905Y-11977143D01*
X14636905Y-11953333D01*
X14641667Y-11934286D01*
X14646428Y-11924762D01*
X14651190Y-11920000D01*
X14660714Y-11915238D01*
X14813095Y-12015238D02*
X14813095Y-11948571D01*
X14813095Y-11958095D02*
X14817857Y-11953333D01*
X14827381Y-11948571D01*
X14841667Y-11948571D01*
X14851190Y-11953333D01*
X14855952Y-11962857D01*
X14855952Y-12015238D01*
X14855952Y-11962857D02*
X14860714Y-11953333D01*
X14870238Y-11948571D01*
X14884524Y-11948571D01*
X14894048Y-11953333D01*
X14898809Y-11962857D01*
X14898809Y-12015238D01*
X14946428Y-12015238D02*
X14946428Y-11948571D01*
X14946428Y-11958095D02*
X14951190Y-11953333D01*
X14960714Y-11948571D01*
X14975000Y-11948571D01*
X14984524Y-11953333D01*
X14989286Y-11962857D01*
X14989286Y-12015238D01*
X14989286Y-11962857D02*
X14994048Y-11953333D01*
X15003571Y-11948571D01*
X15017857Y-11948571D01*
X15027381Y-11953333D01*
X15032143Y-11962857D01*
X15032143Y-12015238D01*
X13800000Y-10145000D02*
X13800000Y-12143642D01*
X15350000Y-10145000D02*
X15350000Y-12143642D01*
X13800000Y-12085000D02*
X15350000Y-12085000D01*
X13800000Y-12085000D02*
X15350000Y-12085000D01*
X13800000Y-12085000D02*
X13912650Y-12143642D01*
X13800000Y-12085000D02*
X13912650Y-12026358D01*
X15350000Y-12085000D02*
X15237350Y-12026358D01*
X15350000Y-12085000D02*
X15237350Y-12143642D01*
D12*
%TO.C,LED2*%
X15510000Y-7840000D02*
X15240000Y-7840000D01*
X15190000Y-7790000D02*
X15240000Y-7840000D01*
X15190000Y-7560000D02*
X15510000Y-7560000D01*
X15510000Y-7560000D02*
X15510000Y-7840000D01*
X15190000Y-7790000D02*
X15190000Y-7560000D01*
%TO.C,LED1*%
X13290000Y-7560000D02*
X13610000Y-7560000D01*
X13610000Y-7840000D02*
X13340000Y-7840000D01*
X13290000Y-7790000D02*
X13290000Y-7560000D01*
X13290000Y-7790000D02*
X13340000Y-7840000D01*
X13610000Y-7560000D02*
X13610000Y-7840000D01*
%TO.C,LED3*%
X17410000Y-7840000D02*
X17140000Y-7840000D01*
X17410000Y-7560000D02*
X17410000Y-7840000D01*
X17090000Y-7560000D02*
X17410000Y-7560000D01*
X17090000Y-7790000D02*
X17140000Y-7840000D01*
X17090000Y-7790000D02*
X17090000Y-7560000D01*
D13*
%TO.C,SW2*%
X16302500Y-7222500D02*
X16302500Y-9127500D01*
X14397500Y-7222500D02*
X16302500Y-7222500D01*
X14397500Y-9127500D02*
X14397500Y-7222500D01*
X16302500Y-9127500D02*
X14397500Y-9127500D01*
%TO.C,SW7*%
X18207500Y-9127500D02*
X16302500Y-9127500D01*
X16302500Y-9127500D02*
X16302500Y-7222500D01*
X18207500Y-7222500D02*
X18207500Y-9127500D01*
X16302500Y-7222500D02*
X18207500Y-7222500D01*
%TO.C,SW1*%
X12497500Y-7222500D02*
X14402500Y-7222500D01*
X12497500Y-9127500D02*
X12497500Y-7222500D01*
X14402500Y-7222500D02*
X14402500Y-9127500D01*
X14402500Y-9127500D02*
X12497500Y-9127500D01*
%TD*%
M02*
