%TF.GenerationSoftware,KiCad,Pcbnew,6.0.6+dfsg-1*%
%TF.CreationDate,2022-08-20T11:50:36-07:00*%
%TF.ProjectId,muon,6d756f6e-2e6b-4696-9361-645f70636258,rev?*%
%TF.SameCoordinates,Original*%
%TF.FileFunction,Legend,Top*%
%TF.FilePolarity,Positive*%
%FSLAX45Y45*%
G04 Gerber Fmt 4.5, Leading zero omitted, Abs format (unit mm)*
G04 Created by KiCad (PCBNEW 6.0.6+dfsg-1) date 2022-08-20 11:50:36*
%MOMM*%
%LPD*%
G01*
G04 APERTURE LIST*
%ADD10C,0.150000*%
%ADD11C,0.120000*%
%ADD12C,0.100000*%
G04 APERTURE END LIST*
D10*
%TO.C,R10*%
X16460714Y-5645238D02*
X16427381Y-5597619D01*
X16403571Y-5645238D02*
X16403571Y-5545238D01*
X16441667Y-5545238D01*
X16451190Y-5550000D01*
X16455952Y-5554762D01*
X16460714Y-5564286D01*
X16460714Y-5578571D01*
X16455952Y-5588095D01*
X16451190Y-5592857D01*
X16441667Y-5597619D01*
X16403571Y-5597619D01*
X16555952Y-5645238D02*
X16498809Y-5645238D01*
X16527381Y-5645238D02*
X16527381Y-5545238D01*
X16517857Y-5559524D01*
X16508333Y-5569048D01*
X16498809Y-5573810D01*
X16617857Y-5545238D02*
X16627381Y-5545238D01*
X16636905Y-5550000D01*
X16641667Y-5554762D01*
X16646428Y-5564286D01*
X16651190Y-5583333D01*
X16651190Y-5607143D01*
X16646428Y-5626190D01*
X16641667Y-5635714D01*
X16636905Y-5640476D01*
X16627381Y-5645238D01*
X16617857Y-5645238D01*
X16608333Y-5640476D01*
X16603571Y-5635714D01*
X16598809Y-5626190D01*
X16594048Y-5607143D01*
X16594048Y-5583333D01*
X16598809Y-5564286D01*
X16603571Y-5554762D01*
X16608333Y-5550000D01*
X16617857Y-5545238D01*
%TO.C,C23*%
X16460714Y-5735714D02*
X16455952Y-5740476D01*
X16441667Y-5745238D01*
X16432143Y-5745238D01*
X16417857Y-5740476D01*
X16408333Y-5730952D01*
X16403571Y-5721428D01*
X16398809Y-5702381D01*
X16398809Y-5688095D01*
X16403571Y-5669048D01*
X16408333Y-5659524D01*
X16417857Y-5650000D01*
X16432143Y-5645238D01*
X16441667Y-5645238D01*
X16455952Y-5650000D01*
X16460714Y-5654762D01*
X16498809Y-5654762D02*
X16503571Y-5650000D01*
X16513095Y-5645238D01*
X16536905Y-5645238D01*
X16546428Y-5650000D01*
X16551190Y-5654762D01*
X16555952Y-5664286D01*
X16555952Y-5673809D01*
X16551190Y-5688095D01*
X16494048Y-5745238D01*
X16555952Y-5745238D01*
X16589286Y-5645238D02*
X16651190Y-5645238D01*
X16617857Y-5683333D01*
X16632143Y-5683333D01*
X16641667Y-5688095D01*
X16646428Y-5692857D01*
X16651190Y-5702381D01*
X16651190Y-5726190D01*
X16646428Y-5735714D01*
X16641667Y-5740476D01*
X16632143Y-5745238D01*
X16603571Y-5745238D01*
X16594048Y-5740476D01*
X16589286Y-5735714D01*
%TO.C,F1*%
X15977917Y-5792857D02*
X15944583Y-5792857D01*
X15944583Y-5845238D02*
X15944583Y-5745238D01*
X15992202Y-5745238D01*
X16082678Y-5845238D02*
X16025536Y-5845238D01*
X16054107Y-5845238D02*
X16054107Y-5745238D01*
X16044583Y-5759524D01*
X16035059Y-5769048D01*
X16025536Y-5773809D01*
%TO.C,C16*%
X13476786Y-7414286D02*
X13480357Y-7419048D01*
X13483928Y-7433333D01*
X13483928Y-7442857D01*
X13480357Y-7457143D01*
X13473214Y-7466667D01*
X13466071Y-7471428D01*
X13451786Y-7476190D01*
X13441071Y-7476190D01*
X13426786Y-7471428D01*
X13419643Y-7466667D01*
X13412500Y-7457143D01*
X13408928Y-7442857D01*
X13408928Y-7433333D01*
X13412500Y-7419048D01*
X13416071Y-7414286D01*
X13483928Y-7319048D02*
X13483928Y-7376190D01*
X13483928Y-7347619D02*
X13408928Y-7347619D01*
X13419643Y-7357143D01*
X13426786Y-7366667D01*
X13430357Y-7376190D01*
X13408928Y-7233333D02*
X13408928Y-7252381D01*
X13412500Y-7261905D01*
X13416071Y-7266667D01*
X13426786Y-7276190D01*
X13441071Y-7280952D01*
X13469643Y-7280952D01*
X13476786Y-7276190D01*
X13480357Y-7271428D01*
X13483928Y-7261905D01*
X13483928Y-7242857D01*
X13480357Y-7233333D01*
X13476786Y-7228571D01*
X13469643Y-7223809D01*
X13451786Y-7223809D01*
X13444643Y-7228571D01*
X13441071Y-7233333D01*
X13437500Y-7242857D01*
X13437500Y-7261905D01*
X13441071Y-7271428D01*
X13444643Y-7276190D01*
X13451786Y-7280952D01*
%TO.C,R3*%
X15720238Y-6641667D02*
X15672619Y-6675000D01*
X15720238Y-6698809D02*
X15620238Y-6698809D01*
X15620238Y-6660714D01*
X15625000Y-6651190D01*
X15629762Y-6646428D01*
X15639286Y-6641667D01*
X15653571Y-6641667D01*
X15663095Y-6646428D01*
X15667857Y-6651190D01*
X15672619Y-6660714D01*
X15672619Y-6698809D01*
X15620238Y-6608333D02*
X15620238Y-6546428D01*
X15658333Y-6579762D01*
X15658333Y-6565476D01*
X15663095Y-6555952D01*
X15667857Y-6551190D01*
X15677381Y-6546428D01*
X15701190Y-6546428D01*
X15710714Y-6551190D01*
X15715476Y-6555952D01*
X15720238Y-6565476D01*
X15720238Y-6594048D01*
X15715476Y-6603571D01*
X15710714Y-6608333D01*
%TO.C,C1*%
X14165714Y-5576667D02*
X14170476Y-5581429D01*
X14175238Y-5595714D01*
X14175238Y-5605238D01*
X14170476Y-5619524D01*
X14160952Y-5629048D01*
X14151428Y-5633809D01*
X14132381Y-5638571D01*
X14118095Y-5638571D01*
X14099048Y-5633809D01*
X14089524Y-5629048D01*
X14080000Y-5619524D01*
X14075238Y-5605238D01*
X14075238Y-5595714D01*
X14080000Y-5581429D01*
X14084762Y-5576667D01*
X14175238Y-5481429D02*
X14175238Y-5538571D01*
X14175238Y-5510000D02*
X14075238Y-5510000D01*
X14089524Y-5519524D01*
X14099048Y-5529048D01*
X14103809Y-5538571D01*
%TO.C,C17*%
X14005714Y-7464286D02*
X14010476Y-7469048D01*
X14015238Y-7483333D01*
X14015238Y-7492857D01*
X14010476Y-7507143D01*
X14000952Y-7516667D01*
X13991428Y-7521428D01*
X13972381Y-7526190D01*
X13958095Y-7526190D01*
X13939048Y-7521428D01*
X13929524Y-7516667D01*
X13920000Y-7507143D01*
X13915238Y-7492857D01*
X13915238Y-7483333D01*
X13920000Y-7469048D01*
X13924762Y-7464286D01*
X14015238Y-7369048D02*
X14015238Y-7426190D01*
X14015238Y-7397619D02*
X13915238Y-7397619D01*
X13929524Y-7407143D01*
X13939048Y-7416667D01*
X13943809Y-7426190D01*
X13915238Y-7335714D02*
X13915238Y-7269048D01*
X14015238Y-7311905D01*
%TO.C,C14*%
X13283714Y-6431714D02*
X13278952Y-6436476D01*
X13264667Y-6441238D01*
X13255143Y-6441238D01*
X13240857Y-6436476D01*
X13231333Y-6426952D01*
X13226571Y-6417428D01*
X13221809Y-6398381D01*
X13221809Y-6384095D01*
X13226571Y-6365048D01*
X13231333Y-6355524D01*
X13240857Y-6346000D01*
X13255143Y-6341238D01*
X13264667Y-6341238D01*
X13278952Y-6346000D01*
X13283714Y-6350762D01*
X13378952Y-6441238D02*
X13321809Y-6441238D01*
X13350381Y-6441238D02*
X13350381Y-6341238D01*
X13340857Y-6355524D01*
X13331333Y-6365048D01*
X13321809Y-6369809D01*
X13464667Y-6374571D02*
X13464667Y-6441238D01*
X13440857Y-6336476D02*
X13417048Y-6407905D01*
X13478952Y-6407905D01*
%TO.C,LED2*%
X14881178Y-8020238D02*
X14833559Y-8020238D01*
X14833559Y-7920238D01*
X14914512Y-7967857D02*
X14947845Y-7967857D01*
X14962131Y-8020238D02*
X14914512Y-8020238D01*
X14914512Y-7920238D01*
X14962131Y-7920238D01*
X15004988Y-8020238D02*
X15004988Y-7920238D01*
X15028798Y-7920238D01*
X15043083Y-7925000D01*
X15052607Y-7934524D01*
X15057369Y-7944048D01*
X15062131Y-7963095D01*
X15062131Y-7977381D01*
X15057369Y-7996428D01*
X15052607Y-8005952D01*
X15043083Y-8015476D01*
X15028798Y-8020238D01*
X15004988Y-8020238D01*
X15100226Y-7929762D02*
X15104988Y-7925000D01*
X15114512Y-7920238D01*
X15138321Y-7920238D01*
X15147845Y-7925000D01*
X15152607Y-7929762D01*
X15157369Y-7939286D01*
X15157369Y-7948809D01*
X15152607Y-7963095D01*
X15095464Y-8020238D01*
X15157369Y-8020238D01*
%TO.C,C13*%
X14065714Y-5584286D02*
X14070476Y-5589048D01*
X14075238Y-5603333D01*
X14075238Y-5612857D01*
X14070476Y-5627143D01*
X14060952Y-5636667D01*
X14051428Y-5641428D01*
X14032381Y-5646190D01*
X14018095Y-5646190D01*
X13999048Y-5641428D01*
X13989524Y-5636667D01*
X13980000Y-5627143D01*
X13975238Y-5612857D01*
X13975238Y-5603333D01*
X13980000Y-5589048D01*
X13984762Y-5584286D01*
X14075238Y-5489048D02*
X14075238Y-5546190D01*
X14075238Y-5517619D02*
X13975238Y-5517619D01*
X13989524Y-5527143D01*
X13999048Y-5536667D01*
X14003809Y-5546190D01*
X13975238Y-5455714D02*
X13975238Y-5393810D01*
X14013333Y-5427143D01*
X14013333Y-5412857D01*
X14018095Y-5403333D01*
X14022857Y-5398571D01*
X14032381Y-5393810D01*
X14056190Y-5393810D01*
X14065714Y-5398571D01*
X14070476Y-5403333D01*
X14075238Y-5412857D01*
X14075238Y-5441429D01*
X14070476Y-5450952D01*
X14065714Y-5455714D01*
%TO.C,C18*%
X13885714Y-7464286D02*
X13890476Y-7469048D01*
X13895238Y-7483333D01*
X13895238Y-7492857D01*
X13890476Y-7507143D01*
X13880952Y-7516667D01*
X13871428Y-7521428D01*
X13852381Y-7526190D01*
X13838095Y-7526190D01*
X13819048Y-7521428D01*
X13809524Y-7516667D01*
X13800000Y-7507143D01*
X13795238Y-7492857D01*
X13795238Y-7483333D01*
X13800000Y-7469048D01*
X13804762Y-7464286D01*
X13895238Y-7369048D02*
X13895238Y-7426190D01*
X13895238Y-7397619D02*
X13795238Y-7397619D01*
X13809524Y-7407143D01*
X13819048Y-7416667D01*
X13823809Y-7426190D01*
X13838095Y-7311905D02*
X13833333Y-7321428D01*
X13828571Y-7326190D01*
X13819048Y-7330952D01*
X13814286Y-7330952D01*
X13804762Y-7326190D01*
X13800000Y-7321428D01*
X13795238Y-7311905D01*
X13795238Y-7292857D01*
X13800000Y-7283333D01*
X13804762Y-7278571D01*
X13814286Y-7273809D01*
X13819048Y-7273809D01*
X13828571Y-7278571D01*
X13833333Y-7283333D01*
X13838095Y-7292857D01*
X13838095Y-7311905D01*
X13842857Y-7321428D01*
X13847619Y-7326190D01*
X13857143Y-7330952D01*
X13876190Y-7330952D01*
X13885714Y-7326190D01*
X13890476Y-7321428D01*
X13895238Y-7311905D01*
X13895238Y-7292857D01*
X13890476Y-7283333D01*
X13885714Y-7278571D01*
X13876190Y-7273809D01*
X13857143Y-7273809D01*
X13847619Y-7278571D01*
X13842857Y-7283333D01*
X13838095Y-7292857D01*
%TO.C,C21*%
X12935714Y-6110714D02*
X12930952Y-6115476D01*
X12916667Y-6120238D01*
X12907143Y-6120238D01*
X12892857Y-6115476D01*
X12883333Y-6105952D01*
X12878571Y-6096428D01*
X12873809Y-6077381D01*
X12873809Y-6063095D01*
X12878571Y-6044048D01*
X12883333Y-6034524D01*
X12892857Y-6025000D01*
X12907143Y-6020238D01*
X12916667Y-6020238D01*
X12930952Y-6025000D01*
X12935714Y-6029762D01*
X12973809Y-6029762D02*
X12978571Y-6025000D01*
X12988095Y-6020238D01*
X13011905Y-6020238D01*
X13021428Y-6025000D01*
X13026190Y-6029762D01*
X13030952Y-6039286D01*
X13030952Y-6048809D01*
X13026190Y-6063095D01*
X12969048Y-6120238D01*
X13030952Y-6120238D01*
X13126190Y-6120238D02*
X13069048Y-6120238D01*
X13097619Y-6120238D02*
X13097619Y-6020238D01*
X13088095Y-6034524D01*
X13078571Y-6044048D01*
X13069048Y-6048809D01*
%TO.C,R7*%
X14045238Y-6966667D02*
X13997619Y-7000000D01*
X14045238Y-7023809D02*
X13945238Y-7023809D01*
X13945238Y-6985714D01*
X13950000Y-6976190D01*
X13954762Y-6971428D01*
X13964286Y-6966667D01*
X13978571Y-6966667D01*
X13988095Y-6971428D01*
X13992857Y-6976190D01*
X13997619Y-6985714D01*
X13997619Y-7023809D01*
X13945238Y-6933333D02*
X13945238Y-6866667D01*
X14045238Y-6909524D01*
%TO.C,C6*%
X14401714Y-7564667D02*
X14406476Y-7569428D01*
X14411238Y-7583714D01*
X14411238Y-7593238D01*
X14406476Y-7607524D01*
X14396952Y-7617048D01*
X14387428Y-7621809D01*
X14368381Y-7626571D01*
X14354095Y-7626571D01*
X14335048Y-7621809D01*
X14325524Y-7617048D01*
X14316000Y-7607524D01*
X14311238Y-7593238D01*
X14311238Y-7583714D01*
X14316000Y-7569428D01*
X14320762Y-7564667D01*
X14311238Y-7478952D02*
X14311238Y-7498000D01*
X14316000Y-7507524D01*
X14320762Y-7512286D01*
X14335048Y-7521809D01*
X14354095Y-7526571D01*
X14392190Y-7526571D01*
X14401714Y-7521809D01*
X14406476Y-7517048D01*
X14411238Y-7507524D01*
X14411238Y-7488476D01*
X14406476Y-7478952D01*
X14401714Y-7474190D01*
X14392190Y-7469428D01*
X14368381Y-7469428D01*
X14358857Y-7474190D01*
X14354095Y-7478952D01*
X14349333Y-7488476D01*
X14349333Y-7507524D01*
X14354095Y-7517048D01*
X14358857Y-7521809D01*
X14368381Y-7526571D01*
%TO.C,D2*%
X18395238Y-6923809D02*
X18295238Y-6923809D01*
X18295238Y-6900000D01*
X18300000Y-6885714D01*
X18309524Y-6876190D01*
X18319048Y-6871428D01*
X18338095Y-6866667D01*
X18352381Y-6866667D01*
X18371429Y-6871428D01*
X18380952Y-6876190D01*
X18390476Y-6885714D01*
X18395238Y-6900000D01*
X18395238Y-6923809D01*
X18304762Y-6828571D02*
X18300000Y-6823809D01*
X18295238Y-6814286D01*
X18295238Y-6790476D01*
X18300000Y-6780952D01*
X18304762Y-6776190D01*
X18314286Y-6771428D01*
X18323810Y-6771428D01*
X18338095Y-6776190D01*
X18395238Y-6833333D01*
X18395238Y-6771428D01*
%TO.C,J2*%
X15316667Y-5685238D02*
X15316667Y-5756667D01*
X15311905Y-5770952D01*
X15302381Y-5780476D01*
X15288095Y-5785238D01*
X15278571Y-5785238D01*
X15359524Y-5694762D02*
X15364286Y-5690000D01*
X15373809Y-5685238D01*
X15397619Y-5685238D01*
X15407143Y-5690000D01*
X15411905Y-5694762D01*
X15416667Y-5704286D01*
X15416667Y-5713809D01*
X15411905Y-5728095D01*
X15354762Y-5785238D01*
X15416667Y-5785238D01*
%TO.C,D3*%
X14599690Y-6233928D02*
X14599690Y-6158928D01*
X14623500Y-6158928D01*
X14637786Y-6162500D01*
X14647309Y-6169643D01*
X14652071Y-6176786D01*
X14656833Y-6191071D01*
X14656833Y-6201786D01*
X14652071Y-6216071D01*
X14647309Y-6223214D01*
X14637786Y-6230357D01*
X14623500Y-6233928D01*
X14599690Y-6233928D01*
X14690167Y-6158928D02*
X14752071Y-6158928D01*
X14718738Y-6187500D01*
X14733024Y-6187500D01*
X14742548Y-6191071D01*
X14747309Y-6194643D01*
X14752071Y-6201786D01*
X14752071Y-6219643D01*
X14747309Y-6226786D01*
X14742548Y-6230357D01*
X14733024Y-6233928D01*
X14704452Y-6233928D01*
X14694928Y-6230357D01*
X14690167Y-6226786D01*
%TO.C,U2*%
X16798810Y-5770238D02*
X16798810Y-5851190D01*
X16803571Y-5860714D01*
X16808333Y-5865476D01*
X16817857Y-5870238D01*
X16836905Y-5870238D01*
X16846429Y-5865476D01*
X16851190Y-5860714D01*
X16855952Y-5851190D01*
X16855952Y-5770238D01*
X16898810Y-5779762D02*
X16903571Y-5775000D01*
X16913095Y-5770238D01*
X16936905Y-5770238D01*
X16946429Y-5775000D01*
X16951190Y-5779762D01*
X16955952Y-5789286D01*
X16955952Y-5798809D01*
X16951190Y-5813095D01*
X16894048Y-5870238D01*
X16955952Y-5870238D01*
%TO.C,C12*%
X13676786Y-7414286D02*
X13680357Y-7419048D01*
X13683928Y-7433333D01*
X13683928Y-7442857D01*
X13680357Y-7457143D01*
X13673214Y-7466667D01*
X13666071Y-7471428D01*
X13651786Y-7476190D01*
X13641071Y-7476190D01*
X13626786Y-7471428D01*
X13619643Y-7466667D01*
X13612500Y-7457143D01*
X13608928Y-7442857D01*
X13608928Y-7433333D01*
X13612500Y-7419048D01*
X13616071Y-7414286D01*
X13683928Y-7319048D02*
X13683928Y-7376190D01*
X13683928Y-7347619D02*
X13608928Y-7347619D01*
X13619643Y-7357143D01*
X13626786Y-7366667D01*
X13630357Y-7376190D01*
X13616071Y-7280952D02*
X13612500Y-7276190D01*
X13608928Y-7266667D01*
X13608928Y-7242857D01*
X13612500Y-7233333D01*
X13616071Y-7228571D01*
X13623214Y-7223809D01*
X13630357Y-7223809D01*
X13641071Y-7228571D01*
X13683928Y-7285714D01*
X13683928Y-7223809D01*
%TO.C,U4*%
X16498809Y-6570238D02*
X16498809Y-6651190D01*
X16503571Y-6660714D01*
X16508333Y-6665476D01*
X16517857Y-6670238D01*
X16536905Y-6670238D01*
X16546428Y-6665476D01*
X16551190Y-6660714D01*
X16555952Y-6651190D01*
X16555952Y-6570238D01*
X16646428Y-6603571D02*
X16646428Y-6670238D01*
X16622619Y-6565476D02*
X16598809Y-6636905D01*
X16660714Y-6636905D01*
%TO.C,R9*%
X14458333Y-6233928D02*
X14425000Y-6198214D01*
X14401190Y-6233928D02*
X14401190Y-6158928D01*
X14439286Y-6158928D01*
X14448809Y-6162500D01*
X14453571Y-6166071D01*
X14458333Y-6173214D01*
X14458333Y-6183928D01*
X14453571Y-6191071D01*
X14448809Y-6194643D01*
X14439286Y-6198214D01*
X14401190Y-6198214D01*
X14505952Y-6233928D02*
X14525000Y-6233928D01*
X14534524Y-6230357D01*
X14539286Y-6226786D01*
X14548809Y-6216071D01*
X14553571Y-6201786D01*
X14553571Y-6173214D01*
X14548809Y-6166071D01*
X14544048Y-6162500D01*
X14534524Y-6158928D01*
X14515476Y-6158928D01*
X14505952Y-6162500D01*
X14501190Y-6166071D01*
X14496428Y-6173214D01*
X14496428Y-6191071D01*
X14501190Y-6198214D01*
X14505952Y-6201786D01*
X14515476Y-6205357D01*
X14534524Y-6205357D01*
X14544048Y-6201786D01*
X14548809Y-6198214D01*
X14553571Y-6191071D01*
%TO.C,SW3*%
X12816667Y-9730476D02*
X12830952Y-9735238D01*
X12854762Y-9735238D01*
X12864286Y-9730476D01*
X12869048Y-9725714D01*
X12873809Y-9716190D01*
X12873809Y-9706667D01*
X12869048Y-9697143D01*
X12864286Y-9692381D01*
X12854762Y-9687619D01*
X12835714Y-9682857D01*
X12826190Y-9678095D01*
X12821428Y-9673333D01*
X12816667Y-9663810D01*
X12816667Y-9654286D01*
X12821428Y-9644762D01*
X12826190Y-9640000D01*
X12835714Y-9635238D01*
X12859524Y-9635238D01*
X12873809Y-9640000D01*
X12907143Y-9635238D02*
X12930952Y-9735238D01*
X12950000Y-9663810D01*
X12969048Y-9735238D01*
X12992857Y-9635238D01*
X13021428Y-9635238D02*
X13083333Y-9635238D01*
X13050000Y-9673333D01*
X13064286Y-9673333D01*
X13073809Y-9678095D01*
X13078571Y-9682857D01*
X13083333Y-9692381D01*
X13083333Y-9716190D01*
X13078571Y-9725714D01*
X13073809Y-9730476D01*
X13064286Y-9735238D01*
X13035714Y-9735238D01*
X13026190Y-9730476D01*
X13021428Y-9725714D01*
%TO.C,R4*%
X15155238Y-6636667D02*
X15107619Y-6670000D01*
X15155238Y-6693809D02*
X15055238Y-6693809D01*
X15055238Y-6655714D01*
X15060000Y-6646190D01*
X15064762Y-6641428D01*
X15074286Y-6636667D01*
X15088571Y-6636667D01*
X15098095Y-6641428D01*
X15102857Y-6646190D01*
X15107619Y-6655714D01*
X15107619Y-6693809D01*
X15088571Y-6550952D02*
X15155238Y-6550952D01*
X15050476Y-6574762D02*
X15121905Y-6598571D01*
X15121905Y-6536667D01*
%TO.C,FB1*%
X15736667Y-6472857D02*
X15703333Y-6472857D01*
X15703333Y-6525238D02*
X15703333Y-6425238D01*
X15750952Y-6425238D01*
X15822381Y-6472857D02*
X15836667Y-6477619D01*
X15841428Y-6482381D01*
X15846190Y-6491905D01*
X15846190Y-6506190D01*
X15841428Y-6515714D01*
X15836667Y-6520476D01*
X15827143Y-6525238D01*
X15789048Y-6525238D01*
X15789048Y-6425238D01*
X15822381Y-6425238D01*
X15831905Y-6430000D01*
X15836667Y-6434762D01*
X15841428Y-6444286D01*
X15841428Y-6453809D01*
X15836667Y-6463333D01*
X15831905Y-6468095D01*
X15822381Y-6472857D01*
X15789048Y-6472857D01*
X15941428Y-6525238D02*
X15884286Y-6525238D01*
X15912857Y-6525238D02*
X15912857Y-6425238D01*
X15903333Y-6439524D01*
X15893809Y-6449048D01*
X15884286Y-6453809D01*
%TO.C,R6*%
X13705238Y-6966667D02*
X13657619Y-7000000D01*
X13705238Y-7023809D02*
X13605238Y-7023809D01*
X13605238Y-6985714D01*
X13610000Y-6976190D01*
X13614762Y-6971428D01*
X13624286Y-6966667D01*
X13638571Y-6966667D01*
X13648095Y-6971428D01*
X13652857Y-6976190D01*
X13657619Y-6985714D01*
X13657619Y-7023809D01*
X13605238Y-6880952D02*
X13605238Y-6900000D01*
X13610000Y-6909524D01*
X13614762Y-6914286D01*
X13629048Y-6923809D01*
X13648095Y-6928571D01*
X13686190Y-6928571D01*
X13695714Y-6923809D01*
X13700476Y-6919048D01*
X13705238Y-6909524D01*
X13705238Y-6890476D01*
X13700476Y-6880952D01*
X13695714Y-6876190D01*
X13686190Y-6871428D01*
X13662381Y-6871428D01*
X13652857Y-6876190D01*
X13648095Y-6880952D01*
X13643333Y-6890476D01*
X13643333Y-6909524D01*
X13648095Y-6919048D01*
X13652857Y-6923809D01*
X13662381Y-6928571D01*
%TO.C,C11*%
X14135714Y-7404286D02*
X14140476Y-7409048D01*
X14145238Y-7423333D01*
X14145238Y-7432857D01*
X14140476Y-7447143D01*
X14130952Y-7456667D01*
X14121428Y-7461428D01*
X14102381Y-7466190D01*
X14088095Y-7466190D01*
X14069048Y-7461428D01*
X14059524Y-7456667D01*
X14050000Y-7447143D01*
X14045238Y-7432857D01*
X14045238Y-7423333D01*
X14050000Y-7409048D01*
X14054762Y-7404286D01*
X14145238Y-7309048D02*
X14145238Y-7366190D01*
X14145238Y-7337619D02*
X14045238Y-7337619D01*
X14059524Y-7347143D01*
X14069048Y-7356667D01*
X14073809Y-7366190D01*
X14145238Y-7213809D02*
X14145238Y-7270952D01*
X14145238Y-7242381D02*
X14045238Y-7242381D01*
X14059524Y-7251905D01*
X14069048Y-7261428D01*
X14073809Y-7270952D01*
%TO.C,LED1*%
X12981178Y-8020238D02*
X12933559Y-8020238D01*
X12933559Y-7920238D01*
X13014512Y-7967857D02*
X13047845Y-7967857D01*
X13062131Y-8020238D02*
X13014512Y-8020238D01*
X13014512Y-7920238D01*
X13062131Y-7920238D01*
X13104988Y-8020238D02*
X13104988Y-7920238D01*
X13128798Y-7920238D01*
X13143083Y-7925000D01*
X13152607Y-7934524D01*
X13157369Y-7944048D01*
X13162131Y-7963095D01*
X13162131Y-7977381D01*
X13157369Y-7996428D01*
X13152607Y-8005952D01*
X13143083Y-8015476D01*
X13128798Y-8020238D01*
X13104988Y-8020238D01*
X13257369Y-8020238D02*
X13200226Y-8020238D01*
X13228798Y-8020238D02*
X13228798Y-7920238D01*
X13219274Y-7934524D01*
X13209750Y-7944048D01*
X13200226Y-7948809D01*
%TO.C,C4*%
X14558333Y-6435714D02*
X14553571Y-6440476D01*
X14539286Y-6445238D01*
X14529762Y-6445238D01*
X14515476Y-6440476D01*
X14505952Y-6430952D01*
X14501190Y-6421428D01*
X14496428Y-6402381D01*
X14496428Y-6388095D01*
X14501190Y-6369048D01*
X14505952Y-6359524D01*
X14515476Y-6350000D01*
X14529762Y-6345238D01*
X14539286Y-6345238D01*
X14553571Y-6350000D01*
X14558333Y-6354762D01*
X14644048Y-6378571D02*
X14644048Y-6445238D01*
X14620238Y-6340476D02*
X14596428Y-6411905D01*
X14658333Y-6411905D01*
%TO.C,C15*%
X13376786Y-7414286D02*
X13380357Y-7419048D01*
X13383928Y-7433333D01*
X13383928Y-7442857D01*
X13380357Y-7457143D01*
X13373214Y-7466667D01*
X13366071Y-7471428D01*
X13351786Y-7476190D01*
X13341071Y-7476190D01*
X13326786Y-7471428D01*
X13319643Y-7466667D01*
X13312500Y-7457143D01*
X13308928Y-7442857D01*
X13308928Y-7433333D01*
X13312500Y-7419048D01*
X13316071Y-7414286D01*
X13383928Y-7319048D02*
X13383928Y-7376190D01*
X13383928Y-7347619D02*
X13308928Y-7347619D01*
X13319643Y-7357143D01*
X13326786Y-7366667D01*
X13330357Y-7376190D01*
X13308928Y-7228571D02*
X13308928Y-7276190D01*
X13344643Y-7280952D01*
X13341071Y-7276190D01*
X13337500Y-7266667D01*
X13337500Y-7242857D01*
X13341071Y-7233333D01*
X13344643Y-7228571D01*
X13351786Y-7223809D01*
X13369643Y-7223809D01*
X13376786Y-7228571D01*
X13380357Y-7233333D01*
X13383928Y-7242857D01*
X13383928Y-7266667D01*
X13380357Y-7276190D01*
X13376786Y-7280952D01*
%TO.C,R1*%
X12520238Y-5691667D02*
X12472619Y-5725000D01*
X12520238Y-5748809D02*
X12420238Y-5748809D01*
X12420238Y-5710714D01*
X12425000Y-5701190D01*
X12429762Y-5696428D01*
X12439286Y-5691667D01*
X12453571Y-5691667D01*
X12463095Y-5696428D01*
X12467857Y-5701190D01*
X12472619Y-5710714D01*
X12472619Y-5748809D01*
X12520238Y-5596428D02*
X12520238Y-5653571D01*
X12520238Y-5625000D02*
X12420238Y-5625000D01*
X12434524Y-5634524D01*
X12444048Y-5644048D01*
X12448809Y-5653571D01*
%TO.C,J1*%
X13751238Y-5783333D02*
X13822667Y-5783333D01*
X13836952Y-5788095D01*
X13846476Y-5797619D01*
X13851238Y-5811905D01*
X13851238Y-5821428D01*
X13851238Y-5683333D02*
X13851238Y-5740476D01*
X13851238Y-5711905D02*
X13751238Y-5711905D01*
X13765524Y-5721428D01*
X13775048Y-5730952D01*
X13779809Y-5740476D01*
%TO.C,C2*%
X16096964Y-6276667D02*
X16101726Y-6281428D01*
X16106488Y-6295714D01*
X16106488Y-6305238D01*
X16101726Y-6319524D01*
X16092202Y-6329048D01*
X16082678Y-6333809D01*
X16063631Y-6338571D01*
X16049345Y-6338571D01*
X16030298Y-6333809D01*
X16020774Y-6329048D01*
X16011250Y-6319524D01*
X16006488Y-6305238D01*
X16006488Y-6295714D01*
X16011250Y-6281428D01*
X16016012Y-6276667D01*
X16016012Y-6238571D02*
X16011250Y-6233809D01*
X16006488Y-6224286D01*
X16006488Y-6200476D01*
X16011250Y-6190952D01*
X16016012Y-6186190D01*
X16025536Y-6181428D01*
X16035059Y-6181428D01*
X16049345Y-6186190D01*
X16106488Y-6243333D01*
X16106488Y-6181428D01*
%TO.C,D1*%
X12505238Y-6928809D02*
X12405238Y-6928809D01*
X12405238Y-6905000D01*
X12410000Y-6890714D01*
X12419524Y-6881190D01*
X12429048Y-6876428D01*
X12448095Y-6871667D01*
X12462381Y-6871667D01*
X12481428Y-6876428D01*
X12490952Y-6881190D01*
X12500476Y-6890714D01*
X12505238Y-6905000D01*
X12505238Y-6928809D01*
X12505238Y-6776428D02*
X12505238Y-6833571D01*
X12505238Y-6805000D02*
X12405238Y-6805000D01*
X12419524Y-6814524D01*
X12429048Y-6824048D01*
X12433809Y-6833571D01*
%TO.C,C7*%
X12785714Y-7341667D02*
X12790476Y-7346428D01*
X12795238Y-7360714D01*
X12795238Y-7370238D01*
X12790476Y-7384524D01*
X12780952Y-7394048D01*
X12771428Y-7398809D01*
X12752381Y-7403571D01*
X12738095Y-7403571D01*
X12719048Y-7398809D01*
X12709524Y-7394048D01*
X12700000Y-7384524D01*
X12695238Y-7370238D01*
X12695238Y-7360714D01*
X12700000Y-7346428D01*
X12704762Y-7341667D01*
X12695238Y-7308333D02*
X12695238Y-7241667D01*
X12795238Y-7284524D01*
%TO.C,C10*%
X13965714Y-5584286D02*
X13970476Y-5589048D01*
X13975238Y-5603333D01*
X13975238Y-5612857D01*
X13970476Y-5627143D01*
X13960952Y-5636667D01*
X13951428Y-5641428D01*
X13932381Y-5646190D01*
X13918095Y-5646190D01*
X13899048Y-5641428D01*
X13889524Y-5636667D01*
X13880000Y-5627143D01*
X13875238Y-5612857D01*
X13875238Y-5603333D01*
X13880000Y-5589048D01*
X13884762Y-5584286D01*
X13975238Y-5489048D02*
X13975238Y-5546190D01*
X13975238Y-5517619D02*
X13875238Y-5517619D01*
X13889524Y-5527143D01*
X13899048Y-5536667D01*
X13903809Y-5546190D01*
X13875238Y-5427143D02*
X13875238Y-5417619D01*
X13880000Y-5408095D01*
X13884762Y-5403333D01*
X13894286Y-5398571D01*
X13913333Y-5393810D01*
X13937143Y-5393810D01*
X13956190Y-5398571D01*
X13965714Y-5403333D01*
X13970476Y-5408095D01*
X13975238Y-5417619D01*
X13975238Y-5427143D01*
X13970476Y-5436667D01*
X13965714Y-5441429D01*
X13956190Y-5446190D01*
X13937143Y-5450952D01*
X13913333Y-5450952D01*
X13894286Y-5446190D01*
X13884762Y-5441429D01*
X13880000Y-5436667D01*
X13875238Y-5427143D01*
%TO.C,C20*%
X13576786Y-7414286D02*
X13580357Y-7419048D01*
X13583928Y-7433333D01*
X13583928Y-7442857D01*
X13580357Y-7457143D01*
X13573214Y-7466667D01*
X13566071Y-7471428D01*
X13551786Y-7476190D01*
X13541071Y-7476190D01*
X13526786Y-7471428D01*
X13519643Y-7466667D01*
X13512500Y-7457143D01*
X13508928Y-7442857D01*
X13508928Y-7433333D01*
X13512500Y-7419048D01*
X13516071Y-7414286D01*
X13516071Y-7376190D02*
X13512500Y-7371428D01*
X13508928Y-7361905D01*
X13508928Y-7338095D01*
X13512500Y-7328571D01*
X13516071Y-7323809D01*
X13523214Y-7319048D01*
X13530357Y-7319048D01*
X13541071Y-7323809D01*
X13583928Y-7380952D01*
X13583928Y-7319048D01*
X13508928Y-7257143D02*
X13508928Y-7247619D01*
X13512500Y-7238095D01*
X13516071Y-7233333D01*
X13523214Y-7228571D01*
X13537500Y-7223809D01*
X13555357Y-7223809D01*
X13569643Y-7228571D01*
X13576786Y-7233333D01*
X13580357Y-7238095D01*
X13583928Y-7247619D01*
X13583928Y-7257143D01*
X13580357Y-7266667D01*
X13576786Y-7271428D01*
X13569643Y-7276190D01*
X13555357Y-7280952D01*
X13537500Y-7280952D01*
X13523214Y-7276190D01*
X13516071Y-7271428D01*
X13512500Y-7266667D01*
X13508928Y-7257143D01*
%TO.C,R8*%
X12708333Y-6120238D02*
X12675000Y-6072619D01*
X12651190Y-6120238D02*
X12651190Y-6020238D01*
X12689286Y-6020238D01*
X12698809Y-6025000D01*
X12703571Y-6029762D01*
X12708333Y-6039286D01*
X12708333Y-6053571D01*
X12703571Y-6063095D01*
X12698809Y-6067857D01*
X12689286Y-6072619D01*
X12651190Y-6072619D01*
X12765476Y-6063095D02*
X12755952Y-6058333D01*
X12751190Y-6053571D01*
X12746428Y-6044048D01*
X12746428Y-6039286D01*
X12751190Y-6029762D01*
X12755952Y-6025000D01*
X12765476Y-6020238D01*
X12784524Y-6020238D01*
X12794048Y-6025000D01*
X12798809Y-6029762D01*
X12803571Y-6039286D01*
X12803571Y-6044048D01*
X12798809Y-6053571D01*
X12794048Y-6058333D01*
X12784524Y-6063095D01*
X12765476Y-6063095D01*
X12755952Y-6067857D01*
X12751190Y-6072619D01*
X12746428Y-6082143D01*
X12746428Y-6101190D01*
X12751190Y-6110714D01*
X12755952Y-6115476D01*
X12765476Y-6120238D01*
X12784524Y-6120238D01*
X12794048Y-6115476D01*
X12798809Y-6110714D01*
X12803571Y-6101190D01*
X12803571Y-6082143D01*
X12798809Y-6072619D01*
X12794048Y-6067857D01*
X12784524Y-6063095D01*
%TO.C,Y1*%
X14502381Y-5987619D02*
X14502381Y-6035238D01*
X14469048Y-5935238D02*
X14502381Y-5987619D01*
X14535714Y-5935238D01*
X14621428Y-6035238D02*
X14564286Y-6035238D01*
X14592857Y-6035238D02*
X14592857Y-5935238D01*
X14583333Y-5949524D01*
X14573809Y-5959048D01*
X14564286Y-5963809D01*
%TO.C,C19*%
X14635714Y-6735714D02*
X14630952Y-6740476D01*
X14616667Y-6745238D01*
X14607143Y-6745238D01*
X14592857Y-6740476D01*
X14583333Y-6730952D01*
X14578571Y-6721428D01*
X14573809Y-6702381D01*
X14573809Y-6688095D01*
X14578571Y-6669048D01*
X14583333Y-6659524D01*
X14592857Y-6650000D01*
X14607143Y-6645238D01*
X14616667Y-6645238D01*
X14630952Y-6650000D01*
X14635714Y-6654762D01*
X14730952Y-6745238D02*
X14673809Y-6745238D01*
X14702381Y-6745238D02*
X14702381Y-6645238D01*
X14692857Y-6659524D01*
X14683333Y-6669048D01*
X14673809Y-6673809D01*
X14778571Y-6745238D02*
X14797619Y-6745238D01*
X14807143Y-6740476D01*
X14811905Y-6735714D01*
X14821428Y-6721428D01*
X14826190Y-6702381D01*
X14826190Y-6664286D01*
X14821428Y-6654762D01*
X14816667Y-6650000D01*
X14807143Y-6645238D01*
X14788095Y-6645238D01*
X14778571Y-6650000D01*
X14773809Y-6654762D01*
X14769048Y-6664286D01*
X14769048Y-6688095D01*
X14773809Y-6697619D01*
X14778571Y-6702381D01*
X14788095Y-6707143D01*
X14807143Y-6707143D01*
X14816667Y-6702381D01*
X14821428Y-6697619D01*
X14826190Y-6688095D01*
%TO.C,C5*%
X14715714Y-5906667D02*
X14720476Y-5911428D01*
X14725238Y-5925714D01*
X14725238Y-5935238D01*
X14720476Y-5949524D01*
X14710952Y-5959048D01*
X14701428Y-5963809D01*
X14682381Y-5968571D01*
X14668095Y-5968571D01*
X14649048Y-5963809D01*
X14639524Y-5959048D01*
X14630000Y-5949524D01*
X14625238Y-5935238D01*
X14625238Y-5925714D01*
X14630000Y-5911428D01*
X14634762Y-5906667D01*
X14625238Y-5816190D02*
X14625238Y-5863809D01*
X14672857Y-5868571D01*
X14668095Y-5863809D01*
X14663333Y-5854286D01*
X14663333Y-5830476D01*
X14668095Y-5820952D01*
X14672857Y-5816190D01*
X14682381Y-5811428D01*
X14706190Y-5811428D01*
X14715714Y-5816190D01*
X14720476Y-5820952D01*
X14725238Y-5830476D01*
X14725238Y-5854286D01*
X14720476Y-5863809D01*
X14715714Y-5868571D01*
%TO.C,C8*%
X18201714Y-7566667D02*
X18206476Y-7571428D01*
X18211238Y-7585714D01*
X18211238Y-7595238D01*
X18206476Y-7609524D01*
X18196952Y-7619048D01*
X18187429Y-7623809D01*
X18168381Y-7628571D01*
X18154095Y-7628571D01*
X18135048Y-7623809D01*
X18125524Y-7619048D01*
X18116000Y-7609524D01*
X18111238Y-7595238D01*
X18111238Y-7585714D01*
X18116000Y-7571428D01*
X18120762Y-7566667D01*
X18154095Y-7509524D02*
X18149333Y-7519048D01*
X18144571Y-7523809D01*
X18135048Y-7528571D01*
X18130286Y-7528571D01*
X18120762Y-7523809D01*
X18116000Y-7519048D01*
X18111238Y-7509524D01*
X18111238Y-7490476D01*
X18116000Y-7480952D01*
X18120762Y-7476190D01*
X18130286Y-7471428D01*
X18135048Y-7471428D01*
X18144571Y-7476190D01*
X18149333Y-7480952D01*
X18154095Y-7490476D01*
X18154095Y-7509524D01*
X18158857Y-7519048D01*
X18163619Y-7523809D01*
X18173143Y-7528571D01*
X18192190Y-7528571D01*
X18201714Y-7523809D01*
X18206476Y-7519048D01*
X18211238Y-7509524D01*
X18211238Y-7490476D01*
X18206476Y-7480952D01*
X18201714Y-7476190D01*
X18192190Y-7471428D01*
X18173143Y-7471428D01*
X18163619Y-7476190D01*
X18158857Y-7480952D01*
X18154095Y-7490476D01*
%TO.C,LED3*%
X16781179Y-8025238D02*
X16733559Y-8025238D01*
X16733559Y-7925238D01*
X16814512Y-7972857D02*
X16847845Y-7972857D01*
X16862131Y-8025238D02*
X16814512Y-8025238D01*
X16814512Y-7925238D01*
X16862131Y-7925238D01*
X16904988Y-8025238D02*
X16904988Y-7925238D01*
X16928798Y-7925238D01*
X16943083Y-7930000D01*
X16952607Y-7939524D01*
X16957369Y-7949048D01*
X16962131Y-7968095D01*
X16962131Y-7982381D01*
X16957369Y-8001428D01*
X16952607Y-8010952D01*
X16943083Y-8020476D01*
X16928798Y-8025238D01*
X16904988Y-8025238D01*
X16995464Y-7925238D02*
X17057369Y-7925238D01*
X17024036Y-7963333D01*
X17038321Y-7963333D01*
X17047845Y-7968095D01*
X17052607Y-7972857D01*
X17057369Y-7982381D01*
X17057369Y-8006190D01*
X17052607Y-8015714D01*
X17047845Y-8020476D01*
X17038321Y-8025238D01*
X17009750Y-8025238D01*
X17000226Y-8020476D01*
X16995464Y-8015714D01*
%TO.C,C9*%
X18208333Y-6335714D02*
X18203571Y-6340476D01*
X18189286Y-6345238D01*
X18179762Y-6345238D01*
X18165476Y-6340476D01*
X18155952Y-6330952D01*
X18151190Y-6321428D01*
X18146429Y-6302381D01*
X18146429Y-6288095D01*
X18151190Y-6269048D01*
X18155952Y-6259524D01*
X18165476Y-6250000D01*
X18179762Y-6245238D01*
X18189286Y-6245238D01*
X18203571Y-6250000D01*
X18208333Y-6254762D01*
X18255952Y-6345238D02*
X18275000Y-6345238D01*
X18284524Y-6340476D01*
X18289286Y-6335714D01*
X18298810Y-6321428D01*
X18303571Y-6302381D01*
X18303571Y-6264286D01*
X18298810Y-6254762D01*
X18294048Y-6250000D01*
X18284524Y-6245238D01*
X18265476Y-6245238D01*
X18255952Y-6250000D01*
X18251190Y-6254762D01*
X18246429Y-6264286D01*
X18246429Y-6288095D01*
X18251190Y-6297619D01*
X18255952Y-6302381D01*
X18265476Y-6307143D01*
X18284524Y-6307143D01*
X18294048Y-6302381D01*
X18298810Y-6297619D01*
X18303571Y-6288095D01*
%TO.C,C3*%
X16781964Y-6016667D02*
X16786726Y-6021428D01*
X16791488Y-6035714D01*
X16791488Y-6045238D01*
X16786726Y-6059524D01*
X16777202Y-6069048D01*
X16767678Y-6073809D01*
X16748631Y-6078571D01*
X16734345Y-6078571D01*
X16715298Y-6073809D01*
X16705774Y-6069048D01*
X16696250Y-6059524D01*
X16691488Y-6045238D01*
X16691488Y-6035714D01*
X16696250Y-6021428D01*
X16701012Y-6016667D01*
X16691488Y-5983333D02*
X16691488Y-5921428D01*
X16729583Y-5954762D01*
X16729583Y-5940476D01*
X16734345Y-5930952D01*
X16739107Y-5926190D01*
X16748631Y-5921428D01*
X16772440Y-5921428D01*
X16781964Y-5926190D01*
X16786726Y-5930952D01*
X16791488Y-5940476D01*
X16791488Y-5969048D01*
X16786726Y-5978571D01*
X16781964Y-5983333D01*
%TO.C,R2*%
X12995238Y-7591667D02*
X12947619Y-7625000D01*
X12995238Y-7648809D02*
X12895238Y-7648809D01*
X12895238Y-7610714D01*
X12900000Y-7601190D01*
X12904762Y-7596428D01*
X12914286Y-7591667D01*
X12928571Y-7591667D01*
X12938095Y-7596428D01*
X12942857Y-7601190D01*
X12947619Y-7610714D01*
X12947619Y-7648809D01*
X12904762Y-7553571D02*
X12900000Y-7548809D01*
X12895238Y-7539286D01*
X12895238Y-7515476D01*
X12900000Y-7505952D01*
X12904762Y-7501190D01*
X12914286Y-7496428D01*
X12923809Y-7496428D01*
X12938095Y-7501190D01*
X12995238Y-7558333D01*
X12995238Y-7496428D01*
%TO.C,U3*%
X14203809Y-6815238D02*
X14203809Y-6896190D01*
X14208571Y-6905714D01*
X14213333Y-6910476D01*
X14222857Y-6915238D01*
X14241905Y-6915238D01*
X14251428Y-6910476D01*
X14256190Y-6905714D01*
X14260952Y-6896190D01*
X14260952Y-6815238D01*
X14299048Y-6815238D02*
X14360952Y-6815238D01*
X14327619Y-6853333D01*
X14341905Y-6853333D01*
X14351428Y-6858095D01*
X14356190Y-6862857D01*
X14360952Y-6872381D01*
X14360952Y-6896190D01*
X14356190Y-6905714D01*
X14351428Y-6910476D01*
X14341905Y-6915238D01*
X14313333Y-6915238D01*
X14303809Y-6910476D01*
X14299048Y-6905714D01*
%TO.C,C22*%
X16276714Y-7614286D02*
X16281476Y-7619048D01*
X16286238Y-7633333D01*
X16286238Y-7642857D01*
X16281476Y-7657143D01*
X16271952Y-7666667D01*
X16262428Y-7671428D01*
X16243381Y-7676190D01*
X16229095Y-7676190D01*
X16210048Y-7671428D01*
X16200524Y-7666667D01*
X16191000Y-7657143D01*
X16186238Y-7642857D01*
X16186238Y-7633333D01*
X16191000Y-7619048D01*
X16195762Y-7614286D01*
X16195762Y-7576190D02*
X16191000Y-7571428D01*
X16186238Y-7561905D01*
X16186238Y-7538095D01*
X16191000Y-7528571D01*
X16195762Y-7523809D01*
X16205286Y-7519048D01*
X16214809Y-7519048D01*
X16229095Y-7523809D01*
X16286238Y-7580952D01*
X16286238Y-7519048D01*
X16195762Y-7480952D02*
X16191000Y-7476190D01*
X16186238Y-7466667D01*
X16186238Y-7442857D01*
X16191000Y-7433333D01*
X16195762Y-7428571D01*
X16205286Y-7423809D01*
X16214809Y-7423809D01*
X16229095Y-7428571D01*
X16286238Y-7485714D01*
X16286238Y-7423809D01*
%TO.C,R5*%
X12983333Y-6370238D02*
X12950000Y-6322619D01*
X12926190Y-6370238D02*
X12926190Y-6270238D01*
X12964286Y-6270238D01*
X12973809Y-6275000D01*
X12978571Y-6279762D01*
X12983333Y-6289286D01*
X12983333Y-6303571D01*
X12978571Y-6313095D01*
X12973809Y-6317857D01*
X12964286Y-6322619D01*
X12926190Y-6322619D01*
X13073809Y-6270238D02*
X13026190Y-6270238D01*
X13021428Y-6317857D01*
X13026190Y-6313095D01*
X13035714Y-6308333D01*
X13059524Y-6308333D01*
X13069048Y-6313095D01*
X13073809Y-6317857D01*
X13078571Y-6327381D01*
X13078571Y-6351190D01*
X13073809Y-6360714D01*
X13069048Y-6365476D01*
X13059524Y-6370238D01*
X13035714Y-6370238D01*
X13026190Y-6365476D01*
X13021428Y-6360714D01*
%TO.C,U1*%
X15298809Y-6685238D02*
X15298809Y-6766190D01*
X15303571Y-6775714D01*
X15308333Y-6780476D01*
X15317857Y-6785238D01*
X15336905Y-6785238D01*
X15346428Y-6780476D01*
X15351190Y-6775714D01*
X15355952Y-6766190D01*
X15355952Y-6685238D01*
X15455952Y-6785238D02*
X15398809Y-6785238D01*
X15427381Y-6785238D02*
X15427381Y-6685238D01*
X15417857Y-6699524D01*
X15408333Y-6709048D01*
X15398809Y-6713809D01*
D11*
%TO.C,R10*%
X16264364Y-5638000D02*
X16233636Y-5638000D01*
X16264364Y-5562000D02*
X16233636Y-5562000D01*
%TO.C,C23*%
X16260784Y-5664000D02*
X16239216Y-5664000D01*
X16260784Y-5736000D02*
X16239216Y-5736000D01*
%TO.C,C16*%
X13414000Y-7109216D02*
X13414000Y-7130784D01*
X13486000Y-7109216D02*
X13486000Y-7130784D01*
%TO.C,R3*%
X15602000Y-6434364D02*
X15602000Y-6403636D01*
X15678000Y-6434364D02*
X15678000Y-6403636D01*
%TO.C,C1*%
X14094000Y-5739216D02*
X14094000Y-5760784D01*
X14166000Y-5739216D02*
X14166000Y-5760784D01*
%TO.C,C17*%
X13934000Y-7159216D02*
X13934000Y-7180784D01*
X14006000Y-7159216D02*
X14006000Y-7180784D01*
%TO.C,C14*%
X13358784Y-6244000D02*
X13337216Y-6244000D01*
X13358784Y-6316000D02*
X13337216Y-6316000D01*
%TO.C,LED2*%
X15020000Y-7850000D02*
X15110000Y-7850000D01*
X15020000Y-7750000D02*
X15020000Y-7850000D01*
%TO.C,C13*%
X13994000Y-5760784D02*
X13994000Y-5739216D01*
X14066000Y-5760784D02*
X14066000Y-5739216D01*
%TO.C,C18*%
X13906000Y-7159216D02*
X13906000Y-7180784D01*
X13834000Y-7159216D02*
X13834000Y-7180784D01*
%TO.C,C21*%
X13010784Y-5986000D02*
X12989216Y-5986000D01*
X13010784Y-5914000D02*
X12989216Y-5914000D01*
%TO.C,R7*%
X13842000Y-6944636D02*
X13842000Y-6975364D01*
X13918000Y-6944636D02*
X13918000Y-6975364D01*
%TO.C,C6*%
X14214000Y-7537216D02*
X14214000Y-7558784D01*
X14286000Y-7537216D02*
X14286000Y-7558784D01*
%TO.C,D2*%
X17725000Y-7215000D02*
X17840000Y-7215000D01*
X18275000Y-6485000D02*
X18275000Y-7215000D01*
X17725000Y-6485000D02*
X17725000Y-7215000D01*
%TO.C,J2*%
X14880000Y-5924000D02*
X14880000Y-5724000D01*
X15820000Y-5534000D02*
X15820000Y-5344000D01*
X15820000Y-5924000D02*
X15820000Y-5724000D01*
X14880000Y-5534000D02*
X14880000Y-5344000D01*
X15820000Y-5344000D02*
X14880000Y-5344000D01*
D12*
%TO.C,D3*%
X14787500Y-6100000D02*
G75*
G03*
X14787500Y-6100000I-5000J0D01*
G01*
D11*
%TO.C,U2*%
X16361250Y-6076000D02*
X16441250Y-6076000D01*
X16361250Y-5764000D02*
X16181250Y-5764000D01*
X16361250Y-5764000D02*
X16441250Y-5764000D01*
X16361250Y-6076000D02*
X16281250Y-6076000D01*
%TO.C,C12*%
X13614000Y-7109216D02*
X13614000Y-7130784D01*
X13686000Y-7109216D02*
X13686000Y-7130784D01*
%TO.C,U4*%
X16475000Y-6870500D02*
X16475000Y-6409500D01*
X16675000Y-6870500D02*
X16475000Y-6870500D01*
X16675000Y-6329500D02*
X16675000Y-6870500D01*
X16475000Y-6409500D02*
X16555000Y-6329500D01*
X16555000Y-6329500D02*
X16675000Y-6329500D01*
%TO.C,R9*%
X14488864Y-6138000D02*
X14458136Y-6138000D01*
X14488864Y-6062000D02*
X14458136Y-6062000D01*
%TO.C,SW3*%
X12730000Y-9893000D02*
X12730000Y-10007000D01*
X12730000Y-10108000D02*
X12730000Y-10120000D01*
X13170000Y-9780000D02*
X12730000Y-9780000D01*
X12730000Y-9780000D02*
X12730000Y-9792000D01*
X13170000Y-9792000D02*
X13170000Y-9780000D01*
X13170000Y-10007000D02*
X13170000Y-9893000D01*
X13170000Y-10120000D02*
X13170000Y-10108000D01*
X12730000Y-10120000D02*
X13170000Y-10120000D01*
%TO.C,R4*%
X15148000Y-6435364D02*
X15148000Y-6404636D01*
X15072000Y-6435364D02*
X15072000Y-6404636D01*
%TO.C,R6*%
X13732000Y-6944636D02*
X13732000Y-6975364D01*
X13808000Y-6944636D02*
X13808000Y-6975364D01*
%TO.C,C11*%
X14064000Y-7109216D02*
X14064000Y-7130784D01*
X14136000Y-7109216D02*
X14136000Y-7130784D01*
%TO.C,LED1*%
X13120000Y-7850000D02*
X13210000Y-7850000D01*
X13120000Y-7750000D02*
X13120000Y-7850000D01*
%TO.C,C4*%
X14580784Y-6244000D02*
X14559216Y-6244000D01*
X14580784Y-6316000D02*
X14559216Y-6316000D01*
%TO.C,C15*%
X13386000Y-7109216D02*
X13386000Y-7130784D01*
X13314000Y-7109216D02*
X13314000Y-7130784D01*
%TO.C,R1*%
X12562000Y-5690364D02*
X12562000Y-5659636D01*
X12638000Y-5690364D02*
X12638000Y-5659636D01*
%TO.C,J1*%
X13600000Y-5644000D02*
X13706000Y-5644000D01*
X13500000Y-5856000D02*
X12694000Y-5856000D01*
X13706000Y-5644000D02*
X13706000Y-5750000D01*
X13500000Y-5644000D02*
X12694000Y-5644000D01*
X13500000Y-5644000D02*
X13500000Y-5856000D01*
X12694000Y-5644000D02*
X12694000Y-5856000D01*
%TO.C,C2*%
X16097250Y-6049216D02*
X16097250Y-6070784D01*
X16025250Y-6049216D02*
X16025250Y-6070784D01*
%TO.C,D1*%
X13085000Y-7220000D02*
X13085000Y-6490000D01*
X13085000Y-6490000D02*
X12970000Y-6490000D01*
X12535000Y-7220000D02*
X12535000Y-6490000D01*
%TO.C,C7*%
X12589000Y-7289216D02*
X12589000Y-7310784D01*
X12661000Y-7289216D02*
X12661000Y-7310784D01*
%TO.C,C10*%
X13894000Y-5760784D02*
X13894000Y-5739216D01*
X13966000Y-5760784D02*
X13966000Y-5739216D01*
%TO.C,C20*%
X13514000Y-7109216D02*
X13514000Y-7130784D01*
X13586000Y-7109216D02*
X13586000Y-7130784D01*
%TO.C,R8*%
X12740364Y-5912000D02*
X12709636Y-5912000D01*
X12740364Y-5988000D02*
X12709636Y-5988000D01*
%TO.C,Y1*%
X14204951Y-5906251D02*
X14604951Y-5906251D01*
X14204951Y-5576251D02*
X14204951Y-5906251D01*
%TO.C,C19*%
X14449216Y-6736000D02*
X14470784Y-6736000D01*
X14449216Y-6664000D02*
X14470784Y-6664000D01*
%TO.C,C5*%
X14633951Y-5712034D02*
X14633951Y-5690467D01*
X14705951Y-5712034D02*
X14705951Y-5690467D01*
%TO.C,C8*%
X18014000Y-7539216D02*
X18014000Y-7560784D01*
X18086000Y-7539216D02*
X18086000Y-7560784D01*
%TO.C,LED3*%
X16920000Y-7850000D02*
X17010000Y-7850000D01*
X16920000Y-7750000D02*
X16920000Y-7850000D01*
%TO.C,C9*%
X18237784Y-6461000D02*
X18216216Y-6461000D01*
X18237784Y-6389000D02*
X18216216Y-6389000D01*
%TO.C,C3*%
X16585250Y-5989216D02*
X16585250Y-6010784D01*
X16657250Y-5989216D02*
X16657250Y-6010784D01*
%TO.C,R2*%
X13037000Y-7559636D02*
X13037000Y-7590364D01*
X13113000Y-7559636D02*
X13113000Y-7590364D01*
%TO.C,U3*%
X14306000Y-6019000D02*
X14306000Y-6084000D01*
X14241000Y-6741000D02*
X14306000Y-6741000D01*
X14241000Y-6019000D02*
X14306000Y-6019000D01*
X13584000Y-6019000D02*
X13584000Y-6084000D01*
X13649000Y-6741000D02*
X13584000Y-6741000D01*
X13649000Y-6019000D02*
X13584000Y-6019000D01*
X13584000Y-6741000D02*
X13584000Y-6676000D01*
%TO.C,C22*%
X16161000Y-7539216D02*
X16161000Y-7560784D01*
X16089000Y-7539216D02*
X16089000Y-7560784D01*
%TO.C,R5*%
X13015364Y-6488000D02*
X12984636Y-6488000D01*
X13015364Y-6412000D02*
X12984636Y-6412000D01*
%TO.C,U1*%
X15585000Y-6656000D02*
X15295000Y-6656000D01*
X15375000Y-6344000D02*
X15295000Y-6344000D01*
X15585000Y-6595000D02*
X15585000Y-6656000D01*
X15375000Y-6344000D02*
X15455000Y-6344000D01*
%TO.C,SW2*%
X15380000Y-8445000D02*
X15890000Y-8445000D01*
X14990000Y-8865000D02*
X15500000Y-8865000D01*
X14790000Y-8665000D02*
G75*
G03*
X14990000Y-8865000I200000J0D01*
G01*
X15180000Y-8245000D02*
G75*
G03*
X15380000Y-8445000I200000J0D01*
G01*
%TO.C,SW7*%
X16895000Y-8865000D02*
X17405000Y-8865000D01*
X17285000Y-8445000D02*
X17795000Y-8445000D01*
X17085000Y-8245000D02*
G75*
G03*
X17285000Y-8445000I200000J0D01*
G01*
X16695000Y-8665000D02*
G75*
G03*
X16895000Y-8865000I200000J0D01*
G01*
%TO.C,SW1*%
X13480000Y-8445000D02*
X13990000Y-8445000D01*
X13090000Y-8865000D02*
X13600000Y-8865000D01*
X12890000Y-8665000D02*
G75*
G03*
X13090000Y-8865000I200000J0D01*
G01*
X13280000Y-8245000D02*
G75*
G03*
X13480000Y-8445000I200000J0D01*
G01*
%TD*%
M02*
