M48
; DRILL file {KiCad 6.0.8-1.fc36} date Sun 23 Oct 2022 10:59:56 AM CEST
; FORMAT={-:-/ absolute / inch / decimal}
; #@! TF.CreationDate,2022-10-23T10:59:56+02:00
; #@! TF.GenerationSoftware,Kicad,Pcbnew,6.0.8-1.fc36
; #@! TF.FileFunction,Plated,1,2,PTH
FMAT,2
INCH
; #@! TA.AperFunction,Plated,PTH,ViaDrill
T1C0.0118
; #@! TA.AperFunction,Plated,PTH,ViaDrill
T2C0.0157
; #@! TA.AperFunction,Plated,PTH,ComponentDrill
T3C0.0236
; #@! TA.AperFunction,Plated,PTH,ComponentDrill
T4C0.0315
; #@! TA.AperFunction,Plated,PTH,ComponentDrill
T5C0.0984
%
G90
G05
T1
X5.4094Y-2.4961
X5.4134Y-2.8465
X5.4252Y-2.7756
X5.4528Y-2.4134
X5.4606Y-2.7756
X5.5866Y-2.8465
X5.6653Y-2.2288
X5.7165Y-2.3425
T2
X4.9605Y-2.3819
X5.1181Y-2.9331
X5.128Y-3.061
X5.1476Y-2.7953
X5.1575Y-2.5886
X5.1969Y-2.4803
X5.315Y-3.6319
X5.4528Y-2.5118
X5.4882Y-2.4646
X5.5512Y-2.9921
X5.5787Y-2.6004
X5.5906Y-2.7756
X5.6201Y-2.8051
X5.6299Y-2.7165
X5.6693Y-2.7362
X5.7382Y-3.9862
X5.8268Y-2.5
X5.8543Y-2.8051
X5.8661Y-3.061
X5.9252Y-3.6122
X6.0138Y-2.3504
X6.0433Y-2.1043
X6.0728Y-2.3504
X6.1319Y-2.5
X6.187Y-2.8051
X6.2047Y-2.3681
X6.2894Y-2.9921
X6.2992Y-2.2736
X6.3189Y-2.6673
X6.3583Y-3.9862
X6.4336Y-2.3307
X6.5281Y-2.2953
X6.5354Y-2.5295
X6.5354Y-3.5846
X6.5748Y-2.8051
X6.624Y-3.061
X7.0276Y-2.8642
X7.2441Y-3.2185
T4
X5.0394Y-2.2638
X5.1181Y-2.2638
X5.1969Y-2.2638
X5.2756Y-2.2638
X5.3543Y-2.2638
T5
X4.8228Y-2.3622
X4.8228Y-4.1339
X7.2638Y-2.3622
X7.2638Y-4.1339
T3
G00X5.8732Y-2.0744
M15
G01X5.8732Y-2.0508
M16
G05
G00X5.8732Y-2.2488
M15
G01X5.8732Y-2.2055
M16
G05
G00X6.2134Y-2.0744
M15
G01X6.2134Y-2.0508
M16
G05
G00X6.2134Y-2.2488
M15
G01X6.2134Y-2.2055
M16
G05
T0
M30
