%TF.GenerationSoftware,KiCad,Pcbnew,6.0.9+dfsg-1*%
%TF.CreationDate,2022-11-21T00:59:10-08:00*%
%TF.ProjectId,muon,6d756f6e-2e6b-4696-9361-645f70636258,v0.6*%
%TF.SameCoordinates,Original*%
%TF.FileFunction,Soldermask,Top*%
%TF.FilePolarity,Negative*%
%FSLAX45Y45*%
G04 Gerber Fmt 4.5, Leading zero omitted, Abs format (unit mm)*
G04 Created by KiCad (PCBNEW 6.0.9+dfsg-1) date 2022-11-21 00:59:10*
%MOMM*%
%LPD*%
G01*
G04 APERTURE LIST*
G04 Aperture macros list*
%AMRoundRect*
0 Rectangle with rounded corners*
0 $1 Rounding radius*
0 $2 $3 $4 $5 $6 $7 $8 $9 X,Y pos of 4 corners*
0 Add a 4 corners polygon primitive as box body*
4,1,4,$2,$3,$4,$5,$6,$7,$8,$9,$2,$3,0*
0 Add four circle primitives for the rounded corners*
1,1,$1+$1,$2,$3*
1,1,$1+$1,$4,$5*
1,1,$1+$1,$6,$7*
1,1,$1+$1,$8,$9*
0 Add four rect primitives between the rounded corners*
20,1,$1+$1,$2,$3,$4,$5,0*
20,1,$1+$1,$4,$5,$6,$7,0*
20,1,$1+$1,$6,$7,$8,$9,0*
20,1,$1+$1,$8,$9,$2,$3,0*%
%AMFreePoly0*
4,1,18,-0.410000,0.265000,0.000000,0.675000,0.328000,0.675000,0.359380,0.668758,0.385983,0.650983,0.403758,0.624380,0.410000,0.593000,0.410000,-0.593000,0.403758,-0.624380,0.385983,-0.650983,0.359380,-0.668758,0.328000,-0.675000,-0.328000,-0.675000,-0.359380,-0.668758,-0.385983,-0.650983,-0.403758,-0.624380,-0.410000,-0.593000,-0.410000,0.265000,-0.410000,0.265000,$1*%
G04 Aperture macros list end*
%ADD10RoundRect,0.147500X0.147500X0.172500X-0.147500X0.172500X-0.147500X-0.172500X0.147500X-0.172500X0*%
%ADD11RoundRect,0.140000X-0.170000X0.140000X-0.170000X-0.140000X0.170000X-0.140000X0.170000X0.140000X0*%
%ADD12RoundRect,0.135000X0.185000X-0.135000X0.185000X0.135000X-0.185000X0.135000X-0.185000X-0.135000X0*%
%ADD13RoundRect,0.140000X0.140000X0.170000X-0.140000X0.170000X-0.140000X-0.170000X0.140000X-0.170000X0*%
%ADD14RoundRect,0.082000X0.593000X-0.328000X0.593000X0.328000X-0.593000X0.328000X-0.593000X-0.328000X0*%
%ADD15FreePoly0,90.000000*%
%ADD16RoundRect,0.140000X0.170000X-0.140000X0.170000X0.140000X-0.170000X0.140000X-0.170000X-0.140000X0*%
%ADD17RoundRect,0.135000X-0.185000X0.135000X-0.185000X-0.135000X0.185000X-0.135000X0.185000X0.135000X0*%
%ADD18R,1.000000X1.500000*%
%ADD19C,0.650000*%
%ADD20R,0.600000X1.450000*%
%ADD21R,0.300000X1.450000*%
%ADD22O,1.000000X2.100000*%
%ADD23O,1.000000X1.600000*%
%ADD24RoundRect,0.150000X-0.512500X-0.150000X0.512500X-0.150000X0.512500X0.150000X-0.512500X0.150000X0*%
%ADD25R,2.200000X0.600000*%
%ADD26RoundRect,0.135000X0.135000X0.185000X-0.135000X0.185000X-0.135000X-0.185000X0.135000X-0.185000X0*%
%ADD27R,1.050000X0.650000*%
%ADD28RoundRect,0.218750X-0.256250X0.218750X-0.256250X-0.218750X0.256250X-0.218750X0.256250X0.218750X0*%
%ADD29C,6.400000*%
%ADD30RoundRect,0.135000X-0.135000X-0.185000X0.135000X-0.185000X0.135000X0.185000X-0.135000X0.185000X0*%
%ADD31R,1.400000X1.200000*%
%ADD32RoundRect,0.140000X-0.140000X-0.170000X0.140000X-0.170000X0.140000X0.170000X-0.140000X0.170000X0*%
%ADD33RoundRect,0.050000X0.387500X0.050000X-0.387500X0.050000X-0.387500X-0.050000X0.387500X-0.050000X0*%
%ADD34RoundRect,0.050000X0.050000X0.387500X-0.050000X0.387500X-0.050000X-0.387500X0.050000X-0.387500X0*%
%ADD35R,3.200000X3.200000*%
%ADD36RoundRect,0.150000X0.475000X0.150000X-0.475000X0.150000X-0.475000X-0.150000X0.475000X-0.150000X0*%
%ADD37C,1.750000*%
%ADD38C,1.900000*%
%ADD39C,3.050000*%
%ADD40C,5.050000*%
%ADD41RoundRect,0.250000X-1.025000X-1.000000X1.025000X-1.000000X1.025000X1.000000X-1.025000X1.000000X0*%
%ADD42RoundRect,0.250000X-1.000000X-0.625000X1.000000X-0.625000X1.000000X0.625000X-1.000000X0.625000X0*%
%ADD43C,0.990600*%
G04 APERTURE END LIST*
D10*
%TO.C,F1*%
X16059750Y-5920000D03*
X15962750Y-5920000D03*
%TD*%
D11*
%TO.C,C16*%
X13450000Y-7072000D03*
X13450000Y-7168000D03*
%TD*%
D12*
%TO.C,R3*%
X15050000Y-6281000D03*
X15050000Y-6179000D03*
%TD*%
D11*
%TO.C,C1*%
X14130000Y-5702000D03*
X14130000Y-5798000D03*
%TD*%
%TO.C,C17*%
X13970000Y-7122000D03*
X13970000Y-7218000D03*
%TD*%
D13*
%TO.C,C14*%
X13348000Y-6325000D03*
X13252000Y-6325000D03*
%TD*%
D14*
%TO.C,LED2*%
X15622500Y-7625000D03*
X15622500Y-7775000D03*
X15077500Y-7625000D03*
D15*
X15077500Y-7775000D03*
%TD*%
D16*
%TO.C,C13*%
X14030000Y-5798000D03*
X14030000Y-5702000D03*
%TD*%
D11*
%TO.C,C18*%
X13870000Y-7122000D03*
X13870000Y-7218000D03*
%TD*%
D13*
%TO.C,C21*%
X12848000Y-6050000D03*
X12752000Y-6050000D03*
%TD*%
D17*
%TO.C,R7*%
X13880000Y-6909000D03*
X13880000Y-7011000D03*
%TD*%
D11*
%TO.C,C6*%
X14200000Y-7500000D03*
X14200000Y-7596000D03*
%TD*%
D18*
%TO.C,D2*%
X18060000Y-6605000D03*
X17740000Y-6605000D03*
X17740000Y-7095000D03*
X18060000Y-7095000D03*
%TD*%
D19*
%TO.C,J2*%
X15061000Y-5604000D03*
X15639000Y-5604000D03*
D20*
X15675000Y-5748500D03*
X15595000Y-5748500D03*
D21*
X15475000Y-5748500D03*
X15375000Y-5748500D03*
X15325000Y-5748500D03*
X15225000Y-5748500D03*
D20*
X15105000Y-5748500D03*
X15025000Y-5748500D03*
X15025000Y-5748500D03*
X15105000Y-5748500D03*
D21*
X15175000Y-5748500D03*
X15275000Y-5748500D03*
X15425000Y-5748500D03*
X15525000Y-5748500D03*
D20*
X15595000Y-5748500D03*
X15675000Y-5748500D03*
D22*
X15782000Y-5657000D03*
X14918000Y-5657000D03*
D23*
X14918000Y-5239000D03*
X15782000Y-5239000D03*
%TD*%
D10*
%TO.C,D3*%
X14722000Y-6100000D03*
X14625000Y-6100000D03*
%TD*%
D24*
%TO.C,U2*%
X16247500Y-5825000D03*
X16247500Y-5920000D03*
X16247500Y-6015000D03*
X16475000Y-6015000D03*
X16475000Y-5825000D03*
%TD*%
D11*
%TO.C,C12*%
X13650000Y-7072000D03*
X13650000Y-7168000D03*
%TD*%
D13*
%TO.C,C23*%
X16298000Y-5700000D03*
X16202000Y-5700000D03*
%TD*%
D25*
%TO.C,U4*%
X16315000Y-6409500D03*
X16315000Y-6536500D03*
X16315000Y-6663500D03*
X16315000Y-6790500D03*
X16835000Y-6790500D03*
X16835000Y-6663500D03*
X16835000Y-6536500D03*
X16835000Y-6409500D03*
%TD*%
D26*
%TO.C,R9*%
X14524500Y-6100000D03*
X14422500Y-6100000D03*
%TD*%
D27*
%TO.C,SW3*%
X13157500Y-9842500D03*
X12742500Y-9842500D03*
X12742500Y-10057500D03*
X13157500Y-10057500D03*
%TD*%
D12*
%TO.C,R4*%
X15650000Y-6276000D03*
X15650000Y-6174000D03*
%TD*%
D28*
%TO.C,FB1*%
X15800000Y-6096250D03*
X15800000Y-6253750D03*
%TD*%
D17*
%TO.C,R6*%
X13770000Y-6909000D03*
X13770000Y-7011000D03*
%TD*%
D29*
%TO.C,*%
X12250000Y-6000000D03*
%TD*%
D11*
%TO.C,C11*%
X14100000Y-7072000D03*
X14100000Y-7168000D03*
%TD*%
D29*
%TO.C,*%
X18450000Y-6000000D03*
%TD*%
D14*
%TO.C,LED1*%
X13722500Y-7625000D03*
X13722500Y-7775000D03*
X13177500Y-7625000D03*
D15*
X13177500Y-7775000D03*
%TD*%
D13*
%TO.C,C4*%
X14618000Y-6280000D03*
X14522000Y-6280000D03*
%TD*%
D11*
%TO.C,C15*%
X13350000Y-7072000D03*
X13350000Y-7168000D03*
%TD*%
D30*
%TO.C,R1*%
X12749000Y-5800000D03*
X12851000Y-5800000D03*
%TD*%
D29*
%TO.C,*%
X18450000Y-10500000D03*
%TD*%
D11*
%TO.C,C2*%
X16061250Y-6012000D03*
X16061250Y-6108000D03*
%TD*%
D18*
%TO.C,D1*%
X12640000Y-7095000D03*
X12960000Y-7095000D03*
X12960000Y-6605000D03*
X12640000Y-6605000D03*
%TD*%
D11*
%TO.C,C7*%
X12625000Y-7252000D03*
X12625000Y-7348000D03*
%TD*%
D16*
%TO.C,C10*%
X13930000Y-5798000D03*
X13930000Y-5702000D03*
%TD*%
D11*
%TO.C,C20*%
X13550000Y-7072000D03*
X13550000Y-7168000D03*
%TD*%
D26*
%TO.C,R8*%
X12851000Y-5950000D03*
X12749000Y-5950000D03*
%TD*%
D29*
%TO.C,*%
X12250000Y-10500000D03*
%TD*%
D26*
%TO.C,R10*%
X16300000Y-5600000D03*
X16198000Y-5600000D03*
%TD*%
D31*
%TO.C,Y1*%
X14294951Y-5826251D03*
X14514951Y-5826251D03*
X14514951Y-5656251D03*
X14294951Y-5656251D03*
%TD*%
D32*
%TO.C,C19*%
X14412000Y-6700000D03*
X14508000Y-6700000D03*
%TD*%
D16*
%TO.C,C5*%
X14669951Y-5749251D03*
X14669951Y-5653251D03*
%TD*%
D11*
%TO.C,C8*%
X18000000Y-7502000D03*
X18000000Y-7598000D03*
%TD*%
D14*
%TO.C,LED3*%
X17522500Y-7625000D03*
X17522500Y-7775000D03*
X16977500Y-7625000D03*
D15*
X16977500Y-7775000D03*
%TD*%
D32*
%TO.C,C9*%
X18227000Y-6525000D03*
X18323000Y-6525000D03*
%TD*%
D11*
%TO.C,C3*%
X16621250Y-5952000D03*
X16621250Y-6048000D03*
%TD*%
D17*
%TO.C,R2*%
X13000000Y-7524000D03*
X13000000Y-7626000D03*
%TD*%
D33*
%TO.C,U3*%
X14288750Y-6640000D03*
X14288750Y-6600000D03*
X14288750Y-6560000D03*
X14288750Y-6520000D03*
X14288750Y-6480000D03*
X14288750Y-6440000D03*
X14288750Y-6400000D03*
X14288750Y-6360000D03*
X14288750Y-6320000D03*
X14288750Y-6280000D03*
X14288750Y-6240000D03*
X14288750Y-6200000D03*
X14288750Y-6160000D03*
X14288750Y-6120000D03*
D34*
X14205000Y-6036250D03*
X14165000Y-6036250D03*
X14125000Y-6036250D03*
X14085000Y-6036250D03*
X14045000Y-6036250D03*
X14005000Y-6036250D03*
X13965000Y-6036250D03*
X13925000Y-6036250D03*
X13885000Y-6036250D03*
X13845000Y-6036250D03*
X13805000Y-6036250D03*
X13765000Y-6036250D03*
X13725000Y-6036250D03*
X13685000Y-6036250D03*
D33*
X13601250Y-6120000D03*
X13601250Y-6160000D03*
X13601250Y-6200000D03*
X13601250Y-6240000D03*
X13601250Y-6280000D03*
X13601250Y-6320000D03*
X13601250Y-6360000D03*
X13601250Y-6400000D03*
X13601250Y-6440000D03*
X13601250Y-6480000D03*
X13601250Y-6520000D03*
X13601250Y-6560000D03*
X13601250Y-6600000D03*
X13601250Y-6640000D03*
D34*
X13685000Y-6723750D03*
X13725000Y-6723750D03*
X13765000Y-6723750D03*
X13805000Y-6723750D03*
X13845000Y-6723750D03*
X13885000Y-6723750D03*
X13925000Y-6723750D03*
X13965000Y-6723750D03*
X14005000Y-6723750D03*
X14045000Y-6723750D03*
X14085000Y-6723750D03*
X14125000Y-6723750D03*
X14165000Y-6723750D03*
X14205000Y-6723750D03*
D35*
X13945000Y-6380000D03*
%TD*%
D11*
%TO.C,C22*%
X16075000Y-7502000D03*
X16075000Y-7598000D03*
%TD*%
D26*
%TO.C,R5*%
X13051000Y-6425000D03*
X12949000Y-6425000D03*
%TD*%
D36*
%TO.C,U1*%
X15467500Y-6245000D03*
X15467500Y-6150000D03*
X15467500Y-6055000D03*
X15232500Y-6055000D03*
X15232500Y-6150000D03*
X15232500Y-6245000D03*
%TD*%
D37*
%TO.C,SW2*%
X15858000Y-8175000D03*
D38*
X14800000Y-8175000D03*
D39*
X14969000Y-8429000D03*
X15850000Y-8555000D03*
X15604000Y-8683000D03*
D37*
X14842000Y-8175000D03*
D38*
X15900000Y-8175000D03*
D40*
X15350000Y-8175000D03*
D39*
X15350000Y-8765000D03*
D41*
X15000000Y-8775000D03*
X14641500Y-8429000D03*
D42*
X15930000Y-8755000D03*
D41*
X16200000Y-8555000D03*
%TD*%
D39*
%TO.C,SW7*%
X17255000Y-8765000D03*
D40*
X17255000Y-8175000D03*
D38*
X16705000Y-8175000D03*
D39*
X16874000Y-8429000D03*
X17755000Y-8555000D03*
X17509000Y-8683000D03*
D37*
X16747000Y-8175000D03*
X17763000Y-8175000D03*
D38*
X17805000Y-8175000D03*
D41*
X16905000Y-8775000D03*
X16546500Y-8429000D03*
D42*
X17835000Y-8755000D03*
D41*
X18105000Y-8555000D03*
%TD*%
D43*
%TO.C,J1*%
X13100000Y-5671000D03*
X12998400Y-6179000D03*
X13201600Y-6179000D03*
%TD*%
D39*
%TO.C,SW1*%
X13450000Y-8765000D03*
D37*
X13958000Y-8175000D03*
D40*
X13450000Y-8175000D03*
D38*
X14000000Y-8175000D03*
X12900000Y-8175000D03*
D37*
X12942000Y-8175000D03*
D39*
X13069000Y-8429000D03*
X13704000Y-8683000D03*
X13950000Y-8555000D03*
D41*
X12741500Y-8429000D03*
X13100000Y-8775000D03*
D42*
X14030000Y-8755000D03*
D41*
X14300000Y-8555000D03*
%TD*%
M02*
