%TF.GenerationSoftware,KiCad,Pcbnew,6.0.9+dfsg-1*%
%TF.CreationDate,2022-11-21T00:59:10-08:00*%
%TF.ProjectId,muon,6d756f6e-2e6b-4696-9361-645f70636258,v0.6*%
%TF.SameCoordinates,Original*%
%TF.FileFunction,Copper,L2,Bot*%
%TF.FilePolarity,Positive*%
%FSLAX45Y45*%
G04 Gerber Fmt 4.5, Leading zero omitted, Abs format (unit mm)*
G04 Created by KiCad (PCBNEW 6.0.9+dfsg-1) date 2022-11-21 00:59:10*
%MOMM*%
%LPD*%
G01*
G04 APERTURE LIST*
%TA.AperFunction,ComponentPad*%
%ADD10O,1.000000X2.100000*%
%TD*%
%TA.AperFunction,ComponentPad*%
%ADD11O,1.000000X1.600000*%
%TD*%
%TA.AperFunction,ComponentPad*%
%ADD12C,6.400000*%
%TD*%
%TA.AperFunction,SMDPad,CuDef*%
%ADD13R,1.000000X0.750000*%
%TD*%
%TA.AperFunction,ConnectorPad*%
%ADD14C,0.787400*%
%TD*%
%TA.AperFunction,ViaPad*%
%ADD15C,0.800000*%
%TD*%
%TA.AperFunction,ViaPad*%
%ADD16C,0.450000*%
%TD*%
%TA.AperFunction,ViaPad*%
%ADD17C,0.600000*%
%TD*%
%TA.AperFunction,Conductor*%
%ADD18C,0.400000*%
%TD*%
%TA.AperFunction,Conductor*%
%ADD19C,0.200000*%
%TD*%
%TA.AperFunction,Conductor*%
%ADD20C,0.250000*%
%TD*%
G04 APERTURE END LIST*
D10*
%TO.P,J2,S1,SHIELD*%
%TO.N,Net-(C23-Pad2)*%
X15782000Y-5657000D03*
X14918000Y-5657000D03*
D11*
X14918000Y-5239000D03*
X15782000Y-5239000D03*
%TD*%
D12*
%TO.P,,1*%
%TO.N,GND*%
X12250000Y-6000000D03*
%TD*%
%TO.P,,1*%
%TO.N,GND*%
X18450000Y-6000000D03*
%TD*%
%TO.P,,1*%
%TO.N,GND*%
X18450000Y-10500000D03*
%TD*%
%TO.P,,1*%
%TO.N,GND*%
X12250000Y-10500000D03*
%TD*%
D13*
%TO.P,S3,A*%
%TO.N,/FN3*%
X17201250Y-9907500D03*
%TO.P,S3,B*%
X16601250Y-9907500D03*
%TO.P,S3,C*%
%TO.N,GND*%
X17201250Y-10282500D03*
%TO.P,S3,D*%
X16601250Y-10282500D03*
%TD*%
%TO.P,S1,A*%
%TO.N,/FN1*%
X14100000Y-9907500D03*
%TO.P,S1,B*%
X13500000Y-9907500D03*
%TO.P,S1,C*%
%TO.N,GND*%
X14100000Y-10282500D03*
%TO.P,S1,D*%
X13500000Y-10282500D03*
%TD*%
D14*
%TO.P,J1,1,Pin_1*%
%TO.N,GND*%
X13163500Y-5798000D03*
%TO.P,J1,2,Pin_2*%
%TO.N,/SWCLK*%
X13036500Y-5798000D03*
%TO.P,J1,3,Pin_3*%
%TO.N,/SWD*%
X13163500Y-5925000D03*
%TO.P,J1,4,Pin_4*%
%TO.N,/~{RESET}*%
X13036500Y-5925000D03*
%TO.P,J1,5,Pin_5*%
%TO.N,+3V3*%
X13163500Y-6052000D03*
%TO.P,J1,6*%
%TO.N,N/C*%
X13036500Y-6052000D03*
%TD*%
D13*
%TO.P,S2,A*%
%TO.N,/FN2*%
X15650000Y-9912500D03*
%TO.P,S2,B*%
X15050000Y-9912500D03*
%TO.P,S2,C*%
%TO.N,GND*%
X15650000Y-10287500D03*
%TO.P,S2,D*%
X15050000Y-10287500D03*
%TD*%
D15*
%TO.N,+3V3*%
X16600000Y-6425000D03*
X16581250Y-5830000D03*
X14170000Y-6605000D03*
X12750000Y-5875000D03*
%TO.N,/SWCLK*%
X12950000Y-5800000D03*
%TO.N,GND*%
X16150000Y-10125000D03*
X13100000Y-6575000D03*
X15975000Y-7600000D03*
X14100000Y-7600000D03*
X18400000Y-8175000D03*
D16*
X14520000Y-5950000D03*
D15*
X16825000Y-7775000D03*
X14900000Y-7775000D03*
X16700000Y-7125000D03*
X14870000Y-7125000D03*
X16000000Y-5775000D03*
X16050000Y-6775000D03*
X13775000Y-5700000D03*
D16*
X14389951Y-5661251D03*
D15*
X13850000Y-6380000D03*
X14575000Y-10125000D03*
X14800000Y-6350000D03*
X13025000Y-7775000D03*
X13940000Y-6260000D03*
X13150000Y-6325000D03*
X15350000Y-5345000D03*
X15715000Y-7125000D03*
X15575000Y-6350000D03*
X17850000Y-7275000D03*
X16341250Y-5920000D03*
X13275000Y-5700000D03*
%TO.N,/D+*%
X15275000Y-5970050D03*
D16*
X13870000Y-7050000D03*
%TO.N,/D-*%
X13780000Y-7050000D03*
D15*
X15425000Y-5970050D03*
D17*
%TO.N,/QSPI_3*%
X14300000Y-6900000D03*
X14200000Y-7050000D03*
%TO.N,/QSPI_CLK*%
X14275000Y-7125000D03*
X14400000Y-6950000D03*
D16*
%TO.N,+1V1*%
X13850000Y-6130000D03*
X13740000Y-6340000D03*
X14190000Y-7230000D03*
X13750000Y-7230000D03*
D17*
%TO.N,/KEYGLOW*%
X13000000Y-7450000D03*
X13075000Y-7100000D03*
D15*
%TO.N,/SWD*%
X13250000Y-5875000D03*
%TO.N,/~{RESET}*%
X12950000Y-5925000D03*
%TO.N,/FN1*%
X13500000Y-9225000D03*
%TO.N,/FN2*%
X15050000Y-9175000D03*
%TO.N,/FN3*%
X16600000Y-9105000D03*
%TD*%
D18*
%TO.N,+3V3*%
X13675000Y-7075000D02*
X13675000Y-6125000D01*
X14170000Y-6605000D02*
X14110000Y-6605000D01*
X13577000Y-6027000D02*
X13163500Y-6027000D01*
X14175000Y-6600000D02*
X15930000Y-6600000D01*
X14110000Y-6605000D02*
X14030000Y-6685000D01*
X15930000Y-6600000D02*
X16575000Y-5955000D01*
X14190000Y-6605000D02*
X14170000Y-6605000D01*
X14030000Y-7020000D02*
X13900000Y-7150000D01*
D19*
X12925000Y-5575000D02*
X13350000Y-5575000D01*
D18*
X16581250Y-5830000D02*
X16581250Y-5948750D01*
D20*
X16575000Y-6400000D02*
X16575000Y-5955000D01*
D19*
X13548000Y-6027000D02*
X13577000Y-6027000D01*
D18*
X16580000Y-5830000D02*
X16581250Y-5830000D01*
X13675000Y-6125000D02*
X13577000Y-6027000D01*
X14170000Y-6605000D02*
X14175000Y-6600000D01*
X16581250Y-5948750D02*
X16575000Y-5955000D01*
X13900000Y-7150000D02*
X13750000Y-7150000D01*
D19*
X12750000Y-5850000D02*
X12750000Y-5750000D01*
X12750000Y-5750000D02*
X12925000Y-5575000D01*
X13577000Y-5802000D02*
X13577000Y-6027000D01*
D18*
X14030000Y-6685000D02*
X14030000Y-7020000D01*
D20*
X16600000Y-6425000D02*
X16575000Y-6400000D01*
D19*
X13350000Y-5575000D02*
X13577000Y-5802000D01*
D18*
X13750000Y-7150000D02*
X13675000Y-7075000D01*
D19*
%TO.N,/SWCLK*%
X13034500Y-5800000D02*
X13036500Y-5798000D01*
X12950000Y-5800000D02*
X13034500Y-5800000D01*
D18*
%TO.N,/D+*%
X13852500Y-7032500D02*
X13870000Y-7050000D01*
X14802782Y-5925000D02*
X14577782Y-6150000D01*
X13852500Y-6606391D02*
X13852500Y-7032500D01*
X14577782Y-6150000D02*
X14308891Y-6150000D01*
X15229950Y-5925000D02*
X14802782Y-5925000D01*
X14308891Y-6150000D02*
X13852500Y-6606391D01*
X15275000Y-5970050D02*
X15229950Y-5925000D01*
%TO.N,/D-*%
X15425000Y-5970050D02*
X15324950Y-5870000D01*
X14286109Y-6095000D02*
X13797500Y-6583609D01*
X15324950Y-5870000D02*
X14780000Y-5870000D01*
X14555000Y-6095000D02*
X14286109Y-6095000D01*
X14780000Y-5870000D02*
X14555000Y-6095000D01*
X13797500Y-6583609D02*
X13797500Y-7032500D01*
X13797500Y-7032500D02*
X13780000Y-7050000D01*
D19*
%TO.N,/QSPI_3*%
X14200000Y-7050000D02*
X14300000Y-6950000D01*
X14300000Y-6950000D02*
X14300000Y-6900000D01*
%TO.N,/QSPI_CLK*%
X14275000Y-7125000D02*
X14400000Y-7000000D01*
X14400000Y-7000000D02*
X14400000Y-6950000D01*
%TO.N,+1V1*%
X14190000Y-7230000D02*
X13750000Y-7230000D01*
X13740000Y-6340000D02*
X13740000Y-6280000D01*
X13850000Y-6170000D02*
X13850000Y-6130000D01*
X13740000Y-6280000D02*
X13850000Y-6170000D01*
%TO.N,/KEYGLOW*%
X13000000Y-7450000D02*
X13075000Y-7375000D01*
X13075000Y-7375000D02*
X13075000Y-7100000D01*
%TO.N,/SWD*%
X13250000Y-5875000D02*
X13200000Y-5925000D01*
X13200000Y-5925000D02*
X13163500Y-5925000D01*
%TO.N,/~{RESET}*%
X12950000Y-5925000D02*
X13036500Y-5925000D01*
%TO.N,/FN1*%
X13500000Y-9907500D02*
X14100000Y-9907500D01*
X13500000Y-9225000D02*
X13500000Y-9907500D01*
%TO.N,/FN2*%
X15050000Y-9912500D02*
X15650000Y-9912500D01*
X15050000Y-9175000D02*
X15050000Y-9912500D01*
X15050000Y-9175000D02*
X15051250Y-9176250D01*
%TO.N,/FN3*%
X16600000Y-9105000D02*
X16601250Y-9106250D01*
X16601250Y-9907500D02*
X17201250Y-9907500D01*
X16601250Y-9106250D02*
X16601250Y-9907500D01*
%TD*%
%TA.AperFunction,Conductor*%
%TO.N,GND*%
G36*
X15684438Y-5152850D02*
G01*
X15689087Y-5158216D01*
X15690098Y-5165243D01*
X15689207Y-5168414D01*
X15689153Y-5168539D01*
X15688857Y-5169079D01*
X15682876Y-5187931D01*
X15681150Y-5203323D01*
X15681150Y-5273977D01*
X15681180Y-5274283D01*
X15681180Y-5274283D01*
X15681253Y-5275027D01*
X15682592Y-5288683D01*
X15688308Y-5307617D01*
X15697593Y-5325080D01*
X15704629Y-5333706D01*
X15709704Y-5339929D01*
X15709704Y-5339929D01*
X15710093Y-5340406D01*
X15710568Y-5340799D01*
X15710568Y-5340799D01*
X15724857Y-5352620D01*
X15724858Y-5352620D01*
X15725332Y-5353013D01*
X15742730Y-5362420D01*
X15761623Y-5368268D01*
X15762236Y-5368333D01*
X15762236Y-5368333D01*
X15780680Y-5370271D01*
X15780680Y-5370271D01*
X15781292Y-5370336D01*
X15789542Y-5369585D01*
X15800375Y-5368599D01*
X15800375Y-5368599D01*
X15800989Y-5368543D01*
X15801579Y-5368369D01*
X15801580Y-5368369D01*
X15816215Y-5364062D01*
X15817993Y-5363539D01*
X15825092Y-5363534D01*
X15831067Y-5367369D01*
X15834021Y-5373825D01*
X15834150Y-5375626D01*
X15834150Y-5495477D01*
X15832150Y-5502289D01*
X15826784Y-5506938D01*
X15819757Y-5507949D01*
X15817824Y-5507514D01*
X15816075Y-5506972D01*
X15802377Y-5502732D01*
X15801764Y-5502667D01*
X15801764Y-5502667D01*
X15783320Y-5500729D01*
X15783320Y-5500729D01*
X15782707Y-5500665D01*
X15774458Y-5501415D01*
X15763625Y-5502401D01*
X15763625Y-5502401D01*
X15763011Y-5502457D01*
X15762421Y-5502631D01*
X15762420Y-5502631D01*
X15757463Y-5504090D01*
X15744038Y-5508041D01*
X15743492Y-5508326D01*
X15743492Y-5508327D01*
X15736316Y-5512078D01*
X15726511Y-5517204D01*
X15711097Y-5529597D01*
X15706260Y-5535362D01*
X15700349Y-5539294D01*
X15693251Y-5539407D01*
X15688955Y-5537272D01*
X15682974Y-5532699D01*
X15682974Y-5532699D01*
X15682432Y-5532285D01*
X15671919Y-5527383D01*
X15666637Y-5524920D01*
X15666637Y-5524919D01*
X15666019Y-5524632D01*
X15665354Y-5524483D01*
X15665354Y-5524483D01*
X15648849Y-5520794D01*
X15648849Y-5520794D01*
X15648346Y-5520681D01*
X15647791Y-5520650D01*
X15634476Y-5520650D01*
X15620996Y-5522114D01*
X15612661Y-5524920D01*
X15604480Y-5527673D01*
X15604479Y-5527673D01*
X15603832Y-5527891D01*
X15588309Y-5537218D01*
X15587814Y-5537687D01*
X15587813Y-5537687D01*
X15575715Y-5549128D01*
X15575151Y-5549661D01*
X15574768Y-5550225D01*
X15574768Y-5550225D01*
X15565826Y-5563383D01*
X15564972Y-5564639D01*
X15558247Y-5581453D01*
X15558136Y-5582126D01*
X15558135Y-5582127D01*
X15555763Y-5596458D01*
X15555289Y-5599320D01*
X15555325Y-5600001D01*
X15555325Y-5600002D01*
X15555815Y-5609354D01*
X15556237Y-5617405D01*
X15556418Y-5618062D01*
X15556418Y-5618062D01*
X15558755Y-5626547D01*
X15561046Y-5634864D01*
X15569492Y-5650884D01*
X15569933Y-5651405D01*
X15569933Y-5651405D01*
X15580741Y-5664194D01*
X15580741Y-5664195D01*
X15581181Y-5664716D01*
X15581724Y-5665130D01*
X15581724Y-5665130D01*
X15595026Y-5675301D01*
X15595026Y-5675301D01*
X15595568Y-5675715D01*
X15601791Y-5678617D01*
X15611363Y-5683080D01*
X15611363Y-5683081D01*
X15611981Y-5683368D01*
X15612646Y-5683517D01*
X15612646Y-5683517D01*
X15622269Y-5685668D01*
X15629654Y-5687319D01*
X15630209Y-5687350D01*
X15643524Y-5687350D01*
X15646248Y-5687054D01*
X15649713Y-5686678D01*
X15657004Y-5685886D01*
X15664531Y-5683352D01*
X15671625Y-5683075D01*
X15677743Y-5686678D01*
X15680942Y-5693016D01*
X15681150Y-5695294D01*
X15681150Y-5716977D01*
X15681180Y-5717282D01*
X15681180Y-5717283D01*
X15681483Y-5720373D01*
X15682592Y-5731683D01*
X15688308Y-5750617D01*
X15697593Y-5768080D01*
X15700395Y-5771514D01*
X15709704Y-5782929D01*
X15709704Y-5782929D01*
X15710093Y-5783406D01*
X15710568Y-5783799D01*
X15710568Y-5783799D01*
X15724857Y-5795620D01*
X15724858Y-5795620D01*
X15725332Y-5796013D01*
X15742730Y-5805420D01*
X15761623Y-5811268D01*
X15762236Y-5811333D01*
X15762236Y-5811333D01*
X15780680Y-5813271D01*
X15780680Y-5813271D01*
X15781292Y-5813335D01*
X15789542Y-5812585D01*
X15800375Y-5811599D01*
X15800375Y-5811599D01*
X15800989Y-5811543D01*
X15801579Y-5811369D01*
X15801580Y-5811369D01*
X15812092Y-5808275D01*
X15819962Y-5805959D01*
X15820508Y-5805674D01*
X15820508Y-5805673D01*
X15830215Y-5800599D01*
X15837489Y-5796796D01*
X15852902Y-5784403D01*
X15865615Y-5769253D01*
X15865912Y-5768713D01*
X15865912Y-5768712D01*
X15874847Y-5752461D01*
X15875143Y-5751921D01*
X15875385Y-5751161D01*
X15880937Y-5733656D01*
X15880937Y-5733656D01*
X15881123Y-5733069D01*
X15882850Y-5717677D01*
X15882850Y-5597023D01*
X15882781Y-5596323D01*
X15881468Y-5582930D01*
X15881408Y-5582317D01*
X15880956Y-5580820D01*
X15876820Y-5567121D01*
X15876766Y-5560021D01*
X15880559Y-5554020D01*
X15886994Y-5551021D01*
X15888959Y-5550879D01*
X15891578Y-5550895D01*
X15891579Y-5550895D01*
X15891972Y-5550898D01*
X15892106Y-5550859D01*
X15892241Y-5550850D01*
X18295063Y-5550850D01*
X18297002Y-5551000D01*
X18298485Y-5551231D01*
X18298486Y-5551231D01*
X18299372Y-5551369D01*
X18300263Y-5551253D01*
X18300263Y-5551253D01*
X18301510Y-5551090D01*
X18303639Y-5550993D01*
X18346514Y-5552678D01*
X18347500Y-5552755D01*
X18375644Y-5556086D01*
X18393237Y-5558169D01*
X18394212Y-5558323D01*
X18423127Y-5564075D01*
X18439384Y-5567308D01*
X18440346Y-5567539D01*
X18484671Y-5580040D01*
X18485611Y-5580346D01*
X18528821Y-5596286D01*
X18529734Y-5596665D01*
X18557259Y-5609354D01*
X18571559Y-5615946D01*
X18572439Y-5616394D01*
X18609744Y-5637286D01*
X18614710Y-5642360D01*
X18616145Y-5649313D01*
X18613592Y-5655938D01*
X18607864Y-5660131D01*
X18600777Y-5660562D01*
X18599072Y-5660042D01*
X18565050Y-5646983D01*
X18564422Y-5646779D01*
X18527518Y-5636891D01*
X18526873Y-5636753D01*
X18489137Y-5630777D01*
X18488483Y-5630708D01*
X18450330Y-5628708D01*
X18449670Y-5628708D01*
X18411517Y-5630708D01*
X18410863Y-5630777D01*
X18373127Y-5636753D01*
X18372482Y-5636891D01*
X18335578Y-5646779D01*
X18334950Y-5646983D01*
X18299284Y-5660674D01*
X18298681Y-5660942D01*
X18264640Y-5678287D01*
X18264069Y-5678617D01*
X18232027Y-5699425D01*
X18231494Y-5699812D01*
X18207617Y-5719148D01*
X18206770Y-5720373D01*
X18207403Y-5721482D01*
X18728431Y-6242510D01*
X18729739Y-6243224D01*
X18730775Y-6242478D01*
X18750188Y-6218506D01*
X18750575Y-6217973D01*
X18771383Y-6185931D01*
X18771713Y-6185360D01*
X18789058Y-6151319D01*
X18789326Y-6150716D01*
X18803017Y-6115050D01*
X18803221Y-6114422D01*
X18813109Y-6077518D01*
X18813247Y-6076873D01*
X18819223Y-6039137D01*
X18819292Y-6038483D01*
X18821292Y-6000330D01*
X18821292Y-5999670D01*
X18819292Y-5961517D01*
X18819223Y-5960863D01*
X18813247Y-5923127D01*
X18813109Y-5922482D01*
X18803221Y-5885578D01*
X18803017Y-5884950D01*
X18789958Y-5850928D01*
X18789384Y-5843852D01*
X18792727Y-5837589D01*
X18798925Y-5834127D01*
X18806011Y-5834566D01*
X18811735Y-5838766D01*
X18812713Y-5840255D01*
X18833606Y-5877561D01*
X18834054Y-5878440D01*
X18851306Y-5915865D01*
X18853335Y-5920265D01*
X18853714Y-5921179D01*
X18855123Y-5925000D01*
X18869654Y-5964389D01*
X18869960Y-5965329D01*
X18874784Y-5982434D01*
X18881932Y-6007778D01*
X18882461Y-6009654D01*
X18882692Y-6010616D01*
X18883733Y-6015850D01*
X18891677Y-6055788D01*
X18891832Y-6056763D01*
X18892692Y-6064034D01*
X18897245Y-6102500D01*
X18897322Y-6103486D01*
X18898978Y-6145613D01*
X18898837Y-6148046D01*
X18898789Y-6148357D01*
X18898631Y-6149372D01*
X18898747Y-6150263D01*
X18898747Y-6150263D01*
X18899044Y-6152528D01*
X18899150Y-6154162D01*
X18899150Y-10345063D01*
X18899000Y-10347002D01*
X18898631Y-10349372D01*
X18898747Y-10350263D01*
X18898747Y-10350263D01*
X18898910Y-10351510D01*
X18899007Y-10353639D01*
X18897322Y-10396514D01*
X18897245Y-10397500D01*
X18891832Y-10443236D01*
X18891677Y-10444212D01*
X18884538Y-10480101D01*
X18882692Y-10489384D01*
X18882461Y-10490346D01*
X18869960Y-10534671D01*
X18869654Y-10535611D01*
X18853714Y-10578821D01*
X18853335Y-10579735D01*
X18834054Y-10621559D01*
X18833606Y-10622439D01*
X18812714Y-10659744D01*
X18807640Y-10664710D01*
X18800687Y-10666145D01*
X18794062Y-10663592D01*
X18789869Y-10657864D01*
X18789438Y-10650777D01*
X18789958Y-10649072D01*
X18803017Y-10615050D01*
X18803221Y-10614422D01*
X18813109Y-10577518D01*
X18813247Y-10576873D01*
X18819223Y-10539137D01*
X18819292Y-10538483D01*
X18821292Y-10500330D01*
X18821292Y-10499670D01*
X18819292Y-10461517D01*
X18819223Y-10460863D01*
X18813247Y-10423127D01*
X18813109Y-10422482D01*
X18803221Y-10385578D01*
X18803017Y-10384950D01*
X18789326Y-10349284D01*
X18789058Y-10348681D01*
X18771713Y-10314640D01*
X18771383Y-10314069D01*
X18750575Y-10282027D01*
X18750188Y-10281494D01*
X18730852Y-10257617D01*
X18729627Y-10256770D01*
X18728518Y-10257403D01*
X18207490Y-10778431D01*
X18206776Y-10779739D01*
X18207522Y-10780775D01*
X18231494Y-10800187D01*
X18232027Y-10800575D01*
X18264069Y-10821383D01*
X18264639Y-10821713D01*
X18298681Y-10839058D01*
X18299284Y-10839326D01*
X18334950Y-10853017D01*
X18335578Y-10853221D01*
X18372482Y-10863109D01*
X18373127Y-10863247D01*
X18410863Y-10869223D01*
X18411517Y-10869292D01*
X18449670Y-10871292D01*
X18450330Y-10871292D01*
X18488483Y-10869292D01*
X18489137Y-10869223D01*
X18526873Y-10863247D01*
X18527518Y-10863109D01*
X18564422Y-10853221D01*
X18565050Y-10853017D01*
X18599072Y-10839958D01*
X18606148Y-10839384D01*
X18612411Y-10842727D01*
X18615873Y-10848925D01*
X18615434Y-10856011D01*
X18611234Y-10861735D01*
X18609745Y-10862713D01*
X18572439Y-10883606D01*
X18571559Y-10884054D01*
X18529735Y-10903335D01*
X18528821Y-10903714D01*
X18485611Y-10919654D01*
X18484671Y-10919960D01*
X18440346Y-10932461D01*
X18439384Y-10932692D01*
X18430101Y-10934538D01*
X18394212Y-10941677D01*
X18393237Y-10941832D01*
X18375644Y-10943914D01*
X18347500Y-10947245D01*
X18346514Y-10947322D01*
X18304387Y-10948978D01*
X18301954Y-10948837D01*
X18301515Y-10948769D01*
X18301515Y-10948769D01*
X18300628Y-10948631D01*
X18299737Y-10948747D01*
X18299737Y-10948747D01*
X18298232Y-10948944D01*
X18297471Y-10949044D01*
X18295838Y-10949150D01*
X12404937Y-10949150D01*
X12402998Y-10949000D01*
X12401515Y-10948769D01*
X12401514Y-10948769D01*
X12400628Y-10948631D01*
X12399737Y-10948747D01*
X12399737Y-10948747D01*
X12398490Y-10948910D01*
X12396361Y-10949007D01*
X12353486Y-10947322D01*
X12352500Y-10947245D01*
X12324356Y-10943914D01*
X12306763Y-10941832D01*
X12305788Y-10941677D01*
X12269899Y-10934538D01*
X12260616Y-10932692D01*
X12259654Y-10932461D01*
X12215329Y-10919960D01*
X12214389Y-10919654D01*
X12171179Y-10903714D01*
X12170265Y-10903335D01*
X12128441Y-10884054D01*
X12127561Y-10883606D01*
X12090256Y-10862714D01*
X12085290Y-10857640D01*
X12083855Y-10850687D01*
X12086408Y-10844062D01*
X12092136Y-10839869D01*
X12099223Y-10839438D01*
X12100928Y-10839958D01*
X12134950Y-10853017D01*
X12135578Y-10853221D01*
X12172482Y-10863109D01*
X12173127Y-10863247D01*
X12210863Y-10869223D01*
X12211517Y-10869292D01*
X12249670Y-10871292D01*
X12250330Y-10871292D01*
X12288483Y-10869292D01*
X12289137Y-10869223D01*
X12326873Y-10863247D01*
X12327518Y-10863109D01*
X12364422Y-10853221D01*
X12365050Y-10853017D01*
X12400716Y-10839326D01*
X12401319Y-10839058D01*
X12435361Y-10821713D01*
X12435931Y-10821383D01*
X12467973Y-10800575D01*
X12468506Y-10800187D01*
X12492383Y-10780852D01*
X12493230Y-10779627D01*
X12492597Y-10778518D01*
X12214192Y-10500113D01*
X12286441Y-10500113D01*
X12286454Y-10500297D01*
X12286879Y-10500958D01*
X12528431Y-10742510D01*
X12529739Y-10743224D01*
X12530775Y-10742478D01*
X12550188Y-10718506D01*
X12550575Y-10717974D01*
X12571383Y-10685931D01*
X12571713Y-10685360D01*
X12589058Y-10651319D01*
X12589326Y-10650716D01*
X12603017Y-10615050D01*
X12603221Y-10614422D01*
X12613109Y-10577518D01*
X12613246Y-10576873D01*
X12619223Y-10539137D01*
X12619292Y-10538483D01*
X12621292Y-10500330D01*
X18078708Y-10500330D01*
X18080708Y-10538483D01*
X18080777Y-10539137D01*
X18086754Y-10576873D01*
X18086891Y-10577518D01*
X18096779Y-10614422D01*
X18096983Y-10615050D01*
X18110674Y-10650716D01*
X18110942Y-10651319D01*
X18128287Y-10685360D01*
X18128617Y-10685931D01*
X18149425Y-10717974D01*
X18149812Y-10718506D01*
X18169148Y-10742384D01*
X18170373Y-10743230D01*
X18171482Y-10742597D01*
X18412798Y-10501281D01*
X18413559Y-10499887D01*
X18413546Y-10499704D01*
X18413121Y-10499042D01*
X18171569Y-10257490D01*
X18170261Y-10256776D01*
X18169225Y-10257522D01*
X18149812Y-10281494D01*
X18149425Y-10282027D01*
X18128617Y-10314069D01*
X18128287Y-10314640D01*
X18110942Y-10348681D01*
X18110674Y-10349284D01*
X18096983Y-10384950D01*
X18096779Y-10385578D01*
X18086891Y-10422482D01*
X18086754Y-10423127D01*
X18080777Y-10460863D01*
X18080708Y-10461517D01*
X18078708Y-10499670D01*
X18078708Y-10500330D01*
X12621292Y-10500330D01*
X12621292Y-10499670D01*
X12619292Y-10461517D01*
X12619223Y-10460863D01*
X12613246Y-10423127D01*
X12613109Y-10422482D01*
X12603221Y-10385578D01*
X12603017Y-10384950D01*
X12589326Y-10349284D01*
X12589058Y-10348681D01*
X12576720Y-10324467D01*
X13399200Y-10324467D01*
X13399237Y-10325149D01*
X13399789Y-10330235D01*
X13400152Y-10331760D01*
X13404668Y-10343805D01*
X13405521Y-10345365D01*
X13413171Y-10355572D01*
X13414428Y-10356829D01*
X13424635Y-10364479D01*
X13426195Y-10365332D01*
X13438239Y-10369848D01*
X13439765Y-10370211D01*
X13444851Y-10370763D01*
X13445533Y-10370800D01*
X13472788Y-10370800D01*
X13474312Y-10370353D01*
X13474433Y-10370214D01*
X13474600Y-10369445D01*
X13474600Y-10368988D01*
X13525400Y-10368988D01*
X13525847Y-10370512D01*
X13525986Y-10370633D01*
X13526755Y-10370800D01*
X13554467Y-10370800D01*
X13555149Y-10370763D01*
X13560235Y-10370211D01*
X13561760Y-10369848D01*
X13573805Y-10365332D01*
X13575365Y-10364479D01*
X13585572Y-10356829D01*
X13586828Y-10355572D01*
X13594479Y-10345365D01*
X13595332Y-10343805D01*
X13599848Y-10331761D01*
X13600210Y-10330235D01*
X13600763Y-10325149D01*
X13600800Y-10324467D01*
X13600800Y-10324467D01*
X13999200Y-10324467D01*
X13999237Y-10325149D01*
X13999789Y-10330235D01*
X14000152Y-10331760D01*
X14004668Y-10343805D01*
X14005521Y-10345365D01*
X14013171Y-10355572D01*
X14014428Y-10356829D01*
X14024635Y-10364479D01*
X14026195Y-10365332D01*
X14038239Y-10369848D01*
X14039765Y-10370211D01*
X14044851Y-10370763D01*
X14045533Y-10370800D01*
X14072788Y-10370800D01*
X14074312Y-10370353D01*
X14074433Y-10370214D01*
X14074600Y-10369445D01*
X14074600Y-10368988D01*
X14125400Y-10368988D01*
X14125847Y-10370512D01*
X14125986Y-10370633D01*
X14126755Y-10370800D01*
X14154467Y-10370800D01*
X14155149Y-10370763D01*
X14160235Y-10370211D01*
X14161760Y-10369848D01*
X14173805Y-10365332D01*
X14175365Y-10364479D01*
X14185572Y-10356829D01*
X14186828Y-10355572D01*
X14194479Y-10345365D01*
X14195332Y-10343805D01*
X14199848Y-10331761D01*
X14200210Y-10330235D01*
X14200294Y-10329467D01*
X14949200Y-10329467D01*
X14949237Y-10330149D01*
X14949789Y-10335235D01*
X14950152Y-10336760D01*
X14954668Y-10348805D01*
X14955521Y-10350365D01*
X14963171Y-10360572D01*
X14964428Y-10361829D01*
X14974635Y-10369479D01*
X14976195Y-10370332D01*
X14988239Y-10374848D01*
X14989765Y-10375211D01*
X14994851Y-10375763D01*
X14995533Y-10375800D01*
X15022788Y-10375800D01*
X15024312Y-10375353D01*
X15024433Y-10375214D01*
X15024600Y-10374445D01*
X15024600Y-10373988D01*
X15075400Y-10373988D01*
X15075847Y-10375512D01*
X15075986Y-10375633D01*
X15076755Y-10375800D01*
X15104467Y-10375800D01*
X15105149Y-10375763D01*
X15110235Y-10375211D01*
X15111760Y-10374848D01*
X15123805Y-10370332D01*
X15125365Y-10369479D01*
X15135572Y-10361829D01*
X15136828Y-10360572D01*
X15144479Y-10350365D01*
X15145332Y-10348805D01*
X15149848Y-10336761D01*
X15150210Y-10335235D01*
X15150763Y-10330149D01*
X15150800Y-10329467D01*
X15549200Y-10329467D01*
X15549237Y-10330149D01*
X15549789Y-10335235D01*
X15550152Y-10336760D01*
X15554668Y-10348805D01*
X15555521Y-10350365D01*
X15563171Y-10360572D01*
X15564428Y-10361829D01*
X15574635Y-10369479D01*
X15576195Y-10370332D01*
X15588239Y-10374848D01*
X15589765Y-10375211D01*
X15594851Y-10375763D01*
X15595533Y-10375800D01*
X15622788Y-10375800D01*
X15624312Y-10375353D01*
X15624433Y-10375214D01*
X15624600Y-10374445D01*
X15624600Y-10373988D01*
X15675400Y-10373988D01*
X15675847Y-10375512D01*
X15675986Y-10375633D01*
X15676755Y-10375800D01*
X15704467Y-10375800D01*
X15705149Y-10375763D01*
X15710235Y-10375211D01*
X15711760Y-10374848D01*
X15723805Y-10370332D01*
X15725365Y-10369479D01*
X15735572Y-10361829D01*
X15736828Y-10360572D01*
X15744479Y-10350365D01*
X15745332Y-10348805D01*
X15749848Y-10336761D01*
X15750210Y-10335235D01*
X15750763Y-10330149D01*
X15750800Y-10329467D01*
X15750800Y-10324467D01*
X16500450Y-10324467D01*
X16500487Y-10325149D01*
X16501039Y-10330235D01*
X16501402Y-10331760D01*
X16505918Y-10343805D01*
X16506771Y-10345365D01*
X16514421Y-10355572D01*
X16515678Y-10356829D01*
X16525885Y-10364479D01*
X16527445Y-10365332D01*
X16539489Y-10369848D01*
X16541015Y-10370211D01*
X16546101Y-10370763D01*
X16546783Y-10370800D01*
X16574038Y-10370800D01*
X16575562Y-10370353D01*
X16575683Y-10370214D01*
X16575850Y-10369445D01*
X16575850Y-10368988D01*
X16626650Y-10368988D01*
X16627097Y-10370512D01*
X16627236Y-10370633D01*
X16628005Y-10370800D01*
X16655717Y-10370800D01*
X16656399Y-10370763D01*
X16661485Y-10370211D01*
X16663010Y-10369848D01*
X16675055Y-10365332D01*
X16676615Y-10364479D01*
X16686822Y-10356829D01*
X16688078Y-10355572D01*
X16695729Y-10345365D01*
X16696582Y-10343805D01*
X16701098Y-10331761D01*
X16701460Y-10330235D01*
X16702013Y-10325149D01*
X16702050Y-10324467D01*
X16702050Y-10324467D01*
X17100450Y-10324467D01*
X17100487Y-10325149D01*
X17101040Y-10330235D01*
X17101402Y-10331760D01*
X17105918Y-10343805D01*
X17106771Y-10345365D01*
X17114422Y-10355572D01*
X17115678Y-10356829D01*
X17125885Y-10364479D01*
X17127445Y-10365332D01*
X17139489Y-10369848D01*
X17141015Y-10370211D01*
X17146101Y-10370763D01*
X17146783Y-10370800D01*
X17174039Y-10370800D01*
X17175562Y-10370353D01*
X17175683Y-10370214D01*
X17175850Y-10369445D01*
X17175850Y-10368988D01*
X17226650Y-10368988D01*
X17227098Y-10370512D01*
X17227237Y-10370633D01*
X17228005Y-10370800D01*
X17255717Y-10370800D01*
X17256399Y-10370763D01*
X17261485Y-10370211D01*
X17263010Y-10369848D01*
X17275055Y-10365332D01*
X17276615Y-10364479D01*
X17286822Y-10356829D01*
X17288079Y-10355572D01*
X17295729Y-10345365D01*
X17296582Y-10343805D01*
X17301098Y-10331761D01*
X17301461Y-10330235D01*
X17302013Y-10325149D01*
X17302050Y-10324467D01*
X17302050Y-10309712D01*
X17301603Y-10308188D01*
X17301464Y-10308067D01*
X17300695Y-10307900D01*
X17228462Y-10307900D01*
X17226938Y-10308348D01*
X17226817Y-10308487D01*
X17226650Y-10309255D01*
X17226650Y-10368988D01*
X17175850Y-10368988D01*
X17175850Y-10309712D01*
X17175403Y-10308188D01*
X17175264Y-10308067D01*
X17174495Y-10307900D01*
X17102262Y-10307900D01*
X17100738Y-10308348D01*
X17100617Y-10308487D01*
X17100450Y-10309255D01*
X17100450Y-10324467D01*
X16702050Y-10324467D01*
X16702050Y-10309712D01*
X16701602Y-10308188D01*
X16701463Y-10308067D01*
X16700695Y-10307900D01*
X16628461Y-10307900D01*
X16626938Y-10308348D01*
X16626817Y-10308487D01*
X16626650Y-10309255D01*
X16626650Y-10368988D01*
X16575850Y-10368988D01*
X16575850Y-10309712D01*
X16575402Y-10308188D01*
X16575263Y-10308067D01*
X16574495Y-10307900D01*
X16502262Y-10307900D01*
X16500738Y-10308348D01*
X16500617Y-10308487D01*
X16500450Y-10309255D01*
X16500450Y-10324467D01*
X15750800Y-10324467D01*
X15750800Y-10314712D01*
X15750352Y-10313188D01*
X15750213Y-10313067D01*
X15749445Y-10312900D01*
X15677211Y-10312900D01*
X15675688Y-10313348D01*
X15675567Y-10313487D01*
X15675400Y-10314255D01*
X15675400Y-10373988D01*
X15624600Y-10373988D01*
X15624600Y-10314712D01*
X15624152Y-10313188D01*
X15624013Y-10313067D01*
X15623245Y-10312900D01*
X15551012Y-10312900D01*
X15549488Y-10313348D01*
X15549367Y-10313487D01*
X15549200Y-10314255D01*
X15549200Y-10329467D01*
X15150800Y-10329467D01*
X15150800Y-10314712D01*
X15150352Y-10313188D01*
X15150213Y-10313067D01*
X15149445Y-10312900D01*
X15077211Y-10312900D01*
X15075688Y-10313348D01*
X15075567Y-10313487D01*
X15075400Y-10314255D01*
X15075400Y-10373988D01*
X15024600Y-10373988D01*
X15024600Y-10314712D01*
X15024152Y-10313188D01*
X15024013Y-10313067D01*
X15023245Y-10312900D01*
X14951012Y-10312900D01*
X14949488Y-10313348D01*
X14949367Y-10313487D01*
X14949200Y-10314255D01*
X14949200Y-10329467D01*
X14200294Y-10329467D01*
X14200763Y-10325149D01*
X14200800Y-10324467D01*
X14200800Y-10309712D01*
X14200352Y-10308188D01*
X14200213Y-10308067D01*
X14199445Y-10307900D01*
X14127211Y-10307900D01*
X14125688Y-10308348D01*
X14125567Y-10308487D01*
X14125400Y-10309255D01*
X14125400Y-10368988D01*
X14074600Y-10368988D01*
X14074600Y-10309712D01*
X14074152Y-10308188D01*
X14074013Y-10308067D01*
X14073245Y-10307900D01*
X14001012Y-10307900D01*
X13999488Y-10308348D01*
X13999367Y-10308487D01*
X13999200Y-10309255D01*
X13999200Y-10324467D01*
X13600800Y-10324467D01*
X13600800Y-10309712D01*
X13600352Y-10308188D01*
X13600213Y-10308067D01*
X13599445Y-10307900D01*
X13527211Y-10307900D01*
X13525688Y-10308348D01*
X13525567Y-10308487D01*
X13525400Y-10309255D01*
X13525400Y-10368988D01*
X13474600Y-10368988D01*
X13474600Y-10309712D01*
X13474152Y-10308188D01*
X13474013Y-10308067D01*
X13473245Y-10307900D01*
X13401012Y-10307900D01*
X13399488Y-10308348D01*
X13399367Y-10308487D01*
X13399200Y-10309255D01*
X13399200Y-10324467D01*
X12576720Y-10324467D01*
X12571713Y-10314640D01*
X12571383Y-10314069D01*
X12550575Y-10282027D01*
X12550188Y-10281494D01*
X12533016Y-10260289D01*
X14949200Y-10260289D01*
X14949647Y-10261812D01*
X14949786Y-10261933D01*
X14950555Y-10262100D01*
X15022788Y-10262100D01*
X15024312Y-10261653D01*
X15024433Y-10261514D01*
X15024600Y-10260745D01*
X15024600Y-10260289D01*
X15075400Y-10260289D01*
X15075847Y-10261812D01*
X15075986Y-10261933D01*
X15076755Y-10262100D01*
X15148988Y-10262100D01*
X15150512Y-10261653D01*
X15150633Y-10261514D01*
X15150800Y-10260745D01*
X15150800Y-10260289D01*
X15549200Y-10260289D01*
X15549647Y-10261812D01*
X15549786Y-10261933D01*
X15550555Y-10262100D01*
X15622788Y-10262100D01*
X15624312Y-10261653D01*
X15624433Y-10261514D01*
X15624600Y-10260745D01*
X15624600Y-10260289D01*
X15675400Y-10260289D01*
X15675847Y-10261812D01*
X15675986Y-10261933D01*
X15676755Y-10262100D01*
X15748988Y-10262100D01*
X15750512Y-10261653D01*
X15750633Y-10261514D01*
X15750800Y-10260745D01*
X15750800Y-10255289D01*
X16500450Y-10255289D01*
X16500897Y-10256812D01*
X16501036Y-10256933D01*
X16501805Y-10257100D01*
X16574038Y-10257100D01*
X16575562Y-10256653D01*
X16575683Y-10256514D01*
X16575850Y-10255745D01*
X16575850Y-10255289D01*
X16626650Y-10255289D01*
X16627097Y-10256812D01*
X16627236Y-10256933D01*
X16628005Y-10257100D01*
X16700238Y-10257100D01*
X16701762Y-10256653D01*
X16701883Y-10256514D01*
X16702050Y-10255745D01*
X16702050Y-10255289D01*
X17100450Y-10255289D01*
X17100898Y-10256812D01*
X17101037Y-10256933D01*
X17101805Y-10257100D01*
X17174039Y-10257100D01*
X17175562Y-10256653D01*
X17175683Y-10256514D01*
X17175850Y-10255745D01*
X17175850Y-10255289D01*
X17226650Y-10255289D01*
X17227098Y-10256812D01*
X17227237Y-10256933D01*
X17228005Y-10257100D01*
X17300238Y-10257100D01*
X17301762Y-10256653D01*
X17301883Y-10256514D01*
X17302050Y-10255745D01*
X17302050Y-10240533D01*
X17302013Y-10239851D01*
X17301461Y-10234765D01*
X17301098Y-10233240D01*
X17296582Y-10221195D01*
X17296133Y-10220373D01*
X18206770Y-10220373D01*
X18207403Y-10221482D01*
X18448719Y-10462798D01*
X18450113Y-10463559D01*
X18450297Y-10463546D01*
X18450958Y-10463121D01*
X18692510Y-10221569D01*
X18693224Y-10220261D01*
X18692478Y-10219225D01*
X18668507Y-10199813D01*
X18667973Y-10199425D01*
X18635932Y-10178617D01*
X18635361Y-10178287D01*
X18601319Y-10160942D01*
X18600716Y-10160674D01*
X18565050Y-10146983D01*
X18564422Y-10146779D01*
X18527518Y-10136891D01*
X18526873Y-10136754D01*
X18489137Y-10130777D01*
X18488483Y-10130708D01*
X18450330Y-10128708D01*
X18449670Y-10128708D01*
X18411517Y-10130708D01*
X18410863Y-10130777D01*
X18373127Y-10136754D01*
X18372482Y-10136891D01*
X18335578Y-10146779D01*
X18334950Y-10146983D01*
X18299284Y-10160674D01*
X18298681Y-10160942D01*
X18264640Y-10178287D01*
X18264069Y-10178617D01*
X18232027Y-10199425D01*
X18231494Y-10199812D01*
X18207617Y-10219148D01*
X18206770Y-10220373D01*
X17296133Y-10220373D01*
X17295729Y-10219635D01*
X17288079Y-10209428D01*
X17286822Y-10208172D01*
X17276615Y-10200521D01*
X17275055Y-10199668D01*
X17263011Y-10195152D01*
X17261485Y-10194790D01*
X17256399Y-10194237D01*
X17255717Y-10194200D01*
X17228462Y-10194200D01*
X17226938Y-10194648D01*
X17226817Y-10194787D01*
X17226650Y-10195555D01*
X17226650Y-10255289D01*
X17175850Y-10255289D01*
X17175850Y-10196012D01*
X17175403Y-10194488D01*
X17175264Y-10194367D01*
X17174495Y-10194200D01*
X17146783Y-10194200D01*
X17146101Y-10194237D01*
X17141015Y-10194790D01*
X17139490Y-10195152D01*
X17127445Y-10199668D01*
X17125885Y-10200521D01*
X17115678Y-10208172D01*
X17114422Y-10209428D01*
X17106771Y-10219635D01*
X17105918Y-10221195D01*
X17101402Y-10233239D01*
X17101040Y-10234765D01*
X17100487Y-10239851D01*
X17100450Y-10240533D01*
X17100450Y-10255289D01*
X16702050Y-10255289D01*
X16702050Y-10240533D01*
X16702013Y-10239851D01*
X16701460Y-10234765D01*
X16701098Y-10233240D01*
X16696582Y-10221195D01*
X16695729Y-10219635D01*
X16688078Y-10209428D01*
X16686822Y-10208172D01*
X16676615Y-10200521D01*
X16675055Y-10199668D01*
X16663011Y-10195152D01*
X16661485Y-10194790D01*
X16656399Y-10194237D01*
X16655717Y-10194200D01*
X16628461Y-10194200D01*
X16626938Y-10194648D01*
X16626817Y-10194787D01*
X16626650Y-10195555D01*
X16626650Y-10255289D01*
X16575850Y-10255289D01*
X16575850Y-10196012D01*
X16575402Y-10194488D01*
X16575263Y-10194367D01*
X16574495Y-10194200D01*
X16546783Y-10194200D01*
X16546101Y-10194237D01*
X16541015Y-10194790D01*
X16539490Y-10195152D01*
X16527445Y-10199668D01*
X16525885Y-10200521D01*
X16515678Y-10208172D01*
X16514421Y-10209428D01*
X16506771Y-10219635D01*
X16505918Y-10221195D01*
X16501402Y-10233239D01*
X16501039Y-10234765D01*
X16500487Y-10239851D01*
X16500450Y-10240533D01*
X16500450Y-10255289D01*
X15750800Y-10255289D01*
X15750800Y-10245533D01*
X15750763Y-10244851D01*
X15750210Y-10239765D01*
X15749848Y-10238240D01*
X15745332Y-10226195D01*
X15744479Y-10224635D01*
X15736828Y-10214428D01*
X15735572Y-10213172D01*
X15725365Y-10205521D01*
X15723805Y-10204668D01*
X15711761Y-10200152D01*
X15710235Y-10199790D01*
X15705149Y-10199237D01*
X15704467Y-10199200D01*
X15677211Y-10199200D01*
X15675688Y-10199648D01*
X15675567Y-10199787D01*
X15675400Y-10200555D01*
X15675400Y-10260289D01*
X15624600Y-10260289D01*
X15624600Y-10201012D01*
X15624152Y-10199488D01*
X15624013Y-10199367D01*
X15623245Y-10199200D01*
X15595533Y-10199200D01*
X15594851Y-10199237D01*
X15589765Y-10199790D01*
X15588240Y-10200152D01*
X15576195Y-10204668D01*
X15574635Y-10205521D01*
X15564428Y-10213172D01*
X15563171Y-10214428D01*
X15555521Y-10224635D01*
X15554668Y-10226195D01*
X15550152Y-10238239D01*
X15549789Y-10239765D01*
X15549237Y-10244851D01*
X15549200Y-10245533D01*
X15549200Y-10260289D01*
X15150800Y-10260289D01*
X15150800Y-10245533D01*
X15150763Y-10244851D01*
X15150210Y-10239765D01*
X15149848Y-10238240D01*
X15145332Y-10226195D01*
X15144479Y-10224635D01*
X15136828Y-10214428D01*
X15135572Y-10213172D01*
X15125365Y-10205521D01*
X15123805Y-10204668D01*
X15111761Y-10200152D01*
X15110235Y-10199790D01*
X15105149Y-10199237D01*
X15104467Y-10199200D01*
X15077211Y-10199200D01*
X15075688Y-10199648D01*
X15075567Y-10199787D01*
X15075400Y-10200555D01*
X15075400Y-10260289D01*
X15024600Y-10260289D01*
X15024600Y-10201012D01*
X15024152Y-10199488D01*
X15024013Y-10199367D01*
X15023245Y-10199200D01*
X14995533Y-10199200D01*
X14994851Y-10199237D01*
X14989765Y-10199790D01*
X14988240Y-10200152D01*
X14976195Y-10204668D01*
X14974635Y-10205521D01*
X14964428Y-10213172D01*
X14963171Y-10214428D01*
X14955521Y-10224635D01*
X14954668Y-10226195D01*
X14950152Y-10238239D01*
X14949789Y-10239765D01*
X14949237Y-10244851D01*
X14949200Y-10245533D01*
X14949200Y-10260289D01*
X12533016Y-10260289D01*
X12530852Y-10257617D01*
X12529627Y-10256770D01*
X12528518Y-10257403D01*
X12287202Y-10498719D01*
X12286441Y-10500113D01*
X12214192Y-10500113D01*
X11971569Y-10257490D01*
X11970261Y-10256776D01*
X11969225Y-10257522D01*
X11949812Y-10281494D01*
X11949425Y-10282027D01*
X11928617Y-10314069D01*
X11928287Y-10314640D01*
X11910942Y-10348681D01*
X11910674Y-10349284D01*
X11896983Y-10384950D01*
X11896779Y-10385578D01*
X11886891Y-10422482D01*
X11886753Y-10423127D01*
X11880777Y-10460863D01*
X11880708Y-10461517D01*
X11878708Y-10499670D01*
X11878708Y-10500330D01*
X11880708Y-10538483D01*
X11880777Y-10539137D01*
X11886753Y-10576873D01*
X11886891Y-10577518D01*
X11896779Y-10614422D01*
X11896983Y-10615050D01*
X11910042Y-10649072D01*
X11910616Y-10656148D01*
X11907273Y-10662411D01*
X11901075Y-10665873D01*
X11893989Y-10665434D01*
X11888265Y-10661234D01*
X11887287Y-10659745D01*
X11866394Y-10622439D01*
X11865946Y-10621559D01*
X11846665Y-10579735D01*
X11846286Y-10578821D01*
X11830346Y-10535611D01*
X11830040Y-10534671D01*
X11817539Y-10490346D01*
X11817308Y-10489384D01*
X11815462Y-10480101D01*
X11808323Y-10444212D01*
X11808168Y-10443236D01*
X11802755Y-10397500D01*
X11802678Y-10396514D01*
X11801118Y-10356829D01*
X11801037Y-10354764D01*
X11801202Y-10352180D01*
X11801358Y-10351255D01*
X11801373Y-10350000D01*
X11800977Y-10347238D01*
X11800850Y-10345451D01*
X11800850Y-10220373D01*
X12006770Y-10220373D01*
X12007403Y-10221482D01*
X12248719Y-10462798D01*
X12250113Y-10463559D01*
X12250296Y-10463546D01*
X12250958Y-10463121D01*
X12458790Y-10255289D01*
X13399200Y-10255289D01*
X13399647Y-10256812D01*
X13399786Y-10256933D01*
X13400555Y-10257100D01*
X13472788Y-10257100D01*
X13474312Y-10256653D01*
X13474433Y-10256514D01*
X13474600Y-10255745D01*
X13474600Y-10255289D01*
X13525400Y-10255289D01*
X13525847Y-10256812D01*
X13525986Y-10256933D01*
X13526755Y-10257100D01*
X13598988Y-10257100D01*
X13600512Y-10256653D01*
X13600633Y-10256514D01*
X13600800Y-10255745D01*
X13600800Y-10255289D01*
X13999200Y-10255289D01*
X13999647Y-10256812D01*
X13999786Y-10256933D01*
X14000555Y-10257100D01*
X14072788Y-10257100D01*
X14074312Y-10256653D01*
X14074433Y-10256514D01*
X14074600Y-10255745D01*
X14074600Y-10255289D01*
X14125400Y-10255289D01*
X14125847Y-10256812D01*
X14125986Y-10256933D01*
X14126755Y-10257100D01*
X14198988Y-10257100D01*
X14200512Y-10256653D01*
X14200633Y-10256514D01*
X14200800Y-10255745D01*
X14200800Y-10240533D01*
X14200763Y-10239851D01*
X14200210Y-10234765D01*
X14199848Y-10233240D01*
X14195332Y-10221195D01*
X14194479Y-10219635D01*
X14186828Y-10209428D01*
X14185572Y-10208172D01*
X14175365Y-10200521D01*
X14173805Y-10199668D01*
X14161761Y-10195152D01*
X14160235Y-10194790D01*
X14155149Y-10194237D01*
X14154467Y-10194200D01*
X14127211Y-10194200D01*
X14125688Y-10194648D01*
X14125567Y-10194787D01*
X14125400Y-10195555D01*
X14125400Y-10255289D01*
X14074600Y-10255289D01*
X14074600Y-10196012D01*
X14074152Y-10194488D01*
X14074013Y-10194367D01*
X14073245Y-10194200D01*
X14045533Y-10194200D01*
X14044851Y-10194237D01*
X14039765Y-10194790D01*
X14038240Y-10195152D01*
X14026195Y-10199668D01*
X14024635Y-10200521D01*
X14014428Y-10208172D01*
X14013171Y-10209428D01*
X14005521Y-10219635D01*
X14004668Y-10221195D01*
X14000152Y-10233239D01*
X13999789Y-10234765D01*
X13999237Y-10239851D01*
X13999200Y-10240533D01*
X13999200Y-10255289D01*
X13600800Y-10255289D01*
X13600800Y-10240533D01*
X13600763Y-10239851D01*
X13600210Y-10234765D01*
X13599848Y-10233240D01*
X13595332Y-10221195D01*
X13594479Y-10219635D01*
X13586828Y-10209428D01*
X13585572Y-10208172D01*
X13575365Y-10200521D01*
X13573805Y-10199668D01*
X13561761Y-10195152D01*
X13560235Y-10194790D01*
X13555149Y-10194237D01*
X13554467Y-10194200D01*
X13527211Y-10194200D01*
X13525688Y-10194648D01*
X13525567Y-10194787D01*
X13525400Y-10195555D01*
X13525400Y-10255289D01*
X13474600Y-10255289D01*
X13474600Y-10196012D01*
X13474152Y-10194488D01*
X13474013Y-10194367D01*
X13473245Y-10194200D01*
X13445533Y-10194200D01*
X13444851Y-10194237D01*
X13439765Y-10194790D01*
X13438240Y-10195152D01*
X13426195Y-10199668D01*
X13424635Y-10200521D01*
X13414428Y-10208172D01*
X13413171Y-10209428D01*
X13405521Y-10219635D01*
X13404668Y-10221195D01*
X13400152Y-10233239D01*
X13399789Y-10234765D01*
X13399237Y-10239851D01*
X13399200Y-10240533D01*
X13399200Y-10255289D01*
X12458790Y-10255289D01*
X12492510Y-10221569D01*
X12493224Y-10220261D01*
X12492478Y-10219225D01*
X12468506Y-10199813D01*
X12467973Y-10199425D01*
X12435931Y-10178617D01*
X12435361Y-10178287D01*
X12401319Y-10160942D01*
X12400716Y-10160674D01*
X12365050Y-10146983D01*
X12364422Y-10146779D01*
X12327518Y-10136891D01*
X12326873Y-10136754D01*
X12289137Y-10130777D01*
X12288483Y-10130708D01*
X12250330Y-10128708D01*
X12249670Y-10128708D01*
X12211517Y-10130708D01*
X12210863Y-10130777D01*
X12173127Y-10136754D01*
X12172482Y-10136891D01*
X12135578Y-10146779D01*
X12134950Y-10146983D01*
X12099284Y-10160674D01*
X12098681Y-10160942D01*
X12064640Y-10178287D01*
X12064069Y-10178617D01*
X12032026Y-10199425D01*
X12031494Y-10199812D01*
X12007616Y-10219148D01*
X12006770Y-10220373D01*
X11800850Y-10220373D01*
X11800850Y-9949813D01*
X13399150Y-9949813D01*
X13399825Y-9956032D01*
X13404938Y-9969671D01*
X13413674Y-9981326D01*
X13425329Y-9990062D01*
X13438968Y-9995175D01*
X13445187Y-9995850D01*
X13554813Y-9995850D01*
X13561032Y-9995175D01*
X13574670Y-9990062D01*
X13586326Y-9981326D01*
X13588524Y-9978394D01*
X13592271Y-9973394D01*
X13597957Y-9969142D01*
X13602354Y-9968350D01*
X13997646Y-9968350D01*
X14004458Y-9970350D01*
X14007729Y-9973394D01*
X14011476Y-9978394D01*
X14013674Y-9981326D01*
X14025329Y-9990062D01*
X14038968Y-9995175D01*
X14045187Y-9995850D01*
X14154813Y-9995850D01*
X14161032Y-9995175D01*
X14174670Y-9990062D01*
X14186326Y-9981326D01*
X14195061Y-9969671D01*
X14200174Y-9956032D01*
X14200307Y-9954813D01*
X14949150Y-9954813D01*
X14949825Y-9961032D01*
X14954938Y-9974671D01*
X14963674Y-9986326D01*
X14975329Y-9995062D01*
X14988968Y-10000175D01*
X14995187Y-10000850D01*
X15104813Y-10000850D01*
X15111032Y-10000175D01*
X15124670Y-9995062D01*
X15136326Y-9986326D01*
X15142271Y-9978394D01*
X15147957Y-9974142D01*
X15152354Y-9973350D01*
X15547646Y-9973350D01*
X15554458Y-9975350D01*
X15557729Y-9978394D01*
X15563674Y-9986326D01*
X15575329Y-9995062D01*
X15588968Y-10000175D01*
X15595187Y-10000850D01*
X15704813Y-10000850D01*
X15711032Y-10000175D01*
X15724670Y-9995062D01*
X15736326Y-9986326D01*
X15745061Y-9974671D01*
X15750174Y-9961032D01*
X15750850Y-9954813D01*
X15750850Y-9949813D01*
X16500400Y-9949813D01*
X16501075Y-9956032D01*
X16506188Y-9969671D01*
X16514924Y-9981326D01*
X16526579Y-9990062D01*
X16540218Y-9995175D01*
X16546437Y-9995850D01*
X16656063Y-9995850D01*
X16662282Y-9995175D01*
X16675920Y-9990062D01*
X16687576Y-9981326D01*
X16689774Y-9978394D01*
X16693521Y-9973394D01*
X16699207Y-9969142D01*
X16703604Y-9968350D01*
X17098896Y-9968350D01*
X17105708Y-9970350D01*
X17108979Y-9973394D01*
X17112726Y-9978394D01*
X17114924Y-9981326D01*
X17126580Y-9990062D01*
X17140218Y-9995175D01*
X17146437Y-9995850D01*
X17256063Y-9995850D01*
X17262282Y-9995175D01*
X17275921Y-9990062D01*
X17287576Y-9981326D01*
X17296312Y-9969671D01*
X17301425Y-9956032D01*
X17302100Y-9949813D01*
X17302100Y-9865187D01*
X17301425Y-9858968D01*
X17296312Y-9845330D01*
X17287576Y-9833674D01*
X17275921Y-9824939D01*
X17262282Y-9819826D01*
X17256063Y-9819150D01*
X17146437Y-9819150D01*
X17140218Y-9819826D01*
X17126580Y-9824939D01*
X17114924Y-9833674D01*
X17114386Y-9834392D01*
X17114386Y-9834392D01*
X17108979Y-9841607D01*
X17103293Y-9845858D01*
X17098896Y-9846650D01*
X16703604Y-9846650D01*
X16696792Y-9844650D01*
X16693521Y-9841607D01*
X16688114Y-9834392D01*
X16688114Y-9834392D01*
X16687576Y-9833674D01*
X16675920Y-9824939D01*
X16673817Y-9824150D01*
X16670277Y-9822823D01*
X16664600Y-9818559D01*
X16662131Y-9811902D01*
X16662100Y-9811025D01*
X16662100Y-9176641D01*
X16664100Y-9169829D01*
X16665336Y-9168210D01*
X16673462Y-9159185D01*
X16673462Y-9159185D01*
X16673904Y-9158694D01*
X16683453Y-9142156D01*
X16689354Y-9123993D01*
X16689577Y-9121877D01*
X16691281Y-9105657D01*
X16691350Y-9105000D01*
X16690364Y-9095620D01*
X16689423Y-9086664D01*
X16689423Y-9086663D01*
X16689354Y-9086007D01*
X16683453Y-9067844D01*
X16673904Y-9051306D01*
X16661125Y-9037113D01*
X16645675Y-9025888D01*
X16645072Y-9025620D01*
X16645072Y-9025620D01*
X16628832Y-9018389D01*
X16628832Y-9018389D01*
X16628229Y-9018121D01*
X16618889Y-9016135D01*
X16610194Y-9014287D01*
X16610194Y-9014287D01*
X16609549Y-9014150D01*
X16590451Y-9014150D01*
X16589806Y-9014287D01*
X16589806Y-9014287D01*
X16581111Y-9016135D01*
X16571771Y-9018121D01*
X16571168Y-9018389D01*
X16571168Y-9018389D01*
X16554928Y-9025620D01*
X16554928Y-9025620D01*
X16554325Y-9025888D01*
X16538875Y-9037113D01*
X16526096Y-9051306D01*
X16516547Y-9067844D01*
X16510646Y-9086007D01*
X16510577Y-9086663D01*
X16510577Y-9086664D01*
X16509635Y-9095620D01*
X16508650Y-9105000D01*
X16508719Y-9105657D01*
X16510423Y-9121877D01*
X16510646Y-9123993D01*
X16516547Y-9142156D01*
X16526096Y-9158694D01*
X16537164Y-9170986D01*
X16540235Y-9177387D01*
X16540400Y-9179417D01*
X16540400Y-9811025D01*
X16538400Y-9817837D01*
X16533034Y-9822486D01*
X16532223Y-9822823D01*
X16528683Y-9824150D01*
X16526579Y-9824939D01*
X16514924Y-9833674D01*
X16506188Y-9845330D01*
X16501075Y-9858968D01*
X16500400Y-9865187D01*
X16500400Y-9949813D01*
X15750850Y-9949813D01*
X15750850Y-9870187D01*
X15750174Y-9863968D01*
X15745061Y-9850330D01*
X15736326Y-9838674D01*
X15724670Y-9829939D01*
X15711032Y-9824826D01*
X15704813Y-9824150D01*
X15595187Y-9824150D01*
X15588968Y-9824826D01*
X15575329Y-9829939D01*
X15563674Y-9838674D01*
X15563136Y-9839392D01*
X15563136Y-9839392D01*
X15557729Y-9846607D01*
X15552043Y-9850858D01*
X15547646Y-9851650D01*
X15152354Y-9851650D01*
X15145542Y-9849650D01*
X15142271Y-9846607D01*
X15136864Y-9839392D01*
X15136864Y-9839392D01*
X15136326Y-9838674D01*
X15124670Y-9829939D01*
X15123609Y-9829541D01*
X15119027Y-9827823D01*
X15113350Y-9823559D01*
X15110881Y-9816902D01*
X15110850Y-9816025D01*
X15110850Y-9248029D01*
X15112850Y-9241217D01*
X15114086Y-9239598D01*
X15123462Y-9229185D01*
X15123462Y-9229185D01*
X15123904Y-9228694D01*
X15133453Y-9212156D01*
X15139354Y-9193993D01*
X15141350Y-9175000D01*
X15139688Y-9159185D01*
X15139423Y-9156664D01*
X15139423Y-9156663D01*
X15139354Y-9156007D01*
X15133453Y-9137844D01*
X15131399Y-9134287D01*
X15125818Y-9124621D01*
X15123904Y-9121306D01*
X15111125Y-9107113D01*
X15095675Y-9095888D01*
X15095072Y-9095620D01*
X15095072Y-9095620D01*
X15078832Y-9088389D01*
X15078832Y-9088389D01*
X15078229Y-9088121D01*
X15068286Y-9086007D01*
X15060194Y-9084287D01*
X15060194Y-9084287D01*
X15059549Y-9084150D01*
X15040451Y-9084150D01*
X15039806Y-9084287D01*
X15039806Y-9084287D01*
X15031714Y-9086007D01*
X15021771Y-9088121D01*
X15021168Y-9088389D01*
X15021168Y-9088389D01*
X15004928Y-9095620D01*
X15004928Y-9095620D01*
X15004325Y-9095888D01*
X14988875Y-9107113D01*
X14976096Y-9121306D01*
X14974182Y-9124621D01*
X14968601Y-9134287D01*
X14966547Y-9137844D01*
X14960646Y-9156007D01*
X14960577Y-9156663D01*
X14960577Y-9156664D01*
X14960312Y-9159185D01*
X14958650Y-9175000D01*
X14960646Y-9193993D01*
X14966547Y-9212156D01*
X14976096Y-9228694D01*
X14976538Y-9229185D01*
X14976538Y-9229185D01*
X14985914Y-9239598D01*
X14988985Y-9245999D01*
X14989150Y-9248029D01*
X14989150Y-9816025D01*
X14987150Y-9822837D01*
X14981784Y-9827486D01*
X14980973Y-9827823D01*
X14976391Y-9829541D01*
X14975329Y-9829939D01*
X14963674Y-9838674D01*
X14954938Y-9850330D01*
X14949825Y-9863968D01*
X14949150Y-9870187D01*
X14949150Y-9954813D01*
X14200307Y-9954813D01*
X14200850Y-9949813D01*
X14200850Y-9865187D01*
X14200174Y-9858968D01*
X14195061Y-9845330D01*
X14186326Y-9833674D01*
X14174670Y-9824939D01*
X14161032Y-9819826D01*
X14154813Y-9819150D01*
X14045187Y-9819150D01*
X14038968Y-9819826D01*
X14025329Y-9824939D01*
X14013674Y-9833674D01*
X14013136Y-9834392D01*
X14013136Y-9834392D01*
X14007729Y-9841607D01*
X14002043Y-9845858D01*
X13997646Y-9846650D01*
X13602354Y-9846650D01*
X13595542Y-9844650D01*
X13592271Y-9841607D01*
X13586864Y-9834392D01*
X13586864Y-9834392D01*
X13586326Y-9833674D01*
X13574670Y-9824939D01*
X13572567Y-9824150D01*
X13569027Y-9822823D01*
X13563350Y-9818559D01*
X13560881Y-9811902D01*
X13560850Y-9811025D01*
X13560850Y-9298029D01*
X13562850Y-9291217D01*
X13564086Y-9289598D01*
X13573462Y-9279185D01*
X13573462Y-9279185D01*
X13573904Y-9278694D01*
X13583453Y-9262156D01*
X13589354Y-9243993D01*
X13589449Y-9243087D01*
X13591281Y-9225657D01*
X13591350Y-9225000D01*
X13589354Y-9206007D01*
X13583453Y-9187844D01*
X13573904Y-9171306D01*
X13571116Y-9168210D01*
X13561567Y-9157605D01*
X13561567Y-9157604D01*
X13561125Y-9157113D01*
X13545675Y-9145888D01*
X13545072Y-9145620D01*
X13545072Y-9145620D01*
X13528832Y-9138389D01*
X13528832Y-9138389D01*
X13528229Y-9138121D01*
X13518889Y-9136135D01*
X13510194Y-9134287D01*
X13510194Y-9134287D01*
X13509549Y-9134150D01*
X13490451Y-9134150D01*
X13489806Y-9134287D01*
X13489806Y-9134287D01*
X13481111Y-9136135D01*
X13471771Y-9138121D01*
X13471168Y-9138389D01*
X13471168Y-9138389D01*
X13454928Y-9145620D01*
X13454928Y-9145620D01*
X13454325Y-9145888D01*
X13438875Y-9157113D01*
X13438433Y-9157604D01*
X13438432Y-9157605D01*
X13428884Y-9168210D01*
X13426096Y-9171306D01*
X13416547Y-9187844D01*
X13410646Y-9206007D01*
X13408650Y-9225000D01*
X13408719Y-9225657D01*
X13410551Y-9243087D01*
X13410646Y-9243993D01*
X13416547Y-9262156D01*
X13426096Y-9278694D01*
X13426538Y-9279185D01*
X13426538Y-9279185D01*
X13435914Y-9289598D01*
X13438985Y-9295999D01*
X13439150Y-9298029D01*
X13439150Y-9811025D01*
X13437150Y-9817837D01*
X13431784Y-9822486D01*
X13430973Y-9822823D01*
X13427433Y-9824150D01*
X13425329Y-9824939D01*
X13413674Y-9833674D01*
X13404938Y-9845330D01*
X13399825Y-9858968D01*
X13399150Y-9865187D01*
X13399150Y-9949813D01*
X11800850Y-9949813D01*
X11800850Y-8757886D01*
X13246278Y-8757886D01*
X13246293Y-8758325D01*
X13246293Y-8758325D01*
X13246796Y-8772742D01*
X13247270Y-8786308D01*
X13252208Y-8814315D01*
X13252344Y-8814732D01*
X13252344Y-8814733D01*
X13253861Y-8819400D01*
X13260997Y-8841362D01*
X13273464Y-8866923D01*
X13273709Y-8867287D01*
X13273709Y-8867288D01*
X13281625Y-8879023D01*
X13289367Y-8890501D01*
X13308396Y-8911635D01*
X13330182Y-8929915D01*
X13354300Y-8944986D01*
X13380280Y-8956553D01*
X13407618Y-8964392D01*
X13408053Y-8964453D01*
X13408054Y-8964453D01*
X13425077Y-8966846D01*
X13435780Y-8968350D01*
X13457102Y-8968350D01*
X13457320Y-8968335D01*
X13457321Y-8968335D01*
X13477931Y-8966894D01*
X13477932Y-8966893D01*
X13478370Y-8966863D01*
X13506188Y-8960950D01*
X13506601Y-8960800D01*
X13506601Y-8960800D01*
X13532497Y-8951374D01*
X13532498Y-8951374D01*
X13532912Y-8951223D01*
X13533301Y-8951016D01*
X13533301Y-8951016D01*
X13557633Y-8938079D01*
X13557634Y-8938078D01*
X13558022Y-8937872D01*
X13558378Y-8937613D01*
X13558379Y-8937613D01*
X13580674Y-8921415D01*
X13580674Y-8921414D01*
X13581030Y-8921156D01*
X13590596Y-8911918D01*
X13601171Y-8901706D01*
X13601171Y-8901705D01*
X13601487Y-8901400D01*
X13610003Y-8890501D01*
X13618725Y-8879337D01*
X13618725Y-8879337D01*
X13618996Y-8878990D01*
X13619004Y-8878995D01*
X13624361Y-8874557D01*
X13631410Y-8873702D01*
X13633650Y-8874291D01*
X13633879Y-8874374D01*
X13634280Y-8874553D01*
X13661618Y-8882392D01*
X13662053Y-8882453D01*
X13662054Y-8882453D01*
X13679077Y-8884846D01*
X13689780Y-8886350D01*
X13711102Y-8886350D01*
X13711320Y-8886335D01*
X13711321Y-8886335D01*
X13731931Y-8884894D01*
X13731932Y-8884893D01*
X13732370Y-8884863D01*
X13760188Y-8878950D01*
X13760601Y-8878800D01*
X13760601Y-8878800D01*
X13786497Y-8869374D01*
X13786498Y-8869374D01*
X13786912Y-8869223D01*
X13787301Y-8869016D01*
X13787301Y-8869016D01*
X13811633Y-8856079D01*
X13811634Y-8856078D01*
X13812022Y-8855872D01*
X13812378Y-8855613D01*
X13812379Y-8855613D01*
X13834674Y-8839415D01*
X13834674Y-8839414D01*
X13835030Y-8839156D01*
X13835347Y-8838850D01*
X13855171Y-8819706D01*
X13855171Y-8819705D01*
X13855487Y-8819400D01*
X13859134Y-8814733D01*
X13872725Y-8797337D01*
X13872996Y-8796990D01*
X13887216Y-8772361D01*
X13889128Y-8767627D01*
X13891590Y-8761534D01*
X13895997Y-8755967D01*
X13902713Y-8753666D01*
X13906746Y-8754142D01*
X13907194Y-8754271D01*
X13907195Y-8754271D01*
X13907618Y-8754392D01*
X13908053Y-8754453D01*
X13908054Y-8754453D01*
X13925077Y-8756846D01*
X13935780Y-8758350D01*
X13957102Y-8758350D01*
X13957320Y-8758335D01*
X13957321Y-8758335D01*
X13963739Y-8757886D01*
X15146278Y-8757886D01*
X15146293Y-8758325D01*
X15146293Y-8758325D01*
X15146796Y-8772742D01*
X15147270Y-8786308D01*
X15152208Y-8814315D01*
X15152344Y-8814732D01*
X15152344Y-8814733D01*
X15153861Y-8819400D01*
X15160997Y-8841362D01*
X15173464Y-8866923D01*
X15173709Y-8867287D01*
X15173709Y-8867288D01*
X15181625Y-8879023D01*
X15189367Y-8890501D01*
X15208396Y-8911635D01*
X15230182Y-8929915D01*
X15254300Y-8944986D01*
X15280280Y-8956553D01*
X15307618Y-8964392D01*
X15308053Y-8964453D01*
X15308054Y-8964453D01*
X15325077Y-8966846D01*
X15335780Y-8968350D01*
X15357102Y-8968350D01*
X15357320Y-8968335D01*
X15357321Y-8968335D01*
X15377931Y-8966894D01*
X15377932Y-8966893D01*
X15378370Y-8966863D01*
X15406188Y-8960950D01*
X15406601Y-8960800D01*
X15406601Y-8960800D01*
X15432497Y-8951374D01*
X15432498Y-8951374D01*
X15432912Y-8951223D01*
X15433301Y-8951016D01*
X15433301Y-8951016D01*
X15457633Y-8938079D01*
X15457634Y-8938078D01*
X15458022Y-8937872D01*
X15458378Y-8937613D01*
X15458379Y-8937613D01*
X15480674Y-8921415D01*
X15480674Y-8921414D01*
X15481030Y-8921156D01*
X15490596Y-8911918D01*
X15501171Y-8901706D01*
X15501171Y-8901705D01*
X15501487Y-8901400D01*
X15510003Y-8890501D01*
X15518725Y-8879337D01*
X15518725Y-8879337D01*
X15518996Y-8878990D01*
X15519004Y-8878995D01*
X15524361Y-8874557D01*
X15531410Y-8873702D01*
X15533650Y-8874291D01*
X15533879Y-8874374D01*
X15534280Y-8874553D01*
X15561618Y-8882392D01*
X15562053Y-8882453D01*
X15562054Y-8882453D01*
X15579077Y-8884846D01*
X15589780Y-8886350D01*
X15611102Y-8886350D01*
X15611320Y-8886335D01*
X15611321Y-8886335D01*
X15631931Y-8884894D01*
X15631932Y-8884893D01*
X15632370Y-8884863D01*
X15660188Y-8878950D01*
X15660601Y-8878800D01*
X15660601Y-8878800D01*
X15686497Y-8869374D01*
X15686498Y-8869374D01*
X15686912Y-8869223D01*
X15687301Y-8869016D01*
X15687301Y-8869016D01*
X15711633Y-8856079D01*
X15711634Y-8856078D01*
X15712022Y-8855872D01*
X15712378Y-8855613D01*
X15712379Y-8855613D01*
X15734674Y-8839415D01*
X15734674Y-8839414D01*
X15735030Y-8839156D01*
X15735347Y-8838850D01*
X15755171Y-8819706D01*
X15755171Y-8819705D01*
X15755487Y-8819400D01*
X15759134Y-8814733D01*
X15772725Y-8797337D01*
X15772996Y-8796990D01*
X15787216Y-8772361D01*
X15789128Y-8767627D01*
X15791590Y-8761534D01*
X15795997Y-8755967D01*
X15802713Y-8753666D01*
X15806746Y-8754142D01*
X15807194Y-8754271D01*
X15807195Y-8754271D01*
X15807618Y-8754392D01*
X15808053Y-8754453D01*
X15808054Y-8754453D01*
X15825077Y-8756846D01*
X15835780Y-8758350D01*
X15857102Y-8758350D01*
X15857320Y-8758335D01*
X15857321Y-8758335D01*
X15863739Y-8757886D01*
X17051278Y-8757886D01*
X17051293Y-8758325D01*
X17051293Y-8758325D01*
X17051796Y-8772742D01*
X17052270Y-8786308D01*
X17057209Y-8814315D01*
X17057344Y-8814732D01*
X17057344Y-8814733D01*
X17058861Y-8819400D01*
X17065997Y-8841362D01*
X17078464Y-8866923D01*
X17078709Y-8867287D01*
X17078710Y-8867288D01*
X17086625Y-8879023D01*
X17094367Y-8890501D01*
X17113396Y-8911635D01*
X17135182Y-8929915D01*
X17159300Y-8944986D01*
X17185280Y-8956553D01*
X17212618Y-8964392D01*
X17213053Y-8964453D01*
X17213054Y-8964453D01*
X17230077Y-8966846D01*
X17240780Y-8968350D01*
X17262102Y-8968350D01*
X17262320Y-8968335D01*
X17262321Y-8968335D01*
X17282932Y-8966894D01*
X17282932Y-8966893D01*
X17283370Y-8966863D01*
X17311188Y-8960950D01*
X17311601Y-8960800D01*
X17311601Y-8960800D01*
X17337497Y-8951374D01*
X17337498Y-8951374D01*
X17337912Y-8951223D01*
X17338301Y-8951016D01*
X17338302Y-8951016D01*
X17362633Y-8938079D01*
X17362634Y-8938078D01*
X17363022Y-8937872D01*
X17363378Y-8937613D01*
X17363379Y-8937613D01*
X17385674Y-8921415D01*
X17385674Y-8921414D01*
X17386030Y-8921156D01*
X17395596Y-8911918D01*
X17406171Y-8901706D01*
X17406171Y-8901705D01*
X17406488Y-8901400D01*
X17415003Y-8890501D01*
X17423725Y-8879337D01*
X17423726Y-8879337D01*
X17423997Y-8878990D01*
X17424004Y-8878995D01*
X17429362Y-8874557D01*
X17436410Y-8873702D01*
X17438650Y-8874291D01*
X17438879Y-8874374D01*
X17439280Y-8874553D01*
X17466618Y-8882392D01*
X17467053Y-8882453D01*
X17467054Y-8882453D01*
X17484077Y-8884846D01*
X17494780Y-8886350D01*
X17516102Y-8886350D01*
X17516320Y-8886335D01*
X17516321Y-8886335D01*
X17536932Y-8884894D01*
X17536932Y-8884893D01*
X17537370Y-8884863D01*
X17565188Y-8878950D01*
X17565601Y-8878800D01*
X17565601Y-8878800D01*
X17591497Y-8869374D01*
X17591498Y-8869374D01*
X17591912Y-8869223D01*
X17592301Y-8869016D01*
X17592302Y-8869016D01*
X17616633Y-8856079D01*
X17616634Y-8856078D01*
X17617022Y-8855872D01*
X17617378Y-8855613D01*
X17617379Y-8855613D01*
X17639674Y-8839415D01*
X17639674Y-8839414D01*
X17640030Y-8839156D01*
X17640347Y-8838850D01*
X17660171Y-8819706D01*
X17660171Y-8819705D01*
X17660488Y-8819400D01*
X17664134Y-8814733D01*
X17677725Y-8797337D01*
X17677997Y-8796990D01*
X17692216Y-8772361D01*
X17694128Y-8767627D01*
X17696590Y-8761534D01*
X17700997Y-8755967D01*
X17707713Y-8753666D01*
X17711746Y-8754142D01*
X17712194Y-8754271D01*
X17712195Y-8754271D01*
X17712618Y-8754392D01*
X17713053Y-8754453D01*
X17713054Y-8754453D01*
X17730077Y-8756846D01*
X17740780Y-8758350D01*
X17762102Y-8758350D01*
X17762320Y-8758335D01*
X17762321Y-8758335D01*
X17782932Y-8756894D01*
X17782932Y-8756893D01*
X17783370Y-8756863D01*
X17811188Y-8750950D01*
X17811601Y-8750800D01*
X17811601Y-8750800D01*
X17837497Y-8741374D01*
X17837498Y-8741374D01*
X17837912Y-8741223D01*
X17838301Y-8741016D01*
X17838302Y-8741016D01*
X17862633Y-8728079D01*
X17862634Y-8728078D01*
X17863022Y-8727872D01*
X17863378Y-8727613D01*
X17863379Y-8727613D01*
X17885674Y-8711415D01*
X17885674Y-8711414D01*
X17886030Y-8711156D01*
X17895925Y-8701600D01*
X17906171Y-8691706D01*
X17906171Y-8691705D01*
X17906488Y-8691400D01*
X17923997Y-8668990D01*
X17938216Y-8644361D01*
X17938381Y-8643952D01*
X17938381Y-8643952D01*
X17947835Y-8620553D01*
X17948870Y-8617992D01*
X17955750Y-8590398D01*
X17956274Y-8585415D01*
X17958677Y-8562551D01*
X17958677Y-8562551D01*
X17958722Y-8562114D01*
X17958707Y-8561675D01*
X17957745Y-8534132D01*
X17957745Y-8534131D01*
X17957730Y-8533692D01*
X17957306Y-8531288D01*
X17952868Y-8506117D01*
X17952792Y-8505685D01*
X17952656Y-8505268D01*
X17952656Y-8505267D01*
X17944139Y-8479057D01*
X17944003Y-8478638D01*
X17943654Y-8477921D01*
X17935653Y-8461518D01*
X17931536Y-8453077D01*
X17931291Y-8452713D01*
X17931291Y-8452712D01*
X17915879Y-8429864D01*
X17915633Y-8429500D01*
X17896604Y-8408365D01*
X17874818Y-8390085D01*
X17850700Y-8375014D01*
X17824720Y-8363447D01*
X17797382Y-8355608D01*
X17796947Y-8355547D01*
X17796946Y-8355547D01*
X17779583Y-8353106D01*
X17769220Y-8351650D01*
X17747898Y-8351650D01*
X17747680Y-8351665D01*
X17747679Y-8351665D01*
X17727069Y-8353106D01*
X17727068Y-8353107D01*
X17726630Y-8353137D01*
X17698812Y-8359050D01*
X17698399Y-8359200D01*
X17698399Y-8359200D01*
X17672503Y-8368626D01*
X17672502Y-8368626D01*
X17672088Y-8368777D01*
X17671699Y-8368984D01*
X17671699Y-8368984D01*
X17647367Y-8381921D01*
X17647366Y-8381922D01*
X17646978Y-8382128D01*
X17646622Y-8382387D01*
X17646621Y-8382387D01*
X17631773Y-8393175D01*
X17623970Y-8398844D01*
X17623654Y-8399150D01*
X17623653Y-8399150D01*
X17603829Y-8418294D01*
X17603829Y-8418295D01*
X17603513Y-8418600D01*
X17603242Y-8418947D01*
X17603242Y-8418947D01*
X17595252Y-8429172D01*
X17586004Y-8441010D01*
X17571784Y-8465640D01*
X17571619Y-8466048D01*
X17567410Y-8476466D01*
X17563003Y-8482033D01*
X17556287Y-8484334D01*
X17552254Y-8483858D01*
X17551806Y-8483729D01*
X17551805Y-8483729D01*
X17551382Y-8483608D01*
X17550947Y-8483547D01*
X17550946Y-8483547D01*
X17533583Y-8481107D01*
X17523220Y-8479650D01*
X17501898Y-8479650D01*
X17501680Y-8479665D01*
X17501679Y-8479665D01*
X17481069Y-8481107D01*
X17481068Y-8481107D01*
X17480630Y-8481137D01*
X17452812Y-8487050D01*
X17452399Y-8487200D01*
X17452399Y-8487201D01*
X17426503Y-8496626D01*
X17426502Y-8496626D01*
X17426088Y-8496777D01*
X17425699Y-8496984D01*
X17425699Y-8496984D01*
X17401367Y-8509921D01*
X17401366Y-8509922D01*
X17400978Y-8510128D01*
X17400622Y-8510387D01*
X17400621Y-8510387D01*
X17378326Y-8526586D01*
X17377970Y-8526844D01*
X17377654Y-8527150D01*
X17377653Y-8527150D01*
X17357829Y-8546294D01*
X17357829Y-8546295D01*
X17357513Y-8546600D01*
X17357242Y-8546947D01*
X17357242Y-8546947D01*
X17342567Y-8565729D01*
X17340004Y-8569010D01*
X17339996Y-8569005D01*
X17334639Y-8573443D01*
X17327590Y-8574298D01*
X17325350Y-8573709D01*
X17325121Y-8573626D01*
X17324720Y-8573447D01*
X17297382Y-8565608D01*
X17296947Y-8565547D01*
X17296946Y-8565547D01*
X17279583Y-8563107D01*
X17269220Y-8561650D01*
X17247898Y-8561650D01*
X17247680Y-8561665D01*
X17247679Y-8561665D01*
X17227069Y-8563107D01*
X17227068Y-8563107D01*
X17226630Y-8563137D01*
X17198812Y-8569050D01*
X17198399Y-8569200D01*
X17198399Y-8569201D01*
X17172503Y-8578626D01*
X17172502Y-8578626D01*
X17172088Y-8578777D01*
X17171699Y-8578984D01*
X17171699Y-8578984D01*
X17147367Y-8591921D01*
X17147366Y-8591922D01*
X17146978Y-8592128D01*
X17146622Y-8592387D01*
X17146621Y-8592387D01*
X17124326Y-8608586D01*
X17123970Y-8608844D01*
X17123654Y-8609150D01*
X17123653Y-8609150D01*
X17103829Y-8628294D01*
X17103829Y-8628295D01*
X17103513Y-8628600D01*
X17103242Y-8628947D01*
X17103242Y-8628947D01*
X17092210Y-8643067D01*
X17086004Y-8651010D01*
X17071784Y-8675640D01*
X17071619Y-8676048D01*
X17071619Y-8676049D01*
X17065293Y-8691706D01*
X17061130Y-8702008D01*
X17054250Y-8729602D01*
X17054204Y-8730039D01*
X17054204Y-8730040D01*
X17051395Y-8756772D01*
X17051278Y-8757886D01*
X15863739Y-8757886D01*
X15877931Y-8756894D01*
X15877932Y-8756893D01*
X15878370Y-8756863D01*
X15906188Y-8750950D01*
X15906601Y-8750800D01*
X15906601Y-8750800D01*
X15932497Y-8741374D01*
X15932498Y-8741374D01*
X15932912Y-8741223D01*
X15933301Y-8741016D01*
X15933301Y-8741016D01*
X15957633Y-8728079D01*
X15957634Y-8728078D01*
X15958022Y-8727872D01*
X15958378Y-8727613D01*
X15958379Y-8727613D01*
X15980674Y-8711415D01*
X15980674Y-8711414D01*
X15981030Y-8711156D01*
X15990925Y-8701600D01*
X16001171Y-8691706D01*
X16001171Y-8691705D01*
X16001487Y-8691400D01*
X16018996Y-8668990D01*
X16033216Y-8644361D01*
X16033381Y-8643952D01*
X16033381Y-8643952D01*
X16042835Y-8620553D01*
X16043870Y-8617992D01*
X16050750Y-8590398D01*
X16051273Y-8585415D01*
X16053676Y-8562551D01*
X16053676Y-8562551D01*
X16053722Y-8562114D01*
X16053707Y-8561675D01*
X16052745Y-8534132D01*
X16052745Y-8534131D01*
X16052730Y-8533692D01*
X16052306Y-8531288D01*
X16047868Y-8506117D01*
X16047791Y-8505685D01*
X16047656Y-8505268D01*
X16047656Y-8505267D01*
X16039139Y-8479057D01*
X16039003Y-8478638D01*
X16038654Y-8477921D01*
X16030653Y-8461518D01*
X16026536Y-8453077D01*
X16026291Y-8452713D01*
X16026290Y-8452712D01*
X16010879Y-8429864D01*
X16010633Y-8429500D01*
X15991604Y-8408365D01*
X15969818Y-8390085D01*
X15945700Y-8375014D01*
X15919720Y-8363447D01*
X15892382Y-8355608D01*
X15891947Y-8355547D01*
X15891946Y-8355547D01*
X15874583Y-8353106D01*
X15864220Y-8351650D01*
X15842898Y-8351650D01*
X15842680Y-8351665D01*
X15842679Y-8351665D01*
X15822068Y-8353106D01*
X15822068Y-8353107D01*
X15821630Y-8353137D01*
X15793812Y-8359050D01*
X15793399Y-8359200D01*
X15793399Y-8359200D01*
X15767503Y-8368626D01*
X15767502Y-8368626D01*
X15767088Y-8368777D01*
X15766699Y-8368984D01*
X15766698Y-8368984D01*
X15742367Y-8381921D01*
X15742366Y-8381922D01*
X15741978Y-8382128D01*
X15741622Y-8382387D01*
X15741621Y-8382387D01*
X15726773Y-8393175D01*
X15718970Y-8398844D01*
X15718653Y-8399150D01*
X15718653Y-8399150D01*
X15698829Y-8418294D01*
X15698829Y-8418295D01*
X15698512Y-8418600D01*
X15698242Y-8418947D01*
X15698242Y-8418947D01*
X15690252Y-8429172D01*
X15681003Y-8441010D01*
X15666784Y-8465640D01*
X15666619Y-8466048D01*
X15662410Y-8476466D01*
X15658003Y-8482033D01*
X15651287Y-8484334D01*
X15647254Y-8483858D01*
X15646806Y-8483729D01*
X15646805Y-8483729D01*
X15646382Y-8483608D01*
X15645947Y-8483547D01*
X15645946Y-8483547D01*
X15628583Y-8481107D01*
X15618220Y-8479650D01*
X15596898Y-8479650D01*
X15596680Y-8479665D01*
X15596679Y-8479665D01*
X15576068Y-8481107D01*
X15576068Y-8481107D01*
X15575630Y-8481137D01*
X15547812Y-8487050D01*
X15547399Y-8487200D01*
X15547399Y-8487201D01*
X15521503Y-8496626D01*
X15521502Y-8496626D01*
X15521088Y-8496777D01*
X15520699Y-8496984D01*
X15520698Y-8496984D01*
X15496367Y-8509921D01*
X15496366Y-8509922D01*
X15495978Y-8510128D01*
X15495622Y-8510387D01*
X15495621Y-8510387D01*
X15473326Y-8526586D01*
X15472970Y-8526844D01*
X15472653Y-8527150D01*
X15472653Y-8527150D01*
X15452829Y-8546294D01*
X15452829Y-8546295D01*
X15452512Y-8546600D01*
X15452242Y-8546947D01*
X15452242Y-8546947D01*
X15437567Y-8565729D01*
X15435003Y-8569010D01*
X15434996Y-8569005D01*
X15429638Y-8573443D01*
X15422590Y-8574298D01*
X15420350Y-8573709D01*
X15420121Y-8573626D01*
X15419720Y-8573447D01*
X15392382Y-8565608D01*
X15391947Y-8565547D01*
X15391946Y-8565547D01*
X15374583Y-8563107D01*
X15364220Y-8561650D01*
X15342898Y-8561650D01*
X15342680Y-8561665D01*
X15342679Y-8561665D01*
X15322068Y-8563107D01*
X15322068Y-8563107D01*
X15321630Y-8563137D01*
X15293812Y-8569050D01*
X15293399Y-8569200D01*
X15293399Y-8569201D01*
X15267503Y-8578626D01*
X15267502Y-8578626D01*
X15267088Y-8578777D01*
X15266699Y-8578984D01*
X15266698Y-8578984D01*
X15242367Y-8591921D01*
X15242366Y-8591922D01*
X15241978Y-8592128D01*
X15241622Y-8592387D01*
X15241621Y-8592387D01*
X15219326Y-8608586D01*
X15218970Y-8608844D01*
X15218653Y-8609150D01*
X15218653Y-8609150D01*
X15198829Y-8628294D01*
X15198829Y-8628295D01*
X15198512Y-8628600D01*
X15198242Y-8628947D01*
X15198242Y-8628947D01*
X15187210Y-8643067D01*
X15181003Y-8651010D01*
X15166784Y-8675640D01*
X15166619Y-8676048D01*
X15166619Y-8676049D01*
X15160293Y-8691706D01*
X15156130Y-8702008D01*
X15149250Y-8729602D01*
X15149204Y-8730039D01*
X15149204Y-8730040D01*
X15146395Y-8756772D01*
X15146278Y-8757886D01*
X13963739Y-8757886D01*
X13977931Y-8756894D01*
X13977932Y-8756893D01*
X13978370Y-8756863D01*
X14006188Y-8750950D01*
X14006601Y-8750800D01*
X14006601Y-8750800D01*
X14032497Y-8741374D01*
X14032498Y-8741374D01*
X14032912Y-8741223D01*
X14033301Y-8741016D01*
X14033301Y-8741016D01*
X14057633Y-8728079D01*
X14057634Y-8728078D01*
X14058022Y-8727872D01*
X14058378Y-8727613D01*
X14058379Y-8727613D01*
X14080674Y-8711415D01*
X14080674Y-8711414D01*
X14081030Y-8711156D01*
X14090925Y-8701600D01*
X14101171Y-8691706D01*
X14101171Y-8691705D01*
X14101487Y-8691400D01*
X14118996Y-8668990D01*
X14133216Y-8644361D01*
X14133381Y-8643952D01*
X14133381Y-8643952D01*
X14142835Y-8620553D01*
X14143870Y-8617992D01*
X14150750Y-8590398D01*
X14151273Y-8585415D01*
X14153676Y-8562551D01*
X14153676Y-8562551D01*
X14153722Y-8562114D01*
X14153707Y-8561675D01*
X14152745Y-8534132D01*
X14152745Y-8534131D01*
X14152730Y-8533692D01*
X14152306Y-8531288D01*
X14147868Y-8506117D01*
X14147791Y-8505685D01*
X14147656Y-8505268D01*
X14147656Y-8505267D01*
X14139139Y-8479057D01*
X14139003Y-8478638D01*
X14138654Y-8477921D01*
X14130653Y-8461518D01*
X14126536Y-8453077D01*
X14126291Y-8452713D01*
X14126290Y-8452712D01*
X14110879Y-8429864D01*
X14110633Y-8429500D01*
X14091604Y-8408365D01*
X14069818Y-8390085D01*
X14045700Y-8375014D01*
X14019720Y-8363447D01*
X13992382Y-8355608D01*
X13991947Y-8355547D01*
X13991946Y-8355547D01*
X13974583Y-8353106D01*
X13964220Y-8351650D01*
X13942898Y-8351650D01*
X13942680Y-8351665D01*
X13942679Y-8351665D01*
X13922068Y-8353106D01*
X13922068Y-8353107D01*
X13921630Y-8353137D01*
X13893812Y-8359050D01*
X13893399Y-8359200D01*
X13893399Y-8359200D01*
X13867503Y-8368626D01*
X13867502Y-8368626D01*
X13867088Y-8368777D01*
X13866699Y-8368984D01*
X13866698Y-8368984D01*
X13842367Y-8381921D01*
X13842366Y-8381922D01*
X13841978Y-8382128D01*
X13841622Y-8382387D01*
X13841621Y-8382387D01*
X13826773Y-8393175D01*
X13818970Y-8398844D01*
X13818653Y-8399150D01*
X13818653Y-8399150D01*
X13798829Y-8418294D01*
X13798829Y-8418295D01*
X13798512Y-8418600D01*
X13798242Y-8418947D01*
X13798242Y-8418947D01*
X13790252Y-8429172D01*
X13781003Y-8441010D01*
X13766784Y-8465640D01*
X13766619Y-8466048D01*
X13762410Y-8476466D01*
X13758003Y-8482033D01*
X13751287Y-8484334D01*
X13747254Y-8483858D01*
X13746806Y-8483729D01*
X13746805Y-8483729D01*
X13746382Y-8483608D01*
X13745947Y-8483547D01*
X13745946Y-8483547D01*
X13728583Y-8481107D01*
X13718220Y-8479650D01*
X13696898Y-8479650D01*
X13696680Y-8479665D01*
X13696679Y-8479665D01*
X13676068Y-8481107D01*
X13676068Y-8481107D01*
X13675630Y-8481137D01*
X13647812Y-8487050D01*
X13647399Y-8487200D01*
X13647399Y-8487201D01*
X13621503Y-8496626D01*
X13621502Y-8496626D01*
X13621088Y-8496777D01*
X13620699Y-8496984D01*
X13620698Y-8496984D01*
X13596367Y-8509921D01*
X13596366Y-8509922D01*
X13595978Y-8510128D01*
X13595622Y-8510387D01*
X13595621Y-8510387D01*
X13573326Y-8526586D01*
X13572970Y-8526844D01*
X13572653Y-8527150D01*
X13572653Y-8527150D01*
X13552829Y-8546294D01*
X13552829Y-8546295D01*
X13552512Y-8546600D01*
X13552242Y-8546947D01*
X13552242Y-8546947D01*
X13537567Y-8565729D01*
X13535003Y-8569010D01*
X13534996Y-8569005D01*
X13529638Y-8573443D01*
X13522590Y-8574298D01*
X13520350Y-8573709D01*
X13520121Y-8573626D01*
X13519720Y-8573447D01*
X13492382Y-8565608D01*
X13491947Y-8565547D01*
X13491946Y-8565547D01*
X13474583Y-8563107D01*
X13464220Y-8561650D01*
X13442898Y-8561650D01*
X13442680Y-8561665D01*
X13442679Y-8561665D01*
X13422068Y-8563107D01*
X13422068Y-8563107D01*
X13421630Y-8563137D01*
X13393812Y-8569050D01*
X13393399Y-8569200D01*
X13393399Y-8569201D01*
X13367503Y-8578626D01*
X13367502Y-8578626D01*
X13367088Y-8578777D01*
X13366699Y-8578984D01*
X13366698Y-8578984D01*
X13342367Y-8591921D01*
X13342366Y-8591922D01*
X13341978Y-8592128D01*
X13341622Y-8592387D01*
X13341621Y-8592387D01*
X13319326Y-8608586D01*
X13318970Y-8608844D01*
X13318653Y-8609150D01*
X13318653Y-8609150D01*
X13298829Y-8628294D01*
X13298829Y-8628295D01*
X13298512Y-8628600D01*
X13298242Y-8628947D01*
X13298242Y-8628947D01*
X13287210Y-8643067D01*
X13281003Y-8651010D01*
X13266784Y-8675640D01*
X13266619Y-8676048D01*
X13266619Y-8676049D01*
X13260293Y-8691706D01*
X13256130Y-8702008D01*
X13249250Y-8729602D01*
X13249204Y-8730039D01*
X13249204Y-8730040D01*
X13246395Y-8756772D01*
X13246278Y-8757886D01*
X11800850Y-8757886D01*
X11800850Y-8185209D01*
X12754007Y-8185209D01*
X12757634Y-8208916D01*
X12765085Y-8231713D01*
X12776160Y-8252986D01*
X12776470Y-8253400D01*
X12776470Y-8253400D01*
X12790249Y-8271752D01*
X12790560Y-8272165D01*
X12807899Y-8288735D01*
X12827712Y-8302250D01*
X12849466Y-8312348D01*
X12867119Y-8317244D01*
X12872079Y-8318620D01*
X12872577Y-8318758D01*
X12877116Y-8319243D01*
X12883677Y-8321955D01*
X12887730Y-8327785D01*
X12887988Y-8334880D01*
X12886689Y-8338071D01*
X12886005Y-8339257D01*
X12885784Y-8339639D01*
X12885619Y-8340048D01*
X12885619Y-8340048D01*
X12877978Y-8358959D01*
X12875130Y-8366008D01*
X12868250Y-8393602D01*
X12868204Y-8394039D01*
X12868204Y-8394040D01*
X12865586Y-8418947D01*
X12865278Y-8421886D01*
X12865293Y-8422325D01*
X12865293Y-8422325D01*
X12865959Y-8441392D01*
X12866270Y-8450308D01*
X12866346Y-8450740D01*
X12866346Y-8450741D01*
X12866758Y-8453077D01*
X12871208Y-8478315D01*
X12871344Y-8478732D01*
X12871344Y-8478733D01*
X12877158Y-8496626D01*
X12879997Y-8505362D01*
X12892464Y-8530923D01*
X12892709Y-8531287D01*
X12892709Y-8531288D01*
X12894331Y-8533692D01*
X12908367Y-8554501D01*
X12927396Y-8575635D01*
X12949182Y-8593915D01*
X12973300Y-8608986D01*
X12999280Y-8620553D01*
X13026618Y-8628392D01*
X13027053Y-8628453D01*
X13027054Y-8628453D01*
X13044077Y-8630846D01*
X13054780Y-8632350D01*
X13076102Y-8632350D01*
X13076320Y-8632335D01*
X13076321Y-8632335D01*
X13096931Y-8630894D01*
X13096932Y-8630893D01*
X13097370Y-8630863D01*
X13125188Y-8624950D01*
X13125601Y-8624800D01*
X13125601Y-8624800D01*
X13151497Y-8615374D01*
X13151498Y-8615374D01*
X13151912Y-8615223D01*
X13152301Y-8615016D01*
X13152301Y-8615016D01*
X13176633Y-8602079D01*
X13176634Y-8602078D01*
X13177022Y-8601872D01*
X13177378Y-8601613D01*
X13177379Y-8601613D01*
X13199674Y-8585415D01*
X13199674Y-8585414D01*
X13200030Y-8585156D01*
X13200347Y-8584850D01*
X13220171Y-8565706D01*
X13220171Y-8565705D01*
X13220487Y-8565400D01*
X13223055Y-8562114D01*
X13237725Y-8543337D01*
X13237996Y-8542990D01*
X13243110Y-8534132D01*
X13251996Y-8518743D01*
X13251996Y-8518742D01*
X13252216Y-8518361D01*
X13252381Y-8517952D01*
X13252381Y-8517952D01*
X13262705Y-8492400D01*
X13262870Y-8491992D01*
X13264125Y-8486959D01*
X13269338Y-8466048D01*
X13269750Y-8464398D01*
X13270063Y-8461417D01*
X13271987Y-8443109D01*
X13274688Y-8436544D01*
X13280511Y-8432481D01*
X13287605Y-8432211D01*
X13291518Y-8433950D01*
X13295787Y-8436802D01*
X13296105Y-8436966D01*
X13296105Y-8436966D01*
X13326097Y-8452413D01*
X13326097Y-8452413D01*
X13326415Y-8452577D01*
X13326749Y-8452703D01*
X13326749Y-8452704D01*
X13326772Y-8452712D01*
X13358632Y-8464783D01*
X13358978Y-8464871D01*
X13358979Y-8464871D01*
X13391677Y-8473175D01*
X13391678Y-8473175D01*
X13392023Y-8473263D01*
X13408775Y-8475543D01*
X13425861Y-8477868D01*
X13425862Y-8477868D01*
X13426161Y-8477909D01*
X13437389Y-8478350D01*
X13458726Y-8478350D01*
X13472610Y-8477562D01*
X13484039Y-8476913D01*
X13484040Y-8476913D01*
X13484396Y-8476892D01*
X13492811Y-8475446D01*
X13517999Y-8471119D01*
X13517999Y-8471118D01*
X13518350Y-8471058D01*
X13518693Y-8470958D01*
X13518693Y-8470958D01*
X13551082Y-8461518D01*
X13551426Y-8461417D01*
X13571316Y-8453077D01*
X13582867Y-8448233D01*
X13583197Y-8448095D01*
X13599003Y-8439243D01*
X13612943Y-8431436D01*
X13612944Y-8431436D01*
X13613256Y-8431261D01*
X13613547Y-8431052D01*
X13613547Y-8431051D01*
X13640925Y-8411342D01*
X13641216Y-8411132D01*
X13641481Y-8410892D01*
X13641482Y-8410891D01*
X13666453Y-8388209D01*
X13666454Y-8388208D01*
X13666718Y-8387968D01*
X13685602Y-8366435D01*
X13689198Y-8362334D01*
X13689198Y-8362334D01*
X13689433Y-8362066D01*
X13709071Y-8333759D01*
X13716007Y-8320850D01*
X13725208Y-8303726D01*
X13725377Y-8303411D01*
X13738144Y-8271412D01*
X13743054Y-8253400D01*
X13747112Y-8238518D01*
X13747112Y-8238518D01*
X13747206Y-8238173D01*
X13748505Y-8229729D01*
X13750711Y-8215397D01*
X13752447Y-8204122D01*
X13753050Y-8188773D01*
X13753785Y-8170054D01*
X13753785Y-8170054D01*
X13753799Y-8169697D01*
X13753707Y-8168459D01*
X13819304Y-8168459D01*
X13820185Y-8191922D01*
X13820294Y-8192443D01*
X13824881Y-8214304D01*
X13825006Y-8214900D01*
X13833630Y-8236738D01*
X13833907Y-8237194D01*
X13845037Y-8255536D01*
X13845810Y-8256810D01*
X13861198Y-8274543D01*
X13861612Y-8274882D01*
X13878942Y-8289092D01*
X13878942Y-8289092D01*
X13879354Y-8289430D01*
X13879818Y-8289694D01*
X13879818Y-8289694D01*
X13896917Y-8299427D01*
X13899759Y-8301045D01*
X13921829Y-8309056D01*
X13922354Y-8309151D01*
X13922354Y-8309151D01*
X13930461Y-8310617D01*
X13944933Y-8313234D01*
X13945347Y-8313253D01*
X13945348Y-8313254D01*
X13947244Y-8313343D01*
X13947245Y-8313343D01*
X13947393Y-8313350D01*
X13951362Y-8313350D01*
X13954729Y-8313808D01*
X13969936Y-8318025D01*
X13972577Y-8318758D01*
X13982948Y-8319866D01*
X13991822Y-8320814D01*
X13991823Y-8320814D01*
X13992156Y-8320850D01*
X14006080Y-8320850D01*
X14006338Y-8320829D01*
X14006339Y-8320829D01*
X14023388Y-8319427D01*
X14023388Y-8319427D01*
X14023903Y-8319385D01*
X14035533Y-8316463D01*
X14046662Y-8313668D01*
X14046663Y-8313668D01*
X14047164Y-8313542D01*
X14047637Y-8313336D01*
X14047637Y-8313336D01*
X14068684Y-8304185D01*
X14068684Y-8304184D01*
X14069158Y-8303979D01*
X14069591Y-8303698D01*
X14069592Y-8303698D01*
X14088860Y-8291232D01*
X14088861Y-8291232D01*
X14089295Y-8290951D01*
X14091410Y-8289027D01*
X14106651Y-8275158D01*
X14106651Y-8275158D01*
X14107033Y-8274810D01*
X14107353Y-8274405D01*
X14107354Y-8274405D01*
X14120931Y-8257213D01*
X14121898Y-8255989D01*
X14133489Y-8234992D01*
X14141494Y-8212384D01*
X14141942Y-8209872D01*
X14145610Y-8189282D01*
X14145610Y-8189281D01*
X14145700Y-8188773D01*
X14145744Y-8185209D01*
X14654007Y-8185209D01*
X14657634Y-8208916D01*
X14665085Y-8231713D01*
X14676160Y-8252986D01*
X14676470Y-8253400D01*
X14676470Y-8253400D01*
X14690249Y-8271752D01*
X14690560Y-8272165D01*
X14707899Y-8288735D01*
X14727712Y-8302250D01*
X14749466Y-8312348D01*
X14767119Y-8317244D01*
X14772079Y-8318620D01*
X14772577Y-8318758D01*
X14777116Y-8319243D01*
X14783677Y-8321955D01*
X14787730Y-8327785D01*
X14787988Y-8334880D01*
X14786689Y-8338071D01*
X14786005Y-8339257D01*
X14785784Y-8339639D01*
X14785619Y-8340048D01*
X14785619Y-8340048D01*
X14777978Y-8358959D01*
X14775130Y-8366008D01*
X14768250Y-8393602D01*
X14768204Y-8394039D01*
X14768204Y-8394040D01*
X14765586Y-8418947D01*
X14765278Y-8421886D01*
X14765293Y-8422325D01*
X14765293Y-8422325D01*
X14765959Y-8441392D01*
X14766270Y-8450308D01*
X14766346Y-8450740D01*
X14766346Y-8450741D01*
X14766758Y-8453077D01*
X14771208Y-8478315D01*
X14771344Y-8478732D01*
X14771344Y-8478733D01*
X14777158Y-8496626D01*
X14779997Y-8505362D01*
X14792464Y-8530923D01*
X14792709Y-8531287D01*
X14792709Y-8531288D01*
X14794331Y-8533692D01*
X14808367Y-8554501D01*
X14827396Y-8575635D01*
X14849182Y-8593915D01*
X14873300Y-8608986D01*
X14899280Y-8620553D01*
X14926618Y-8628392D01*
X14927053Y-8628453D01*
X14927054Y-8628453D01*
X14944077Y-8630846D01*
X14954780Y-8632350D01*
X14976102Y-8632350D01*
X14976320Y-8632335D01*
X14976321Y-8632335D01*
X14996931Y-8630894D01*
X14996932Y-8630893D01*
X14997370Y-8630863D01*
X15025188Y-8624950D01*
X15025601Y-8624800D01*
X15025601Y-8624800D01*
X15051497Y-8615374D01*
X15051498Y-8615374D01*
X15051912Y-8615223D01*
X15052301Y-8615016D01*
X15052301Y-8615016D01*
X15076633Y-8602079D01*
X15076634Y-8602078D01*
X15077022Y-8601872D01*
X15077378Y-8601613D01*
X15077379Y-8601613D01*
X15099674Y-8585415D01*
X15099674Y-8585414D01*
X15100030Y-8585156D01*
X15100347Y-8584850D01*
X15120171Y-8565706D01*
X15120171Y-8565705D01*
X15120487Y-8565400D01*
X15123055Y-8562114D01*
X15137725Y-8543337D01*
X15137996Y-8542990D01*
X15143110Y-8534132D01*
X15151996Y-8518743D01*
X15151996Y-8518742D01*
X15152216Y-8518361D01*
X15152381Y-8517952D01*
X15152381Y-8517952D01*
X15162705Y-8492400D01*
X15162870Y-8491992D01*
X15164125Y-8486959D01*
X15169338Y-8466048D01*
X15169750Y-8464398D01*
X15170063Y-8461417D01*
X15171987Y-8443109D01*
X15174688Y-8436544D01*
X15180511Y-8432481D01*
X15187605Y-8432211D01*
X15191518Y-8433950D01*
X15195787Y-8436802D01*
X15196105Y-8436966D01*
X15196105Y-8436966D01*
X15226097Y-8452413D01*
X15226097Y-8452413D01*
X15226415Y-8452577D01*
X15226749Y-8452703D01*
X15226749Y-8452704D01*
X15226772Y-8452712D01*
X15258632Y-8464783D01*
X15258978Y-8464871D01*
X15258979Y-8464871D01*
X15291677Y-8473175D01*
X15291678Y-8473175D01*
X15292023Y-8473263D01*
X15308775Y-8475543D01*
X15325861Y-8477868D01*
X15325862Y-8477868D01*
X15326161Y-8477909D01*
X15337389Y-8478350D01*
X15358726Y-8478350D01*
X15372610Y-8477562D01*
X15384039Y-8476913D01*
X15384040Y-8476913D01*
X15384396Y-8476892D01*
X15392811Y-8475446D01*
X15417999Y-8471119D01*
X15417999Y-8471118D01*
X15418350Y-8471058D01*
X15418693Y-8470958D01*
X15418693Y-8470958D01*
X15451082Y-8461518D01*
X15451426Y-8461417D01*
X15471316Y-8453077D01*
X15482867Y-8448233D01*
X15483197Y-8448095D01*
X15499003Y-8439243D01*
X15512943Y-8431436D01*
X15512944Y-8431436D01*
X15513256Y-8431261D01*
X15513547Y-8431052D01*
X15513547Y-8431051D01*
X15540925Y-8411342D01*
X15541216Y-8411132D01*
X15541481Y-8410892D01*
X15541482Y-8410891D01*
X15566453Y-8388209D01*
X15566454Y-8388208D01*
X15566718Y-8387968D01*
X15585602Y-8366435D01*
X15589198Y-8362334D01*
X15589198Y-8362334D01*
X15589433Y-8362066D01*
X15609071Y-8333759D01*
X15616007Y-8320850D01*
X15625208Y-8303726D01*
X15625377Y-8303411D01*
X15638144Y-8271412D01*
X15643054Y-8253400D01*
X15647112Y-8238518D01*
X15647112Y-8238518D01*
X15647206Y-8238173D01*
X15648505Y-8229729D01*
X15650711Y-8215397D01*
X15652447Y-8204122D01*
X15653050Y-8188773D01*
X15653785Y-8170054D01*
X15653785Y-8170054D01*
X15653799Y-8169697D01*
X15653707Y-8168459D01*
X15719304Y-8168459D01*
X15720185Y-8191922D01*
X15720294Y-8192443D01*
X15724881Y-8214304D01*
X15725006Y-8214900D01*
X15733630Y-8236738D01*
X15733907Y-8237194D01*
X15745037Y-8255536D01*
X15745810Y-8256810D01*
X15761198Y-8274543D01*
X15761612Y-8274882D01*
X15778942Y-8289092D01*
X15778942Y-8289092D01*
X15779354Y-8289430D01*
X15779818Y-8289694D01*
X15779818Y-8289694D01*
X15796917Y-8299427D01*
X15799759Y-8301045D01*
X15821829Y-8309056D01*
X15822354Y-8309151D01*
X15822354Y-8309151D01*
X15830461Y-8310617D01*
X15844933Y-8313234D01*
X15845347Y-8313253D01*
X15845348Y-8313254D01*
X15847244Y-8313343D01*
X15847245Y-8313343D01*
X15847393Y-8313350D01*
X15851362Y-8313350D01*
X15854729Y-8313808D01*
X15869936Y-8318025D01*
X15872577Y-8318758D01*
X15882948Y-8319866D01*
X15891822Y-8320814D01*
X15891823Y-8320814D01*
X15892156Y-8320850D01*
X15906080Y-8320850D01*
X15906338Y-8320829D01*
X15906339Y-8320829D01*
X15923388Y-8319427D01*
X15923388Y-8319427D01*
X15923903Y-8319385D01*
X15935533Y-8316463D01*
X15946662Y-8313668D01*
X15946663Y-8313668D01*
X15947164Y-8313542D01*
X15947637Y-8313336D01*
X15947637Y-8313336D01*
X15968684Y-8304185D01*
X15968684Y-8304184D01*
X15969158Y-8303979D01*
X15969591Y-8303698D01*
X15969592Y-8303698D01*
X15988860Y-8291232D01*
X15988861Y-8291232D01*
X15989295Y-8290951D01*
X15991410Y-8289027D01*
X16006651Y-8275158D01*
X16006651Y-8275158D01*
X16007033Y-8274810D01*
X16007353Y-8274405D01*
X16007354Y-8274405D01*
X16020931Y-8257213D01*
X16021898Y-8255989D01*
X16033489Y-8234992D01*
X16041494Y-8212384D01*
X16041942Y-8209872D01*
X16045610Y-8189282D01*
X16045610Y-8189281D01*
X16045700Y-8188773D01*
X16045744Y-8185209D01*
X16559007Y-8185209D01*
X16562634Y-8208916D01*
X16570085Y-8231713D01*
X16581160Y-8252986D01*
X16581470Y-8253400D01*
X16581470Y-8253400D01*
X16595249Y-8271752D01*
X16595560Y-8272165D01*
X16612899Y-8288735D01*
X16632712Y-8302250D01*
X16654466Y-8312348D01*
X16672119Y-8317244D01*
X16677079Y-8318620D01*
X16677577Y-8318758D01*
X16682116Y-8319243D01*
X16688677Y-8321955D01*
X16692730Y-8327785D01*
X16692988Y-8334880D01*
X16691689Y-8338071D01*
X16691005Y-8339257D01*
X16690784Y-8339639D01*
X16690619Y-8340048D01*
X16690619Y-8340048D01*
X16682978Y-8358959D01*
X16680130Y-8366008D01*
X16673250Y-8393602D01*
X16673204Y-8394039D01*
X16673204Y-8394040D01*
X16670586Y-8418947D01*
X16670278Y-8421886D01*
X16670293Y-8422325D01*
X16670293Y-8422325D01*
X16670959Y-8441392D01*
X16671270Y-8450308D01*
X16671346Y-8450740D01*
X16671346Y-8450741D01*
X16671758Y-8453077D01*
X16676208Y-8478315D01*
X16676344Y-8478732D01*
X16676344Y-8478733D01*
X16682158Y-8496626D01*
X16684997Y-8505362D01*
X16697464Y-8530923D01*
X16697709Y-8531287D01*
X16697709Y-8531288D01*
X16699331Y-8533692D01*
X16713367Y-8554501D01*
X16732396Y-8575635D01*
X16754182Y-8593915D01*
X16778300Y-8608986D01*
X16804280Y-8620553D01*
X16831618Y-8628392D01*
X16832053Y-8628453D01*
X16832054Y-8628453D01*
X16849077Y-8630846D01*
X16859780Y-8632350D01*
X16881102Y-8632350D01*
X16881320Y-8632335D01*
X16881321Y-8632335D01*
X16901932Y-8630894D01*
X16901932Y-8630893D01*
X16902370Y-8630863D01*
X16930188Y-8624950D01*
X16930601Y-8624800D01*
X16930601Y-8624800D01*
X16956497Y-8615374D01*
X16956498Y-8615374D01*
X16956912Y-8615223D01*
X16957301Y-8615016D01*
X16957302Y-8615016D01*
X16981633Y-8602079D01*
X16981634Y-8602078D01*
X16982022Y-8601872D01*
X16982378Y-8601613D01*
X16982379Y-8601613D01*
X17004674Y-8585415D01*
X17004674Y-8585414D01*
X17005030Y-8585156D01*
X17005347Y-8584850D01*
X17025171Y-8565706D01*
X17025171Y-8565705D01*
X17025488Y-8565400D01*
X17028055Y-8562114D01*
X17042725Y-8543337D01*
X17042997Y-8542990D01*
X17048111Y-8534132D01*
X17056996Y-8518743D01*
X17056996Y-8518742D01*
X17057216Y-8518361D01*
X17057381Y-8517952D01*
X17057381Y-8517952D01*
X17067705Y-8492400D01*
X17067870Y-8491992D01*
X17069125Y-8486959D01*
X17074338Y-8466048D01*
X17074750Y-8464398D01*
X17075063Y-8461417D01*
X17076987Y-8443109D01*
X17079689Y-8436544D01*
X17085511Y-8432481D01*
X17092605Y-8432211D01*
X17096518Y-8433950D01*
X17100787Y-8436802D01*
X17101105Y-8436966D01*
X17101105Y-8436966D01*
X17131097Y-8452413D01*
X17131097Y-8452413D01*
X17131415Y-8452577D01*
X17131749Y-8452703D01*
X17131750Y-8452704D01*
X17131773Y-8452712D01*
X17163632Y-8464783D01*
X17163978Y-8464871D01*
X17163979Y-8464871D01*
X17196677Y-8473175D01*
X17196678Y-8473175D01*
X17197024Y-8473263D01*
X17213775Y-8475543D01*
X17230861Y-8477868D01*
X17230862Y-8477868D01*
X17231161Y-8477909D01*
X17242389Y-8478350D01*
X17263726Y-8478350D01*
X17277611Y-8477562D01*
X17289040Y-8476913D01*
X17289040Y-8476913D01*
X17289396Y-8476892D01*
X17297812Y-8475446D01*
X17322999Y-8471119D01*
X17323000Y-8471118D01*
X17323350Y-8471058D01*
X17323693Y-8470958D01*
X17323693Y-8470958D01*
X17356082Y-8461518D01*
X17356426Y-8461417D01*
X17376316Y-8453077D01*
X17387867Y-8448233D01*
X17388197Y-8448095D01*
X17404003Y-8439243D01*
X17417944Y-8431436D01*
X17417944Y-8431436D01*
X17418256Y-8431261D01*
X17418547Y-8431052D01*
X17418548Y-8431051D01*
X17445925Y-8411342D01*
X17446216Y-8411132D01*
X17446481Y-8410892D01*
X17446482Y-8410891D01*
X17471453Y-8388209D01*
X17471454Y-8388208D01*
X17471718Y-8387968D01*
X17490602Y-8366435D01*
X17494198Y-8362334D01*
X17494199Y-8362334D01*
X17494434Y-8362066D01*
X17514071Y-8333759D01*
X17521007Y-8320850D01*
X17530208Y-8303726D01*
X17530378Y-8303411D01*
X17543144Y-8271412D01*
X17548054Y-8253400D01*
X17552112Y-8238518D01*
X17552112Y-8238518D01*
X17552206Y-8238173D01*
X17553505Y-8229729D01*
X17555711Y-8215397D01*
X17557447Y-8204122D01*
X17558050Y-8188773D01*
X17558785Y-8170054D01*
X17558785Y-8170054D01*
X17558799Y-8169697D01*
X17558707Y-8168459D01*
X17624304Y-8168459D01*
X17625185Y-8191922D01*
X17625294Y-8192443D01*
X17629881Y-8214304D01*
X17630006Y-8214900D01*
X17638630Y-8236738D01*
X17638907Y-8237194D01*
X17650037Y-8255536D01*
X17650810Y-8256810D01*
X17666199Y-8274543D01*
X17666612Y-8274882D01*
X17683942Y-8289092D01*
X17683942Y-8289092D01*
X17684354Y-8289430D01*
X17684818Y-8289694D01*
X17684818Y-8289694D01*
X17701917Y-8299427D01*
X17704759Y-8301045D01*
X17726829Y-8309056D01*
X17727354Y-8309151D01*
X17727354Y-8309151D01*
X17735462Y-8310617D01*
X17749933Y-8313234D01*
X17750347Y-8313253D01*
X17750348Y-8313254D01*
X17752244Y-8313343D01*
X17752245Y-8313343D01*
X17752393Y-8313350D01*
X17756362Y-8313350D01*
X17759729Y-8313808D01*
X17774936Y-8318025D01*
X17777577Y-8318758D01*
X17787948Y-8319866D01*
X17796822Y-8320814D01*
X17796823Y-8320814D01*
X17797156Y-8320850D01*
X17811080Y-8320850D01*
X17811338Y-8320829D01*
X17811339Y-8320829D01*
X17828388Y-8319427D01*
X17828388Y-8319427D01*
X17828903Y-8319385D01*
X17840533Y-8316463D01*
X17851663Y-8313668D01*
X17851663Y-8313668D01*
X17852164Y-8313542D01*
X17852637Y-8313336D01*
X17852637Y-8313336D01*
X17873684Y-8304185D01*
X17873684Y-8304184D01*
X17874158Y-8303979D01*
X17874591Y-8303698D01*
X17874592Y-8303698D01*
X17893860Y-8291232D01*
X17893861Y-8291232D01*
X17894295Y-8290951D01*
X17896410Y-8289027D01*
X17911651Y-8275158D01*
X17911651Y-8275158D01*
X17912034Y-8274810D01*
X17912353Y-8274405D01*
X17912354Y-8274405D01*
X17925931Y-8257213D01*
X17926898Y-8255989D01*
X17938489Y-8234992D01*
X17946495Y-8212384D01*
X17946942Y-8209872D01*
X17950610Y-8189282D01*
X17950610Y-8189281D01*
X17950700Y-8188773D01*
X17950949Y-8168459D01*
X17950987Y-8165308D01*
X17950987Y-8165308D01*
X17950993Y-8164791D01*
X17947366Y-8141084D01*
X17939915Y-8118287D01*
X17931172Y-8101493D01*
X17929079Y-8097472D01*
X17929079Y-8097472D01*
X17928840Y-8097014D01*
X17926586Y-8094011D01*
X17914751Y-8078248D01*
X17914751Y-8078248D01*
X17914440Y-8077834D01*
X17897101Y-8061265D01*
X17877288Y-8047749D01*
X17862422Y-8040849D01*
X17856003Y-8037869D01*
X17856003Y-8037869D01*
X17855534Y-8037652D01*
X17837881Y-8032756D01*
X17832921Y-8031380D01*
X17832920Y-8031380D01*
X17832423Y-8031242D01*
X17822052Y-8030134D01*
X17813178Y-8029186D01*
X17813177Y-8029186D01*
X17812844Y-8029150D01*
X17798920Y-8029150D01*
X17798662Y-8029171D01*
X17798661Y-8029171D01*
X17781612Y-8030573D01*
X17781612Y-8030573D01*
X17781097Y-8030615D01*
X17761016Y-8035659D01*
X17758044Y-8036406D01*
X17756040Y-8036740D01*
X17740136Y-8038090D01*
X17740136Y-8038090D01*
X17739605Y-8038135D01*
X17739090Y-8038269D01*
X17739089Y-8038269D01*
X17721318Y-8042881D01*
X17716879Y-8044033D01*
X17716393Y-8044252D01*
X17716393Y-8044253D01*
X17695958Y-8053458D01*
X17695958Y-8053458D01*
X17695472Y-8053677D01*
X17675996Y-8066789D01*
X17675610Y-8067157D01*
X17675610Y-8067157D01*
X17674107Y-8068591D01*
X17659007Y-8082995D01*
X17644992Y-8101832D01*
X17644751Y-8102307D01*
X17644750Y-8102308D01*
X17638293Y-8115008D01*
X17634351Y-8122761D01*
X17627389Y-8145184D01*
X17627319Y-8145713D01*
X17625263Y-8161227D01*
X17624304Y-8168459D01*
X17558707Y-8168459D01*
X17556978Y-8145184D01*
X17556273Y-8135696D01*
X17556273Y-8135696D01*
X17556246Y-8135340D01*
X17556106Y-8134603D01*
X17549887Y-8101845D01*
X17549820Y-8101493D01*
X17548301Y-8096600D01*
X17539710Y-8068934D01*
X17539604Y-8068591D01*
X17538973Y-8067157D01*
X17525873Y-8037385D01*
X17525873Y-8037385D01*
X17525728Y-8037057D01*
X17508373Y-8007296D01*
X17487759Y-7979692D01*
X17487515Y-7979432D01*
X17487514Y-7979431D01*
X17464398Y-7954859D01*
X17464398Y-7954858D01*
X17464153Y-7954598D01*
X17452523Y-7944752D01*
X17438131Y-7932569D01*
X17438131Y-7932568D01*
X17437859Y-7932338D01*
X17428146Y-7925848D01*
X17425980Y-7924401D01*
X17421427Y-7918953D01*
X17420542Y-7911909D01*
X17423606Y-7905504D01*
X17427248Y-7902704D01*
X17433456Y-7899533D01*
X17433456Y-7899533D01*
X17433966Y-7899272D01*
X17448571Y-7888070D01*
X17460906Y-7874410D01*
X17470565Y-7858743D01*
X17477228Y-7841585D01*
X17480675Y-7823505D01*
X17480792Y-7805100D01*
X17479746Y-7799201D01*
X17477677Y-7787543D01*
X17477676Y-7787542D01*
X17477576Y-7786978D01*
X17477375Y-7786439D01*
X17472720Y-7773986D01*
X17472421Y-7773081D01*
X17472036Y-7771755D01*
X17471767Y-7770825D01*
X17471638Y-7770549D01*
X17470969Y-7767864D01*
X17470955Y-7767756D01*
X17470850Y-7766132D01*
X17470850Y-7634654D01*
X17471000Y-7632715D01*
X17471360Y-7630406D01*
X17472007Y-7627934D01*
X17472558Y-7626460D01*
X17477580Y-7613023D01*
X17477681Y-7612457D01*
X17480696Y-7595465D01*
X17480696Y-7595465D01*
X17480797Y-7594900D01*
X17480679Y-7576494D01*
X17477232Y-7558413D01*
X17470569Y-7541255D01*
X17470268Y-7540767D01*
X17470267Y-7540767D01*
X17461210Y-7526076D01*
X17461210Y-7526075D01*
X17460909Y-7525587D01*
X17449611Y-7513076D01*
X17448958Y-7512352D01*
X17448573Y-7511927D01*
X17436654Y-7502784D01*
X17434423Y-7501073D01*
X17434423Y-7501073D01*
X17433968Y-7500724D01*
X17417577Y-7492351D01*
X17410269Y-7490169D01*
X17400491Y-7487248D01*
X17400490Y-7487248D01*
X17399940Y-7487084D01*
X17393785Y-7486415D01*
X17382212Y-7485158D01*
X17382211Y-7485158D01*
X17381642Y-7485096D01*
X17372464Y-7485775D01*
X17363857Y-7486411D01*
X17363857Y-7486411D01*
X17363286Y-7486453D01*
X17360247Y-7487248D01*
X17346034Y-7490966D01*
X17346034Y-7490966D01*
X17345478Y-7491111D01*
X17344959Y-7491354D01*
X17344959Y-7491354D01*
X17344147Y-7491734D01*
X17332915Y-7496993D01*
X17332041Y-7497363D01*
X17329842Y-7498196D01*
X17329842Y-7498196D01*
X17329804Y-7498096D01*
X17325086Y-7499150D01*
X17175489Y-7499150D01*
X17173551Y-7499000D01*
X17172049Y-7498766D01*
X17168644Y-7497727D01*
X17155040Y-7491359D01*
X17155040Y-7491358D01*
X17154520Y-7491115D01*
X17153966Y-7490970D01*
X17153966Y-7490970D01*
X17139752Y-7487252D01*
X17136714Y-7486457D01*
X17136143Y-7486415D01*
X17136142Y-7486415D01*
X17126066Y-7485670D01*
X17118359Y-7485100D01*
X17117789Y-7485162D01*
X17117789Y-7485162D01*
X17106292Y-7486411D01*
X17100061Y-7487088D01*
X17099511Y-7487252D01*
X17099510Y-7487252D01*
X17089750Y-7490168D01*
X17082425Y-7492355D01*
X17081914Y-7492616D01*
X17066545Y-7500467D01*
X17066544Y-7500467D01*
X17066034Y-7500728D01*
X17051430Y-7511930D01*
X17051046Y-7512355D01*
X17051046Y-7512355D01*
X17049270Y-7514321D01*
X17039094Y-7525590D01*
X17038793Y-7526078D01*
X17038793Y-7526078D01*
X17029736Y-7540769D01*
X17029736Y-7540769D01*
X17029435Y-7541257D01*
X17022772Y-7558414D01*
X17019325Y-7576494D01*
X17019208Y-7594899D01*
X17019308Y-7595464D01*
X17019308Y-7595465D01*
X17020146Y-7600186D01*
X17022424Y-7613022D01*
X17023030Y-7614643D01*
X17027279Y-7626013D01*
X17027579Y-7626918D01*
X17028233Y-7629175D01*
X17028360Y-7629446D01*
X17029027Y-7632122D01*
X17029044Y-7632251D01*
X17029150Y-7633881D01*
X17029150Y-7765345D01*
X17029000Y-7767285D01*
X17028640Y-7769595D01*
X17027993Y-7772067D01*
X17022420Y-7786977D01*
X17022320Y-7787542D01*
X17022320Y-7787542D01*
X17019304Y-7804534D01*
X17019204Y-7805100D01*
X17019321Y-7823506D01*
X17022768Y-7841586D01*
X17029432Y-7858744D01*
X17039091Y-7874412D01*
X17051427Y-7888073D01*
X17066032Y-7899275D01*
X17070804Y-7901713D01*
X17078508Y-7905648D01*
X17083664Y-7910528D01*
X17085364Y-7917422D01*
X17083067Y-7924139D01*
X17080137Y-7927095D01*
X17063784Y-7938868D01*
X17063519Y-7939108D01*
X17063518Y-7939109D01*
X17038547Y-7961791D01*
X17038546Y-7961792D01*
X17038282Y-7962032D01*
X17015567Y-7987934D01*
X16995929Y-8016241D01*
X16995760Y-8016556D01*
X16995760Y-8016556D01*
X16988982Y-8029171D01*
X16979623Y-8046589D01*
X16966856Y-8078588D01*
X16966762Y-8078934D01*
X16960390Y-8102308D01*
X16957794Y-8111827D01*
X16952553Y-8145878D01*
X16952539Y-8146234D01*
X16951632Y-8169341D01*
X16951201Y-8180303D01*
X16951830Y-8188773D01*
X16953547Y-8211875D01*
X16953754Y-8214660D01*
X16953820Y-8215010D01*
X16953821Y-8215011D01*
X16955091Y-8221700D01*
X16954396Y-8228765D01*
X16949992Y-8234334D01*
X16943276Y-8236637D01*
X16939239Y-8236162D01*
X16916382Y-8229608D01*
X16915947Y-8229547D01*
X16915946Y-8229547D01*
X16902994Y-8227726D01*
X16891321Y-8226086D01*
X16884854Y-8223157D01*
X16880996Y-8217197D01*
X16881041Y-8209872D01*
X16882453Y-8205326D01*
X16882453Y-8205326D01*
X16882611Y-8204816D01*
X16884320Y-8191922D01*
X16885626Y-8182069D01*
X16885626Y-8182069D01*
X16885696Y-8181541D01*
X16884815Y-8158078D01*
X16882255Y-8145878D01*
X16880104Y-8135623D01*
X16880103Y-8135622D01*
X16879994Y-8135100D01*
X16871370Y-8113262D01*
X16861510Y-8097014D01*
X16859466Y-8093646D01*
X16859466Y-8093646D01*
X16859190Y-8093190D01*
X16843802Y-8075457D01*
X16835428Y-8068591D01*
X16826058Y-8060908D01*
X16826058Y-8060908D01*
X16825646Y-8060570D01*
X16825182Y-8060306D01*
X16825182Y-8060306D01*
X16805705Y-8049219D01*
X16805241Y-8048955D01*
X16783171Y-8040944D01*
X16782646Y-8040849D01*
X16782646Y-8040849D01*
X16774538Y-8039383D01*
X16760067Y-8036766D01*
X16759653Y-8036746D01*
X16759652Y-8036746D01*
X16757756Y-8036657D01*
X16757755Y-8036657D01*
X16757607Y-8036650D01*
X16753638Y-8036650D01*
X16750271Y-8036192D01*
X16732921Y-8031380D01*
X16732921Y-8031380D01*
X16732423Y-8031242D01*
X16722052Y-8030134D01*
X16713178Y-8029186D01*
X16713177Y-8029186D01*
X16712844Y-8029150D01*
X16698920Y-8029150D01*
X16698662Y-8029171D01*
X16698661Y-8029171D01*
X16681612Y-8030573D01*
X16681612Y-8030573D01*
X16681097Y-8030615D01*
X16669467Y-8033537D01*
X16658337Y-8036332D01*
X16658337Y-8036332D01*
X16657836Y-8036458D01*
X16657363Y-8036664D01*
X16657363Y-8036664D01*
X16636316Y-8045815D01*
X16636316Y-8045815D01*
X16635842Y-8046021D01*
X16635409Y-8046302D01*
X16635408Y-8046302D01*
X16616140Y-8058767D01*
X16616139Y-8058768D01*
X16615705Y-8059048D01*
X16615323Y-8059396D01*
X16615323Y-8059397D01*
X16605218Y-8068591D01*
X16597966Y-8075190D01*
X16597647Y-8075595D01*
X16597646Y-8075595D01*
X16592093Y-8082627D01*
X16583102Y-8094011D01*
X16571511Y-8115008D01*
X16563505Y-8137615D01*
X16563415Y-8138125D01*
X16563415Y-8138125D01*
X16559953Y-8157557D01*
X16559300Y-8161227D01*
X16559293Y-8161744D01*
X16559045Y-8182069D01*
X16559007Y-8185209D01*
X16045744Y-8185209D01*
X16045949Y-8168459D01*
X16045987Y-8165308D01*
X16045987Y-8165308D01*
X16045993Y-8164791D01*
X16042366Y-8141084D01*
X16034915Y-8118287D01*
X16026172Y-8101493D01*
X16024079Y-8097472D01*
X16024079Y-8097472D01*
X16023840Y-8097014D01*
X16021586Y-8094011D01*
X16009751Y-8078248D01*
X16009750Y-8078248D01*
X16009440Y-8077834D01*
X15992101Y-8061265D01*
X15972288Y-8047749D01*
X15957422Y-8040849D01*
X15951003Y-8037869D01*
X15951003Y-8037869D01*
X15950534Y-8037652D01*
X15932881Y-8032756D01*
X15927920Y-8031380D01*
X15927920Y-8031380D01*
X15927423Y-8031242D01*
X15917052Y-8030134D01*
X15908178Y-8029186D01*
X15908177Y-8029186D01*
X15907844Y-8029150D01*
X15893920Y-8029150D01*
X15893662Y-8029171D01*
X15893661Y-8029171D01*
X15876612Y-8030573D01*
X15876612Y-8030573D01*
X15876097Y-8030615D01*
X15856015Y-8035659D01*
X15853044Y-8036406D01*
X15851040Y-8036740D01*
X15835136Y-8038090D01*
X15835136Y-8038090D01*
X15834605Y-8038135D01*
X15834090Y-8038269D01*
X15834089Y-8038269D01*
X15816318Y-8042881D01*
X15811879Y-8044033D01*
X15811393Y-8044252D01*
X15811392Y-8044253D01*
X15790958Y-8053458D01*
X15790958Y-8053458D01*
X15790472Y-8053677D01*
X15770996Y-8066789D01*
X15770610Y-8067157D01*
X15770610Y-8067157D01*
X15769107Y-8068591D01*
X15754007Y-8082995D01*
X15739992Y-8101832D01*
X15739751Y-8102307D01*
X15739750Y-8102308D01*
X15733293Y-8115008D01*
X15729351Y-8122761D01*
X15722389Y-8145184D01*
X15722319Y-8145713D01*
X15720262Y-8161227D01*
X15719304Y-8168459D01*
X15653707Y-8168459D01*
X15651978Y-8145184D01*
X15651273Y-8135696D01*
X15651272Y-8135696D01*
X15651246Y-8135340D01*
X15651106Y-8134603D01*
X15644887Y-8101845D01*
X15644820Y-8101493D01*
X15643301Y-8096600D01*
X15634710Y-8068934D01*
X15634604Y-8068591D01*
X15633973Y-8067157D01*
X15620873Y-8037385D01*
X15620872Y-8037385D01*
X15620728Y-8037057D01*
X15603372Y-8007296D01*
X15582759Y-7979692D01*
X15582515Y-7979432D01*
X15582514Y-7979431D01*
X15559398Y-7954859D01*
X15559398Y-7954858D01*
X15559153Y-7954598D01*
X15547523Y-7944752D01*
X15533131Y-7932569D01*
X15533131Y-7932568D01*
X15532859Y-7932338D01*
X15523146Y-7925848D01*
X15518593Y-7920401D01*
X15517708Y-7913356D01*
X15520773Y-7906952D01*
X15524414Y-7904151D01*
X15533455Y-7899533D01*
X15533456Y-7899533D01*
X15533966Y-7899272D01*
X15548570Y-7888070D01*
X15560906Y-7874410D01*
X15570565Y-7858743D01*
X15577228Y-7841585D01*
X15580675Y-7823505D01*
X15580792Y-7805100D01*
X15579745Y-7799201D01*
X15577676Y-7787543D01*
X15577676Y-7787542D01*
X15577576Y-7786978D01*
X15577375Y-7786439D01*
X15572720Y-7773986D01*
X15572421Y-7773081D01*
X15572036Y-7771755D01*
X15571767Y-7770825D01*
X15571638Y-7770549D01*
X15570969Y-7767864D01*
X15570955Y-7767756D01*
X15570850Y-7766132D01*
X15570850Y-7634654D01*
X15571000Y-7632715D01*
X15571360Y-7630406D01*
X15572007Y-7627934D01*
X15572558Y-7626460D01*
X15577580Y-7613023D01*
X15577681Y-7612457D01*
X15580696Y-7595465D01*
X15580696Y-7595465D01*
X15580797Y-7594900D01*
X15580679Y-7576494D01*
X15577232Y-7558413D01*
X15570568Y-7541255D01*
X15570268Y-7540767D01*
X15570267Y-7540767D01*
X15561210Y-7526076D01*
X15561210Y-7526075D01*
X15560909Y-7525587D01*
X15549611Y-7513076D01*
X15548958Y-7512352D01*
X15548573Y-7511927D01*
X15536654Y-7502784D01*
X15534423Y-7501073D01*
X15534423Y-7501073D01*
X15533968Y-7500724D01*
X15517577Y-7492351D01*
X15510269Y-7490169D01*
X15500490Y-7487248D01*
X15500490Y-7487248D01*
X15499940Y-7487084D01*
X15493785Y-7486415D01*
X15482212Y-7485158D01*
X15482211Y-7485158D01*
X15481642Y-7485096D01*
X15472464Y-7485775D01*
X15463857Y-7486411D01*
X15463857Y-7486411D01*
X15463285Y-7486453D01*
X15460247Y-7487248D01*
X15446034Y-7490966D01*
X15446033Y-7490966D01*
X15445478Y-7491111D01*
X15444959Y-7491354D01*
X15444959Y-7491354D01*
X15444147Y-7491734D01*
X15432915Y-7496993D01*
X15432041Y-7497363D01*
X15429842Y-7498196D01*
X15429841Y-7498196D01*
X15429804Y-7498096D01*
X15425086Y-7499150D01*
X15275489Y-7499150D01*
X15273551Y-7499000D01*
X15272049Y-7498766D01*
X15268644Y-7497727D01*
X15255040Y-7491359D01*
X15255040Y-7491358D01*
X15254520Y-7491115D01*
X15253966Y-7490970D01*
X15253965Y-7490970D01*
X15239752Y-7487252D01*
X15236714Y-7486457D01*
X15236142Y-7486415D01*
X15236142Y-7486415D01*
X15226066Y-7485670D01*
X15218358Y-7485100D01*
X15217789Y-7485162D01*
X15217788Y-7485162D01*
X15206291Y-7486411D01*
X15200061Y-7487088D01*
X15199511Y-7487252D01*
X15199510Y-7487252D01*
X15189749Y-7490168D01*
X15182425Y-7492355D01*
X15181914Y-7492616D01*
X15166544Y-7500467D01*
X15166544Y-7500467D01*
X15166034Y-7500728D01*
X15151430Y-7511930D01*
X15151046Y-7512355D01*
X15151045Y-7512355D01*
X15149270Y-7514321D01*
X15139094Y-7525590D01*
X15138793Y-7526078D01*
X15138793Y-7526078D01*
X15129736Y-7540769D01*
X15129736Y-7540769D01*
X15129435Y-7541257D01*
X15122772Y-7558414D01*
X15119325Y-7576494D01*
X15119208Y-7594899D01*
X15119308Y-7595464D01*
X15119308Y-7595465D01*
X15120146Y-7600186D01*
X15122424Y-7613022D01*
X15123030Y-7614643D01*
X15127279Y-7626013D01*
X15127579Y-7626918D01*
X15128233Y-7629175D01*
X15128360Y-7629446D01*
X15129027Y-7632122D01*
X15129044Y-7632251D01*
X15129150Y-7633881D01*
X15129150Y-7765345D01*
X15129000Y-7767285D01*
X15128640Y-7769595D01*
X15127993Y-7772067D01*
X15122420Y-7786977D01*
X15122320Y-7787542D01*
X15122320Y-7787542D01*
X15119304Y-7804534D01*
X15119204Y-7805100D01*
X15119321Y-7823506D01*
X15122768Y-7841586D01*
X15129432Y-7858744D01*
X15139091Y-7874412D01*
X15151427Y-7888073D01*
X15166032Y-7899275D01*
X15170474Y-7901544D01*
X15175583Y-7904154D01*
X15180739Y-7909034D01*
X15182439Y-7915928D01*
X15180142Y-7922645D01*
X15177213Y-7925601D01*
X15158784Y-7938868D01*
X15158519Y-7939108D01*
X15158518Y-7939109D01*
X15133547Y-7961791D01*
X15133546Y-7961792D01*
X15133282Y-7962032D01*
X15110566Y-7987934D01*
X15090929Y-8016241D01*
X15090760Y-8016556D01*
X15090760Y-8016556D01*
X15083982Y-8029171D01*
X15074622Y-8046589D01*
X15061856Y-8078588D01*
X15061762Y-8078934D01*
X15055390Y-8102308D01*
X15052794Y-8111827D01*
X15047553Y-8145878D01*
X15047539Y-8146234D01*
X15046631Y-8169341D01*
X15046201Y-8180303D01*
X15046830Y-8188773D01*
X15048547Y-8211875D01*
X15048754Y-8214660D01*
X15048820Y-8215010D01*
X15048820Y-8215011D01*
X15050090Y-8221700D01*
X15049396Y-8228765D01*
X15044992Y-8234334D01*
X15038276Y-8236637D01*
X15034239Y-8236162D01*
X15011382Y-8229608D01*
X15010947Y-8229547D01*
X15010946Y-8229547D01*
X14997994Y-8227726D01*
X14986321Y-8226086D01*
X14979854Y-8223157D01*
X14975996Y-8217197D01*
X14976041Y-8209872D01*
X14977453Y-8205326D01*
X14977453Y-8205326D01*
X14977611Y-8204816D01*
X14979320Y-8191922D01*
X14980626Y-8182069D01*
X14980626Y-8182069D01*
X14980696Y-8181541D01*
X14979815Y-8158078D01*
X14977255Y-8145878D01*
X14975103Y-8135623D01*
X14975103Y-8135622D01*
X14974994Y-8135100D01*
X14966370Y-8113262D01*
X14956510Y-8097014D01*
X14954466Y-8093646D01*
X14954466Y-8093646D01*
X14954190Y-8093190D01*
X14938801Y-8075457D01*
X14930428Y-8068591D01*
X14921058Y-8060908D01*
X14921058Y-8060908D01*
X14920646Y-8060570D01*
X14920182Y-8060306D01*
X14920182Y-8060306D01*
X14900705Y-8049219D01*
X14900241Y-8048955D01*
X14878171Y-8040944D01*
X14877646Y-8040849D01*
X14877646Y-8040849D01*
X14869538Y-8039383D01*
X14855067Y-8036766D01*
X14854653Y-8036746D01*
X14854652Y-8036746D01*
X14852756Y-8036657D01*
X14852755Y-8036657D01*
X14852607Y-8036650D01*
X14848638Y-8036650D01*
X14845271Y-8036192D01*
X14827921Y-8031380D01*
X14827921Y-8031380D01*
X14827423Y-8031242D01*
X14817052Y-8030134D01*
X14808178Y-8029186D01*
X14808177Y-8029186D01*
X14807844Y-8029150D01*
X14793920Y-8029150D01*
X14793662Y-8029171D01*
X14793661Y-8029171D01*
X14776612Y-8030573D01*
X14776612Y-8030573D01*
X14776097Y-8030615D01*
X14764467Y-8033537D01*
X14753337Y-8036332D01*
X14753337Y-8036332D01*
X14752836Y-8036458D01*
X14752363Y-8036664D01*
X14752363Y-8036664D01*
X14731316Y-8045815D01*
X14731316Y-8045815D01*
X14730842Y-8046021D01*
X14730409Y-8046302D01*
X14730408Y-8046302D01*
X14711140Y-8058767D01*
X14711139Y-8058768D01*
X14710705Y-8059048D01*
X14710323Y-8059396D01*
X14710323Y-8059397D01*
X14700218Y-8068591D01*
X14692966Y-8075190D01*
X14692647Y-8075595D01*
X14692646Y-8075595D01*
X14687093Y-8082627D01*
X14678102Y-8094011D01*
X14666511Y-8115008D01*
X14658505Y-8137615D01*
X14658415Y-8138125D01*
X14658415Y-8138125D01*
X14654953Y-8157557D01*
X14654300Y-8161227D01*
X14654293Y-8161744D01*
X14654045Y-8182069D01*
X14654007Y-8185209D01*
X14145744Y-8185209D01*
X14145949Y-8168459D01*
X14145987Y-8165308D01*
X14145987Y-8165308D01*
X14145993Y-8164791D01*
X14142366Y-8141084D01*
X14134915Y-8118287D01*
X14126172Y-8101493D01*
X14124079Y-8097472D01*
X14124079Y-8097472D01*
X14123840Y-8097014D01*
X14121586Y-8094011D01*
X14109751Y-8078248D01*
X14109750Y-8078248D01*
X14109440Y-8077834D01*
X14092101Y-8061265D01*
X14072288Y-8047749D01*
X14057422Y-8040849D01*
X14051003Y-8037869D01*
X14051003Y-8037869D01*
X14050534Y-8037652D01*
X14032881Y-8032756D01*
X14027920Y-8031380D01*
X14027920Y-8031380D01*
X14027423Y-8031242D01*
X14017052Y-8030134D01*
X14008178Y-8029186D01*
X14008177Y-8029186D01*
X14007844Y-8029150D01*
X13993920Y-8029150D01*
X13993662Y-8029171D01*
X13993661Y-8029171D01*
X13976612Y-8030573D01*
X13976612Y-8030573D01*
X13976097Y-8030615D01*
X13956015Y-8035659D01*
X13953044Y-8036406D01*
X13951040Y-8036740D01*
X13935136Y-8038090D01*
X13935136Y-8038090D01*
X13934605Y-8038135D01*
X13934090Y-8038269D01*
X13934089Y-8038269D01*
X13916318Y-8042881D01*
X13911879Y-8044033D01*
X13911393Y-8044252D01*
X13911392Y-8044253D01*
X13890958Y-8053458D01*
X13890958Y-8053458D01*
X13890472Y-8053677D01*
X13870996Y-8066789D01*
X13870610Y-8067157D01*
X13870610Y-8067157D01*
X13869107Y-8068591D01*
X13854007Y-8082995D01*
X13839992Y-8101832D01*
X13839751Y-8102307D01*
X13839750Y-8102308D01*
X13833293Y-8115008D01*
X13829351Y-8122761D01*
X13822389Y-8145184D01*
X13822319Y-8145713D01*
X13820262Y-8161227D01*
X13819304Y-8168459D01*
X13753707Y-8168459D01*
X13751978Y-8145184D01*
X13751273Y-8135696D01*
X13751272Y-8135696D01*
X13751246Y-8135340D01*
X13751106Y-8134603D01*
X13744887Y-8101845D01*
X13744820Y-8101493D01*
X13743301Y-8096600D01*
X13734710Y-8068934D01*
X13734604Y-8068591D01*
X13733973Y-8067157D01*
X13720873Y-8037385D01*
X13720872Y-8037385D01*
X13720728Y-8037057D01*
X13703372Y-8007296D01*
X13682759Y-7979692D01*
X13682515Y-7979432D01*
X13682514Y-7979431D01*
X13659398Y-7954859D01*
X13659398Y-7954858D01*
X13659153Y-7954598D01*
X13647523Y-7944752D01*
X13633131Y-7932569D01*
X13633131Y-7932568D01*
X13632859Y-7932338D01*
X13623146Y-7925848D01*
X13618593Y-7920401D01*
X13617708Y-7913356D01*
X13620773Y-7906952D01*
X13624414Y-7904151D01*
X13633455Y-7899533D01*
X13633456Y-7899533D01*
X13633966Y-7899272D01*
X13648570Y-7888070D01*
X13660906Y-7874410D01*
X13670565Y-7858743D01*
X13677228Y-7841585D01*
X13680675Y-7823505D01*
X13680792Y-7805100D01*
X13679745Y-7799201D01*
X13677676Y-7787543D01*
X13677676Y-7787542D01*
X13677576Y-7786978D01*
X13677375Y-7786439D01*
X13672720Y-7773986D01*
X13672421Y-7773081D01*
X13672036Y-7771755D01*
X13671767Y-7770825D01*
X13671638Y-7770549D01*
X13670969Y-7767864D01*
X13670955Y-7767756D01*
X13670850Y-7766132D01*
X13670850Y-7634654D01*
X13671000Y-7632715D01*
X13671360Y-7630406D01*
X13672007Y-7627934D01*
X13672558Y-7626460D01*
X13677580Y-7613023D01*
X13677681Y-7612457D01*
X13680696Y-7595465D01*
X13680696Y-7595465D01*
X13680797Y-7594900D01*
X13680679Y-7576494D01*
X13677232Y-7558413D01*
X13670568Y-7541255D01*
X13670268Y-7540767D01*
X13670267Y-7540767D01*
X13661210Y-7526076D01*
X13661210Y-7526075D01*
X13660909Y-7525587D01*
X13649611Y-7513076D01*
X13648958Y-7512352D01*
X13648573Y-7511927D01*
X13636654Y-7502784D01*
X13634423Y-7501073D01*
X13634423Y-7501073D01*
X13633968Y-7500724D01*
X13617577Y-7492351D01*
X13610269Y-7490169D01*
X13600490Y-7487248D01*
X13600490Y-7487248D01*
X13599940Y-7487084D01*
X13593785Y-7486415D01*
X13582212Y-7485158D01*
X13582211Y-7485158D01*
X13581642Y-7485096D01*
X13572464Y-7485775D01*
X13563857Y-7486411D01*
X13563857Y-7486411D01*
X13563285Y-7486453D01*
X13560247Y-7487248D01*
X13546034Y-7490966D01*
X13546033Y-7490966D01*
X13545478Y-7491111D01*
X13544959Y-7491354D01*
X13544959Y-7491354D01*
X13544147Y-7491734D01*
X13532915Y-7496993D01*
X13532041Y-7497363D01*
X13529842Y-7498196D01*
X13529841Y-7498196D01*
X13529804Y-7498096D01*
X13525086Y-7499150D01*
X13375489Y-7499150D01*
X13373551Y-7499000D01*
X13372049Y-7498766D01*
X13368644Y-7497727D01*
X13355040Y-7491359D01*
X13355040Y-7491358D01*
X13354520Y-7491115D01*
X13353966Y-7490970D01*
X13353965Y-7490970D01*
X13339752Y-7487252D01*
X13336714Y-7486457D01*
X13336142Y-7486415D01*
X13336142Y-7486415D01*
X13326066Y-7485670D01*
X13318358Y-7485100D01*
X13317789Y-7485162D01*
X13317788Y-7485162D01*
X13306291Y-7486411D01*
X13300061Y-7487088D01*
X13299511Y-7487252D01*
X13299510Y-7487252D01*
X13289749Y-7490168D01*
X13282425Y-7492355D01*
X13281914Y-7492616D01*
X13266544Y-7500467D01*
X13266544Y-7500467D01*
X13266034Y-7500728D01*
X13251430Y-7511930D01*
X13251046Y-7512355D01*
X13251045Y-7512355D01*
X13249270Y-7514321D01*
X13239094Y-7525590D01*
X13238793Y-7526078D01*
X13238793Y-7526078D01*
X13229736Y-7540769D01*
X13229736Y-7540769D01*
X13229435Y-7541257D01*
X13222772Y-7558414D01*
X13219325Y-7576494D01*
X13219208Y-7594899D01*
X13219308Y-7595464D01*
X13219308Y-7595465D01*
X13220146Y-7600186D01*
X13222424Y-7613022D01*
X13223030Y-7614643D01*
X13227279Y-7626013D01*
X13227579Y-7626918D01*
X13228233Y-7629175D01*
X13228360Y-7629446D01*
X13229027Y-7632122D01*
X13229044Y-7632251D01*
X13229150Y-7633881D01*
X13229150Y-7765345D01*
X13229000Y-7767285D01*
X13228640Y-7769595D01*
X13227993Y-7772067D01*
X13222420Y-7786977D01*
X13222320Y-7787542D01*
X13222320Y-7787542D01*
X13219304Y-7804534D01*
X13219204Y-7805100D01*
X13219321Y-7823506D01*
X13222768Y-7841586D01*
X13229432Y-7858744D01*
X13239091Y-7874412D01*
X13251427Y-7888073D01*
X13266032Y-7899275D01*
X13270474Y-7901544D01*
X13275583Y-7904154D01*
X13280739Y-7909034D01*
X13282439Y-7915928D01*
X13280142Y-7922645D01*
X13277213Y-7925601D01*
X13258784Y-7938868D01*
X13258519Y-7939108D01*
X13258518Y-7939109D01*
X13233547Y-7961791D01*
X13233546Y-7961792D01*
X13233282Y-7962032D01*
X13210566Y-7987934D01*
X13190929Y-8016241D01*
X13190760Y-8016556D01*
X13190760Y-8016556D01*
X13183982Y-8029171D01*
X13174622Y-8046589D01*
X13161856Y-8078588D01*
X13161762Y-8078934D01*
X13155390Y-8102308D01*
X13152794Y-8111827D01*
X13147553Y-8145878D01*
X13147539Y-8146234D01*
X13146631Y-8169341D01*
X13146201Y-8180303D01*
X13146830Y-8188773D01*
X13148547Y-8211875D01*
X13148754Y-8214660D01*
X13148820Y-8215010D01*
X13148820Y-8215011D01*
X13150090Y-8221700D01*
X13149396Y-8228765D01*
X13144992Y-8234334D01*
X13138276Y-8236637D01*
X13134239Y-8236162D01*
X13111382Y-8229608D01*
X13110947Y-8229547D01*
X13110946Y-8229547D01*
X13097994Y-8227726D01*
X13086321Y-8226086D01*
X13079854Y-8223157D01*
X13075996Y-8217197D01*
X13076041Y-8209872D01*
X13077453Y-8205326D01*
X13077453Y-8205326D01*
X13077611Y-8204816D01*
X13079320Y-8191922D01*
X13080626Y-8182069D01*
X13080626Y-8182069D01*
X13080696Y-8181541D01*
X13079815Y-8158078D01*
X13077255Y-8145878D01*
X13075103Y-8135623D01*
X13075103Y-8135622D01*
X13074994Y-8135100D01*
X13066370Y-8113262D01*
X13056510Y-8097014D01*
X13054466Y-8093646D01*
X13054466Y-8093646D01*
X13054190Y-8093190D01*
X13038801Y-8075457D01*
X13030428Y-8068591D01*
X13021058Y-8060908D01*
X13021058Y-8060908D01*
X13020646Y-8060570D01*
X13020182Y-8060306D01*
X13020182Y-8060306D01*
X13000705Y-8049219D01*
X13000241Y-8048955D01*
X12978171Y-8040944D01*
X12977646Y-8040849D01*
X12977646Y-8040849D01*
X12969538Y-8039383D01*
X12955067Y-8036766D01*
X12954653Y-8036746D01*
X12954652Y-8036746D01*
X12952756Y-8036657D01*
X12952755Y-8036657D01*
X12952607Y-8036650D01*
X12948638Y-8036650D01*
X12945271Y-8036192D01*
X12927921Y-8031380D01*
X12927921Y-8031380D01*
X12927423Y-8031242D01*
X12917052Y-8030134D01*
X12908178Y-8029186D01*
X12908177Y-8029186D01*
X12907844Y-8029150D01*
X12893920Y-8029150D01*
X12893662Y-8029171D01*
X12893661Y-8029171D01*
X12876612Y-8030573D01*
X12876612Y-8030573D01*
X12876097Y-8030615D01*
X12864467Y-8033537D01*
X12853337Y-8036332D01*
X12853337Y-8036332D01*
X12852836Y-8036458D01*
X12852363Y-8036664D01*
X12852363Y-8036664D01*
X12831316Y-8045815D01*
X12831316Y-8045815D01*
X12830842Y-8046021D01*
X12830409Y-8046302D01*
X12830408Y-8046302D01*
X12811140Y-8058767D01*
X12811139Y-8058768D01*
X12810705Y-8059048D01*
X12810323Y-8059396D01*
X12810323Y-8059397D01*
X12800218Y-8068591D01*
X12792966Y-8075190D01*
X12792647Y-8075595D01*
X12792646Y-8075595D01*
X12787093Y-8082627D01*
X12778102Y-8094011D01*
X12766511Y-8115008D01*
X12758505Y-8137615D01*
X12758415Y-8138125D01*
X12758415Y-8138125D01*
X12754953Y-8157557D01*
X12754300Y-8161227D01*
X12754293Y-8161744D01*
X12754045Y-8182069D01*
X12754007Y-8185209D01*
X11800850Y-8185209D01*
X11800850Y-7448864D01*
X12918646Y-7448864D01*
X12920416Y-7466916D01*
X12926142Y-7484127D01*
X12926506Y-7484729D01*
X12926507Y-7484730D01*
X12935028Y-7498801D01*
X12935538Y-7499642D01*
X12936027Y-7500149D01*
X12936027Y-7500149D01*
X12936920Y-7501073D01*
X12948138Y-7512690D01*
X12963316Y-7522622D01*
X12963976Y-7522868D01*
X12963976Y-7522868D01*
X12979656Y-7528699D01*
X12979656Y-7528699D01*
X12980317Y-7528945D01*
X12988699Y-7530063D01*
X12997598Y-7531251D01*
X12997598Y-7531251D01*
X12998296Y-7531344D01*
X12998997Y-7531280D01*
X12998998Y-7531280D01*
X13013246Y-7529983D01*
X13016360Y-7529700D01*
X13017030Y-7529482D01*
X13017030Y-7529482D01*
X13032941Y-7524312D01*
X13032941Y-7524312D01*
X13033611Y-7524095D01*
X13049191Y-7514807D01*
X13062327Y-7502298D01*
X13072364Y-7487190D01*
X13078805Y-7470234D01*
X13079178Y-7467584D01*
X13080342Y-7459301D01*
X13083271Y-7452833D01*
X13083910Y-7452145D01*
X13114623Y-7421431D01*
X13115862Y-7420345D01*
X13117744Y-7418901D01*
X13118399Y-7418399D01*
X13120847Y-7415207D01*
X13120848Y-7415207D01*
X13127650Y-7406343D01*
X13127650Y-7406343D01*
X13128152Y-7405688D01*
X13134248Y-7390971D01*
X13134284Y-7390885D01*
X13135850Y-7378988D01*
X13135850Y-7378988D01*
X13136375Y-7375000D01*
X13135958Y-7371831D01*
X13135850Y-7370186D01*
X13135850Y-7158325D01*
X13137955Y-7151352D01*
X13144997Y-7140753D01*
X13147364Y-7137190D01*
X13153805Y-7120234D01*
X13153903Y-7119537D01*
X13156275Y-7102664D01*
X13156275Y-7102664D01*
X13156330Y-7102272D01*
X13156362Y-7100000D01*
X13154340Y-7081974D01*
X13154108Y-7081309D01*
X13148606Y-7065511D01*
X13148606Y-7065510D01*
X13148374Y-7064845D01*
X13143828Y-7057569D01*
X13139136Y-7050060D01*
X13138763Y-7049462D01*
X13135753Y-7046432D01*
X13126478Y-7037091D01*
X13126477Y-7037091D01*
X13125981Y-7036592D01*
X13124870Y-7035886D01*
X13120054Y-7032830D01*
X13110667Y-7026873D01*
X13104223Y-7024578D01*
X13094242Y-7021024D01*
X13094242Y-7021024D01*
X13093579Y-7020788D01*
X13092880Y-7020705D01*
X13092880Y-7020705D01*
X13080570Y-7019237D01*
X13075568Y-7018640D01*
X13074868Y-7018714D01*
X13074868Y-7018714D01*
X13058229Y-7020463D01*
X13058229Y-7020463D01*
X13057529Y-7020536D01*
X13040358Y-7026382D01*
X13038946Y-7027251D01*
X13025509Y-7035517D01*
X13025509Y-7035517D01*
X13024909Y-7035886D01*
X13024405Y-7036379D01*
X13024405Y-7036379D01*
X13014140Y-7046432D01*
X13011949Y-7048577D01*
X13002123Y-7063824D01*
X13001883Y-7064486D01*
X13001882Y-7064486D01*
X12996424Y-7079483D01*
X12995920Y-7080868D01*
X12993646Y-7098864D01*
X12995416Y-7116916D01*
X13001142Y-7134127D01*
X13001506Y-7134729D01*
X13001507Y-7134730D01*
X13010173Y-7149040D01*
X13010173Y-7149040D01*
X13010538Y-7149642D01*
X13011027Y-7150149D01*
X13011457Y-7150707D01*
X13011224Y-7150886D01*
X13013907Y-7156011D01*
X13014150Y-7158473D01*
X13014150Y-7344576D01*
X13012150Y-7351388D01*
X13010459Y-7353486D01*
X12997842Y-7366103D01*
X12991610Y-7369506D01*
X12990249Y-7369725D01*
X12988080Y-7369953D01*
X12983230Y-7370463D01*
X12983229Y-7370463D01*
X12982529Y-7370536D01*
X12965358Y-7376382D01*
X12964757Y-7376751D01*
X12950509Y-7385517D01*
X12950509Y-7385517D01*
X12949909Y-7385886D01*
X12949405Y-7386379D01*
X12949405Y-7386379D01*
X12944023Y-7391649D01*
X12936949Y-7398577D01*
X12927123Y-7413824D01*
X12926883Y-7414486D01*
X12926882Y-7414486D01*
X12925275Y-7418901D01*
X12920920Y-7430868D01*
X12918646Y-7448864D01*
X11800850Y-7448864D01*
X11800850Y-6279739D01*
X12006776Y-6279739D01*
X12007522Y-6280775D01*
X12031493Y-6300187D01*
X12032027Y-6300575D01*
X12064068Y-6321383D01*
X12064639Y-6321713D01*
X12098681Y-6339058D01*
X12099284Y-6339326D01*
X12134950Y-6353017D01*
X12135578Y-6353221D01*
X12172482Y-6363109D01*
X12173127Y-6363246D01*
X12210863Y-6369223D01*
X12211517Y-6369292D01*
X12249670Y-6371292D01*
X12250330Y-6371292D01*
X12288483Y-6369292D01*
X12289137Y-6369223D01*
X12326873Y-6363246D01*
X12327518Y-6363109D01*
X12364422Y-6353221D01*
X12365050Y-6353017D01*
X12400716Y-6339326D01*
X12401319Y-6339058D01*
X12435361Y-6321713D01*
X12435931Y-6321383D01*
X12467973Y-6300575D01*
X12468506Y-6300187D01*
X12492383Y-6280852D01*
X12493230Y-6279627D01*
X12492597Y-6278518D01*
X12251281Y-6037202D01*
X12249887Y-6036441D01*
X12249703Y-6036454D01*
X12249042Y-6036879D01*
X12007490Y-6278431D01*
X12006776Y-6279739D01*
X11800850Y-6279739D01*
X11800850Y-6155325D01*
X11801025Y-6153234D01*
X11801277Y-6151734D01*
X11801277Y-6151734D01*
X11801358Y-6151255D01*
X11801373Y-6150000D01*
X11801304Y-6149519D01*
X11801304Y-6149517D01*
X11801125Y-6148270D01*
X11801008Y-6145989D01*
X11801033Y-6145347D01*
X11802129Y-6117438D01*
X11802678Y-6103486D01*
X11802755Y-6102500D01*
X11807308Y-6064034D01*
X11808168Y-6056763D01*
X11808323Y-6055788D01*
X11816267Y-6015850D01*
X11817308Y-6010616D01*
X11817539Y-6009654D01*
X11818068Y-6007778D01*
X11825216Y-5982434D01*
X11830040Y-5965329D01*
X11830346Y-5964389D01*
X11844877Y-5925000D01*
X11846286Y-5921179D01*
X11846665Y-5920265D01*
X11848694Y-5915865D01*
X11865946Y-5878440D01*
X11866394Y-5877561D01*
X11887286Y-5840256D01*
X11892360Y-5835290D01*
X11899313Y-5833855D01*
X11905938Y-5836408D01*
X11910131Y-5842136D01*
X11910562Y-5849223D01*
X11910042Y-5850928D01*
X11896983Y-5884950D01*
X11896779Y-5885578D01*
X11886891Y-5922482D01*
X11886753Y-5923127D01*
X11880777Y-5960863D01*
X11880708Y-5961517D01*
X11878708Y-5999670D01*
X11878708Y-6000330D01*
X11880708Y-6038483D01*
X11880777Y-6039137D01*
X11886753Y-6076873D01*
X11886891Y-6077518D01*
X11896779Y-6114422D01*
X11896983Y-6115050D01*
X11910674Y-6150716D01*
X11910942Y-6151319D01*
X11928287Y-6185360D01*
X11928617Y-6185931D01*
X11949425Y-6217973D01*
X11949812Y-6218506D01*
X11969148Y-6242383D01*
X11970373Y-6243230D01*
X11971482Y-6242597D01*
X12213966Y-6000113D01*
X12286441Y-6000113D01*
X12286454Y-6000296D01*
X12286879Y-6000958D01*
X12528431Y-6242510D01*
X12529739Y-6243224D01*
X12530775Y-6242478D01*
X12550188Y-6218506D01*
X12550575Y-6217973D01*
X12571383Y-6185931D01*
X12571713Y-6185360D01*
X12589058Y-6151319D01*
X12589326Y-6150716D01*
X12603017Y-6115050D01*
X12603221Y-6114422D01*
X12613109Y-6077518D01*
X12613246Y-6076873D01*
X12619223Y-6039137D01*
X12619292Y-6038483D01*
X12621292Y-6000330D01*
X12621292Y-5999670D01*
X12619292Y-5961517D01*
X12619223Y-5960863D01*
X12613246Y-5923127D01*
X12613109Y-5922482D01*
X12603221Y-5885578D01*
X12603017Y-5884950D01*
X12589326Y-5849284D01*
X12589058Y-5848681D01*
X12571713Y-5814640D01*
X12571383Y-5814069D01*
X12550575Y-5782026D01*
X12550188Y-5781494D01*
X12530852Y-5757616D01*
X12529627Y-5756770D01*
X12528518Y-5757403D01*
X12287202Y-5998719D01*
X12286441Y-6000113D01*
X12213966Y-6000113D01*
X12492510Y-5721569D01*
X12493224Y-5720261D01*
X12492478Y-5719225D01*
X12468506Y-5699813D01*
X12467973Y-5699425D01*
X12435931Y-5678617D01*
X12435361Y-5678287D01*
X12401319Y-5660942D01*
X12400716Y-5660674D01*
X12365050Y-5646983D01*
X12364422Y-5646779D01*
X12327518Y-5636891D01*
X12326873Y-5636753D01*
X12289137Y-5630777D01*
X12288483Y-5630708D01*
X12250330Y-5628708D01*
X12249670Y-5628708D01*
X12211517Y-5630708D01*
X12210863Y-5630777D01*
X12173127Y-5636753D01*
X12172482Y-5636891D01*
X12135578Y-5646779D01*
X12134950Y-5646983D01*
X12100928Y-5660042D01*
X12093852Y-5660616D01*
X12087589Y-5657273D01*
X12084127Y-5651075D01*
X12084566Y-5643989D01*
X12088766Y-5638265D01*
X12090255Y-5637287D01*
X12127561Y-5616394D01*
X12128441Y-5615946D01*
X12142741Y-5609354D01*
X12170266Y-5596665D01*
X12171179Y-5596286D01*
X12214389Y-5580346D01*
X12215329Y-5580040D01*
X12259654Y-5567539D01*
X12260616Y-5567308D01*
X12276873Y-5564075D01*
X12305788Y-5558323D01*
X12306763Y-5558169D01*
X12324356Y-5556086D01*
X12352500Y-5552755D01*
X12353486Y-5552678D01*
X12395613Y-5551022D01*
X12398046Y-5551163D01*
X12398485Y-5551231D01*
X12398485Y-5551231D01*
X12399372Y-5551369D01*
X12400263Y-5551253D01*
X12400263Y-5551253D01*
X12402032Y-5551021D01*
X12402529Y-5550956D01*
X12404162Y-5550850D01*
X12832676Y-5550850D01*
X12839488Y-5552850D01*
X12844137Y-5558216D01*
X12845148Y-5565243D01*
X12842198Y-5571701D01*
X12841586Y-5572360D01*
X12710377Y-5703568D01*
X12709137Y-5704655D01*
X12706601Y-5706601D01*
X12704153Y-5709792D01*
X12704152Y-5709793D01*
X12704152Y-5709794D01*
X12697671Y-5718239D01*
X12696848Y-5719312D01*
X12690716Y-5734115D01*
X12690716Y-5734115D01*
X12689150Y-5746011D01*
X12689150Y-5746012D01*
X12688625Y-5750000D01*
X12688733Y-5750819D01*
X12689042Y-5753169D01*
X12689150Y-5754814D01*
X12689150Y-5801971D01*
X12687150Y-5808783D01*
X12685914Y-5810402D01*
X12677613Y-5819621D01*
X12676096Y-5821306D01*
X12666547Y-5837844D01*
X12660646Y-5856007D01*
X12658650Y-5875000D01*
X12658719Y-5875656D01*
X12660325Y-5890938D01*
X12660646Y-5893993D01*
X12666547Y-5912156D01*
X12676096Y-5928694D01*
X12688875Y-5942887D01*
X12693554Y-5946287D01*
X12701999Y-5952422D01*
X12704325Y-5954112D01*
X12704928Y-5954380D01*
X12704928Y-5954380D01*
X12720980Y-5961527D01*
X12721771Y-5961879D01*
X12731111Y-5963865D01*
X12739806Y-5965713D01*
X12739806Y-5965713D01*
X12740451Y-5965850D01*
X12759549Y-5965850D01*
X12760194Y-5965713D01*
X12760194Y-5965713D01*
X12768889Y-5963865D01*
X12778229Y-5961879D01*
X12779020Y-5961527D01*
X12795072Y-5954380D01*
X12795072Y-5954380D01*
X12795675Y-5954112D01*
X12798001Y-5952422D01*
X12806445Y-5946287D01*
X12811125Y-5942887D01*
X12823904Y-5928694D01*
X12833453Y-5912156D01*
X12835648Y-5905400D01*
X12839655Y-5899540D01*
X12842708Y-5898249D01*
X12841579Y-5897213D01*
X12839774Y-5890346D01*
X12839838Y-5889389D01*
X12841281Y-5875656D01*
X12841350Y-5875000D01*
X12839354Y-5856007D01*
X12833453Y-5837844D01*
X12823904Y-5821306D01*
X12822387Y-5819621D01*
X12814086Y-5810402D01*
X12811015Y-5804001D01*
X12810850Y-5801971D01*
X12810850Y-5780424D01*
X12812850Y-5773612D01*
X12814540Y-5771514D01*
X12864450Y-5721604D01*
X12870682Y-5718202D01*
X12871201Y-5718239D01*
X12873266Y-5712936D01*
X12874334Y-5711720D01*
X12946514Y-5639540D01*
X12952746Y-5636138D01*
X12955424Y-5635850D01*
X12989123Y-5635850D01*
X12995935Y-5637850D01*
X13000584Y-5643216D01*
X13001594Y-5650243D01*
X13001316Y-5651625D01*
X13000290Y-5655564D01*
X13000145Y-5658339D01*
X12999474Y-5671134D01*
X12999223Y-5675929D01*
X13002272Y-5696092D01*
X13002493Y-5696692D01*
X13002493Y-5696692D01*
X13004014Y-5700827D01*
X13004489Y-5707911D01*
X13001059Y-5714127D01*
X12997314Y-5716688D01*
X12996903Y-5716871D01*
X12989867Y-5717815D01*
X12986654Y-5716872D01*
X12978229Y-5713121D01*
X12972452Y-5711893D01*
X12960194Y-5709287D01*
X12960194Y-5709287D01*
X12959549Y-5709150D01*
X12940451Y-5709150D01*
X12939806Y-5709287D01*
X12939806Y-5709287D01*
X12931111Y-5711135D01*
X12921771Y-5713121D01*
X12921168Y-5713389D01*
X12921168Y-5713389D01*
X12904928Y-5720620D01*
X12904928Y-5720620D01*
X12904325Y-5720888D01*
X12903791Y-5721276D01*
X12903791Y-5721276D01*
X12890650Y-5730823D01*
X12885245Y-5732752D01*
X12884419Y-5736552D01*
X12882724Y-5738945D01*
X12876096Y-5746306D01*
X12873226Y-5751276D01*
X12867872Y-5760550D01*
X12866547Y-5762844D01*
X12860646Y-5781007D01*
X12860577Y-5781663D01*
X12860577Y-5781663D01*
X12858986Y-5796796D01*
X12858650Y-5800000D01*
X12858719Y-5800656D01*
X12860440Y-5817031D01*
X12860646Y-5818993D01*
X12866547Y-5837156D01*
X12866878Y-5837728D01*
X12866878Y-5837728D01*
X12868338Y-5840256D01*
X12876096Y-5853694D01*
X12876538Y-5854185D01*
X12876926Y-5854719D01*
X12876792Y-5854816D01*
X12879505Y-5860470D01*
X12878629Y-5867515D01*
X12876875Y-5870244D01*
X12876926Y-5870281D01*
X12876538Y-5870815D01*
X12876096Y-5871306D01*
X12866547Y-5887844D01*
X12864550Y-5893993D01*
X12864352Y-5894600D01*
X12860345Y-5900460D01*
X12857292Y-5901751D01*
X12858421Y-5902787D01*
X12860226Y-5909654D01*
X12860162Y-5910611D01*
X12859147Y-5920265D01*
X12858650Y-5925000D01*
X12860646Y-5943993D01*
X12866547Y-5962156D01*
X12866878Y-5962728D01*
X12866878Y-5962728D01*
X12868620Y-5965746D01*
X12876096Y-5978694D01*
X12876538Y-5979185D01*
X12876538Y-5979185D01*
X12887485Y-5991343D01*
X12888875Y-5992887D01*
X12898033Y-5999540D01*
X12903092Y-6003216D01*
X12904325Y-6004112D01*
X12904928Y-6004380D01*
X12904928Y-6004380D01*
X12918933Y-6010616D01*
X12921771Y-6011879D01*
X12932821Y-6014228D01*
X12938860Y-6015512D01*
X12945107Y-6018885D01*
X12948539Y-6025099D01*
X12948223Y-6031730D01*
X12947765Y-6033139D01*
X12947696Y-6033795D01*
X12947696Y-6033795D01*
X12946401Y-6046116D01*
X12945783Y-6052000D01*
X12947765Y-6070861D01*
X12947969Y-6071489D01*
X12947969Y-6071489D01*
X12950457Y-6079146D01*
X12950660Y-6086243D01*
X12946994Y-6092323D01*
X12944583Y-6094060D01*
X12941375Y-6095838D01*
X12941374Y-6095839D01*
X12940816Y-6096148D01*
X12925333Y-6109419D01*
X12912834Y-6125532D01*
X12903830Y-6143830D01*
X12903669Y-6144448D01*
X12903669Y-6144448D01*
X12899891Y-6158953D01*
X12898690Y-6163564D01*
X12898341Y-6170221D01*
X12897978Y-6177147D01*
X12897623Y-6183929D01*
X12900672Y-6204092D01*
X12900893Y-6204692D01*
X12900893Y-6204692D01*
X12906945Y-6221142D01*
X12907714Y-6223231D01*
X12918460Y-6240562D01*
X12918898Y-6241025D01*
X12918898Y-6241026D01*
X12920302Y-6242510D01*
X12932471Y-6255379D01*
X12932994Y-6255745D01*
X12932994Y-6255745D01*
X12948653Y-6266709D01*
X12949176Y-6267076D01*
X12967892Y-6275175D01*
X12968516Y-6275305D01*
X12968516Y-6275305D01*
X12987379Y-6279246D01*
X12987379Y-6279246D01*
X12987853Y-6279345D01*
X12988337Y-6279370D01*
X12988337Y-6279370D01*
X12988344Y-6279371D01*
X12988521Y-6279380D01*
X13003497Y-6279380D01*
X13012839Y-6278431D01*
X13018053Y-6277901D01*
X13018053Y-6277901D01*
X13018688Y-6277837D01*
X13038148Y-6271739D01*
X13055984Y-6261852D01*
X13071467Y-6248581D01*
X13083966Y-6232468D01*
X13084247Y-6231896D01*
X13084248Y-6231895D01*
X13088443Y-6223370D01*
X13093245Y-6218141D01*
X13100112Y-6216338D01*
X13106863Y-6218534D01*
X13110910Y-6223222D01*
X13110914Y-6223231D01*
X13121660Y-6240562D01*
X13122098Y-6241025D01*
X13122098Y-6241026D01*
X13123502Y-6242510D01*
X13135671Y-6255379D01*
X13136194Y-6255745D01*
X13136194Y-6255745D01*
X13151853Y-6266709D01*
X13152376Y-6267076D01*
X13171092Y-6275175D01*
X13171716Y-6275305D01*
X13171716Y-6275305D01*
X13190579Y-6279246D01*
X13190579Y-6279246D01*
X13191053Y-6279345D01*
X13191537Y-6279370D01*
X13191537Y-6279370D01*
X13191544Y-6279371D01*
X13191721Y-6279380D01*
X13206697Y-6279380D01*
X13216039Y-6278431D01*
X13221253Y-6277901D01*
X13221253Y-6277901D01*
X13221888Y-6277837D01*
X13241348Y-6271739D01*
X13259184Y-6261852D01*
X13274667Y-6248581D01*
X13287166Y-6232468D01*
X13296170Y-6214170D01*
X13296340Y-6213517D01*
X13301149Y-6195054D01*
X13301149Y-6195054D01*
X13301310Y-6194436D01*
X13302377Y-6174071D01*
X13299328Y-6153908D01*
X13299080Y-6153234D01*
X13292507Y-6135368D01*
X13292507Y-6135368D01*
X13292286Y-6134769D01*
X13281540Y-6117438D01*
X13281690Y-6117345D01*
X13279426Y-6111521D01*
X13280840Y-6104563D01*
X13285791Y-6099475D01*
X13291981Y-6097850D01*
X13542434Y-6097850D01*
X13549246Y-6099850D01*
X13551343Y-6101540D01*
X13600460Y-6150657D01*
X13603862Y-6156888D01*
X13604150Y-6159566D01*
X13604150Y-7072109D01*
X13604121Y-7072966D01*
X13603727Y-7078735D01*
X13603858Y-7079483D01*
X13603858Y-7079483D01*
X13604826Y-7085030D01*
X13604922Y-7085682D01*
X13605690Y-7092024D01*
X13605958Y-7092734D01*
X13606022Y-7092995D01*
X13606468Y-7094626D01*
X13606545Y-7094880D01*
X13606676Y-7095628D01*
X13608769Y-7100396D01*
X13609244Y-7101479D01*
X13609493Y-7102090D01*
X13611751Y-7108066D01*
X13612182Y-7108692D01*
X13612305Y-7108928D01*
X13613130Y-7110410D01*
X13613263Y-7110635D01*
X13613568Y-7111330D01*
X13614031Y-7111933D01*
X13617458Y-7116399D01*
X13617846Y-7116933D01*
X13621034Y-7121572D01*
X13621034Y-7121572D01*
X13621464Y-7122198D01*
X13622031Y-7122703D01*
X13622031Y-7122703D01*
X13626116Y-7126343D01*
X13626644Y-7126841D01*
X13681886Y-7182083D01*
X13685288Y-7188314D01*
X13684782Y-7195395D01*
X13684264Y-7196589D01*
X13683884Y-7197180D01*
X13683643Y-7197842D01*
X13683643Y-7197842D01*
X13678497Y-7211981D01*
X13678496Y-7211981D01*
X13678256Y-7212643D01*
X13676193Y-7228969D01*
X13677799Y-7245347D01*
X13682993Y-7260961D01*
X13691518Y-7275037D01*
X13702949Y-7286875D01*
X13716719Y-7295885D01*
X13732143Y-7301621D01*
X13732841Y-7301715D01*
X13732841Y-7301715D01*
X13747756Y-7303705D01*
X13747756Y-7303705D01*
X13748454Y-7303798D01*
X13749155Y-7303734D01*
X13749156Y-7303734D01*
X13764140Y-7302370D01*
X13764140Y-7302370D01*
X13764842Y-7302306D01*
X13767706Y-7301376D01*
X13779823Y-7297439D01*
X13779823Y-7297439D01*
X13780493Y-7297221D01*
X13788200Y-7292627D01*
X13794651Y-7290850D01*
X14145268Y-7290850D01*
X14152167Y-7292907D01*
X14156719Y-7295885D01*
X14172143Y-7301621D01*
X14172841Y-7301715D01*
X14172841Y-7301715D01*
X14187756Y-7303705D01*
X14187756Y-7303705D01*
X14188454Y-7303798D01*
X14189155Y-7303734D01*
X14189156Y-7303734D01*
X14204140Y-7302370D01*
X14204140Y-7302370D01*
X14204842Y-7302306D01*
X14207706Y-7301376D01*
X14219823Y-7297439D01*
X14219823Y-7297439D01*
X14220493Y-7297221D01*
X14234628Y-7288795D01*
X14246545Y-7277447D01*
X14248146Y-7275037D01*
X14255261Y-7264327D01*
X14255261Y-7264327D01*
X14255651Y-7263740D01*
X14261495Y-7248357D01*
X14263785Y-7232061D01*
X14263814Y-7230000D01*
X14262717Y-7220223D01*
X14263946Y-7213231D01*
X14268760Y-7208012D01*
X14274097Y-7206271D01*
X14291360Y-7204700D01*
X14292030Y-7204482D01*
X14292030Y-7204482D01*
X14307941Y-7199312D01*
X14307941Y-7199312D01*
X14308611Y-7199095D01*
X14324191Y-7189807D01*
X14337327Y-7177298D01*
X14347364Y-7162190D01*
X14353805Y-7145234D01*
X14355342Y-7134301D01*
X14358271Y-7127833D01*
X14358910Y-7127145D01*
X14439623Y-7046432D01*
X14440862Y-7045345D01*
X14442744Y-7043901D01*
X14443399Y-7043399D01*
X14448462Y-7036800D01*
X14453152Y-7030688D01*
X14454831Y-7026636D01*
X14458968Y-7016648D01*
X14459284Y-7015885D01*
X14460085Y-7009800D01*
X14460381Y-7007548D01*
X14462379Y-7002220D01*
X14472364Y-6987190D01*
X14478805Y-6970234D01*
X14481330Y-6952272D01*
X14481362Y-6950000D01*
X14479340Y-6931974D01*
X14473374Y-6914845D01*
X14463763Y-6899462D01*
X14463168Y-6898864D01*
X14451478Y-6887091D01*
X14451477Y-6887091D01*
X14450981Y-6886592D01*
X14435667Y-6876873D01*
X14432746Y-6875833D01*
X14419242Y-6871024D01*
X14419242Y-6871024D01*
X14418579Y-6870788D01*
X14417880Y-6870705D01*
X14417880Y-6870705D01*
X14405570Y-6869237D01*
X14400568Y-6868640D01*
X14399868Y-6868714D01*
X14399868Y-6868714D01*
X14385106Y-6870265D01*
X14378122Y-6868988D01*
X14373104Y-6864411D01*
X14364136Y-6850060D01*
X14363763Y-6849462D01*
X14362394Y-6848084D01*
X14351478Y-6837091D01*
X14351477Y-6837091D01*
X14350981Y-6836592D01*
X14349870Y-6835886D01*
X14345054Y-6832830D01*
X14335667Y-6826873D01*
X14332746Y-6825833D01*
X14319242Y-6821024D01*
X14319242Y-6821024D01*
X14318579Y-6820788D01*
X14317880Y-6820705D01*
X14317880Y-6820705D01*
X14305570Y-6819237D01*
X14300568Y-6818640D01*
X14299868Y-6818714D01*
X14299868Y-6818714D01*
X14283229Y-6820463D01*
X14283229Y-6820463D01*
X14282529Y-6820536D01*
X14265358Y-6826382D01*
X14264757Y-6826751D01*
X14250509Y-6835517D01*
X14250509Y-6835517D01*
X14249909Y-6835886D01*
X14249405Y-6836379D01*
X14249405Y-6836379D01*
X14237452Y-6848084D01*
X14236949Y-6848577D01*
X14227123Y-6863824D01*
X14226883Y-6864486D01*
X14226882Y-6864486D01*
X14222236Y-6877251D01*
X14220920Y-6880868D01*
X14218646Y-6898864D01*
X14220416Y-6916916D01*
X14220639Y-6917584D01*
X14224603Y-6929502D01*
X14224855Y-6936597D01*
X14221557Y-6942388D01*
X14197842Y-6966103D01*
X14191610Y-6969506D01*
X14190249Y-6969725D01*
X14188080Y-6969953D01*
X14183230Y-6970463D01*
X14183229Y-6970463D01*
X14182529Y-6970536D01*
X14165358Y-6976382D01*
X14164757Y-6976751D01*
X14150509Y-6985517D01*
X14150509Y-6985517D01*
X14149909Y-6985886D01*
X14149405Y-6986379D01*
X14149405Y-6986379D01*
X14137452Y-6998084D01*
X14136949Y-6998577D01*
X14127123Y-7013824D01*
X14126883Y-7014486D01*
X14126882Y-7014486D01*
X14125290Y-7018861D01*
X14121081Y-7024578D01*
X14114448Y-7027112D01*
X14107499Y-7025658D01*
X14102439Y-7020678D01*
X14100850Y-7014551D01*
X14100850Y-6719566D01*
X14102850Y-6712754D01*
X14104540Y-6710656D01*
X14122879Y-6692318D01*
X14129110Y-6688915D01*
X14136192Y-6689422D01*
X14136911Y-6689716D01*
X14141771Y-6691879D01*
X14143834Y-6692318D01*
X14159806Y-6695713D01*
X14159806Y-6695713D01*
X14160451Y-6695850D01*
X14179549Y-6695850D01*
X14180194Y-6695713D01*
X14180194Y-6695713D01*
X14188889Y-6693865D01*
X14198229Y-6691879D01*
X14203087Y-6689717D01*
X14215072Y-6684380D01*
X14215072Y-6684380D01*
X14215675Y-6684112D01*
X14230616Y-6673256D01*
X14237303Y-6670871D01*
X14238022Y-6670850D01*
X15927109Y-6670850D01*
X15927966Y-6670879D01*
X15932978Y-6671221D01*
X15932978Y-6671221D01*
X15933735Y-6671272D01*
X15934483Y-6671142D01*
X15934483Y-6671142D01*
X15937131Y-6670680D01*
X15940030Y-6670174D01*
X15940682Y-6670078D01*
X15947024Y-6669310D01*
X15947734Y-6669042D01*
X15947995Y-6668978D01*
X15949626Y-6668531D01*
X15949880Y-6668455D01*
X15950628Y-6668324D01*
X15956480Y-6665756D01*
X15957090Y-6665506D01*
X15957102Y-6665502D01*
X15963066Y-6663249D01*
X15963692Y-6662818D01*
X15963928Y-6662695D01*
X15965410Y-6661870D01*
X15965635Y-6661737D01*
X15966330Y-6661431D01*
X15971400Y-6657541D01*
X15971933Y-6657154D01*
X15976572Y-6653966D01*
X15976572Y-6653966D01*
X15977198Y-6653536D01*
X15981344Y-6648883D01*
X15981842Y-6648355D01*
X16490140Y-6140057D01*
X16496372Y-6136654D01*
X16503453Y-6137160D01*
X16509137Y-6141415D01*
X16511618Y-6148067D01*
X16511650Y-6148966D01*
X16511650Y-6392123D01*
X16511597Y-6393242D01*
X16511430Y-6393991D01*
X16511592Y-6399155D01*
X16511636Y-6400549D01*
X16511025Y-6404839D01*
X16510646Y-6406007D01*
X16508650Y-6425000D01*
X16510646Y-6443993D01*
X16516547Y-6462156D01*
X16526096Y-6478694D01*
X16538875Y-6492887D01*
X16554325Y-6504112D01*
X16554928Y-6504380D01*
X16554928Y-6504380D01*
X16557537Y-6505542D01*
X16571771Y-6511879D01*
X16579642Y-6513552D01*
X16589806Y-6515713D01*
X16589806Y-6515713D01*
X16590451Y-6515850D01*
X16609549Y-6515850D01*
X16610194Y-6515713D01*
X16610194Y-6515713D01*
X16620358Y-6513552D01*
X16628229Y-6511879D01*
X16642463Y-6505542D01*
X16645072Y-6504380D01*
X16645072Y-6504380D01*
X16645675Y-6504112D01*
X16661125Y-6492887D01*
X16673904Y-6478694D01*
X16683453Y-6462156D01*
X16689354Y-6443993D01*
X16691350Y-6425000D01*
X16689354Y-6406007D01*
X16683453Y-6387844D01*
X16673904Y-6371306D01*
X16672091Y-6369292D01*
X16661567Y-6357604D01*
X16661567Y-6357604D01*
X16661125Y-6357113D01*
X16645675Y-6345888D01*
X16645072Y-6345620D01*
X16644650Y-6345376D01*
X16639750Y-6340237D01*
X16638350Y-6334464D01*
X16638350Y-6279739D01*
X18206776Y-6279739D01*
X18207522Y-6280775D01*
X18231494Y-6300187D01*
X18232027Y-6300575D01*
X18264069Y-6321383D01*
X18264639Y-6321713D01*
X18298681Y-6339058D01*
X18299284Y-6339326D01*
X18334950Y-6353017D01*
X18335578Y-6353221D01*
X18372482Y-6363109D01*
X18373127Y-6363246D01*
X18410863Y-6369223D01*
X18411517Y-6369292D01*
X18449670Y-6371292D01*
X18450330Y-6371292D01*
X18488483Y-6369292D01*
X18489137Y-6369223D01*
X18526873Y-6363246D01*
X18527518Y-6363109D01*
X18564422Y-6353221D01*
X18565050Y-6353017D01*
X18600716Y-6339326D01*
X18601319Y-6339058D01*
X18635361Y-6321713D01*
X18635932Y-6321383D01*
X18667973Y-6300575D01*
X18668507Y-6300187D01*
X18692384Y-6280852D01*
X18693230Y-6279627D01*
X18692597Y-6278518D01*
X18451281Y-6037202D01*
X18449887Y-6036441D01*
X18449704Y-6036454D01*
X18449042Y-6036879D01*
X18207490Y-6278431D01*
X18206776Y-6279739D01*
X16638350Y-6279739D01*
X16638350Y-6000330D01*
X18078708Y-6000330D01*
X18080708Y-6038483D01*
X18080777Y-6039137D01*
X18086754Y-6076873D01*
X18086891Y-6077518D01*
X18096779Y-6114422D01*
X18096983Y-6115050D01*
X18110674Y-6150716D01*
X18110942Y-6151319D01*
X18128287Y-6185360D01*
X18128617Y-6185931D01*
X18149425Y-6217973D01*
X18149812Y-6218506D01*
X18169148Y-6242383D01*
X18170373Y-6243230D01*
X18171482Y-6242597D01*
X18412798Y-6001281D01*
X18413559Y-5999887D01*
X18413546Y-5999703D01*
X18413121Y-5999042D01*
X18171569Y-5757490D01*
X18170261Y-5756776D01*
X18169225Y-5757522D01*
X18149812Y-5781494D01*
X18149425Y-5782026D01*
X18128617Y-5814069D01*
X18128287Y-5814640D01*
X18110942Y-5848681D01*
X18110674Y-5849284D01*
X18096983Y-5884950D01*
X18096779Y-5885578D01*
X18086891Y-5922482D01*
X18086754Y-5923127D01*
X18080777Y-5960863D01*
X18080708Y-5961517D01*
X18078708Y-5999670D01*
X18078708Y-6000330D01*
X16638350Y-6000330D01*
X16638350Y-5995107D01*
X16640350Y-5988295D01*
X16641034Y-5987333D01*
X16642298Y-5985722D01*
X16642610Y-5985030D01*
X16642748Y-5984802D01*
X16643586Y-5983333D01*
X16643712Y-5983097D01*
X16644149Y-5982476D01*
X16646470Y-5976522D01*
X16646726Y-5975914D01*
X16649042Y-5970785D01*
X16649354Y-5970093D01*
X16649493Y-5969345D01*
X16649573Y-5969089D01*
X16650035Y-5967466D01*
X16650102Y-5967207D01*
X16650378Y-5966499D01*
X16651212Y-5960164D01*
X16651315Y-5959512D01*
X16652341Y-5953978D01*
X16652479Y-5953231D01*
X16652121Y-5947012D01*
X16652100Y-5946287D01*
X16652100Y-5891874D01*
X16654100Y-5885062D01*
X16654506Y-5884468D01*
X16654712Y-5884185D01*
X16655154Y-5883694D01*
X16657332Y-5879922D01*
X16664372Y-5867728D01*
X16664372Y-5867728D01*
X16664703Y-5867156D01*
X16670604Y-5848993D01*
X16672600Y-5830000D01*
X16672307Y-5827205D01*
X16670673Y-5811663D01*
X16670673Y-5811663D01*
X16670604Y-5811007D01*
X16664703Y-5792844D01*
X16663427Y-5790634D01*
X16659480Y-5783799D01*
X16655154Y-5776306D01*
X16649229Y-5769725D01*
X16642817Y-5762604D01*
X16642817Y-5762604D01*
X16642375Y-5762113D01*
X16631192Y-5753988D01*
X16627459Y-5751276D01*
X16627459Y-5751276D01*
X16626925Y-5750888D01*
X16626322Y-5750620D01*
X16626322Y-5750620D01*
X16610082Y-5743389D01*
X16610082Y-5743389D01*
X16609479Y-5743121D01*
X16600139Y-5741135D01*
X16591444Y-5739287D01*
X16591444Y-5739287D01*
X16590799Y-5739150D01*
X16571701Y-5739150D01*
X16571056Y-5739287D01*
X16571056Y-5739287D01*
X16562361Y-5741135D01*
X16553021Y-5743121D01*
X16552418Y-5743389D01*
X16552418Y-5743389D01*
X16536178Y-5750620D01*
X16536178Y-5750620D01*
X16535575Y-5750888D01*
X16535041Y-5751276D01*
X16535041Y-5751276D01*
X16531308Y-5753988D01*
X16520125Y-5762113D01*
X16519683Y-5762604D01*
X16519682Y-5762604D01*
X16513271Y-5769725D01*
X16507346Y-5776306D01*
X16503020Y-5783799D01*
X16499073Y-5790634D01*
X16497797Y-5792844D01*
X16491896Y-5811007D01*
X16491827Y-5811663D01*
X16491827Y-5811663D01*
X16490193Y-5827205D01*
X16489900Y-5830000D01*
X16491896Y-5848993D01*
X16497797Y-5867156D01*
X16498128Y-5867728D01*
X16498128Y-5867728D01*
X16505168Y-5879922D01*
X16507346Y-5883694D01*
X16507788Y-5884185D01*
X16507994Y-5884468D01*
X16510379Y-5891155D01*
X16510400Y-5891874D01*
X16510400Y-5914184D01*
X16508400Y-5920996D01*
X16506709Y-5923093D01*
X15904343Y-6525459D01*
X15898112Y-6528862D01*
X15895434Y-6529150D01*
X14224259Y-6529150D01*
X14216853Y-6526744D01*
X14216210Y-6526276D01*
X14216209Y-6526276D01*
X14215675Y-6525888D01*
X14215072Y-6525620D01*
X14215072Y-6525620D01*
X14198832Y-6518389D01*
X14198832Y-6518389D01*
X14198229Y-6518121D01*
X14188889Y-6516135D01*
X14180194Y-6514287D01*
X14180194Y-6514287D01*
X14179549Y-6514150D01*
X14160451Y-6514150D01*
X14159806Y-6514287D01*
X14159806Y-6514287D01*
X14151111Y-6516135D01*
X14141771Y-6518121D01*
X14141168Y-6518389D01*
X14141168Y-6518389D01*
X14124928Y-6525620D01*
X14124928Y-6525620D01*
X14124325Y-6525888D01*
X14123791Y-6526276D01*
X14123791Y-6526276D01*
X14116612Y-6531492D01*
X14109925Y-6533878D01*
X14108349Y-6533869D01*
X14107023Y-6533779D01*
X14107022Y-6533779D01*
X14106265Y-6533727D01*
X14099968Y-6534826D01*
X14099317Y-6534922D01*
X14092976Y-6535690D01*
X14092266Y-6535958D01*
X14092005Y-6536022D01*
X14090371Y-6536469D01*
X14090119Y-6536545D01*
X14089372Y-6536676D01*
X14088676Y-6536981D01*
X14088676Y-6536981D01*
X14083520Y-6539244D01*
X14082910Y-6539493D01*
X14077646Y-6541482D01*
X14077645Y-6541483D01*
X14076934Y-6541751D01*
X14076308Y-6542182D01*
X14076072Y-6542305D01*
X14074594Y-6543128D01*
X14074365Y-6543263D01*
X14073669Y-6543568D01*
X14073067Y-6544030D01*
X14073067Y-6544031D01*
X14069954Y-6546419D01*
X14068600Y-6547459D01*
X14068067Y-6547846D01*
X14063428Y-6551034D01*
X14063427Y-6551034D01*
X14062802Y-6551464D01*
X14062297Y-6552031D01*
X14062297Y-6552031D01*
X14058656Y-6556117D01*
X14058158Y-6556645D01*
X13981948Y-6632855D01*
X13981321Y-6633440D01*
X13976961Y-6637244D01*
X13976525Y-6637865D01*
X13973287Y-6642472D01*
X13972894Y-6643001D01*
X13968952Y-6648028D01*
X13968640Y-6648720D01*
X13968502Y-6648948D01*
X13967664Y-6650416D01*
X13967538Y-6650652D01*
X13967101Y-6651274D01*
X13966825Y-6651982D01*
X13966825Y-6651982D01*
X13964780Y-6657227D01*
X13964525Y-6657834D01*
X13961895Y-6663657D01*
X13961757Y-6664404D01*
X13961677Y-6664659D01*
X13961214Y-6666285D01*
X13961148Y-6666543D01*
X13960872Y-6667251D01*
X13960773Y-6668004D01*
X13960773Y-6668004D01*
X13960601Y-6669310D01*
X13960130Y-6672887D01*
X13960038Y-6673585D01*
X13959935Y-6674236D01*
X13958770Y-6680519D01*
X13958814Y-6681277D01*
X13958814Y-6681277D01*
X13959129Y-6686739D01*
X13959150Y-6687465D01*
X13959150Y-6985434D01*
X13957150Y-6992246D01*
X13955459Y-6994343D01*
X13945660Y-7004143D01*
X13939428Y-7007546D01*
X13932347Y-7007039D01*
X13927809Y-7004112D01*
X13927009Y-7003306D01*
X13923628Y-6997063D01*
X13923350Y-6994428D01*
X13923350Y-6640957D01*
X13925350Y-6634145D01*
X13927040Y-6632047D01*
X14334548Y-6224540D01*
X14340779Y-6221138D01*
X14343457Y-6220850D01*
X14574890Y-6220850D01*
X14575747Y-6220879D01*
X14580759Y-6221221D01*
X14580760Y-6221221D01*
X14581517Y-6221272D01*
X14582265Y-6221142D01*
X14582265Y-6221142D01*
X14587811Y-6220174D01*
X14588463Y-6220078D01*
X14592345Y-6219608D01*
X14594806Y-6219310D01*
X14595516Y-6219042D01*
X14595775Y-6218978D01*
X14597408Y-6218532D01*
X14597662Y-6218455D01*
X14598410Y-6218324D01*
X14599105Y-6218019D01*
X14599105Y-6218019D01*
X14604261Y-6215756D01*
X14604872Y-6215507D01*
X14610136Y-6213517D01*
X14610136Y-6213517D01*
X14610847Y-6213249D01*
X14611473Y-6212818D01*
X14611710Y-6212695D01*
X14613188Y-6211872D01*
X14613416Y-6211737D01*
X14614112Y-6211431D01*
X14614714Y-6210969D01*
X14614715Y-6210969D01*
X14617827Y-6208581D01*
X14619182Y-6207541D01*
X14619715Y-6207154D01*
X14624354Y-6203966D01*
X14624354Y-6203966D01*
X14624980Y-6203536D01*
X14629125Y-6198883D01*
X14629623Y-6198355D01*
X14828438Y-5999540D01*
X14834670Y-5996138D01*
X14837348Y-5995850D01*
X15178703Y-5995850D01*
X15185515Y-5997850D01*
X15190165Y-6003216D01*
X15190686Y-6004556D01*
X15191547Y-6007206D01*
X15201096Y-6023744D01*
X15201538Y-6024235D01*
X15201538Y-6024235D01*
X15210358Y-6034031D01*
X15213875Y-6037937D01*
X15229325Y-6049162D01*
X15229928Y-6049430D01*
X15229928Y-6049430D01*
X15245105Y-6056188D01*
X15246771Y-6056929D01*
X15253559Y-6058372D01*
X15264806Y-6060763D01*
X15264806Y-6060763D01*
X15265451Y-6060900D01*
X15284549Y-6060900D01*
X15285194Y-6060763D01*
X15285194Y-6060763D01*
X15296440Y-6058372D01*
X15303229Y-6056929D01*
X15304895Y-6056188D01*
X15320072Y-6049430D01*
X15320072Y-6049430D01*
X15320675Y-6049162D01*
X15336125Y-6037937D01*
X15340636Y-6032926D01*
X15346681Y-6029202D01*
X15353779Y-6029338D01*
X15359364Y-6032926D01*
X15363875Y-6037937D01*
X15379325Y-6049162D01*
X15379928Y-6049430D01*
X15379928Y-6049430D01*
X15395105Y-6056188D01*
X15396771Y-6056929D01*
X15403559Y-6058372D01*
X15414806Y-6060763D01*
X15414806Y-6060763D01*
X15415451Y-6060900D01*
X15434549Y-6060900D01*
X15435194Y-6060763D01*
X15435194Y-6060763D01*
X15446440Y-6058372D01*
X15453229Y-6056929D01*
X15454895Y-6056188D01*
X15470072Y-6049430D01*
X15470072Y-6049430D01*
X15470675Y-6049162D01*
X15486125Y-6037937D01*
X15489642Y-6034031D01*
X15498462Y-6024235D01*
X15498462Y-6024235D01*
X15498904Y-6023744D01*
X15508453Y-6007206D01*
X15514354Y-5989043D01*
X15514534Y-5987333D01*
X15516281Y-5970706D01*
X15516350Y-5970050D01*
X15515898Y-5965746D01*
X15514423Y-5951713D01*
X15514423Y-5951713D01*
X15514354Y-5951057D01*
X15508453Y-5932894D01*
X15506311Y-5929185D01*
X15502794Y-5923093D01*
X15498904Y-5916356D01*
X15486125Y-5902163D01*
X15470675Y-5890938D01*
X15470072Y-5890670D01*
X15470072Y-5890670D01*
X15453832Y-5883439D01*
X15453832Y-5883439D01*
X15453229Y-5883171D01*
X15437943Y-5879922D01*
X15431654Y-5876506D01*
X15377093Y-5821946D01*
X15376508Y-5821320D01*
X15373206Y-5817534D01*
X15373205Y-5817534D01*
X15372706Y-5816961D01*
X15367478Y-5813287D01*
X15366949Y-5812894D01*
X15363945Y-5810539D01*
X15361922Y-5808952D01*
X15361230Y-5808640D01*
X15361002Y-5808502D01*
X15359533Y-5807664D01*
X15359297Y-5807538D01*
X15358676Y-5807101D01*
X15357968Y-5806825D01*
X15357968Y-5806825D01*
X15352722Y-5804780D01*
X15352116Y-5804525D01*
X15346293Y-5801895D01*
X15345546Y-5801757D01*
X15345290Y-5801677D01*
X15343665Y-5801214D01*
X15343407Y-5801148D01*
X15342699Y-5800872D01*
X15341946Y-5800773D01*
X15341946Y-5800773D01*
X15338984Y-5800383D01*
X15336364Y-5800038D01*
X15335714Y-5799935D01*
X15329431Y-5798770D01*
X15328673Y-5798814D01*
X15328673Y-5798814D01*
X15323211Y-5799129D01*
X15322485Y-5799150D01*
X15003549Y-5799150D01*
X14996737Y-5797150D01*
X14992088Y-5791784D01*
X14991077Y-5784757D01*
X14993897Y-5778451D01*
X15001615Y-5769253D01*
X15001912Y-5768713D01*
X15001912Y-5768712D01*
X15010847Y-5752461D01*
X15011143Y-5751921D01*
X15011385Y-5751161D01*
X15016937Y-5733656D01*
X15016937Y-5733656D01*
X15017123Y-5733069D01*
X15018850Y-5717677D01*
X15018850Y-5695714D01*
X15020850Y-5688902D01*
X15026216Y-5684252D01*
X15033243Y-5683242D01*
X15034199Y-5683417D01*
X15034646Y-5683517D01*
X15051654Y-5687319D01*
X15052209Y-5687350D01*
X15065524Y-5687350D01*
X15068248Y-5687054D01*
X15071713Y-5686678D01*
X15079004Y-5685886D01*
X15090819Y-5681909D01*
X15095520Y-5680327D01*
X15095521Y-5680327D01*
X15096167Y-5680109D01*
X15111690Y-5670782D01*
X15112186Y-5670313D01*
X15112186Y-5670313D01*
X15124353Y-5658808D01*
X15124353Y-5658808D01*
X15124848Y-5658339D01*
X15125232Y-5657775D01*
X15125232Y-5657775D01*
X15134644Y-5643925D01*
X15135028Y-5643361D01*
X15141753Y-5626547D01*
X15141864Y-5625874D01*
X15141864Y-5625873D01*
X15144599Y-5609354D01*
X15144599Y-5609354D01*
X15144711Y-5608680D01*
X15144220Y-5599320D01*
X15143799Y-5591277D01*
X15143763Y-5590595D01*
X15143209Y-5588583D01*
X15139135Y-5573794D01*
X15138954Y-5573136D01*
X15130508Y-5557116D01*
X15130067Y-5556595D01*
X15130067Y-5556595D01*
X15119259Y-5543806D01*
X15119259Y-5543805D01*
X15118819Y-5543284D01*
X15118276Y-5542870D01*
X15104974Y-5532699D01*
X15104974Y-5532699D01*
X15104432Y-5532285D01*
X15093919Y-5527383D01*
X15088637Y-5524920D01*
X15088637Y-5524919D01*
X15088019Y-5524632D01*
X15087354Y-5524483D01*
X15087354Y-5524483D01*
X15070849Y-5520794D01*
X15070849Y-5520794D01*
X15070346Y-5520681D01*
X15069791Y-5520650D01*
X15056476Y-5520650D01*
X15042996Y-5522114D01*
X15034661Y-5524920D01*
X15026480Y-5527673D01*
X15026479Y-5527673D01*
X15025832Y-5527891D01*
X15010309Y-5537218D01*
X15010267Y-5537147D01*
X15004148Y-5539476D01*
X14997201Y-5538014D01*
X14993401Y-5534878D01*
X14991286Y-5532285D01*
X14989906Y-5530594D01*
X14989272Y-5530069D01*
X14975142Y-5518380D01*
X14975142Y-5518380D01*
X14974667Y-5517987D01*
X14957270Y-5508580D01*
X14938377Y-5502732D01*
X14937764Y-5502667D01*
X14937764Y-5502667D01*
X14919320Y-5500729D01*
X14919320Y-5500729D01*
X14918707Y-5500665D01*
X14910458Y-5501415D01*
X14899625Y-5502401D01*
X14899625Y-5502401D01*
X14899011Y-5502457D01*
X14898421Y-5502631D01*
X14898420Y-5502631D01*
X14882041Y-5507452D01*
X14874941Y-5507456D01*
X14868966Y-5503621D01*
X14866013Y-5497165D01*
X14865884Y-5495287D01*
X14865895Y-5493422D01*
X14865895Y-5493421D01*
X14865898Y-5493028D01*
X14865859Y-5492894D01*
X14865850Y-5492759D01*
X14865850Y-5375523D01*
X14867850Y-5368711D01*
X14873216Y-5364062D01*
X14880243Y-5363051D01*
X14882176Y-5363487D01*
X14897623Y-5368268D01*
X14898236Y-5368333D01*
X14898236Y-5368333D01*
X14916680Y-5370271D01*
X14916680Y-5370271D01*
X14917292Y-5370336D01*
X14925542Y-5369585D01*
X14936375Y-5368599D01*
X14936375Y-5368599D01*
X14936989Y-5368543D01*
X14937579Y-5368369D01*
X14937580Y-5368369D01*
X14952215Y-5364062D01*
X14955962Y-5362959D01*
X14956508Y-5362674D01*
X14956508Y-5362674D01*
X14965585Y-5357928D01*
X14973489Y-5353796D01*
X14988902Y-5341403D01*
X15001615Y-5326253D01*
X15001912Y-5325713D01*
X15001912Y-5325712D01*
X15010847Y-5309461D01*
X15011143Y-5308921D01*
X15011385Y-5308161D01*
X15016937Y-5290656D01*
X15016937Y-5290656D01*
X15017123Y-5290069D01*
X15018850Y-5274677D01*
X15018850Y-5204023D01*
X15018781Y-5203323D01*
X15017468Y-5189930D01*
X15017408Y-5189317D01*
X15011692Y-5170383D01*
X15011151Y-5169366D01*
X15009718Y-5162412D01*
X15012273Y-5155788D01*
X15018003Y-5151596D01*
X15022276Y-5150850D01*
X15677626Y-5150850D01*
X15684438Y-5152850D01*
G37*
%TD.AperFunction*%
%TA.AperFunction,Conductor*%
G36*
X14818015Y-5552850D02*
G01*
X14822664Y-5558216D01*
X14823675Y-5565243D01*
X14823213Y-5567260D01*
X14819063Y-5580344D01*
X14818876Y-5580931D01*
X14817150Y-5596323D01*
X14817150Y-5716977D01*
X14817180Y-5717282D01*
X14817180Y-5717283D01*
X14817483Y-5720373D01*
X14818592Y-5731683D01*
X14824308Y-5750617D01*
X14833593Y-5768080D01*
X14842052Y-5778451D01*
X14842163Y-5778586D01*
X14844918Y-5785130D01*
X14843698Y-5792124D01*
X14838891Y-5797348D01*
X14832398Y-5799150D01*
X14782891Y-5799150D01*
X14782034Y-5799121D01*
X14777022Y-5798779D01*
X14777022Y-5798779D01*
X14776265Y-5798727D01*
X14775517Y-5798858D01*
X14775517Y-5798858D01*
X14772869Y-5799320D01*
X14769970Y-5799826D01*
X14769318Y-5799922D01*
X14762976Y-5800690D01*
X14762266Y-5800958D01*
X14762005Y-5801022D01*
X14760374Y-5801468D01*
X14760120Y-5801545D01*
X14759372Y-5801676D01*
X14757255Y-5802605D01*
X14753521Y-5804244D01*
X14752910Y-5804493D01*
X14746934Y-5806751D01*
X14746308Y-5807182D01*
X14746072Y-5807305D01*
X14744590Y-5808130D01*
X14744365Y-5808263D01*
X14743670Y-5808568D01*
X14738600Y-5812459D01*
X14738067Y-5812846D01*
X14733428Y-5816034D01*
X14733428Y-5816034D01*
X14732802Y-5816464D01*
X14732297Y-5817031D01*
X14732297Y-5817031D01*
X14728657Y-5821117D01*
X14728158Y-5821645D01*
X14529343Y-6020459D01*
X14523112Y-6023862D01*
X14520434Y-6024150D01*
X14289001Y-6024150D01*
X14288144Y-6024121D01*
X14283132Y-6023779D01*
X14283131Y-6023779D01*
X14282374Y-6023727D01*
X14276077Y-6024826D01*
X14275426Y-6024922D01*
X14269085Y-6025690D01*
X14268375Y-6025958D01*
X14268114Y-6026022D01*
X14266481Y-6026469D01*
X14266229Y-6026545D01*
X14265481Y-6026676D01*
X14264786Y-6026981D01*
X14264786Y-6026981D01*
X14259630Y-6029244D01*
X14259019Y-6029493D01*
X14253755Y-6031482D01*
X14253754Y-6031483D01*
X14253044Y-6031751D01*
X14252418Y-6032182D01*
X14252181Y-6032305D01*
X14250703Y-6033128D01*
X14250474Y-6033263D01*
X14249779Y-6033568D01*
X14244707Y-6037460D01*
X14244177Y-6037845D01*
X14238911Y-6041464D01*
X14238406Y-6042031D01*
X14238406Y-6042031D01*
X14234767Y-6046116D01*
X14234268Y-6046644D01*
X13767359Y-6513552D01*
X13761128Y-6516955D01*
X13754047Y-6516448D01*
X13748363Y-6512194D01*
X13745882Y-6505542D01*
X13745850Y-6504643D01*
X13745850Y-6424348D01*
X13747850Y-6417536D01*
X13753216Y-6412887D01*
X13754857Y-6412352D01*
X13754842Y-6412306D01*
X13769823Y-6407439D01*
X13769823Y-6407439D01*
X13770493Y-6407221D01*
X13784628Y-6398795D01*
X13796545Y-6387447D01*
X13805651Y-6373740D01*
X13811495Y-6358357D01*
X13813193Y-6346276D01*
X13813730Y-6342453D01*
X13813730Y-6342453D01*
X13813785Y-6342061D01*
X13813814Y-6340000D01*
X13811980Y-6323647D01*
X13811306Y-6321713D01*
X13806941Y-6309177D01*
X13806590Y-6302087D01*
X13809931Y-6296124D01*
X13889623Y-6216432D01*
X13890862Y-6215345D01*
X13892744Y-6213901D01*
X13893399Y-6213399D01*
X13896986Y-6208723D01*
X13903152Y-6200688D01*
X13904118Y-6198355D01*
X13908968Y-6186648D01*
X13909284Y-6185885D01*
X13909458Y-6184561D01*
X13910434Y-6177147D01*
X13910434Y-6177147D01*
X13910850Y-6173988D01*
X13910850Y-6173987D01*
X13910965Y-6173116D01*
X13912962Y-6167788D01*
X13915262Y-6164327D01*
X13915262Y-6164327D01*
X13915651Y-6163740D01*
X13921495Y-6148357D01*
X13923785Y-6132061D01*
X13923814Y-6130000D01*
X13921980Y-6113647D01*
X13921400Y-6111981D01*
X13918269Y-6102991D01*
X13916568Y-6098106D01*
X13915344Y-6096148D01*
X13908221Y-6084748D01*
X13907848Y-6084150D01*
X13902050Y-6078312D01*
X13896749Y-6072974D01*
X13896748Y-6072973D01*
X13896252Y-6072474D01*
X13882358Y-6063656D01*
X13874232Y-6060763D01*
X13867519Y-6058372D01*
X13867519Y-6058372D01*
X13866855Y-6058136D01*
X13866157Y-6058053D01*
X13866156Y-6058053D01*
X13854484Y-6056661D01*
X13850515Y-6056188D01*
X13849815Y-6056261D01*
X13849815Y-6056261D01*
X13845493Y-6056715D01*
X13834149Y-6057908D01*
X13833483Y-6058135D01*
X13819238Y-6062984D01*
X13819238Y-6062984D01*
X13818571Y-6063211D01*
X13804555Y-6071834D01*
X13792798Y-6083347D01*
X13783884Y-6097180D01*
X13783643Y-6097842D01*
X13783643Y-6097842D01*
X13778497Y-6111981D01*
X13778496Y-6111981D01*
X13778256Y-6112643D01*
X13776193Y-6128969D01*
X13777799Y-6145347D01*
X13778021Y-6146015D01*
X13778021Y-6146015D01*
X13778038Y-6146067D01*
X13778040Y-6146102D01*
X13778168Y-6146704D01*
X13778062Y-6146727D01*
X13778290Y-6153162D01*
X13774992Y-6158953D01*
X13767359Y-6166586D01*
X13761128Y-6169988D01*
X13754047Y-6169482D01*
X13748363Y-6165227D01*
X13745882Y-6158575D01*
X13745850Y-6157676D01*
X13745850Y-6127891D01*
X13745879Y-6127034D01*
X13746221Y-6122022D01*
X13746221Y-6122022D01*
X13746272Y-6121265D01*
X13745174Y-6114970D01*
X13745078Y-6114318D01*
X13744401Y-6108730D01*
X13744310Y-6107976D01*
X13744042Y-6107265D01*
X13743978Y-6107006D01*
X13743532Y-6105375D01*
X13743455Y-6105120D01*
X13743324Y-6104372D01*
X13743019Y-6103676D01*
X13740756Y-6098521D01*
X13740507Y-6097910D01*
X13738517Y-6092645D01*
X13738517Y-6092645D01*
X13738249Y-6091934D01*
X13737818Y-6091308D01*
X13737695Y-6091072D01*
X13736872Y-6089594D01*
X13736737Y-6089365D01*
X13736431Y-6088669D01*
X13735969Y-6088067D01*
X13735969Y-6088067D01*
X13733422Y-6084748D01*
X13732541Y-6083600D01*
X13732154Y-6083067D01*
X13728966Y-6078428D01*
X13728966Y-6078427D01*
X13728536Y-6077802D01*
X13723883Y-6073656D01*
X13723355Y-6073158D01*
X13641540Y-5991343D01*
X13638138Y-5985112D01*
X13637850Y-5982434D01*
X13637850Y-5806814D01*
X13637958Y-5805169D01*
X13638009Y-5804780D01*
X13638375Y-5802000D01*
X13637850Y-5798012D01*
X13637850Y-5798011D01*
X13637252Y-5793473D01*
X13636489Y-5787674D01*
X13636489Y-5787674D01*
X13636284Y-5786115D01*
X13636284Y-5786115D01*
X13630152Y-5771312D01*
X13622848Y-5761793D01*
X13622847Y-5761792D01*
X13622150Y-5760883D01*
X13620902Y-5759257D01*
X13620901Y-5759256D01*
X13620399Y-5758601D01*
X13619115Y-5757616D01*
X13617862Y-5756655D01*
X13616623Y-5755568D01*
X13433414Y-5572360D01*
X13430012Y-5566128D01*
X13430518Y-5559047D01*
X13434773Y-5553363D01*
X13441425Y-5550882D01*
X13442324Y-5550850D01*
X14811203Y-5550850D01*
X14818015Y-5552850D01*
G37*
%TD.AperFunction*%
%TA.AperFunction,Conductor*%
G36*
X13326388Y-5637850D02*
G01*
X13328486Y-5639540D01*
X13512459Y-5823514D01*
X13515862Y-5829746D01*
X13516150Y-5832424D01*
X13516150Y-5943550D01*
X13514150Y-5950362D01*
X13508784Y-5955011D01*
X13503550Y-5956150D01*
X13327483Y-5956150D01*
X13320671Y-5954150D01*
X13316021Y-5948784D01*
X13315011Y-5941757D01*
X13318119Y-5935119D01*
X13323904Y-5928694D01*
X13333453Y-5912156D01*
X13339354Y-5893993D01*
X13339675Y-5890938D01*
X13341281Y-5875656D01*
X13341350Y-5875000D01*
X13339354Y-5856007D01*
X13333453Y-5837844D01*
X13323904Y-5821306D01*
X13321822Y-5818993D01*
X13311567Y-5807604D01*
X13311567Y-5807604D01*
X13311125Y-5807113D01*
X13299642Y-5798770D01*
X13296209Y-5796276D01*
X13296209Y-5796276D01*
X13295675Y-5795888D01*
X13295072Y-5795620D01*
X13295072Y-5795620D01*
X13278832Y-5788389D01*
X13278832Y-5788389D01*
X13278229Y-5788121D01*
X13266670Y-5785664D01*
X13260500Y-5784352D01*
X13254253Y-5780979D01*
X13251136Y-5775921D01*
X13246532Y-5761751D01*
X13245998Y-5760550D01*
X13243563Y-5756333D01*
X13242542Y-5755360D01*
X13241740Y-5755681D01*
X13194816Y-5802605D01*
X13193313Y-5803889D01*
X13189409Y-5806725D01*
X13188875Y-5807113D01*
X13185463Y-5810902D01*
X13179419Y-5814626D01*
X13172321Y-5814491D01*
X13166422Y-5810539D01*
X13163596Y-5804026D01*
X13163500Y-5802471D01*
X13163500Y-5798000D01*
X13157998Y-5798000D01*
X13151186Y-5796000D01*
X13146537Y-5790634D01*
X13145526Y-5783607D01*
X13148476Y-5777149D01*
X13149088Y-5776490D01*
X13205660Y-5719919D01*
X13206336Y-5718681D01*
X13205985Y-5718212D01*
X13202707Y-5716753D01*
X13197297Y-5712154D01*
X13195232Y-5705362D01*
X13195639Y-5702066D01*
X13199549Y-5687054D01*
X13199549Y-5687054D01*
X13199710Y-5686436D01*
X13200272Y-5675715D01*
X13200744Y-5666709D01*
X13200744Y-5666709D01*
X13200777Y-5666071D01*
X13198397Y-5650334D01*
X13199356Y-5643300D01*
X13203966Y-5637900D01*
X13210855Y-5635850D01*
X13319576Y-5635850D01*
X13326388Y-5637850D01*
G37*
%TD.AperFunction*%
%TD*%
M02*
