M48
; DRILL file {KiCad 6.0.6+dfsg-1} date Thu 01 Sep 2022 10:57:59 PM PDT
; FORMAT={-:-/ absolute / metric / decimal}
; #@! TF.CreationDate,2022-09-01T22:57:59-07:00
; #@! TF.GenerationSoftware,Kicad,Pcbnew,6.0.6+dfsg-1
; #@! TF.FileFunction,NonPlated,1,2,NPTH
FMAT,2
METRIC
; #@! TA.AperFunction,NonPlated,NPTH,ComponentDrill
T1C0.650
; #@! TA.AperFunction,NonPlated,NPTH,ComponentDrill
T2C1.750
; #@! TA.AperFunction,NonPlated,NPTH,ComponentDrill
T3C1.900
; #@! TA.AperFunction,NonPlated,NPTH,ComponentDrill
T4C2.500
; #@! TA.AperFunction,NonPlated,NPTH,ComponentDrill
T5C3.050
; #@! TA.AperFunction,NonPlated,NPTH,ComponentDrill
T6C5.050
%
G90
G05
T1
X150.61Y-59.94
X156.39Y-59.94
T2
X129.42Y-81.75
X139.58Y-81.75
X148.42Y-81.75
X158.58Y-81.75
X167.47Y-81.75
X177.63Y-81.75
T3
X129.0Y-81.75
X140.0Y-81.75
X148.0Y-81.75
X159.0Y-81.75
X167.05Y-81.75
X178.05Y-81.75
T4
X122.5Y-60.0
X122.5Y-105.0
X184.5Y-105.0
X185.0Y-59.5
T5
X130.69Y-84.29
X134.5Y-87.65
X137.04Y-86.83
X139.5Y-85.55
X149.69Y-84.29
X153.5Y-87.65
X156.04Y-86.83
X158.5Y-85.55
X168.74Y-84.29
X172.55Y-87.65
X175.09Y-86.83
X177.55Y-85.55
T6
X134.5Y-81.75
X153.5Y-81.75
X172.55Y-81.75
T0
M30
