%TF.GenerationSoftware,KiCad,Pcbnew,6.0.9+dfsg-1*%
%TF.CreationDate,2022-11-21T00:59:10-08:00*%
%TF.ProjectId,muon,6d756f6e-2e6b-4696-9361-645f70636258,v0.6*%
%TF.SameCoordinates,Original*%
%TF.FileFunction,Soldermask,Bot*%
%TF.FilePolarity,Negative*%
%FSLAX45Y45*%
G04 Gerber Fmt 4.5, Leading zero omitted, Abs format (unit mm)*
G04 Created by KiCad (PCBNEW 6.0.9+dfsg-1) date 2022-11-21 00:59:10*
%MOMM*%
%LPD*%
G01*
G04 APERTURE LIST*
%ADD10C,0.650000*%
%ADD11O,1.000000X2.100000*%
%ADD12O,1.000000X1.600000*%
%ADD13C,6.400000*%
%ADD14C,1.750000*%
%ADD15C,1.900000*%
%ADD16C,3.050000*%
%ADD17C,5.050000*%
%ADD18R,1.000000X0.750000*%
%ADD19C,0.990600*%
%ADD20C,0.787400*%
G04 APERTURE END LIST*
D10*
%TO.C,J2*%
X15061000Y-5604000D03*
X15639000Y-5604000D03*
D11*
X15782000Y-5657000D03*
X14918000Y-5657000D03*
D12*
X14918000Y-5239000D03*
X15782000Y-5239000D03*
%TD*%
D13*
%TO.C,*%
X12250000Y-6000000D03*
%TD*%
%TO.C,*%
X18450000Y-6000000D03*
%TD*%
%TO.C,*%
X18450000Y-10500000D03*
%TD*%
%TO.C,*%
X12250000Y-10500000D03*
%TD*%
D14*
%TO.C,SW2*%
X15858000Y-8175000D03*
D15*
X14800000Y-8175000D03*
D16*
X14969000Y-8429000D03*
X15850000Y-8555000D03*
X15604000Y-8683000D03*
D14*
X14842000Y-8175000D03*
D15*
X15900000Y-8175000D03*
D17*
X15350000Y-8175000D03*
D16*
X15350000Y-8765000D03*
%TD*%
D18*
%TO.C,S3*%
X17201250Y-9907500D03*
X16601250Y-9907500D03*
X17201250Y-10282500D03*
X16601250Y-10282500D03*
%TD*%
%TO.C,S1*%
X14100000Y-9907500D03*
X13500000Y-9907500D03*
X14100000Y-10282500D03*
X13500000Y-10282500D03*
%TD*%
D16*
%TO.C,SW7*%
X17255000Y-8765000D03*
D17*
X17255000Y-8175000D03*
D15*
X16705000Y-8175000D03*
D16*
X16874000Y-8429000D03*
X17755000Y-8555000D03*
X17509000Y-8683000D03*
D14*
X16747000Y-8175000D03*
X17763000Y-8175000D03*
D15*
X17805000Y-8175000D03*
%TD*%
D19*
%TO.C,J1*%
X13100000Y-5671000D03*
X12998400Y-6179000D03*
X13201600Y-6179000D03*
D20*
X13163500Y-5798000D03*
X13036500Y-5798000D03*
X13163500Y-5925000D03*
X13036500Y-5925000D03*
X13163500Y-6052000D03*
X13036500Y-6052000D03*
%TD*%
D16*
%TO.C,SW1*%
X13450000Y-8765000D03*
D14*
X13958000Y-8175000D03*
D17*
X13450000Y-8175000D03*
D15*
X14000000Y-8175000D03*
X12900000Y-8175000D03*
D14*
X12942000Y-8175000D03*
D16*
X13069000Y-8429000D03*
X13704000Y-8683000D03*
X13950000Y-8555000D03*
%TD*%
D18*
%TO.C,S2*%
X15650000Y-9912500D03*
X15050000Y-9912500D03*
X15650000Y-10287500D03*
X15050000Y-10287500D03*
%TD*%
M02*
