%TF.GenerationSoftware,KiCad,Pcbnew,6.0.6+dfsg-1*%
%TF.CreationDate,2022-07-23T23:21:49-07:00*%
%TF.ProjectId,muon,6d756f6e-2e6b-4696-9361-645f70636258,rev?*%
%TF.SameCoordinates,Original*%
%TF.FileFunction,Soldermask,Top*%
%TF.FilePolarity,Negative*%
%FSLAX45Y45*%
G04 Gerber Fmt 4.5, Leading zero omitted, Abs format (unit mm)*
G04 Created by KiCad (PCBNEW 6.0.6+dfsg-1) date 2022-07-23 23:21:49*
%MOMM*%
%LPD*%
G01*
G04 APERTURE LIST*
G04 Aperture macros list*
%AMRoundRect*
0 Rectangle with rounded corners*
0 $1 Rounding radius*
0 $2 $3 $4 $5 $6 $7 $8 $9 X,Y pos of 4 corners*
0 Add a 4 corners polygon primitive as box body*
4,1,4,$2,$3,$4,$5,$6,$7,$8,$9,$2,$3,0*
0 Add four circle primitives for the rounded corners*
1,1,$1+$1,$2,$3*
1,1,$1+$1,$4,$5*
1,1,$1+$1,$6,$7*
1,1,$1+$1,$8,$9*
0 Add four rect primitives between the rounded corners*
20,1,$1+$1,$2,$3,$4,$5,0*
20,1,$1+$1,$4,$5,$6,$7,0*
20,1,$1+$1,$6,$7,$8,$9,0*
20,1,$1+$1,$8,$9,$2,$3,0*%
%AMFreePoly0*
4,1,18,-0.410000,0.265000,0.000000,0.675000,0.328000,0.675000,0.359380,0.668758,0.385983,0.650983,0.403758,0.624380,0.410000,0.593000,0.410000,-0.593000,0.403758,-0.624380,0.385983,-0.650983,0.359380,-0.668758,0.328000,-0.675000,-0.328000,-0.675000,-0.359380,-0.668758,-0.385983,-0.650983,-0.403758,-0.624380,-0.410000,-0.593000,-0.410000,0.265000,-0.410000,0.265000,$1*%
G04 Aperture macros list end*
%ADD10RoundRect,0.147500X0.147500X0.172500X-0.147500X0.172500X-0.147500X-0.172500X0.147500X-0.172500X0*%
%ADD11RoundRect,0.140000X-0.170000X0.140000X-0.170000X-0.140000X0.170000X-0.140000X0.170000X0.140000X0*%
%ADD12RoundRect,0.135000X0.185000X-0.135000X0.185000X0.135000X-0.185000X0.135000X-0.185000X-0.135000X0*%
%ADD13RoundRect,0.140000X0.140000X0.170000X-0.140000X0.170000X-0.140000X-0.170000X0.140000X-0.170000X0*%
%ADD14RoundRect,0.082000X0.593000X-0.328000X0.593000X0.328000X-0.593000X0.328000X-0.593000X-0.328000X0*%
%ADD15FreePoly0,90.000000*%
%ADD16RoundRect,0.140000X0.170000X-0.140000X0.170000X0.140000X-0.170000X0.140000X-0.170000X-0.140000X0*%
%ADD17C,2.500000*%
%ADD18RoundRect,0.135000X-0.185000X0.135000X-0.185000X-0.135000X0.185000X-0.135000X0.185000X0.135000X0*%
%ADD19R,1.000000X1.500000*%
%ADD20C,0.650000*%
%ADD21R,0.600000X1.450000*%
%ADD22R,0.300000X1.450000*%
%ADD23O,1.000000X1.600000*%
%ADD24O,1.000000X2.100000*%
%ADD25RoundRect,0.150000X-0.512500X-0.150000X0.512500X-0.150000X0.512500X0.150000X-0.512500X0.150000X0*%
%ADD26R,2.200000X0.600000*%
%ADD27RoundRect,0.135000X0.135000X0.185000X-0.135000X0.185000X-0.135000X-0.185000X0.135000X-0.185000X0*%
%ADD28R,1.050000X0.650000*%
%ADD29RoundRect,0.147500X-0.147500X-0.172500X0.147500X-0.172500X0.147500X0.172500X-0.147500X0.172500X0*%
%ADD30RoundRect,0.135000X-0.135000X-0.185000X0.135000X-0.185000X0.135000X0.185000X-0.135000X0.185000X0*%
%ADD31R,1.350000X1.350000*%
%ADD32O,1.350000X1.350000*%
%ADD33R,1.400000X1.200000*%
%ADD34RoundRect,0.140000X-0.140000X-0.170000X0.140000X-0.170000X0.140000X0.170000X-0.140000X0.170000X0*%
%ADD35RoundRect,0.050000X0.387500X0.050000X-0.387500X0.050000X-0.387500X-0.050000X0.387500X-0.050000X0*%
%ADD36RoundRect,0.050000X0.050000X0.387500X-0.050000X0.387500X-0.050000X-0.387500X0.050000X-0.387500X0*%
%ADD37R,3.200000X3.200000*%
%ADD38R,2.450000X1.000000*%
%ADD39R,1.000000X2.450000*%
%ADD40RoundRect,0.150000X0.475000X0.150000X-0.475000X0.150000X-0.475000X-0.150000X0.475000X-0.150000X0*%
%ADD41C,3.050000*%
%ADD42C,1.750000*%
%ADD43C,4.000000*%
%ADD44RoundRect,0.250000X-1.025000X-1.000000X1.025000X-1.000000X1.025000X1.000000X-1.025000X1.000000X0*%
G04 APERTURE END LIST*
D10*
%TO.C,F1*%
X16059750Y-5920000D03*
X15962750Y-5920000D03*
%TD*%
D11*
%TO.C,C16*%
X13450000Y-7072000D03*
X13450000Y-7168000D03*
%TD*%
D12*
%TO.C,R3*%
X15640000Y-6470000D03*
X15640000Y-6368000D03*
%TD*%
D11*
%TO.C,C1*%
X14130000Y-5702000D03*
X14130000Y-5798000D03*
%TD*%
%TO.C,C17*%
X13970000Y-7122000D03*
X13970000Y-7218000D03*
%TD*%
D13*
%TO.C,C14*%
X13396000Y-6280000D03*
X13300000Y-6280000D03*
%TD*%
D14*
%TO.C,LED2*%
X15672500Y-7625000D03*
X15672500Y-7775000D03*
X15127500Y-7625000D03*
D15*
X15127500Y-7775000D03*
%TD*%
D16*
%TO.C,C13*%
X14030000Y-5798000D03*
X14030000Y-5702000D03*
%TD*%
D17*
%TO.C,REF\u002A\u002A*%
X12250000Y-10500000D03*
%TD*%
D11*
%TO.C,C18*%
X13870000Y-7122000D03*
X13870000Y-7218000D03*
%TD*%
D13*
%TO.C,C21*%
X12898000Y-5950000D03*
X12802000Y-5950000D03*
%TD*%
D18*
%TO.C,R7*%
X13880000Y-6909000D03*
X13880000Y-7011000D03*
%TD*%
D11*
%TO.C,C6*%
X14250000Y-7500000D03*
X14250000Y-7596000D03*
%TD*%
D19*
%TO.C,D2*%
X18160000Y-6605000D03*
X17840000Y-6605000D03*
X17840000Y-7095000D03*
X18160000Y-7095000D03*
%TD*%
D20*
%TO.C,J2*%
X15061000Y-5994000D03*
X15639000Y-5994000D03*
D21*
X15675000Y-6138500D03*
X15595000Y-6138500D03*
D22*
X15475000Y-6138500D03*
X15375000Y-6138500D03*
X15325000Y-6138500D03*
X15225000Y-6138500D03*
D21*
X15105000Y-6138500D03*
X15025000Y-6138500D03*
X15025000Y-6138500D03*
X15105000Y-6138500D03*
D22*
X15175000Y-6138500D03*
X15275000Y-6138500D03*
X15425000Y-6138500D03*
X15525000Y-6138500D03*
D21*
X15595000Y-6138500D03*
X15675000Y-6138500D03*
D23*
X15782000Y-5629000D03*
X14918000Y-5629000D03*
D24*
X15782000Y-6047000D03*
X14918000Y-6047000D03*
%TD*%
D10*
%TO.C,D3*%
X14722000Y-6100000D03*
X14625000Y-6100000D03*
%TD*%
D25*
%TO.C,U2*%
X16247500Y-5825000D03*
X16247500Y-5920000D03*
X16247500Y-6015000D03*
X16475000Y-6015000D03*
X16475000Y-5825000D03*
%TD*%
D11*
%TO.C,C12*%
X13650000Y-7072000D03*
X13650000Y-7168000D03*
%TD*%
D26*
%TO.C,U4*%
X16315000Y-6409500D03*
X16315000Y-6536500D03*
X16315000Y-6663500D03*
X16315000Y-6790500D03*
X16835000Y-6790500D03*
X16835000Y-6663500D03*
X16835000Y-6536500D03*
X16835000Y-6409500D03*
%TD*%
D27*
%TO.C,R9*%
X14524500Y-6100000D03*
X14422500Y-6100000D03*
%TD*%
D28*
%TO.C,SW3*%
X12742500Y-10057500D03*
X13157500Y-10057500D03*
X12742500Y-9842500D03*
X13157500Y-9842500D03*
%TD*%
D12*
%TO.C,R4*%
X15110000Y-6471000D03*
X15110000Y-6369000D03*
%TD*%
D29*
%TO.C,FB1*%
X15761500Y-6370000D03*
X15858500Y-6370000D03*
%TD*%
D18*
%TO.C,R6*%
X13770000Y-6909000D03*
X13770000Y-7011000D03*
%TD*%
D11*
%TO.C,C11*%
X14100000Y-7072000D03*
X14100000Y-7168000D03*
%TD*%
D14*
%TO.C,LED1*%
X13772500Y-7625000D03*
X13772500Y-7775000D03*
X13227500Y-7625000D03*
D15*
X13227500Y-7775000D03*
%TD*%
D13*
%TO.C,C4*%
X14618000Y-6280000D03*
X14522000Y-6280000D03*
%TD*%
D11*
%TO.C,C15*%
X13350000Y-7168000D03*
X13350000Y-7072000D03*
%TD*%
D17*
%TO.C,REF\u002A\u002A*%
X18450000Y-10500000D03*
%TD*%
D30*
%TO.C,R1*%
X12999000Y-5550000D03*
X13101000Y-5550000D03*
%TD*%
D31*
%TO.C,J1*%
X13600000Y-5750000D03*
D32*
X13400000Y-5750000D03*
X13200000Y-5750000D03*
X13000000Y-5750000D03*
X12800000Y-5750000D03*
%TD*%
D11*
%TO.C,C2*%
X16061250Y-6012000D03*
X16061250Y-6108000D03*
%TD*%
D19*
%TO.C,D1*%
X12650000Y-7100000D03*
X12970000Y-7100000D03*
X12970000Y-6610000D03*
X12650000Y-6610000D03*
%TD*%
D11*
%TO.C,C7*%
X12625000Y-7252000D03*
X12625000Y-7348000D03*
%TD*%
D16*
%TO.C,C10*%
X13930000Y-5798000D03*
X13930000Y-5702000D03*
%TD*%
D11*
%TO.C,C20*%
X13550000Y-7072000D03*
X13550000Y-7168000D03*
%TD*%
D17*
%TO.C,REF\u002A\u002A*%
X18500000Y-5950000D03*
%TD*%
D12*
%TO.C,R8*%
X12600000Y-5851000D03*
X12600000Y-5749000D03*
%TD*%
D33*
%TO.C,Y1*%
X14294951Y-5826251D03*
X14514951Y-5826251D03*
X14514951Y-5656251D03*
X14294951Y-5656251D03*
%TD*%
D34*
%TO.C,C19*%
X14412000Y-6700000D03*
X14508000Y-6700000D03*
%TD*%
D16*
%TO.C,C5*%
X14669951Y-5749251D03*
X14669951Y-5653251D03*
%TD*%
D11*
%TO.C,C8*%
X18050000Y-7502000D03*
X18050000Y-7598000D03*
%TD*%
D14*
%TO.C,LED3*%
X17572500Y-7625000D03*
X17572500Y-7775000D03*
X17027500Y-7625000D03*
D15*
X17027500Y-7775000D03*
%TD*%
D13*
%TO.C,C9*%
X18275000Y-6425000D03*
X18179000Y-6425000D03*
%TD*%
D11*
%TO.C,C3*%
X16621250Y-5952000D03*
X16621250Y-6048000D03*
%TD*%
D18*
%TO.C,R2*%
X13075000Y-7524000D03*
X13075000Y-7626000D03*
%TD*%
D35*
%TO.C,U3*%
X14288750Y-6640000D03*
X14288750Y-6600000D03*
X14288750Y-6560000D03*
X14288750Y-6520000D03*
X14288750Y-6480000D03*
X14288750Y-6440000D03*
X14288750Y-6400000D03*
X14288750Y-6360000D03*
X14288750Y-6320000D03*
X14288750Y-6280000D03*
X14288750Y-6240000D03*
X14288750Y-6200000D03*
X14288750Y-6160000D03*
X14288750Y-6120000D03*
D36*
X14205000Y-6036250D03*
X14165000Y-6036250D03*
X14125000Y-6036250D03*
X14085000Y-6036250D03*
X14045000Y-6036250D03*
X14005000Y-6036250D03*
X13965000Y-6036250D03*
X13925000Y-6036250D03*
X13885000Y-6036250D03*
X13845000Y-6036250D03*
X13805000Y-6036250D03*
X13765000Y-6036250D03*
X13725000Y-6036250D03*
X13685000Y-6036250D03*
D35*
X13601250Y-6120000D03*
X13601250Y-6160000D03*
X13601250Y-6200000D03*
X13601250Y-6240000D03*
X13601250Y-6280000D03*
X13601250Y-6320000D03*
X13601250Y-6360000D03*
X13601250Y-6400000D03*
X13601250Y-6440000D03*
X13601250Y-6480000D03*
X13601250Y-6520000D03*
X13601250Y-6560000D03*
X13601250Y-6600000D03*
X13601250Y-6640000D03*
D36*
X13685000Y-6723750D03*
X13725000Y-6723750D03*
X13765000Y-6723750D03*
X13805000Y-6723750D03*
X13845000Y-6723750D03*
X13885000Y-6723750D03*
X13925000Y-6723750D03*
X13965000Y-6723750D03*
X14005000Y-6723750D03*
X14045000Y-6723750D03*
X14085000Y-6723750D03*
X14125000Y-6723750D03*
X14165000Y-6723750D03*
X14205000Y-6723750D03*
D37*
X13945000Y-6380000D03*
%TD*%
D11*
%TO.C,C22*%
X16125000Y-7502000D03*
X16125000Y-7598000D03*
%TD*%
D38*
%TO.C,U5*%
X16079500Y-10881000D03*
X16079500Y-10741000D03*
X16079500Y-10601000D03*
X16079500Y-10461000D03*
X16079500Y-10321000D03*
X16079500Y-10181000D03*
X16079500Y-10041000D03*
X16079500Y-9901000D03*
D39*
X15940000Y-9671500D03*
X15800000Y-9671500D03*
X15660000Y-9671500D03*
X15520000Y-9671500D03*
X15380000Y-9671500D03*
X15240000Y-9671500D03*
X15100000Y-9671500D03*
X14960000Y-9671500D03*
D38*
X14820500Y-9901000D03*
X14820500Y-10041000D03*
X14820500Y-10181000D03*
X14820500Y-10321000D03*
X14820500Y-10461000D03*
X14820500Y-10601000D03*
X14820500Y-10741000D03*
X14820500Y-10881000D03*
%TD*%
D27*
%TO.C,R5*%
X13051000Y-6450000D03*
X12949000Y-6450000D03*
%TD*%
D40*
%TO.C,U1*%
X15492500Y-6595000D03*
X15492500Y-6500000D03*
X15492500Y-6405000D03*
X15257500Y-6405000D03*
X15257500Y-6500000D03*
X15257500Y-6595000D03*
%TD*%
D17*
%TO.C,REF\u002A\u002A*%
X12250000Y-6000000D03*
%TD*%
D41*
%TO.C,SW2*%
X15654000Y-8683000D03*
D42*
X14892000Y-8175000D03*
X15908000Y-8175000D03*
D41*
X15019000Y-8429000D03*
D43*
X15400000Y-8175000D03*
D44*
X14691500Y-8429000D03*
X15984200Y-8683000D03*
%TD*%
D42*
%TO.C,SW7*%
X17813000Y-8175000D03*
X16797000Y-8175000D03*
D43*
X17305000Y-8175000D03*
D41*
X16924000Y-8429000D03*
X17559000Y-8683000D03*
D44*
X16596500Y-8429000D03*
X17889200Y-8683000D03*
%TD*%
D41*
%TO.C,SW1*%
X13119000Y-8429000D03*
X13754000Y-8683000D03*
D43*
X13500000Y-8175000D03*
D42*
X12992000Y-8175000D03*
X14008000Y-8175000D03*
D44*
X12791500Y-8429000D03*
X14084200Y-8683000D03*
%TD*%
M02*
