M48
; DRILL file {KiCad 6.0.9+dfsg-1} date Mon 21 Nov 2022 12:59:16 AM PST
; FORMAT={-:-/ absolute / metric / decimal}
; #@! TF.CreationDate,2022-11-21T00:59:16-08:00
; #@! TF.GenerationSoftware,Kicad,Pcbnew,6.0.9+dfsg-1
; #@! TF.FileFunction,Plated,1,2,PTH
FMAT,2
METRIC
; #@! TA.AperFunction,Plated,PTH,ViaDrill
T1C0.300
; #@! TA.AperFunction,Plated,PTH,ViaDrill
T2C0.400
; #@! TA.AperFunction,Plated,PTH,ComponentDrill
T3C0.600
; #@! TA.AperFunction,Plated,PTH,ComponentDrill
T4C3.200
%
G90
G05
T1
X137.4Y-63.4
X137.5Y-72.3
X137.8Y-70.5
X138.5Y-61.3
X138.7Y-70.5
X141.9Y-72.3
X143.9Y-56.613
X145.2Y-59.5
T2
X127.5Y-58.75
X129.5Y-58.0
X129.5Y-59.25
X130.0Y-74.5
X130.25Y-77.75
X130.75Y-71.0
X131.0Y-65.75
X131.5Y-63.25
X132.5Y-58.75
X132.75Y-57.0
X135.0Y-92.25
X137.75Y-57.0
X138.5Y-63.8
X139.4Y-62.6
X141.0Y-76.0
X141.7Y-66.05
X142.0Y-70.5
X142.75Y-71.25
X143.0Y-69.0
X144.0Y-69.5
X145.75Y-101.25
X148.0Y-63.5
X148.7Y-71.25
X149.0Y-77.75
X150.5Y-91.75
X152.75Y-59.7
X153.5Y-53.45
X154.25Y-59.7
X155.75Y-63.5
X157.15Y-71.25
X159.75Y-76.0
X160.0Y-57.75
X160.5Y-67.75
X161.5Y-101.25
X163.412Y-59.2
X165.812Y-58.3
X166.0Y-64.25
X166.0Y-91.05
X167.0Y-71.25
X168.25Y-77.75
X178.5Y-72.75
X184.0Y-81.75
T4
X122.5Y-60.0
X122.5Y-105.0
X184.5Y-60.0
X184.5Y-105.0
T3
G00X149.18Y-52.69
M15
G01X149.18Y-52.09
M16
G05
G00X149.18Y-57.12
M15
G01X149.18Y-56.02
M16
G05
G00X157.82Y-52.69
M15
G01X157.82Y-52.09
M16
G05
G00X157.82Y-57.12
M15
G01X157.82Y-56.02
M16
G05
T0
M30
