%TF.GenerationSoftware,KiCad,Pcbnew,6.0.9+dfsg-1*%
%TF.CreationDate,2022-11-21T00:59:10-08:00*%
%TF.ProjectId,muon,6d756f6e-2e6b-4696-9361-645f70636258,v0.6*%
%TF.SameCoordinates,Original*%
%TF.FileFunction,Profile,NP*%
%FSLAX45Y45*%
G04 Gerber Fmt 4.5, Leading zero omitted, Abs format (unit mm)*
G04 Created by KiCad (PCBNEW 6.0.9+dfsg-1) date 2022-11-21 00:59:10*
%MOMM*%
%LPD*%
G01*
G04 APERTURE LIST*
%TA.AperFunction,Profile*%
%ADD10C,0.100000*%
%TD*%
G04 APERTURE END LIST*
D10*
X15885000Y-5100000D02*
X14815000Y-5100000D01*
X14815000Y-5500000D02*
X12400000Y-5500000D01*
X18300000Y-5500000D02*
X15885000Y-5500000D01*
X18950000Y-6150000D02*
X18950000Y-10350000D01*
X14815000Y-5100000D02*
X14815000Y-5500000D01*
X15885000Y-5500000D02*
X15885000Y-5100000D01*
X18950000Y-6150000D02*
G75*
G03*
X18300000Y-5500000I-650000J0D01*
G01*
X12400000Y-11000000D02*
X18300000Y-11000000D01*
X12400000Y-5500000D02*
G75*
G03*
X11750000Y-6150000I0J-650000D01*
G01*
X18300000Y-11000000D02*
G75*
G03*
X18950000Y-10350000I0J650000D01*
G01*
X11750000Y-6150000D02*
X11750000Y-10350000D01*
X11750000Y-10350000D02*
G75*
G03*
X12400000Y-11000000I650000J0D01*
G01*
%TO.C,LED2*%
X15429445Y-7550000D02*
X15270555Y-7550000D01*
X15520000Y-7770284D02*
X15520000Y-7629716D01*
X15180000Y-7629716D02*
X15180000Y-7770284D01*
X15270555Y-7850000D02*
X15429445Y-7850000D01*
X15524949Y-7608028D02*
G75*
G03*
X15520000Y-7629716I45050J-21688D01*
G01*
X15245329Y-7543170D02*
G75*
G03*
X15270555Y-7550000I25226J43171D01*
G01*
X15429445Y-7550000D02*
G75*
G03*
X15454671Y-7543170I0J50001D01*
G01*
X15180000Y-7629716D02*
G75*
G03*
X15175052Y-7608028I-49999J0D01*
G01*
X15454671Y-7856830D02*
G75*
G03*
X15429445Y-7850000I-25226J-43171D01*
G01*
X15454671Y-7856830D02*
G75*
G03*
X15524948Y-7791972I25226J43170D01*
G01*
X15175052Y-7791972D02*
G75*
G03*
X15245329Y-7856830I45051J-21688D01*
G01*
X15519998Y-7770284D02*
G75*
G03*
X15524948Y-7791972I49962J-6D01*
G01*
X15270555Y-7850000D02*
G75*
G03*
X15245329Y-7856830I0J-50001D01*
G01*
X15175052Y-7791972D02*
G75*
G03*
X15180000Y-7770284I-45051J21688D01*
G01*
X15245329Y-7543170D02*
G75*
G03*
X15175052Y-7608028I-25226J-43170D01*
G01*
X15524948Y-7608028D02*
G75*
G03*
X15454671Y-7543170I-45051J21688D01*
G01*
%TO.C,LED1*%
X13620000Y-7770284D02*
X13620000Y-7629716D01*
X13529445Y-7550000D02*
X13370555Y-7550000D01*
X13280000Y-7629716D02*
X13280000Y-7770284D01*
X13370555Y-7850000D02*
X13529445Y-7850000D01*
X13554671Y-7856830D02*
G75*
G03*
X13529445Y-7850000I-25226J-43171D01*
G01*
X13624949Y-7608028D02*
G75*
G03*
X13620000Y-7629716I45050J-21688D01*
G01*
X13345329Y-7543170D02*
G75*
G03*
X13275052Y-7608028I-25226J-43170D01*
G01*
X13554671Y-7856830D02*
G75*
G03*
X13624948Y-7791972I25226J43170D01*
G01*
X13280000Y-7629716D02*
G75*
G03*
X13275052Y-7608028I-49999J0D01*
G01*
X13370555Y-7850000D02*
G75*
G03*
X13345329Y-7856830I0J-50001D01*
G01*
X13345329Y-7543170D02*
G75*
G03*
X13370555Y-7550000I25226J43171D01*
G01*
X13619998Y-7770284D02*
G75*
G03*
X13624948Y-7791972I49962J-6D01*
G01*
X13275052Y-7791972D02*
G75*
G03*
X13345329Y-7856830I45051J-21688D01*
G01*
X13529445Y-7550000D02*
G75*
G03*
X13554671Y-7543170I0J50001D01*
G01*
X13624948Y-7608028D02*
G75*
G03*
X13554671Y-7543170I-45051J21688D01*
G01*
X13275052Y-7791972D02*
G75*
G03*
X13280000Y-7770284I-45051J21688D01*
G01*
%TO.C,LED3*%
X17420000Y-7770284D02*
X17420000Y-7629716D01*
X17170555Y-7850000D02*
X17329445Y-7850000D01*
X17080000Y-7629716D02*
X17080000Y-7770284D01*
X17329445Y-7550000D02*
X17170555Y-7550000D01*
X17080000Y-7629716D02*
G75*
G03*
X17075052Y-7608028I-49999J0D01*
G01*
X17329445Y-7550000D02*
G75*
G03*
X17354671Y-7543170I0J50001D01*
G01*
X17424948Y-7608028D02*
G75*
G03*
X17354671Y-7543170I-45051J21688D01*
G01*
X17354671Y-7856830D02*
G75*
G03*
X17424948Y-7791972I25226J43170D01*
G01*
X17170555Y-7850000D02*
G75*
G03*
X17145329Y-7856830I0J-50001D01*
G01*
X17075052Y-7791972D02*
G75*
G03*
X17080000Y-7770284I-45051J21688D01*
G01*
X17354671Y-7856830D02*
G75*
G03*
X17329445Y-7850000I-25226J-43171D01*
G01*
X17145329Y-7543170D02*
G75*
G03*
X17075052Y-7608028I-25226J-43170D01*
G01*
X17424949Y-7608028D02*
G75*
G03*
X17420000Y-7629716I45050J-21688D01*
G01*
X17075052Y-7791972D02*
G75*
G03*
X17145329Y-7856830I45051J-21688D01*
G01*
X17419999Y-7770284D02*
G75*
G03*
X17424948Y-7791972I49962J-6D01*
G01*
X17145329Y-7543170D02*
G75*
G03*
X17170555Y-7550000I25226J43171D01*
G01*
%TD*%
M02*
