%TF.GenerationSoftware,KiCad,Pcbnew,6.0.6+dfsg-1*%
%TF.CreationDate,2022-08-20T11:50:37-07:00*%
%TF.ProjectId,muon,6d756f6e-2e6b-4696-9361-645f70636258,rev?*%
%TF.SameCoordinates,Original*%
%TF.FileFunction,Soldermask,Bot*%
%TF.FilePolarity,Negative*%
%FSLAX45Y45*%
G04 Gerber Fmt 4.5, Leading zero omitted, Abs format (unit mm)*
G04 Created by KiCad (PCBNEW 6.0.6+dfsg-1) date 2022-08-20 11:50:37*
%MOMM*%
%LPD*%
G01*
G04 APERTURE LIST*
%ADD10C,2.500000*%
%ADD11C,0.650000*%
%ADD12O,1.000000X1.600000*%
%ADD13O,1.000000X2.100000*%
%ADD14R,1.350000X1.350000*%
%ADD15O,1.350000X1.350000*%
%ADD16C,3.050000*%
%ADD17C,1.750000*%
%ADD18C,4.000000*%
%ADD19R,1.550000X1.300000*%
G04 APERTURE END LIST*
D10*
%TO.C,REF\u002A\u002A*%
X12250000Y-10500000D03*
%TD*%
D11*
%TO.C,J2*%
X15061000Y-5994000D03*
X15639000Y-5994000D03*
D12*
X15782000Y-5629000D03*
X14918000Y-5629000D03*
D13*
X15782000Y-6047000D03*
X14918000Y-6047000D03*
%TD*%
D10*
%TO.C,REF\u002A\u002A*%
X18450000Y-10500000D03*
%TD*%
D14*
%TO.C,J1*%
X13600000Y-5750000D03*
D15*
X13400000Y-5750000D03*
X13200000Y-5750000D03*
X13000000Y-5750000D03*
X12800000Y-5750000D03*
%TD*%
D10*
%TO.C,REF\u002A\u002A*%
X18500000Y-5950000D03*
%TD*%
%TO.C,REF\u002A\u002A*%
X12250000Y-6000000D03*
%TD*%
D16*
%TO.C,SW2*%
X15654000Y-8683000D03*
D17*
X14892000Y-8175000D03*
X15908000Y-8175000D03*
D16*
X15019000Y-8429000D03*
D18*
X15400000Y-8175000D03*
%TD*%
D19*
%TO.C,SW6*%
X16452500Y-9875000D03*
X17247500Y-9875000D03*
X16452500Y-10325000D03*
X17247500Y-10325000D03*
%TD*%
%TO.C,SW4*%
X14322500Y-9875000D03*
X13527500Y-9875000D03*
X14322500Y-10325000D03*
X13527500Y-10325000D03*
%TD*%
%TO.C,SW5*%
X15052500Y-9875000D03*
X15847500Y-9875000D03*
X15847500Y-10325000D03*
X15052500Y-10325000D03*
%TD*%
D17*
%TO.C,SW7*%
X17813000Y-8175000D03*
X16797000Y-8175000D03*
D18*
X17305000Y-8175000D03*
D16*
X16924000Y-8429000D03*
X17559000Y-8683000D03*
%TD*%
%TO.C,SW1*%
X13119000Y-8429000D03*
X13754000Y-8683000D03*
D18*
X13500000Y-8175000D03*
D17*
X12992000Y-8175000D03*
X14008000Y-8175000D03*
%TD*%
M02*
