M48
; DRILL file {KiCad 6.0.9+dfsg-1} date Mon 21 Nov 2022 12:59:16 AM PST
; FORMAT={-:-/ absolute / metric / decimal}
; #@! TF.CreationDate,2022-11-21T00:59:16-08:00
; #@! TF.GenerationSoftware,Kicad,Pcbnew,6.0.9+dfsg-1
; #@! TF.FileFunction,NonPlated,1,2,NPTH
FMAT,2
METRIC
; #@! TA.AperFunction,NonPlated,NPTH,ComponentDrill
T1C0.650
; #@! TA.AperFunction,NonPlated,NPTH,ComponentDrill
T2C0.991
; #@! TA.AperFunction,NonPlated,NPTH,ComponentDrill
T3C1.750
; #@! TA.AperFunction,NonPlated,NPTH,ComponentDrill
T4C1.900
; #@! TA.AperFunction,NonPlated,NPTH,ComponentDrill
T5C3.050
; #@! TA.AperFunction,NonPlated,NPTH,ComponentDrill
T6C5.050
%
G90
G05
T1
X150.61Y-56.04
X156.39Y-56.04
T2
X129.984Y-61.79
X131.0Y-56.71
X132.016Y-61.79
T3
X129.42Y-81.75
X139.58Y-81.75
X148.42Y-81.75
X158.58Y-81.75
X167.47Y-81.75
X177.63Y-81.75
T4
X129.0Y-81.75
X140.0Y-81.75
X148.0Y-81.75
X159.0Y-81.75
X167.05Y-81.75
X178.05Y-81.75
T5
X130.69Y-84.29
X134.5Y-87.65
X137.04Y-86.83
X139.5Y-85.55
X149.69Y-84.29
X153.5Y-87.65
X156.04Y-86.83
X158.5Y-85.55
X168.74Y-84.29
X172.55Y-87.65
X175.09Y-86.83
X177.55Y-85.55
T6
X134.5Y-81.75
X153.5Y-81.75
X172.55Y-81.75
T0
M30
