M48
; DRILL file {KiCad 6.0.6+dfsg-1} date Sat 23 Jul 2022 11:22:20 PM PDT
; FORMAT={-:-/ absolute / metric / decimal}
; #@! TF.CreationDate,2022-07-23T23:22:20-07:00
; #@! TF.GenerationSoftware,Kicad,Pcbnew,6.0.6+dfsg-1
; #@! TF.FileFunction,Plated,1,2,PTH
FMAT,2
METRIC
; #@! TA.AperFunction,Plated,PTH,ViaDrill
T1C0.300
; #@! TA.AperFunction,Plated,PTH,ViaDrill
T2C0.400
; #@! TA.AperFunction,Plated,PTH,ComponentDrill
T3C0.600
; #@! TA.AperFunction,Plated,PTH,ComponentDrill
T4C0.800
%
G90
G05
T1
X137.4Y-63.4
X137.5Y-72.3
X137.8Y-70.5
X138.5Y-61.3
X138.7Y-70.5
X141.9Y-72.3
X143.9Y-56.613
X145.2Y-59.5
X153.3Y-64.1
X154.2Y-64.1
T2
X130.75Y-71.0
X130.75Y-74.5
X130.75Y-77.75
X131.0Y-65.75
X132.0Y-63.0
X135.25Y-92.25
X138.5Y-63.8
X139.4Y-62.6
X140.3Y-66.0
X141.25Y-100.25
X141.6Y-66.0
X142.0Y-70.5
X142.5Y-76.75
X142.75Y-71.25
X143.0Y-69.0
X143.75Y-100.25
X144.0Y-69.5
X149.5Y-76.25
X149.5Y-77.75
X150.5Y-91.75
X153.25Y-70.5
X155.0Y-70.5
X156.75Y-66.25
X158.25Y-78.0
X161.25Y-76.75
X161.65Y-67.9
X162.75Y-101.75
X163.412Y-59.2
X164.5Y-91.25
X165.812Y-58.3
X166.0Y-64.25
X167.213Y-58.3
X168.75Y-77.75
T4
X128.0Y-57.5
X130.0Y-57.5
X132.0Y-57.5
X134.0Y-57.5
X136.0Y-57.5
T3
G00X149.18Y-56.59
M15
G01X149.18Y-55.99
M16
G05
G00X149.18Y-61.02
M15
G01X149.18Y-59.92
M16
G05
G00X157.82Y-56.59
M15
G01X157.82Y-55.99
M16
G05
G00X157.82Y-61.02
M15
G01X157.82Y-59.92
M16
G05
T0
M30
