%TF.GenerationSoftware,KiCad,Pcbnew,6.0.8-1.fc36*%
%TF.CreationDate,2022-10-23T10:59:50+02:00*%
%TF.ProjectId,muon,6d756f6e-2e6b-4696-9361-645f70636258,rev?*%
%TF.SameCoordinates,Original*%
%TF.FileFunction,Legend,Bot*%
%TF.FilePolarity,Positive*%
%FSLAX45Y45*%
G04 Gerber Fmt 4.5, Leading zero omitted, Abs format (unit mm)*
G04 Created by KiCad (PCBNEW 6.0.8-1.fc36) date 2022-10-23 10:59:50*
%MOMM*%
%LPD*%
G01*
G04 APERTURE LIST*
%ADD10C,0.005000*%
%ADD11C,0.150000*%
%ADD12C,0.120000*%
%ADD13C,0.127000*%
%ADD14C,0.200000*%
G04 APERTURE END LIST*
D10*
G36*
X17657877Y-6195746D02*
G01*
X17657928Y-6195751D01*
X17657979Y-6195758D01*
X17658030Y-6195768D01*
X17658080Y-6195780D01*
X17658130Y-6195794D01*
X17658180Y-6195811D01*
X17658228Y-6195831D01*
X17658276Y-6195853D01*
X17658324Y-6195877D01*
X17658370Y-6195904D01*
X17658416Y-6195933D01*
X17658460Y-6195965D01*
X17672494Y-6205065D01*
X17681480Y-6210385D01*
X17691754Y-6216060D01*
X17703296Y-6221971D01*
X17716087Y-6228001D01*
X17730109Y-6234031D01*
X17745343Y-6239943D01*
X17761769Y-6245619D01*
X17779368Y-6250940D01*
X17798122Y-6255788D01*
X17818011Y-6260045D01*
X17839017Y-6263591D01*
X17849933Y-6265062D01*
X17861121Y-6266310D01*
X17872578Y-6267322D01*
X17884303Y-6268083D01*
X17896292Y-6268578D01*
X17908544Y-6268791D01*
X17908610Y-6268791D01*
X17921170Y-6269109D01*
X17933566Y-6270051D01*
X17945781Y-6271603D01*
X17957800Y-6273750D01*
X17969609Y-6276475D01*
X17981191Y-6279764D01*
X17992532Y-6283601D01*
X18003616Y-6287971D01*
X18014428Y-6292859D01*
X18024952Y-6298249D01*
X18035173Y-6304126D01*
X18045076Y-6310475D01*
X18054645Y-6317280D01*
X18063866Y-6324525D01*
X18072722Y-6332197D01*
X18081199Y-6340278D01*
X18089281Y-6348755D01*
X18096952Y-6357611D01*
X18104198Y-6366832D01*
X18111003Y-6376401D01*
X18117352Y-6386304D01*
X18123229Y-6396525D01*
X18128619Y-6407049D01*
X18133507Y-6417861D01*
X18137878Y-6428945D01*
X18141715Y-6440286D01*
X18145004Y-6451869D01*
X18147730Y-6463678D01*
X18149876Y-6475698D01*
X18151428Y-6487913D01*
X18152371Y-6500309D01*
X18152689Y-6512869D01*
X18152519Y-6522335D01*
X18152011Y-6531680D01*
X18151171Y-6540903D01*
X18150000Y-6550000D01*
X18148503Y-6558969D01*
X18146684Y-6567808D01*
X18144547Y-6576514D01*
X18142094Y-6585084D01*
X18139331Y-6593516D01*
X18136260Y-6601808D01*
X18132886Y-6609957D01*
X18129212Y-6617961D01*
X18125242Y-6625816D01*
X18120979Y-6633521D01*
X18116428Y-6641072D01*
X18111592Y-6648468D01*
X18111556Y-6648517D01*
X18111518Y-6648564D01*
X18111477Y-6648608D01*
X18111435Y-6648650D01*
X18111390Y-6648690D01*
X18111343Y-6648727D01*
X18111294Y-6648761D01*
X18111244Y-6648793D01*
X18111192Y-6648821D01*
X18111138Y-6648847D01*
X18111083Y-6648871D01*
X18111027Y-6648891D01*
X18110970Y-6648908D01*
X18110911Y-6648922D01*
X18110852Y-6648933D01*
X18110792Y-6648941D01*
X18110731Y-6648946D01*
X18110671Y-6648947D01*
X18110611Y-6648945D01*
X18110551Y-6648940D01*
X18110492Y-6648931D01*
X18110433Y-6648920D01*
X18110376Y-6648905D01*
X18110319Y-6648887D01*
X18110263Y-6648866D01*
X18110209Y-6648843D01*
X18110155Y-6648816D01*
X18110103Y-6648786D01*
X18110053Y-6648754D01*
X18110004Y-6648719D01*
X18109957Y-6648681D01*
X18109912Y-6648640D01*
X18045585Y-6586682D01*
X18045552Y-6586649D01*
X18045521Y-6586615D01*
X18045492Y-6586580D01*
X18045464Y-6586544D01*
X18045438Y-6586507D01*
X18045413Y-6586469D01*
X18045390Y-6586430D01*
X18045369Y-6586391D01*
X18045349Y-6586351D01*
X18045331Y-6586310D01*
X18045315Y-6586269D01*
X18045300Y-6586227D01*
X18045288Y-6586184D01*
X18045277Y-6586141D01*
X18045259Y-6586055D01*
X18045249Y-6585967D01*
X18045247Y-6585923D01*
X18045246Y-6585878D01*
X18045248Y-6585834D01*
X18045251Y-6585790D01*
X18045255Y-6585745D01*
X18045262Y-6585701D01*
X18045270Y-6585657D01*
X18045280Y-6585613D01*
X18045292Y-6585570D01*
X18045306Y-6585527D01*
X18045322Y-6585484D01*
X18045339Y-6585442D01*
X18045359Y-6585400D01*
X18045380Y-6585359D01*
X18047434Y-6581354D01*
X18049367Y-6577297D01*
X18051179Y-6573191D01*
X18052868Y-6569038D01*
X18054434Y-6564841D01*
X18055877Y-6560603D01*
X18057196Y-6556326D01*
X18058389Y-6552014D01*
X18059456Y-6547669D01*
X18060397Y-6543294D01*
X18061211Y-6538892D01*
X18061897Y-6534465D01*
X18062454Y-6530016D01*
X18062881Y-6525549D01*
X18063179Y-6521065D01*
X18063345Y-6516567D01*
X18063325Y-6508323D01*
X18062880Y-6500185D01*
X18062023Y-6492165D01*
X18060763Y-6484273D01*
X18059111Y-6476520D01*
X18057077Y-6468915D01*
X18054672Y-6461470D01*
X18051908Y-6454195D01*
X18048793Y-6447102D01*
X18045339Y-6440199D01*
X18041556Y-6433498D01*
X18037456Y-6427010D01*
X18033048Y-6420744D01*
X18028342Y-6414713D01*
X18023351Y-6408925D01*
X18018083Y-6403392D01*
X18012551Y-6398125D01*
X18006763Y-6393133D01*
X18000732Y-6388428D01*
X17994466Y-6384019D01*
X17987978Y-6379918D01*
X17981277Y-6376136D01*
X17974375Y-6372681D01*
X17967281Y-6369567D01*
X17960006Y-6366802D01*
X17952561Y-6364397D01*
X17944956Y-6362363D01*
X17937202Y-6360711D01*
X17929309Y-6359451D01*
X17921289Y-6358593D01*
X17913151Y-6358149D01*
X17904906Y-6358128D01*
X17900409Y-6358295D01*
X17895925Y-6358594D01*
X17891457Y-6359022D01*
X17887008Y-6359580D01*
X17882581Y-6360266D01*
X17878179Y-6361080D01*
X17873804Y-6362022D01*
X17869459Y-6363090D01*
X17865147Y-6364284D01*
X17860871Y-6365602D01*
X17856633Y-6367045D01*
X17852436Y-6368612D01*
X17848283Y-6370301D01*
X17844177Y-6372113D01*
X17840120Y-6374046D01*
X17836115Y-6376100D01*
X17836032Y-6376142D01*
X17835948Y-6376176D01*
X17835861Y-6376204D01*
X17835774Y-6376223D01*
X17835686Y-6376236D01*
X17835597Y-6376241D01*
X17835508Y-6376239D01*
X17835420Y-6376230D01*
X17835333Y-6376214D01*
X17835248Y-6376191D01*
X17835164Y-6376160D01*
X17835083Y-6376123D01*
X17835005Y-6376080D01*
X17834930Y-6376029D01*
X17834859Y-6375972D01*
X17834792Y-6375908D01*
X17657058Y-6197651D01*
X17657019Y-6197614D01*
X17656981Y-6197574D01*
X17656947Y-6197533D01*
X17656914Y-6197491D01*
X17656884Y-6197448D01*
X17656856Y-6197404D01*
X17656830Y-6197358D01*
X17656807Y-6197312D01*
X17656786Y-6197264D01*
X17656767Y-6197216D01*
X17656751Y-6197167D01*
X17656737Y-6197118D01*
X17656725Y-6197068D01*
X17656716Y-6197018D01*
X17656709Y-6196967D01*
X17656704Y-6196916D01*
X17656702Y-6196865D01*
X17656702Y-6196814D01*
X17656704Y-6196763D01*
X17656709Y-6196712D01*
X17656716Y-6196661D01*
X17656726Y-6196610D01*
X17656738Y-6196560D01*
X17656753Y-6196510D01*
X17656769Y-6196461D01*
X17656789Y-6196413D01*
X17656810Y-6196365D01*
X17656834Y-6196318D01*
X17656861Y-6196272D01*
X17656890Y-6196227D01*
X17656921Y-6196183D01*
X17656955Y-6196140D01*
X17656991Y-6196099D01*
X17657029Y-6196060D01*
X17657068Y-6196023D01*
X17657108Y-6195989D01*
X17657150Y-6195956D01*
X17657193Y-6195926D01*
X17657237Y-6195898D01*
X17657283Y-6195873D01*
X17657329Y-6195850D01*
X17657376Y-6195829D01*
X17657424Y-6195810D01*
X17657473Y-6195794D01*
X17657522Y-6195779D01*
X17657572Y-6195768D01*
X17657622Y-6195758D01*
X17657673Y-6195751D01*
X17657724Y-6195746D01*
X17657775Y-6195744D01*
X17657826Y-6195744D01*
X17657877Y-6195746D01*
G37*
X17657877Y-6195746D02*
X17657928Y-6195751D01*
X17657979Y-6195758D01*
X17658030Y-6195768D01*
X17658080Y-6195780D01*
X17658130Y-6195794D01*
X17658180Y-6195811D01*
X17658228Y-6195831D01*
X17658276Y-6195853D01*
X17658324Y-6195877D01*
X17658370Y-6195904D01*
X17658416Y-6195933D01*
X17658460Y-6195965D01*
X17672494Y-6205065D01*
X17681480Y-6210385D01*
X17691754Y-6216060D01*
X17703296Y-6221971D01*
X17716087Y-6228001D01*
X17730109Y-6234031D01*
X17745343Y-6239943D01*
X17761769Y-6245619D01*
X17779368Y-6250940D01*
X17798122Y-6255788D01*
X17818011Y-6260045D01*
X17839017Y-6263591D01*
X17849933Y-6265062D01*
X17861121Y-6266310D01*
X17872578Y-6267322D01*
X17884303Y-6268083D01*
X17896292Y-6268578D01*
X17908544Y-6268791D01*
X17908610Y-6268791D01*
X17921170Y-6269109D01*
X17933566Y-6270051D01*
X17945781Y-6271603D01*
X17957800Y-6273750D01*
X17969609Y-6276475D01*
X17981191Y-6279764D01*
X17992532Y-6283601D01*
X18003616Y-6287971D01*
X18014428Y-6292859D01*
X18024952Y-6298249D01*
X18035173Y-6304126D01*
X18045076Y-6310475D01*
X18054645Y-6317280D01*
X18063866Y-6324525D01*
X18072722Y-6332197D01*
X18081199Y-6340278D01*
X18089281Y-6348755D01*
X18096952Y-6357611D01*
X18104198Y-6366832D01*
X18111003Y-6376401D01*
X18117352Y-6386304D01*
X18123229Y-6396525D01*
X18128619Y-6407049D01*
X18133507Y-6417861D01*
X18137878Y-6428945D01*
X18141715Y-6440286D01*
X18145004Y-6451869D01*
X18147730Y-6463678D01*
X18149876Y-6475698D01*
X18151428Y-6487913D01*
X18152371Y-6500309D01*
X18152689Y-6512869D01*
X18152519Y-6522335D01*
X18152011Y-6531680D01*
X18151171Y-6540903D01*
X18150000Y-6550000D01*
X18148503Y-6558969D01*
X18146684Y-6567808D01*
X18144547Y-6576514D01*
X18142094Y-6585084D01*
X18139331Y-6593516D01*
X18136260Y-6601808D01*
X18132886Y-6609957D01*
X18129212Y-6617961D01*
X18125242Y-6625816D01*
X18120979Y-6633521D01*
X18116428Y-6641072D01*
X18111592Y-6648468D01*
X18111556Y-6648517D01*
X18111518Y-6648564D01*
X18111477Y-6648608D01*
X18111435Y-6648650D01*
X18111390Y-6648690D01*
X18111343Y-6648727D01*
X18111294Y-6648761D01*
X18111244Y-6648793D01*
X18111192Y-6648821D01*
X18111138Y-6648847D01*
X18111083Y-6648871D01*
X18111027Y-6648891D01*
X18110970Y-6648908D01*
X18110911Y-6648922D01*
X18110852Y-6648933D01*
X18110792Y-6648941D01*
X18110731Y-6648946D01*
X18110671Y-6648947D01*
X18110611Y-6648945D01*
X18110551Y-6648940D01*
X18110492Y-6648931D01*
X18110433Y-6648920D01*
X18110376Y-6648905D01*
X18110319Y-6648887D01*
X18110263Y-6648866D01*
X18110209Y-6648843D01*
X18110155Y-6648816D01*
X18110103Y-6648786D01*
X18110053Y-6648754D01*
X18110004Y-6648719D01*
X18109957Y-6648681D01*
X18109912Y-6648640D01*
X18045585Y-6586682D01*
X18045552Y-6586649D01*
X18045521Y-6586615D01*
X18045492Y-6586580D01*
X18045464Y-6586544D01*
X18045438Y-6586507D01*
X18045413Y-6586469D01*
X18045390Y-6586430D01*
X18045369Y-6586391D01*
X18045349Y-6586351D01*
X18045331Y-6586310D01*
X18045315Y-6586269D01*
X18045300Y-6586227D01*
X18045288Y-6586184D01*
X18045277Y-6586141D01*
X18045259Y-6586055D01*
X18045249Y-6585967D01*
X18045247Y-6585923D01*
X18045246Y-6585878D01*
X18045248Y-6585834D01*
X18045251Y-6585790D01*
X18045255Y-6585745D01*
X18045262Y-6585701D01*
X18045270Y-6585657D01*
X18045280Y-6585613D01*
X18045292Y-6585570D01*
X18045306Y-6585527D01*
X18045322Y-6585484D01*
X18045339Y-6585442D01*
X18045359Y-6585400D01*
X18045380Y-6585359D01*
X18047434Y-6581354D01*
X18049367Y-6577297D01*
X18051179Y-6573191D01*
X18052868Y-6569038D01*
X18054434Y-6564841D01*
X18055877Y-6560603D01*
X18057196Y-6556326D01*
X18058389Y-6552014D01*
X18059456Y-6547669D01*
X18060397Y-6543294D01*
X18061211Y-6538892D01*
X18061897Y-6534465D01*
X18062454Y-6530016D01*
X18062881Y-6525549D01*
X18063179Y-6521065D01*
X18063345Y-6516567D01*
X18063325Y-6508323D01*
X18062880Y-6500185D01*
X18062023Y-6492165D01*
X18060763Y-6484273D01*
X18059111Y-6476520D01*
X18057077Y-6468915D01*
X18054672Y-6461470D01*
X18051908Y-6454195D01*
X18048793Y-6447102D01*
X18045339Y-6440199D01*
X18041556Y-6433498D01*
X18037456Y-6427010D01*
X18033048Y-6420744D01*
X18028342Y-6414713D01*
X18023351Y-6408925D01*
X18018083Y-6403392D01*
X18012551Y-6398125D01*
X18006763Y-6393133D01*
X18000732Y-6388428D01*
X17994466Y-6384019D01*
X17987978Y-6379918D01*
X17981277Y-6376136D01*
X17974375Y-6372681D01*
X17967281Y-6369567D01*
X17960006Y-6366802D01*
X17952561Y-6364397D01*
X17944956Y-6362363D01*
X17937202Y-6360711D01*
X17929309Y-6359451D01*
X17921289Y-6358593D01*
X17913151Y-6358149D01*
X17904906Y-6358128D01*
X17900409Y-6358295D01*
X17895925Y-6358594D01*
X17891457Y-6359022D01*
X17887008Y-6359580D01*
X17882581Y-6360266D01*
X17878179Y-6361080D01*
X17873804Y-6362022D01*
X17869459Y-6363090D01*
X17865147Y-6364284D01*
X17860871Y-6365602D01*
X17856633Y-6367045D01*
X17852436Y-6368612D01*
X17848283Y-6370301D01*
X17844177Y-6372113D01*
X17840120Y-6374046D01*
X17836115Y-6376100D01*
X17836032Y-6376142D01*
X17835948Y-6376176D01*
X17835861Y-6376204D01*
X17835774Y-6376223D01*
X17835686Y-6376236D01*
X17835597Y-6376241D01*
X17835508Y-6376239D01*
X17835420Y-6376230D01*
X17835333Y-6376214D01*
X17835248Y-6376191D01*
X17835164Y-6376160D01*
X17835083Y-6376123D01*
X17835005Y-6376080D01*
X17834930Y-6376029D01*
X17834859Y-6375972D01*
X17834792Y-6375908D01*
X17657058Y-6197651D01*
X17657019Y-6197614D01*
X17656981Y-6197574D01*
X17656947Y-6197533D01*
X17656914Y-6197491D01*
X17656884Y-6197448D01*
X17656856Y-6197404D01*
X17656830Y-6197358D01*
X17656807Y-6197312D01*
X17656786Y-6197264D01*
X17656767Y-6197216D01*
X17656751Y-6197167D01*
X17656737Y-6197118D01*
X17656725Y-6197068D01*
X17656716Y-6197018D01*
X17656709Y-6196967D01*
X17656704Y-6196916D01*
X17656702Y-6196865D01*
X17656702Y-6196814D01*
X17656704Y-6196763D01*
X17656709Y-6196712D01*
X17656716Y-6196661D01*
X17656726Y-6196610D01*
X17656738Y-6196560D01*
X17656753Y-6196510D01*
X17656769Y-6196461D01*
X17656789Y-6196413D01*
X17656810Y-6196365D01*
X17656834Y-6196318D01*
X17656861Y-6196272D01*
X17656890Y-6196227D01*
X17656921Y-6196183D01*
X17656955Y-6196140D01*
X17656991Y-6196099D01*
X17657029Y-6196060D01*
X17657068Y-6196023D01*
X17657108Y-6195989D01*
X17657150Y-6195956D01*
X17657193Y-6195926D01*
X17657237Y-6195898D01*
X17657283Y-6195873D01*
X17657329Y-6195850D01*
X17657376Y-6195829D01*
X17657424Y-6195810D01*
X17657473Y-6195794D01*
X17657522Y-6195779D01*
X17657572Y-6195768D01*
X17657622Y-6195758D01*
X17657673Y-6195751D01*
X17657724Y-6195746D01*
X17657775Y-6195744D01*
X17657826Y-6195744D01*
X17657877Y-6195746D01*
G36*
X17706578Y-6377247D02*
G01*
X17706640Y-6377252D01*
X17706700Y-6377261D01*
X17706761Y-6377272D01*
X17706820Y-6377287D01*
X17706878Y-6377305D01*
X17706936Y-6377327D01*
X17706992Y-6377351D01*
X17707047Y-6377379D01*
X17707100Y-6377409D01*
X17707152Y-6377443D01*
X17707202Y-6377480D01*
X17707250Y-6377519D01*
X17707296Y-6377561D01*
X17771622Y-6439520D01*
X17771655Y-6439553D01*
X17771686Y-6439587D01*
X17771716Y-6439622D01*
X17771744Y-6439658D01*
X17771770Y-6439695D01*
X17771795Y-6439733D01*
X17771818Y-6439772D01*
X17771839Y-6439811D01*
X17771859Y-6439851D01*
X17771876Y-6439892D01*
X17771893Y-6439933D01*
X17771907Y-6439975D01*
X17771920Y-6440017D01*
X17771931Y-6440060D01*
X17771948Y-6440147D01*
X17771958Y-6440235D01*
X17771961Y-6440279D01*
X17771961Y-6440323D01*
X17771960Y-6440368D01*
X17771957Y-6440412D01*
X17771952Y-6440456D01*
X17771946Y-6440501D01*
X17771937Y-6440545D01*
X17771927Y-6440588D01*
X17771915Y-6440632D01*
X17771901Y-6440675D01*
X17771886Y-6440718D01*
X17771868Y-6440760D01*
X17771849Y-6440802D01*
X17771827Y-6440843D01*
X17769774Y-6444848D01*
X17767841Y-6448905D01*
X17766029Y-6453011D01*
X17764340Y-6457164D01*
X17762773Y-6461361D01*
X17761331Y-6465599D01*
X17760012Y-6469876D01*
X17758819Y-6474188D01*
X17757751Y-6478532D01*
X17756810Y-6482907D01*
X17755997Y-6487310D01*
X17755311Y-6491737D01*
X17754754Y-6496185D01*
X17754326Y-6500653D01*
X17754029Y-6505137D01*
X17753862Y-6509635D01*
X17753883Y-6517879D01*
X17754327Y-6526016D01*
X17755185Y-6534036D01*
X17756445Y-6541929D01*
X17758097Y-6549682D01*
X17760131Y-6557287D01*
X17762535Y-6564732D01*
X17765300Y-6572006D01*
X17768415Y-6579100D01*
X17771869Y-6586003D01*
X17775651Y-6592704D01*
X17779752Y-6599192D01*
X17784160Y-6605457D01*
X17788865Y-6611489D01*
X17793857Y-6617277D01*
X17799124Y-6622810D01*
X17804657Y-6628077D01*
X17810444Y-6633069D01*
X17816476Y-6637774D01*
X17822741Y-6642183D01*
X17829230Y-6646283D01*
X17835930Y-6650066D01*
X17842833Y-6653520D01*
X17849927Y-6656635D01*
X17857202Y-6659400D01*
X17864647Y-6661805D01*
X17872252Y-6663839D01*
X17880006Y-6665491D01*
X17887898Y-6666751D01*
X17895919Y-6667609D01*
X17904057Y-6668053D01*
X17912301Y-6668074D01*
X17916799Y-6667906D01*
X17921283Y-6667608D01*
X17925751Y-6667180D01*
X17930199Y-6666622D01*
X17934626Y-6665936D01*
X17939029Y-6665121D01*
X17943404Y-6664180D01*
X17947748Y-6663112D01*
X17952060Y-6661918D01*
X17956337Y-6660600D01*
X17960575Y-6659157D01*
X17964772Y-6657590D01*
X17968925Y-6655901D01*
X17973031Y-6654089D01*
X17977088Y-6652156D01*
X17981093Y-6650102D01*
X17981174Y-6650063D01*
X17981257Y-6650031D01*
X17981341Y-6650006D01*
X17981426Y-6649988D01*
X17981512Y-6649977D01*
X17981598Y-6649972D01*
X17981684Y-6649975D01*
X17981770Y-6649984D01*
X17981854Y-6650000D01*
X17981937Y-6650023D01*
X17982019Y-6650052D01*
X17982098Y-6650088D01*
X17982174Y-6650130D01*
X17982247Y-6650178D01*
X17982317Y-6650233D01*
X17982383Y-6650294D01*
X18160117Y-6828577D01*
X18160156Y-6828615D01*
X18160193Y-6828654D01*
X18160228Y-6828695D01*
X18160261Y-6828737D01*
X18160291Y-6828780D01*
X18160319Y-6828825D01*
X18160344Y-6828870D01*
X18160368Y-6828917D01*
X18160389Y-6828964D01*
X18160407Y-6829012D01*
X18160424Y-6829061D01*
X18160438Y-6829110D01*
X18160449Y-6829160D01*
X18160459Y-6829210D01*
X18160466Y-6829261D01*
X18160470Y-6829312D01*
X18160473Y-6829363D01*
X18160473Y-6829414D01*
X18160470Y-6829465D01*
X18160465Y-6829516D01*
X18160458Y-6829567D01*
X18160448Y-6829618D01*
X18160436Y-6829668D01*
X18160422Y-6829718D01*
X18160405Y-6829767D01*
X18160386Y-6829815D01*
X18160364Y-6829863D01*
X18160340Y-6829910D01*
X18160314Y-6829956D01*
X18160285Y-6830001D01*
X18160253Y-6830045D01*
X18160219Y-6830088D01*
X18160183Y-6830129D01*
X18160146Y-6830168D01*
X18160107Y-6830205D01*
X18160066Y-6830240D01*
X18160024Y-6830272D01*
X18159981Y-6830302D01*
X18159937Y-6830330D01*
X18159892Y-6830355D01*
X18159846Y-6830379D01*
X18159799Y-6830400D01*
X18159751Y-6830418D01*
X18159702Y-6830435D01*
X18159653Y-6830449D01*
X18159603Y-6830461D01*
X18159553Y-6830470D01*
X18159502Y-6830477D01*
X18159451Y-6830482D01*
X18159400Y-6830484D01*
X18159349Y-6830484D01*
X18159297Y-6830482D01*
X18159246Y-6830477D01*
X18159195Y-6830470D01*
X18159145Y-6830460D01*
X18159094Y-6830448D01*
X18159044Y-6830434D01*
X18158995Y-6830417D01*
X18158946Y-6830397D01*
X18158898Y-6830376D01*
X18158851Y-6830351D01*
X18158804Y-6830325D01*
X18158759Y-6830295D01*
X18158714Y-6830264D01*
X18144680Y-6821163D01*
X18135694Y-6815843D01*
X18125421Y-6810169D01*
X18113879Y-6804257D01*
X18101087Y-6798227D01*
X18087065Y-6792197D01*
X18071832Y-6786285D01*
X18055406Y-6780609D01*
X18037807Y-6775288D01*
X18019053Y-6770440D01*
X17999163Y-6766184D01*
X17978157Y-6762637D01*
X17967242Y-6761166D01*
X17956054Y-6759918D01*
X17944597Y-6758906D01*
X17932872Y-6758145D01*
X17920882Y-6757651D01*
X17908630Y-6757437D01*
X17908564Y-6757437D01*
X17896004Y-6757119D01*
X17883609Y-6756177D01*
X17871394Y-6754625D01*
X17859375Y-6752478D01*
X17847566Y-6749753D01*
X17835984Y-6746464D01*
X17824643Y-6742627D01*
X17813559Y-6738257D01*
X17802747Y-6733369D01*
X17792223Y-6727979D01*
X17782002Y-6722102D01*
X17772099Y-6715753D01*
X17762529Y-6708949D01*
X17753309Y-6701703D01*
X17744452Y-6694032D01*
X17735976Y-6685950D01*
X17727894Y-6677473D01*
X17720222Y-6668617D01*
X17712976Y-6659397D01*
X17706171Y-6649827D01*
X17699823Y-6639924D01*
X17693945Y-6629703D01*
X17688555Y-6619179D01*
X17683667Y-6608367D01*
X17679297Y-6597283D01*
X17675460Y-6585942D01*
X17672170Y-6574359D01*
X17669445Y-6562550D01*
X17667298Y-6550531D01*
X17665746Y-6538315D01*
X17664804Y-6525920D01*
X17664486Y-6513359D01*
X17664656Y-6503893D01*
X17665163Y-6494548D01*
X17666004Y-6485325D01*
X17667175Y-6476228D01*
X17668671Y-6467259D01*
X17670490Y-6458420D01*
X17672628Y-6449715D01*
X17675080Y-6441144D01*
X17677844Y-6432712D01*
X17680914Y-6424420D01*
X17684289Y-6416271D01*
X17687963Y-6408268D01*
X17691933Y-6400412D01*
X17696196Y-6392708D01*
X17700747Y-6385156D01*
X17705582Y-6377760D01*
X17705618Y-6377708D01*
X17705655Y-6377659D01*
X17705695Y-6377612D01*
X17705738Y-6377567D01*
X17705783Y-6377525D01*
X17705830Y-6377486D01*
X17705879Y-6377449D01*
X17705930Y-6377415D01*
X17705983Y-6377384D01*
X17706037Y-6377356D01*
X17706093Y-6377331D01*
X17706150Y-6377309D01*
X17706209Y-6377290D01*
X17706269Y-6377274D01*
X17706330Y-6377262D01*
X17706392Y-6377253D01*
X17706454Y-6377248D01*
X17706516Y-6377246D01*
X17706578Y-6377247D01*
G37*
X17706578Y-6377247D02*
X17706640Y-6377252D01*
X17706700Y-6377261D01*
X17706761Y-6377272D01*
X17706820Y-6377287D01*
X17706878Y-6377305D01*
X17706936Y-6377327D01*
X17706992Y-6377351D01*
X17707047Y-6377379D01*
X17707100Y-6377409D01*
X17707152Y-6377443D01*
X17707202Y-6377480D01*
X17707250Y-6377519D01*
X17707296Y-6377561D01*
X17771622Y-6439520D01*
X17771655Y-6439553D01*
X17771686Y-6439587D01*
X17771716Y-6439622D01*
X17771744Y-6439658D01*
X17771770Y-6439695D01*
X17771795Y-6439733D01*
X17771818Y-6439772D01*
X17771839Y-6439811D01*
X17771859Y-6439851D01*
X17771876Y-6439892D01*
X17771893Y-6439933D01*
X17771907Y-6439975D01*
X17771920Y-6440017D01*
X17771931Y-6440060D01*
X17771948Y-6440147D01*
X17771958Y-6440235D01*
X17771961Y-6440279D01*
X17771961Y-6440323D01*
X17771960Y-6440368D01*
X17771957Y-6440412D01*
X17771952Y-6440456D01*
X17771946Y-6440501D01*
X17771937Y-6440545D01*
X17771927Y-6440588D01*
X17771915Y-6440632D01*
X17771901Y-6440675D01*
X17771886Y-6440718D01*
X17771868Y-6440760D01*
X17771849Y-6440802D01*
X17771827Y-6440843D01*
X17769774Y-6444848D01*
X17767841Y-6448905D01*
X17766029Y-6453011D01*
X17764340Y-6457164D01*
X17762773Y-6461361D01*
X17761331Y-6465599D01*
X17760012Y-6469876D01*
X17758819Y-6474188D01*
X17757751Y-6478532D01*
X17756810Y-6482907D01*
X17755997Y-6487310D01*
X17755311Y-6491737D01*
X17754754Y-6496185D01*
X17754326Y-6500653D01*
X17754029Y-6505137D01*
X17753862Y-6509635D01*
X17753883Y-6517879D01*
X17754327Y-6526016D01*
X17755185Y-6534036D01*
X17756445Y-6541929D01*
X17758097Y-6549682D01*
X17760131Y-6557287D01*
X17762535Y-6564732D01*
X17765300Y-6572006D01*
X17768415Y-6579100D01*
X17771869Y-6586003D01*
X17775651Y-6592704D01*
X17779752Y-6599192D01*
X17784160Y-6605457D01*
X17788865Y-6611489D01*
X17793857Y-6617277D01*
X17799124Y-6622810D01*
X17804657Y-6628077D01*
X17810444Y-6633069D01*
X17816476Y-6637774D01*
X17822741Y-6642183D01*
X17829230Y-6646283D01*
X17835930Y-6650066D01*
X17842833Y-6653520D01*
X17849927Y-6656635D01*
X17857202Y-6659400D01*
X17864647Y-6661805D01*
X17872252Y-6663839D01*
X17880006Y-6665491D01*
X17887898Y-6666751D01*
X17895919Y-6667609D01*
X17904057Y-6668053D01*
X17912301Y-6668074D01*
X17916799Y-6667906D01*
X17921283Y-6667608D01*
X17925751Y-6667180D01*
X17930199Y-6666622D01*
X17934626Y-6665936D01*
X17939029Y-6665121D01*
X17943404Y-6664180D01*
X17947748Y-6663112D01*
X17952060Y-6661918D01*
X17956337Y-6660600D01*
X17960575Y-6659157D01*
X17964772Y-6657590D01*
X17968925Y-6655901D01*
X17973031Y-6654089D01*
X17977088Y-6652156D01*
X17981093Y-6650102D01*
X17981174Y-6650063D01*
X17981257Y-6650031D01*
X17981341Y-6650006D01*
X17981426Y-6649988D01*
X17981512Y-6649977D01*
X17981598Y-6649972D01*
X17981684Y-6649975D01*
X17981770Y-6649984D01*
X17981854Y-6650000D01*
X17981937Y-6650023D01*
X17982019Y-6650052D01*
X17982098Y-6650088D01*
X17982174Y-6650130D01*
X17982247Y-6650178D01*
X17982317Y-6650233D01*
X17982383Y-6650294D01*
X18160117Y-6828577D01*
X18160156Y-6828615D01*
X18160193Y-6828654D01*
X18160228Y-6828695D01*
X18160261Y-6828737D01*
X18160291Y-6828780D01*
X18160319Y-6828825D01*
X18160344Y-6828870D01*
X18160368Y-6828917D01*
X18160389Y-6828964D01*
X18160407Y-6829012D01*
X18160424Y-6829061D01*
X18160438Y-6829110D01*
X18160449Y-6829160D01*
X18160459Y-6829210D01*
X18160466Y-6829261D01*
X18160470Y-6829312D01*
X18160473Y-6829363D01*
X18160473Y-6829414D01*
X18160470Y-6829465D01*
X18160465Y-6829516D01*
X18160458Y-6829567D01*
X18160448Y-6829618D01*
X18160436Y-6829668D01*
X18160422Y-6829718D01*
X18160405Y-6829767D01*
X18160386Y-6829815D01*
X18160364Y-6829863D01*
X18160340Y-6829910D01*
X18160314Y-6829956D01*
X18160285Y-6830001D01*
X18160253Y-6830045D01*
X18160219Y-6830088D01*
X18160183Y-6830129D01*
X18160146Y-6830168D01*
X18160107Y-6830205D01*
X18160066Y-6830240D01*
X18160024Y-6830272D01*
X18159981Y-6830302D01*
X18159937Y-6830330D01*
X18159892Y-6830355D01*
X18159846Y-6830379D01*
X18159799Y-6830400D01*
X18159751Y-6830418D01*
X18159702Y-6830435D01*
X18159653Y-6830449D01*
X18159603Y-6830461D01*
X18159553Y-6830470D01*
X18159502Y-6830477D01*
X18159451Y-6830482D01*
X18159400Y-6830484D01*
X18159349Y-6830484D01*
X18159297Y-6830482D01*
X18159246Y-6830477D01*
X18159195Y-6830470D01*
X18159145Y-6830460D01*
X18159094Y-6830448D01*
X18159044Y-6830434D01*
X18158995Y-6830417D01*
X18158946Y-6830397D01*
X18158898Y-6830376D01*
X18158851Y-6830351D01*
X18158804Y-6830325D01*
X18158759Y-6830295D01*
X18158714Y-6830264D01*
X18144680Y-6821163D01*
X18135694Y-6815843D01*
X18125421Y-6810169D01*
X18113879Y-6804257D01*
X18101087Y-6798227D01*
X18087065Y-6792197D01*
X18071832Y-6786285D01*
X18055406Y-6780609D01*
X18037807Y-6775288D01*
X18019053Y-6770440D01*
X17999163Y-6766184D01*
X17978157Y-6762637D01*
X17967242Y-6761166D01*
X17956054Y-6759918D01*
X17944597Y-6758906D01*
X17932872Y-6758145D01*
X17920882Y-6757651D01*
X17908630Y-6757437D01*
X17908564Y-6757437D01*
X17896004Y-6757119D01*
X17883609Y-6756177D01*
X17871394Y-6754625D01*
X17859375Y-6752478D01*
X17847566Y-6749753D01*
X17835984Y-6746464D01*
X17824643Y-6742627D01*
X17813559Y-6738257D01*
X17802747Y-6733369D01*
X17792223Y-6727979D01*
X17782002Y-6722102D01*
X17772099Y-6715753D01*
X17762529Y-6708949D01*
X17753309Y-6701703D01*
X17744452Y-6694032D01*
X17735976Y-6685950D01*
X17727894Y-6677473D01*
X17720222Y-6668617D01*
X17712976Y-6659397D01*
X17706171Y-6649827D01*
X17699823Y-6639924D01*
X17693945Y-6629703D01*
X17688555Y-6619179D01*
X17683667Y-6608367D01*
X17679297Y-6597283D01*
X17675460Y-6585942D01*
X17672170Y-6574359D01*
X17669445Y-6562550D01*
X17667298Y-6550531D01*
X17665746Y-6538315D01*
X17664804Y-6525920D01*
X17664486Y-6513359D01*
X17664656Y-6503893D01*
X17665163Y-6494548D01*
X17666004Y-6485325D01*
X17667175Y-6476228D01*
X17668671Y-6467259D01*
X17670490Y-6458420D01*
X17672628Y-6449715D01*
X17675080Y-6441144D01*
X17677844Y-6432712D01*
X17680914Y-6424420D01*
X17684289Y-6416271D01*
X17687963Y-6408268D01*
X17691933Y-6400412D01*
X17696196Y-6392708D01*
X17700747Y-6385156D01*
X17705582Y-6377760D01*
X17705618Y-6377708D01*
X17705655Y-6377659D01*
X17705695Y-6377612D01*
X17705738Y-6377567D01*
X17705783Y-6377525D01*
X17705830Y-6377486D01*
X17705879Y-6377449D01*
X17705930Y-6377415D01*
X17705983Y-6377384D01*
X17706037Y-6377356D01*
X17706093Y-6377331D01*
X17706150Y-6377309D01*
X17706209Y-6377290D01*
X17706269Y-6377274D01*
X17706330Y-6377262D01*
X17706392Y-6377253D01*
X17706454Y-6377248D01*
X17706516Y-6377246D01*
X17706578Y-6377247D01*
D11*
X13045238Y-5998928D02*
X12997619Y-5973928D01*
X13045238Y-5956071D02*
X12945238Y-5956071D01*
X12945238Y-5984643D01*
X12950000Y-5991786D01*
X12954762Y-5995357D01*
X12964286Y-5998928D01*
X12978571Y-5998928D01*
X12988095Y-5995357D01*
X12992857Y-5991786D01*
X12997619Y-5984643D01*
X12997619Y-5956071D01*
X13040476Y-6027500D02*
X13045238Y-6038214D01*
X13045238Y-6056071D01*
X13040476Y-6063214D01*
X13035714Y-6066786D01*
X13026190Y-6070357D01*
X13016667Y-6070357D01*
X13007143Y-6066786D01*
X13002381Y-6063214D01*
X12997619Y-6056071D01*
X12992857Y-6041786D01*
X12988095Y-6034643D01*
X12983333Y-6031071D01*
X12973809Y-6027500D01*
X12964286Y-6027500D01*
X12954762Y-6031071D01*
X12950000Y-6034643D01*
X12945238Y-6041786D01*
X12945238Y-6059643D01*
X12950000Y-6070357D01*
X12945238Y-6091786D02*
X12945238Y-6134643D01*
X13045238Y-6113214D02*
X12945238Y-6113214D01*
X13550000Y-5982857D02*
X13545238Y-5975714D01*
X13545238Y-5965000D01*
X13550000Y-5954286D01*
X13559524Y-5947143D01*
X13569048Y-5943571D01*
X13588095Y-5940000D01*
X13602381Y-5940000D01*
X13621428Y-5943571D01*
X13630952Y-5947143D01*
X13640476Y-5954286D01*
X13645238Y-5965000D01*
X13645238Y-5972143D01*
X13640476Y-5982857D01*
X13635714Y-5986428D01*
X13602381Y-5986428D01*
X13602381Y-5972143D01*
X13645238Y-6018571D02*
X13545238Y-6018571D01*
X13645238Y-6061428D01*
X13545238Y-6061428D01*
X13645238Y-6097143D02*
X13545238Y-6097143D01*
X13545238Y-6115000D01*
X13550000Y-6125714D01*
X13559524Y-6132857D01*
X13569048Y-6136428D01*
X13588095Y-6140000D01*
X13602381Y-6140000D01*
X13621428Y-6136428D01*
X13630952Y-6132857D01*
X13640476Y-6125714D01*
X13645238Y-6115000D01*
X13645238Y-6097143D01*
X13240476Y-5948214D02*
X13245238Y-5958928D01*
X13245238Y-5976786D01*
X13240476Y-5983928D01*
X13235714Y-5987500D01*
X13226190Y-5991071D01*
X13216667Y-5991071D01*
X13207143Y-5987500D01*
X13202381Y-5983928D01*
X13197619Y-5976786D01*
X13192857Y-5962500D01*
X13188095Y-5955357D01*
X13183333Y-5951786D01*
X13173809Y-5948214D01*
X13164286Y-5948214D01*
X13154762Y-5951786D01*
X13150000Y-5955357D01*
X13145238Y-5962500D01*
X13145238Y-5980357D01*
X13150000Y-5991071D01*
X13145238Y-6016071D02*
X13245238Y-6033928D01*
X13173809Y-6048214D01*
X13245238Y-6062500D01*
X13145238Y-6080357D01*
X13245238Y-6108928D02*
X13145238Y-6108928D01*
X13145238Y-6126786D01*
X13150000Y-6137500D01*
X13159524Y-6144643D01*
X13169048Y-6148214D01*
X13188095Y-6151786D01*
X13202381Y-6151786D01*
X13221428Y-6148214D01*
X13230952Y-6144643D01*
X13240476Y-6137500D01*
X13245238Y-6126786D01*
X13245238Y-6108928D01*
X13435714Y-5995357D02*
X13440476Y-5991786D01*
X13445238Y-5981071D01*
X13445238Y-5973928D01*
X13440476Y-5963214D01*
X13430952Y-5956071D01*
X13421428Y-5952500D01*
X13402381Y-5948928D01*
X13388095Y-5948928D01*
X13369048Y-5952500D01*
X13359524Y-5956071D01*
X13350000Y-5963214D01*
X13345238Y-5973928D01*
X13345238Y-5981071D01*
X13350000Y-5991786D01*
X13354762Y-5995357D01*
X13445238Y-6063214D02*
X13445238Y-6027500D01*
X13345238Y-6027500D01*
X13445238Y-6088214D02*
X13345238Y-6088214D01*
X13445238Y-6131071D02*
X13388095Y-6098928D01*
X13345238Y-6131071D02*
X13402381Y-6088214D01*
X12745238Y-5950714D02*
X12745238Y-5997143D01*
X12783333Y-5972143D01*
X12783333Y-5982857D01*
X12788095Y-5990000D01*
X12792857Y-5993571D01*
X12802381Y-5997143D01*
X12826190Y-5997143D01*
X12835714Y-5993571D01*
X12840476Y-5990000D01*
X12845238Y-5982857D01*
X12845238Y-5961428D01*
X12840476Y-5954286D01*
X12835714Y-5950714D01*
X12778571Y-6022143D02*
X12845238Y-6040000D01*
X12778571Y-6057857D01*
X12745238Y-6079286D02*
X12745238Y-6125714D01*
X12783333Y-6100714D01*
X12783333Y-6111428D01*
X12788095Y-6118571D01*
X12792857Y-6122143D01*
X12802381Y-6125714D01*
X12826190Y-6125714D01*
X12835714Y-6122143D01*
X12840476Y-6118571D01*
X12845238Y-6111428D01*
X12845238Y-6090000D01*
X12840476Y-6082857D01*
X12835714Y-6079286D01*
%TO.C,SW2*%
X15483333Y-9065476D02*
X15469048Y-9070238D01*
X15445238Y-9070238D01*
X15435714Y-9065476D01*
X15430952Y-9060714D01*
X15426190Y-9051190D01*
X15426190Y-9041667D01*
X15430952Y-9032143D01*
X15435714Y-9027381D01*
X15445238Y-9022619D01*
X15464286Y-9017857D01*
X15473809Y-9013095D01*
X15478571Y-9008333D01*
X15483333Y-8998810D01*
X15483333Y-8989286D01*
X15478571Y-8979762D01*
X15473809Y-8975000D01*
X15464286Y-8970238D01*
X15440476Y-8970238D01*
X15426190Y-8975000D01*
X15392857Y-8970238D02*
X15369048Y-9070238D01*
X15350000Y-8998810D01*
X15330952Y-9070238D01*
X15307143Y-8970238D01*
X15273809Y-8979762D02*
X15269048Y-8975000D01*
X15259524Y-8970238D01*
X15235714Y-8970238D01*
X15226190Y-8975000D01*
X15221428Y-8979762D01*
X15216667Y-8989286D01*
X15216667Y-8998810D01*
X15221428Y-9013095D01*
X15278571Y-9070238D01*
X15216667Y-9070238D01*
%TO.C,S3*%
X17059940Y-9771976D02*
X17045655Y-9776738D01*
X17021845Y-9776738D01*
X17012321Y-9771976D01*
X17007560Y-9767214D01*
X17002798Y-9757690D01*
X17002798Y-9748167D01*
X17007560Y-9738643D01*
X17012321Y-9733881D01*
X17021845Y-9729119D01*
X17040893Y-9724357D01*
X17050417Y-9719595D01*
X17055179Y-9714833D01*
X17059940Y-9705310D01*
X17059940Y-9695786D01*
X17055179Y-9686262D01*
X17050417Y-9681500D01*
X17040893Y-9676738D01*
X17017083Y-9676738D01*
X17002798Y-9681500D01*
X16969464Y-9676738D02*
X16907560Y-9676738D01*
X16940893Y-9714833D01*
X16926607Y-9714833D01*
X16917083Y-9719595D01*
X16912321Y-9724357D01*
X16907560Y-9733881D01*
X16907560Y-9757690D01*
X16912321Y-9767214D01*
X16917083Y-9771976D01*
X16926607Y-9776738D01*
X16955179Y-9776738D01*
X16964702Y-9771976D01*
X16969464Y-9767214D01*
%TO.C,S1*%
X13958690Y-9771976D02*
X13944405Y-9776738D01*
X13920595Y-9776738D01*
X13911071Y-9771976D01*
X13906309Y-9767214D01*
X13901548Y-9757690D01*
X13901548Y-9748167D01*
X13906309Y-9738643D01*
X13911071Y-9733881D01*
X13920595Y-9729119D01*
X13939643Y-9724357D01*
X13949167Y-9719595D01*
X13953928Y-9714833D01*
X13958690Y-9705310D01*
X13958690Y-9695786D01*
X13953928Y-9686262D01*
X13949167Y-9681500D01*
X13939643Y-9676738D01*
X13915833Y-9676738D01*
X13901548Y-9681500D01*
X13806309Y-9776738D02*
X13863452Y-9776738D01*
X13834881Y-9776738D02*
X13834881Y-9676738D01*
X13844405Y-9691024D01*
X13853928Y-9700548D01*
X13863452Y-9705310D01*
%TO.C,SW7*%
X17388333Y-9065476D02*
X17374048Y-9070238D01*
X17350238Y-9070238D01*
X17340714Y-9065476D01*
X17335952Y-9060714D01*
X17331190Y-9051190D01*
X17331190Y-9041667D01*
X17335952Y-9032143D01*
X17340714Y-9027381D01*
X17350238Y-9022619D01*
X17369286Y-9017857D01*
X17378810Y-9013095D01*
X17383571Y-9008333D01*
X17388333Y-8998810D01*
X17388333Y-8989286D01*
X17383571Y-8979762D01*
X17378810Y-8975000D01*
X17369286Y-8970238D01*
X17345476Y-8970238D01*
X17331190Y-8975000D01*
X17297857Y-8970238D02*
X17274048Y-9070238D01*
X17255000Y-8998810D01*
X17235952Y-9070238D01*
X17212143Y-8970238D01*
X17183571Y-8970238D02*
X17116905Y-8970238D01*
X17159762Y-9070238D01*
%TO.C,SW1*%
X13583333Y-9065476D02*
X13569048Y-9070238D01*
X13545238Y-9070238D01*
X13535714Y-9065476D01*
X13530952Y-9060714D01*
X13526190Y-9051190D01*
X13526190Y-9041667D01*
X13530952Y-9032143D01*
X13535714Y-9027381D01*
X13545238Y-9022619D01*
X13564286Y-9017857D01*
X13573809Y-9013095D01*
X13578571Y-9008333D01*
X13583333Y-8998810D01*
X13583333Y-8989286D01*
X13578571Y-8979762D01*
X13573809Y-8975000D01*
X13564286Y-8970238D01*
X13540476Y-8970238D01*
X13526190Y-8975000D01*
X13492857Y-8970238D02*
X13469048Y-9070238D01*
X13450000Y-8998810D01*
X13430952Y-9070238D01*
X13407143Y-8970238D01*
X13316667Y-9070238D02*
X13373809Y-9070238D01*
X13345238Y-9070238D02*
X13345238Y-8970238D01*
X13354762Y-8984524D01*
X13364286Y-8994048D01*
X13373809Y-8998810D01*
%TO.C,S2*%
X15508690Y-9776976D02*
X15494405Y-9781738D01*
X15470595Y-9781738D01*
X15461071Y-9776976D01*
X15456309Y-9772214D01*
X15451548Y-9762690D01*
X15451548Y-9753167D01*
X15456309Y-9743643D01*
X15461071Y-9738881D01*
X15470595Y-9734119D01*
X15489643Y-9729357D01*
X15499167Y-9724595D01*
X15503928Y-9719833D01*
X15508690Y-9710310D01*
X15508690Y-9700786D01*
X15503928Y-9691262D01*
X15499167Y-9686500D01*
X15489643Y-9681738D01*
X15465833Y-9681738D01*
X15451548Y-9686500D01*
X15413452Y-9691262D02*
X15408690Y-9686500D01*
X15399167Y-9681738D01*
X15375357Y-9681738D01*
X15365833Y-9686500D01*
X15361071Y-9691262D01*
X15356309Y-9700786D01*
X15356309Y-9710310D01*
X15361071Y-9724595D01*
X15418214Y-9781738D01*
X15356309Y-9781738D01*
D12*
%TO.C,SW2*%
X16110000Y-7415000D02*
X16110000Y-8935000D01*
X16110000Y-8935000D02*
X14590000Y-8935000D01*
X14590000Y-7415000D02*
X16110000Y-7415000D01*
X14590000Y-8935000D02*
X14590000Y-7415000D01*
D13*
%TO.C,S3*%
X16676250Y-10350000D02*
X17126250Y-10350000D01*
X17156250Y-9977000D02*
X17156250Y-10213000D01*
X16676250Y-9840000D02*
X17126250Y-9840000D01*
X16646250Y-10213000D02*
X16646250Y-9977000D01*
D14*
X17336250Y-9907500D02*
G75*
G03*
X17336250Y-9907500I-10000J0D01*
G01*
%TO.C,kibuzzard-63119D36*%
G36*
X16954384Y-5839206D02*
G01*
X17429139Y-5839206D01*
X17495616Y-6060794D01*
X17020861Y-6060794D01*
X16996433Y-5979369D01*
X17072124Y-5979369D01*
X17093238Y-5979369D01*
X17093238Y-6007944D01*
X17101016Y-6007944D01*
X17176899Y-6007944D01*
X17185948Y-6007944D01*
X17185948Y-5988417D01*
X17176899Y-5988417D01*
X17176899Y-6007944D01*
X17101016Y-6007944D01*
X17101016Y-5979369D01*
X17158960Y-5979369D01*
X17158960Y-5972542D01*
X17142731Y-5950000D01*
X17209284Y-5950000D01*
X17209919Y-5963953D01*
X17211824Y-5976045D01*
X17214999Y-5986277D01*
X17219444Y-5994648D01*
X17225159Y-6001160D01*
X17232144Y-6005810D01*
X17240399Y-6008601D01*
X17249924Y-6009531D01*
X17259486Y-6008601D01*
X17267773Y-6005810D01*
X17274786Y-6001160D01*
X17280523Y-5994648D01*
X17284985Y-5986277D01*
X17288173Y-5976045D01*
X17290085Y-5963953D01*
X17290723Y-5950000D01*
X17290085Y-5936047D01*
X17288400Y-5925394D01*
X17304375Y-5925394D01*
X17335808Y-6007944D01*
X17346444Y-6007944D01*
X17377876Y-5925394D01*
X17369621Y-5925394D01*
X17341205Y-6003022D01*
X17340888Y-6003022D01*
X17312471Y-5925394D01*
X17304375Y-5925394D01*
X17288400Y-5925394D01*
X17288173Y-5923955D01*
X17284985Y-5913723D01*
X17280523Y-5905352D01*
X17274786Y-5898840D01*
X17267773Y-5894189D01*
X17259486Y-5891399D01*
X17249924Y-5890469D01*
X17240399Y-5891399D01*
X17232144Y-5894189D01*
X17225159Y-5898840D01*
X17219444Y-5905352D01*
X17214999Y-5913723D01*
X17211824Y-5923955D01*
X17209919Y-5936047D01*
X17209284Y-5950000D01*
X17142731Y-5950000D01*
X17101016Y-5892056D01*
X17093238Y-5892056D01*
X17093238Y-5972542D01*
X17072124Y-5972542D01*
X17072124Y-5979369D01*
X16996433Y-5979369D01*
X16954384Y-5839206D01*
G37*
G36*
X17258642Y-5898371D02*
G01*
X17266019Y-5901597D01*
X17272055Y-5906975D01*
X17276749Y-5914505D01*
X17280102Y-5924185D01*
X17282114Y-5936017D01*
X17282785Y-5950000D01*
X17282114Y-5963983D01*
X17280102Y-5975815D01*
X17276749Y-5985495D01*
X17272055Y-5993024D01*
X17266019Y-5998403D01*
X17258642Y-6001629D01*
X17249924Y-6002705D01*
X17239931Y-6001276D01*
X17231756Y-5996990D01*
X17225397Y-5989846D01*
X17221820Y-5982534D01*
X17219265Y-5973455D01*
X17217732Y-5962611D01*
X17217221Y-5950000D01*
X17217732Y-5937389D01*
X17219265Y-5926545D01*
X17221820Y-5917466D01*
X17225397Y-5910154D01*
X17231756Y-5903010D01*
X17239931Y-5898724D01*
X17249924Y-5897295D01*
X17258642Y-5898371D01*
G37*
G36*
X17150546Y-5972225D02*
G01*
X17150546Y-5972542D01*
X17101016Y-5972542D01*
X17101016Y-5904121D01*
X17101334Y-5904121D01*
X17150546Y-5972225D01*
G37*
D13*
%TO.C,S1*%
X13575000Y-10350000D02*
X14025000Y-10350000D01*
X13545000Y-10213000D02*
X13545000Y-9977000D01*
X13575000Y-9840000D02*
X14025000Y-9840000D01*
X14055000Y-9977000D02*
X14055000Y-10213000D01*
D14*
X14235000Y-9907500D02*
G75*
G03*
X14235000Y-9907500I-10000J0D01*
G01*
D12*
%TO.C,SW7*%
X16495000Y-7415000D02*
X18015000Y-7415000D01*
X18015000Y-7415000D02*
X18015000Y-8935000D01*
X18015000Y-8935000D02*
X16495000Y-8935000D01*
X16495000Y-8935000D02*
X16495000Y-7415000D01*
%TO.C,SW1*%
X14210000Y-8935000D02*
X12690000Y-8935000D01*
X14210000Y-7415000D02*
X14210000Y-8935000D01*
X12690000Y-8935000D02*
X12690000Y-7415000D01*
X12690000Y-7415000D02*
X14210000Y-7415000D01*
D13*
%TO.C,S2*%
X15125000Y-10355000D02*
X15575000Y-10355000D01*
X15605000Y-9982000D02*
X15605000Y-10218000D01*
X15095000Y-10218000D02*
X15095000Y-9982000D01*
X15125000Y-9845000D02*
X15575000Y-9845000D01*
D14*
X15785000Y-9912500D02*
G75*
G03*
X15785000Y-9912500I-10000J0D01*
G01*
%TO.C,kibuzzard-63119D27*%
G36*
X17470805Y-5839206D02*
G01*
X18062718Y-5839206D01*
X18129195Y-6060794D01*
X17537282Y-6060794D01*
X17521427Y-6007944D01*
X17588545Y-6007944D01*
X17597594Y-6007944D01*
X17660300Y-5904121D01*
X17660618Y-5904121D01*
X17660618Y-6007944D01*
X17668396Y-6007944D01*
X17668396Y-5950000D01*
X17689193Y-5950000D01*
X17690006Y-5963340D01*
X17692447Y-5975102D01*
X17696515Y-5985287D01*
X17702210Y-5993894D01*
X17709344Y-6000735D01*
X17717728Y-6005622D01*
X17727362Y-6008554D01*
X17738246Y-6009531D01*
X17749126Y-6008559D01*
X17758745Y-6005642D01*
X17767104Y-6000780D01*
X17774203Y-5993974D01*
X17779864Y-5985391D01*
X17783907Y-5975202D01*
X17785172Y-5969050D01*
X17806350Y-5969050D01*
X17807470Y-5981300D01*
X17810830Y-5991381D01*
X17816431Y-5999292D01*
X17824130Y-6004980D01*
X17833787Y-6008393D01*
X17845403Y-6009531D01*
X17857027Y-6008393D01*
X17858302Y-6007944D01*
X17910966Y-6007944D01*
X17918904Y-6007944D01*
X17918904Y-5904439D01*
X17919221Y-5904439D01*
X17957321Y-5970955D01*
X17965259Y-5970955D01*
X18003359Y-5904439D01*
X18003676Y-5904439D01*
X18003676Y-6007944D01*
X18011455Y-6007944D01*
X18011455Y-5892056D01*
X18002406Y-5892056D01*
X17961449Y-5963494D01*
X17961131Y-5963494D01*
X17920174Y-5892056D01*
X17910966Y-5892056D01*
X17910966Y-6007944D01*
X17858302Y-6007944D01*
X17866710Y-6004980D01*
X17874454Y-5999292D01*
X17880098Y-5991381D01*
X17883485Y-5981300D01*
X17884614Y-5969050D01*
X17884614Y-5892056D01*
X17876518Y-5892056D01*
X17876518Y-5969367D01*
X17875273Y-5981312D01*
X17871539Y-5990602D01*
X17865316Y-5997238D01*
X17856604Y-6001219D01*
X17845403Y-6002546D01*
X17834144Y-6001219D01*
X17825387Y-5997238D01*
X17819133Y-5990602D01*
X17815380Y-5981312D01*
X17814129Y-5969367D01*
X17814129Y-5892056D01*
X17806350Y-5892056D01*
X17806350Y-5969050D01*
X17785172Y-5969050D01*
X17786333Y-5963404D01*
X17787141Y-5950000D01*
X17786333Y-5936595D01*
X17783907Y-5924798D01*
X17779864Y-5914609D01*
X17774203Y-5906026D01*
X17767104Y-5899220D01*
X17758745Y-5894358D01*
X17749126Y-5891441D01*
X17738246Y-5890469D01*
X17727362Y-5891446D01*
X17717728Y-5894378D01*
X17709344Y-5899264D01*
X17702210Y-5906106D01*
X17696515Y-5914713D01*
X17692447Y-5924898D01*
X17690006Y-5936660D01*
X17689193Y-5950000D01*
X17668396Y-5950000D01*
X17668396Y-5892056D01*
X17659189Y-5892056D01*
X17596641Y-5995879D01*
X17596324Y-5995879D01*
X17596324Y-5892056D01*
X17588545Y-5892056D01*
X17588545Y-6007944D01*
X17521427Y-6007944D01*
X17470805Y-5839206D01*
G37*
G36*
X17750355Y-5898794D02*
G01*
X17760436Y-5903292D01*
X17768488Y-5910789D01*
X17773107Y-5918300D01*
X17776406Y-5927338D01*
X17778385Y-5937905D01*
X17779045Y-5950000D01*
X17778385Y-5962095D01*
X17776406Y-5972662D01*
X17773107Y-5981700D01*
X17768488Y-5989211D01*
X17760436Y-5996708D01*
X17750355Y-6001206D01*
X17738246Y-6002705D01*
X17726128Y-6001206D01*
X17716021Y-5996708D01*
X17707925Y-5989211D01*
X17703272Y-5981700D01*
X17699948Y-5972662D01*
X17697954Y-5962095D01*
X17697289Y-5950000D01*
X17697954Y-5937905D01*
X17699948Y-5927338D01*
X17703272Y-5918300D01*
X17707925Y-5910789D01*
X17716021Y-5903292D01*
X17726128Y-5898794D01*
X17738246Y-5897295D01*
X17750355Y-5898794D01*
G37*
%TD*%
M02*
